<?xml version="1.0" encoding="UTF-8" standalone="no"?>
<!-- Created with Inkscape (http://www.inkscape.org/) -->

<svg
   xmlns:dc="http://purl.org/dc/elements/1.1/"
   xmlns:cc="http://creativecommons.org/ns#"
   xmlns:rdf="http://www.w3.org/1999/02/22-rdf-syntax-ns#"
   xmlns:svg="http://www.w3.org/2000/svg"
   xmlns="http://www.w3.org/2000/svg"
   xmlns:sodipodi="http://sodipodi.sourceforge.net/DTD/sodipodi-0.dtd"
   xmlns:inkscape="http://www.inkscape.org/namespaces/inkscape"
   version="1.1"
   id="svg2"
   width="256"
   height="256"
   viewBox="0 0 256 256"
   sodipodi:docname="albaduz.svg"
   inkscape:version="0.92.4 (5da689c313, 2019-01-14)">
  <metadata
     id="metadata8">
    <rdf:RDF>
      <cc:Work
         rdf:about="">
        <dc:format>image/svg+xml</dc:format>
        <dc:type
           rdf:resource="http://purl.org/dc/dcmitype/StillImage" />
        <dc:title />
      </cc:Work>
    </rdf:RDF>
  </metadata>
  <defs
     id="defs6" />
  <sodipodi:namedview
     pagecolor="#ffffff"
     bordercolor="#666666"
     borderopacity="1"
     objecttolerance="10"
     gridtolerance="10"
     guidetolerance="10"
     inkscape:pageopacity="0"
     inkscape:pageshadow="2"
     inkscape:window-width="1366"
     inkscape:window-height="705"
     id="namedview4"
     showgrid="false"
     inkscape:zoom="1.5743131"
     inkscape:cx="76.147777"
     inkscape:cy="120.29972"
     inkscape:window-x="-8"
     inkscape:window-y="-8"
     inkscape:window-maximized="1"
     inkscape:current-layer="svg2"
     inkscape:pagecheckerboard="true" />
  <g
     id="g835"
     transform="matrix(0.96945939,0,0,0.96945939,3.914842,16.909899)">
    <path
       inkscape:connector-curvature="0"
       id="path819-2"
       d="m 119.93265,13.38713 c -38.174528,0.626197 -51.121468,28.920434 -71.652318,27.468754 2.46545,4.65896 4.62147,10.60164 6.15625,17.25586 h -23.42969 l 11.94531,20.57226 -11.28125,17.917971 23.22852,-0.0801 c -0.49127,2.17791 -1.08158,4.339955 -1.78516,6.470695 -6.55536,19.85245 -14.23568,8.41256 -15.45117,56.65235 19.02386,46.89603 44.0185,61.93839 71.005838,82.95312 l 19.24609,-0.33593 19.24414,0.33593 c 26.98735,-21.01473 51.98396,-36.05709 71.00783,-82.95312 -1.21549,-48.23979 -8.89582,-36.7999 -15.45118,-56.65235 -0.75778,-2.29488 -1.38035,-4.626155 -1.89257,-6.974605 l 23.29882,-0.0801 -11.94531,-17.253911 12.60938,-20.57226 H 201.3936 c 1.53477,-6.65422 3.6908,-12.5969 6.15625,-17.25586 -20.53086,1.45168 -33.4778,-26.842557 -71.65236,-27.468754 -2.54497,-0.04175 -5.20351,0.03855 -7.98242,0.259765 -2.77892,-0.221208 -5.43745,-0.301512 -7.98242,-0.259765 z m 68.53907,82.673825 c 3.67625,14.269895 12.06976,26.452395 14.08789,34.072265 3.95873,7.6657 10.38845,27.11026 -11.23632,51.13867 A 63.773694,36.167464 0 0 0 127.91507,148.6215 63.773694,36.167464 0 0 0 64.458052,181.2172 c -21.56618,-24.00337 -15.14521,-43.42406 -11.18944,-51.08398 1.99839,-7.54533 10.24968,-19.56473 13.98046,-33.654295 z"
       style="fill:#ffffff;fill-opacity:1;stroke:#ffffff;stroke-width:8;stroke-linecap:butt;stroke-linejoin:miter;stroke-miterlimit:4;stroke-dasharray:none;stroke-opacity:1" />
    <g
       id="g864">
      <path
         style="fill:#000080;fill-opacity:1;stroke:#ffffff;stroke-width:1;stroke-linecap:butt;stroke-linejoin:miter;stroke-miterlimit:4;stroke-dasharray:none;stroke-opacity:1"
         d="M 31.092992,58.121521 H 224.87097 L 212.26213,78.69384 224.20734,95.948027 31.756612,96.611661 43.038216,78.69384 Z"
         id="path819"
         inkscape:connector-curvature="0" />
      <path
         style="opacity:1;fill:#fff604;fill-opacity:1;fill-rule:evenodd;stroke:none;stroke-width:2.95500112;stroke-linecap:square;stroke-linejoin:round;stroke-miterlimit:4;stroke-dasharray:none;stroke-opacity:1;paint-order:stroke fill markers"
         d="m 68.273926,74.465319 c 4.981438,23.204522 -11.937274,44.418291 -14.919299,55.677551 -3.955771,7.65993 -10.378156,27.08008 11.188034,51.08344 a 63.773694,36.167464 0 0 1 63.457509,-32.59448 63.773694,36.167464 0 0 1 63.40843,32.64931 c 21.62477,-24.0284 15.19581,-43.47257 11.23708,-51.13827 -2.98204,-11.25926 -19.9007,-32.473029 -14.91928,-55.677551 h -59.72623 z"
         id="rect878"
         inkscape:connector-curvature="0" />
      <g
         id="g2167"
         style="fill:#000080;fill-opacity:1;stroke:#000080;stroke-width:4;stroke-miterlimit:4;stroke-dasharray:none;stroke-opacity:1"
         transform="translate(-12.573169,-0.24777173)">
        <rect
           y="72.296608"
           x="96.567795"
           height="100.23776"
           width="14.327213"
           id="rect2137"
           style="opacity:1;fill:#000080;fill-opacity:1;fill-rule:evenodd;stroke:#000080;stroke-width:4;stroke-linecap:square;stroke-linejoin:round;stroke-miterlimit:4;stroke-dasharray:none;stroke-opacity:1;paint-order:stroke fill markers" />
        <rect
           y="72.296608"
           x="133.40973"
           height="100.23776"
           width="14.327213"
           id="rect2137-5"
           style="opacity:1;fill:#000080;fill-opacity:1;fill-rule:evenodd;stroke:#000080;stroke-width:4;stroke-linecap:square;stroke-linejoin:round;stroke-miterlimit:4;stroke-dasharray:none;stroke-opacity:1;paint-order:stroke fill markers" />
        <rect
           y="72.296608"
           x="170.25165"
           height="100.23776"
           width="14.327213"
           id="rect2137-1"
           style="opacity:1;fill:#000080;fill-opacity:1;fill-rule:evenodd;stroke:#000080;stroke-width:4;stroke-linecap:square;stroke-linejoin:round;stroke-miterlimit:4;stroke-dasharray:none;stroke-opacity:1;paint-order:stroke fill markers" />
      </g>
      <path
         style="fill:#000080;fill-opacity:1;stroke:#ffffff;stroke-width:1;stroke-linecap:butt;stroke-linejoin:miter;stroke-miterlimit:4;stroke-dasharray:none;stroke-opacity:1"
         d="M 120.0182,13.397219 C 81.843661,14.023416 68.896042,42.318283 48.365182,40.86661 c 7.456206,14.089961 12.219875,39.767168 4.833628,62.13583 -6.55536,19.85245 -14.234787,8.41313 -15.450268,56.65292 19.023854,46.89603 44.019249,61.93885 71.006598,82.95358 l 19.24503,-0.33764 19.24502,0.33764 c 26.98734,-21.01473 51.98272,-36.05755 71.00659,-82.95358 -1.21549,-48.23979 -8.89491,-36.80047 -15.45027,-56.65292 -7.38624,-22.368661 -2.62257,-48.045869 4.83363,-62.13583 -20.53086,1.451673 -33.47846,-26.843194 -71.65301,-27.469391 -2.54497,-0.04175 -5.20305,0.0385 -7.98196,0.259716 -2.77892,-0.221208 -5.437,-0.301463 -7.98197,-0.259716 z m -51.744274,61.0681 h 59.726244 59.72623 c -4.98144,23.204493 11.93724,44.418271 14.91928,55.677541 3.95873,7.6657 10.3877,27.10985 -11.23707,51.13826 A 63.773694,36.167464 0 0 0 128.00017,148.63181 63.773694,36.167464 0 0 0 64.542661,181.22629 C 42.976471,157.22292 49.398871,137.80278 53.354642,130.14286 56.336667,118.88359 73.255364,97.669812 68.273926,74.465319 Z"
         id="path817"
         inkscape:connector-curvature="0" />
      <text
         xml:space="preserve"
         style="font-style:normal;font-variant:normal;font-weight:normal;font-stretch:normal;font-size:33.94398499px;line-height:1.25;font-family:'Digital Dismay';-inkscape-font-specification:'Digital Dismay';letter-spacing:0px;word-spacing:0px;fill:#000000;fill-opacity:1;stroke:none;stroke-width:0.39778104"
         x="66.019165"
         y="62.373981"
         id="text983"><tspan
           sodipodi:role="line"
           id="tspan981"
           x="66.019165"
           y="62.373981"
           style="font-style:normal;font-variant:normal;font-weight:normal;font-stretch:normal;font-family:Harrington;-inkscape-font-specification:Harrington;fill:#ffff00;stroke-width:0.39778104">Albaduz</tspan></text>
      <path
         id="path916"
         style="fill:#ffff00;stroke-width:0.12767708"
         d="m 131.8194,225.88562 c -0.9346,-0.56584 -2.48006,-1.16321 -3.28596,-1.27011 -0.93345,-0.12378 -1.81897,0.13046 -2.80513,0.80579 -1.46157,1.00074 -2.26027,0.88 -2.8394,-0.42927 -0.1789,-0.40454 -0.34158,-0.56682 -0.68,-0.67852 -0.48121,-0.1589 -0.60542,-0.12756 -2.26132,0.56978 -1.07416,0.45229 -2.17917,0.54521 -3.04892,0.25633 -0.36074,-0.11979 -0.65589,-0.26256 -0.65589,-0.31718 0,-0.0547 0.33038,-0.31696 0.73414,-0.58293 4.33821,-2.8576 6.68469,-6.26019 7.1915,-10.42828 0.15868,-1.30552 0.10156,-2.24669 -0.29693,-4.89241 -0.21557,-1.43072 -0.27284,-2.45002 -0.28726,-5.10709 -0.0111,-1.82577 -0.0653,-3.49196 -0.1229,-3.70264 -0.44032,-1.608 -2.33403,-3.16764 -4.87539,-4.0153 -0.98893,-0.32985 -1.36247,-0.38956 -2.43734,-0.38956 -1.53029,0 -2.61172,0.25351 -4.62991,1.08527 -2.81455,1.15997 -4.57247,1.35928 -6.83072,0.77439 l -1.14908,-0.29762 -1.43636,0.32856 c -0.79353,0.18157 -1.43637,0.39342 -1.43637,0.4735 0,0.0798 0.14423,0.28048 0.32062,0.44614 0.48601,0.45659 0.64111,1.19168 0.38763,1.83715 -0.11312,0.28793 -0.34927,0.69589 -0.52488,0.90657 l -0.31927,0.38303 -0.37211,-0.40934 c -0.436834,-0.48054 -0.708724,-1.2828 -0.592164,-1.74728 0.0453,-0.18068 0.25398,-0.52377 0.463644,-0.76254 0.20957,-0.23879 0.38118,-0.50226 0.38118,-0.58548 0,-0.20402 -0.323,-0.098 -1.780134,0.58477 l -1.20557,0.56491 0.4677,0.45427 c 0.59006,0.57315 0.70536,1.11301 0.40538,1.89845 -0.12289,0.32182 -0.28148,0.621 -0.35242,0.66484 -0.0709,0.0438 -0.34971,-0.1569 -0.61947,-0.4461 -0.57824,-0.61991 -0.65044,-1.2293 -0.22774,-1.92262 0.14401,-0.23615 0.24112,-0.44996 0.21601,-0.47519 -0.0251,-0.0251 -0.32993,0.14424 -0.67718,0.37643 -0.34725,0.23224 -0.8037,0.52372 -1.01438,0.64771 -0.36683,0.21579 -0.36432,0.20868 0.0591,-0.17046 0.46684,-0.41814 0.45777,-0.43236 -0.2553,-0.40051 -0.5504,0.0247 -1.10072,-0.37056 -1.3513,-0.97036 -0.31895,-0.76334 -0.26299,-0.84804 0.49426,-0.74767 0.79661,0.10556 1.33005,0.53646 1.44899,1.17041 0.0438,0.23348 0.10845,0.42452 0.14356,0.42452 0.0353,0 0.38992,-0.24419 0.78826,-0.54264 0.39834,-0.29844 0.86195,-0.63322 1.03027,-0.74396 0.29902,-0.19668 0.29118,-0.20113 -0.34202,-0.19157 -0.47712,0.007 -0.72372,-0.0576 -0.93502,-0.24553 -0.31831,-0.28324 -0.77957,-1.20828 -0.68154,-1.36687 0.10779,-0.17446 1.07452,-0.11067 1.51864,0.10001 0.38434,0.18245 0.82715,0.81968 0.82715,1.19043 0,0.20735 0.2029,0.17268 0.80307,-0.13756 0.29565,-0.1529 1.107954,-0.45965 1.805154,-0.68191 l 1.2676,-0.40408 -1.13992,-0.41265 c -1.708284,-0.61837 -2.858424,-0.75078 -4.337064,-0.49921 -1.09745,0.18668 -1.27738,0.25995 -2.06674,0.84141 -0.47555,0.35032 -1.19744,0.82317 -1.60423,1.05085 -0.71307,0.39912 -0.73249,0.42368 -0.54175,0.68594 0.1089,0.14957 0.29147,0.40316 0.4059,0.56346 0.29077,0.40734 0.26195,1.19691 -0.0625,1.70814 -0.54959,0.86626 -0.48799,0.82351 -0.79108,0.5492 -0.753118,-0.68156 -0.852628,-1.71532 -0.2331,-2.42095 0.22001,-0.25057 0.36707,-0.48857 0.32678,-0.52884 -0.15313,-0.15312 -1.588338,0.80084 -2.316278,1.53976 l -0.75956,0.77105 0.39303,-0.72563 c 0.21623,-0.39909 0.36833,-0.75027 0.33822,-0.78041 -0.03,-0.03 -0.26737,-0.007 -0.52719,0.0524 -0.68145,0.15468 -1.287286,-0.17223 -1.649336,-0.88995 -0.15579,-0.30878 -0.24897,-0.6168 -0.20713,-0.68447 0.0418,-0.0678 0.41268,-0.0987 0.824076,-0.0689 0.85451,0.0618 1.29005,0.37 1.5238,1.07825 0.14134,0.42858 0.29522,0.53577 0.43776,0.30513 0.0418,-0.0676 0.64345,-0.49594 1.337028,-0.9518 1.42739,-0.9382 1.62731,-1.13728 1.00234,-0.99807 -0.23173,0.0516 -0.9384,0.0911 -1.570398,0.088 -0.95056,-0.004 -1.27042,-0.0616 -1.85131,-0.32836 l -0.70223,-0.32255 -0.702216,0.42358 c -0.38623,0.23297 -0.74159,0.42383 -0.78968,0.42412 -0.048,2.7e-4 -0.24077,0.0589 -0.42814,0.13001 l -0.34069,0.12956 0.44676,0.49453 c 0.63883,0.70707 0.69332,1.11554 0.27356,2.05083 -0.19024,0.42381 -0.38465,0.77054 -0.43212,0.77054 -0.12601,0 -0.71774,-0.65631 -0.88462,-0.98111 -0.23868,-0.46461 -0.16712,-1.11857 0.17801,-1.62723 0.17668,-0.26041 0.28824,-0.52697 0.24784,-0.59237 -0.0404,-0.0653 -0.40047,-0.11934 -0.8001,-0.12023 -0.50719,-6.5e-4 -0.936,-0.0987 -1.41996,-0.324 -0.38136,-0.17757 -0.76192,-0.29647 -0.84571,-0.26429 -0.0838,0.032 -0.19046,0.26189 -0.23715,0.51055 -0.13378,0.71349 -0.69573,1.18048 -1.54855,1.28704 -0.39521,0.0493 -0.74936,0.0591 -0.78699,0.0222 -0.1789,-0.1789 0.14535,-1.05494 0.53408,-1.44377 0.38121,-0.38118 0.49766,-0.42403 1.15268,-0.42403 0.58824,0 0.71481,-0.0362 0.65674,-0.18757 -0.0578,-0.15067 0.0533,-0.13801 0.56808,0.0649 1.36641,0.53859 2.29683,0.54972 1.08341,0.0133 -0.655,-0.28973 -0.84083,-0.57173 -0.84083,-1.27593 0,-0.86866 0.0742,-0.94505 0.6386,-0.65712 0.7658,0.3907 1.05922,0.84673 0.98571,1.53202 -0.0829,0.77321 -0.0178,0.90975 0.39718,0.81677 0.43328,-0.0973 2.31963,-0.95978 2.31927,-1.06032 -6.2e-4,-0.17979 -2.09465,-1.70956 -2.7519,-2.01047 -0.66351,-0.30376 -0.80948,-0.32331 -1.82533,-0.24457 -1.84979,0.14334 -2.22808,0.17845 -2.8974,0.2687 -0.58093,0.0782 -0.68482,0.0527 -1.05792,-0.26128 -0.4014,-0.33776 -0.86272,-1.05121 -0.75158,-1.16235 0.0302,-0.0302 0.37736,-0.12245 0.77154,-0.20512 0.61258,-0.12846 0.78043,-0.12001 1.15573,0.0591 0.2415,0.11512 0.54026,0.38067 0.66395,0.59004 0.35203,0.59595 0.65829,0.70216 1.33199,0.46203 0.31533,-0.11245 0.85052,-0.22434 1.18934,-0.24879 0.33883,-0.0245 0.64761,-0.076 0.68616,-0.11468 0.0387,-0.0384 -0.25497,-0.21401 -0.65233,-0.38965 -0.58869,-0.26032 -0.75963,-0.40842 -0.92311,-0.79965 -0.18357,-0.43921 -0.1729,-1.48855 0.0178,-1.6785 0.12467,-0.12467 1.11072,0.41737 1.41321,0.77684 0.25015,0.29728 0.31118,0.51257 0.31118,1.09767 0,0.83564 0.2109,1.22575 0.73116,1.35241 0.42514,0.10356 1.10559,0.53824 2.0631,1.31813 0.38965,0.31738 1.055066,0.74103 1.478716,0.94145 1.26178,0.59693 1.539,0.47728 0.94182,-0.40647 -0.31333,-0.4637 -0.37284,-0.66132 -0.32024,-1.06339 0.0616,-0.47134 0.6338,-1.34894 0.94769,-1.45355 0.20801,-0.0693 0.79694,1.15682 0.79694,1.65941 0,0.43963 -0.26893,0.93422 -0.66387,1.22088 -0.12645,0.0918 -0.22986,0.25807 -0.22986,0.36956 0,0.17335 0.13401,0.19202 0.92567,0.12846 1.001068,-0.0804 2.138588,-0.41577 2.138588,-0.63051 0,-0.2816 -1.49706,-2.20369 -2.072138,-2.66046 -0.75285,-0.59795 -1.80884,-0.98006 -2.08199,-0.75338 -0.1029,0.0853 -0.1869,0.26584 -0.1869,0.40118 0,0.36609 -0.34878,0.97211 -0.65325,1.13506 -0.267926,0.14334 -1.336626,0.21535 -1.454076,0.0978 -0.0342,-0.0342 0.0298,-0.33355 0.1429,-0.66495 0.23422,-0.68739 0.60762,-0.98732 1.374536,-1.10402 l 0.52608,-0.08 -0.5107,-0.096 c -0.927486,-0.17401 -2.429986,-0.64418 -2.202436,-0.68905 0.3736,-0.0738 0.25361,-0.21001 -0.38403,-0.43649 -0.40312,-0.14312 -0.68231,-0.34243 -0.8299,-0.59231 -0.23953,-0.40547 -0.30391,-1.48464 -0.0962,-1.613 0.21401,-0.13223 1.2438,0.4024 1.48548,0.77123 0.13068,0.19957 0.23735,0.61929 0.24877,0.97956 0.0111,0.34822 0.0993,0.70447 0.19691,0.79596 0.17379,0.16268 2.773626,0.51602 2.896106,0.39352 0.0344,-0.0345 -0.16712,-0.28569 -0.4481,-0.55828 -0.28091,-0.27262 -0.54935,-0.64954 -0.59655,-0.8376 -0.10379,-0.41336 0.0938,-1.18114 0.40836,-1.58622 l 0.22999,-0.29628 0.53529,0.5807 c 0.47525,0.51557 0.53479,0.64905 0.53077,1.19002 -0.002,0.33513 -0.0867,0.75296 -0.18691,0.92851 -0.29457,0.51532 -0.23343,0.61653 0.60647,1.00376 1.026338,0.47319 1.716538,1.08238 2.693028,2.37699 l 0.78648,1.04269 0.42183,-0.17201 c 0.61346,-0.25031 2.1231,-0.54868 2.77617,-0.54868 h 0.56424 l -0.50819,-0.67032 c -0.27953,-0.36867 -0.50846,-0.71338 -0.50875,-0.76605 -8.9e-4,-0.19024 -0.38183,-0.0893 -0.84261,0.22344 -0.77001,0.52257 -1.63318,0.38591 -2.33974,-0.37038 -0.35372,-0.37863 -0.37094,-0.34276 0.33589,-0.69919 0.79781,-0.40227 1.45896,-0.35996 2.01585,0.1289 0.25057,0.22002 0.48501,0.37063 0.52097,0.33467 0.0653,-0.0653 -0.52491,-1.13112 -0.98709,-1.78224 -0.28265,-0.3982 -0.44688,-0.37033 -1.15944,0.19668 -0.6782,0.53975 -1.33849,0.53206 -2.30912,-0.0269 l -0.74289,-0.42783 0.29602,-0.32164 c 0.35902,-0.39014 1.19446,-0.79208 1.65425,-0.79588 0.18512,-9.1e-4 0.6356,0.20268 1.00084,0.45399 0.36523,0.25122 0.70203,0.41756 0.74846,0.3696 0.10956,-0.11312 -1.03399,-1.13317 -1.74075,-1.55306 -0.74409,-0.44206 -0.60651,-0.49566 0.2734,-0.10645 0.73943,0.32702 0.91571,0.2821 0.4713,-0.12001 -0.13779,-0.12468 -0.31385,-0.41861 -0.39125,-0.65312 -0.11645,-0.35286 -0.0984,-0.5207 0.10423,-0.97404 0.13467,-0.30124 0.36425,-0.65351 0.50997,-0.78281 0.2609,-0.23155 0.26959,-0.22771 0.57444,0.25535 0.60646,0.96102 0.59508,1.50697 -0.0462,2.22538 l -0.37958,0.42516 0.56711,0.48477 c 0.31193,0.26662 0.89904,0.92968 1.30471,1.4735 1.81039,2.42681 2.82286,3.29803 4.263304,3.66855 0.45645,0.11734 1.63427,0.46241 2.61738,0.76669 1.7015,0.5266 3.71919,0.92053 3.88183,0.75788 0.10156,-0.10156 -0.19757,-0.30985 -1.47635,-1.02761 -0.59251,-0.33251 -1.44239,-0.93915 -1.88862,-1.34807 -0.44626,-0.40889 -0.84215,-0.74343 -0.87978,-0.74343 -0.0376,0 -0.33108,0.22733 -0.65211,0.50517 -0.82897,0.71745 -1.26486,0.76674 -2.33318,0.2638 l -0.865134,-0.40728 0.60224,-0.54888 c 0.720084,-0.65627 1.281984,-0.80294 1.971814,-0.5147 0.26448,0.11045 0.58017,0.2908 0.70158,0.40065 0.12134,0.10978 0.28126,0.17957 0.35529,0.15468 0.15223,-0.0511 -2.2336,-2.91776 -2.42837,-2.91776 -0.0693,0 -0.24579,0.20312 -0.39231,0.45154 -0.295604,0.50097 -0.815024,0.82524 -1.321924,0.82524 -0.42498,0 -1.46748,-0.26031 -1.46684,-0.36627 8.9e-4,-0.23769 0.5626,-0.9462 0.924,-1.16655 0.50202,-0.30607 0.99772,-0.3236 1.5196,-0.0536 0.639334,0.33062 0.563214,0.10489 -0.13334,-0.39565 -0.35801,-0.2572 -0.65089,-0.48777 -0.65089,-0.51242 0,-0.16801 1.396764,0.58962 2.034384,1.10341 0.7871,0.63425 1.10741,0.80819 0.73934,0.40148 -0.31715,-0.35045 -0.49372,-0.93507 -0.40474,-1.34012 0.0796,-0.36187 0.75206,-1.24513 0.94811,-1.24513 0.0545,0 0.22566,0.29504 0.38079,0.65565 0.34771,0.80832 0.27613,1.32944 -0.2522,1.83559 -0.20979,0.2009 -0.38145,0.43012 -0.38145,0.50917 0,0.0791 0.56017,0.69149 1.24484,1.36094 1.80217,1.76217 2.43562,2.10921 1.76682,0.968 -0.55218,-0.94222 -0.34898,-1.93727 0.53474,-2.61881 l 0.39657,-0.30579 0.34071,0.67231 c 0.49585,0.97856 0.40667,1.69718 -0.30667,2.47104 -0.29135,0.31609 -0.52972,0.60751 -0.52972,0.6476 0,0.04 0.61762,0.36094 1.37251,0.713 0.7549,0.35207 1.52275,0.78348 1.70637,0.95872 l 0.33382,0.31857 0.86273,-0.42227 0.86275,-0.42227 -0.0702,-1.21296 c -0.11245,-1.94242 -0.75047,-3.38154 -1.9957,-4.50091 -1.45314,-1.30627 -3.06776,-1.80801 -6.69793,-2.08137 -1.5484,-0.11667 -2.959384,-0.29571 -3.582054,-0.4547 -1.00531,-0.25668 -2.43459,-0.86452 -3.198,-1.36005 l -0.38303,-0.24861 -0.95757,0.47787 c -0.52666,0.26282 -1.20776,0.55278 -1.51349,0.64436 -0.30577,0.0916 -0.58197,0.23442 -0.6138,0.31738 -0.0318,0.0829 0.0891,0.36738 0.26862,0.63202 0.35781,0.52726 0.40165,0.82721 0.1829,1.25191 -0.16801,0.32627 -0.630598,0.85344 -0.748848,0.85344 -0.16979,0 -0.63964,-1.00783 -0.63964,-1.37212 0,-0.2089 0.14356,-0.5914 0.31918,-0.8501 0.17556,-0.25869 0.3192,-0.49048 0.3192,-0.51506 0,-0.0247 -0.21535,0.004 -0.47879,0.0665 -0.70536,0.16379 -1.54518,0.14089 -2.33403,-0.0638 -0.383866,-0.0996 -0.722386,-0.15667 -0.752226,-0.12689 -0.0298,0.0298 0.0749,0.31313 0.23306,0.62955 0.35182,0.70447 0.27928,1.17919 -0.26302,1.72152 -0.21046,0.21046 -0.4213,0.38241 -0.46854,0.38214 -0.14046,-6.2e-4 -0.53282,-1.05903 -0.53282,-1.43688 0,-0.22001 0.16557,-0.53261 0.44688,-0.84404 0.24577,-0.27204 0.44687,-0.52501 0.44687,-0.56217 0,-0.15756 -1.35472,-0.37471 -1.92053,-0.30771 -0.71503,0.0847 -1.65443,0.52508 -1.65443,0.77561 0,0.0951 0.11601,0.43479 0.25764,0.75514 0.24331,0.55004 0.24626,0.61093 0.0529,1.0939 -0.1729,0.43219 -0.76087,1.02538 -0.88006,0.88793 -0.02,-0.0233 -0.13001,-0.22599 -0.24426,-0.45072 -0.32758,-0.64429 -0.26788,-1.23766 0.17535,-1.74241 0.40474,-0.46097 0.5165,-0.7361 0.18845,-0.46381 -0.10711,0.0889 -0.22572,0.13045 -0.26375,0.0925 -0.10534,-0.10534 0.71436,-0.6902 1.42295,-1.01523 l 0.63137,-0.28955 -0.77218,-0.0653 c -1.19306,-0.10089 -1.68094,-0.56935 -1.91616,-1.83944 l -0.092,-0.49728 0.81568,0.0909 c 0.44859,0.05 0.94767,0.17623 1.10901,0.2808 0.36696,0.2377 0.79077,0.91973 0.79141,1.27355 6.3e-4,0.39805 0.43608,0.71854 1.05112,0.77374 0.29993,0.0269 0.95118,0.16268 1.44721,0.30185 0.826216,0.23166 2.098526,0.34498 2.098526,0.1869 0,-0.0362 -0.25855,-0.31371 -0.57455,-0.61651 -0.52648,-0.50446 -0.57455,-0.60238 -0.57455,-1.17048 0,-0.58349 0.41247,-1.72199 0.62386,-1.72199 0.13423,0 0.98376,0.91462 1.14853,1.23647 0.21601,0.42196 0.17201,1.01453 -0.11735,1.58188 -0.14312,0.28051 -0.22801,0.56204 -0.18868,0.6256 0.13957,0.22573 2.224958,-0.5409 3.351908,-1.23215 l 0.41325,-0.25351 -0.85617,-0.68611 c -1.14413,-0.91684 -2.073298,-1.46339 -3.018608,-1.77559 -0.94992,-0.31371 -2.411396,-0.53048 -2.907556,-0.43125 -0.38881,0.0778 -0.48884,0.3488 -0.17335,0.46985 0.311,0.11934 0.70209,0.878 0.70036,1.35856 -8.9e-4,0.44597 -0.45776,1.41481 -0.69965,1.48602 -0.21023,0.062 -0.96435,-1.0459 -1.04329,-1.53238 -0.0564,-0.34704 0.004,-0.58495 0.26153,-1.0236 0.18423,-0.31431 0.33491,-0.59844 0.33491,-0.63138 0,-0.0329 -0.70383,-0.0924 -1.56404,-0.13201 -0.86024,-0.0398 -1.7313,-0.0887 -1.93572,-0.10889 -0.35187,-0.0347 -0.3798,-6.7e-4 -0.52483,0.63577 -0.24638,1.08155 -0.87735,1.56182 -2.05195,1.56182 h -0.59459 l 0.0789,-0.39449 c 0.0433,-0.2169 0.18646,-0.63769 0.31791,-0.93487 0.2712,-0.6131 0.85644,-0.96882 1.59394,-0.96882 0.65651,0 0.66075,-0.16468 0.0156,-0.62758 -0.57697,-0.41434 -0.75734,-0.70678 -0.34707,-0.5627 0.1229,0.0431 -0.02,-0.13446 -0.31631,-0.39452 -0.75789,-0.66416 -0.91397,-1.23937 -0.60933,-2.24551 0.12757,-0.42134 0.27166,-0.76605 0.32025,-0.76605 0.24959,0 1.13208,0.79376 1.31795,1.18546 0.27498,0.5795 0.2654,0.92128 -0.0451,1.60546 -0.35347,0.77895 -0.32471,0.89438 0.29009,1.16424 0.61384,0.26946 1.88322,0.52799 1.88322,0.38356 0,-0.0525 -0.20113,-0.2485 -0.44699,-0.43603 -0.52172,-0.39794 -0.83057,-0.93464 -0.82783,-1.43859 0.004,-0.58902 0.33553,-1.51133 0.52774,-1.46457 0.46121,0.11223 1.0117,0.59878 1.26174,1.11528 0.29417,0.60769 0.27753,0.90175 -0.0958,1.69103 -0.11534,0.24402 -0.15179,0.46688 -0.086,0.5277 0.0627,0.0578 0.73114,0.0133 1.48561,-0.0971 1.61251,-0.2378 2.829656,-0.11824 4.495506,0.44196 0.952998,0.32042 1.313378,0.53615 4.197268,2.51235 0.4795,0.32858 0.92589,0.5974 0.99194,0.5974 0.18201,0 0.007,-0.60064 -0.47403,-1.61796 -0.65016,-1.3776 -1.32372,-1.88017 -4.179808,-3.11877 -0.64233,-0.27858 -1.38845,-0.65242 -1.658,-0.83077 -0.26957,-0.17823 -0.56862,-0.29413 -0.66456,-0.25733 -0.096,0.0369 -0.29422,0.3018 -0.44067,0.58886 -0.487586,0.95574 -1.537326,1.27905 -2.584046,0.79584 l -0.47677,-0.22002 0.51115,-0.66591 c 0.63756,-0.83059 1.23533,-1.06119 2.13039,-0.82179 0.319376,0.0856 0.602776,0.13312 0.629796,0.10623 0.0269,-0.0269 -0.437426,-0.44541 -1.032046,-0.92976 -1.16468,-0.94871 -1.45336,-1.33151 -0.5197,-0.68915 0.316,0.21734 0.57455,0.35589 0.57455,0.30768 0,-0.0482 -0.22981,-0.33693 -0.51072,-0.64166 -0.42428,-0.4603 -0.51071,-0.64345 -0.51071,-1.08239 0,-0.54573 0.37143,-1.77557 0.53624,-1.77557 0.18046,0 1.01109,0.80817 1.193926,1.16173 0.26462,0.5117 0.22622,1.12216 -0.107556,1.71103 -0.15935,0.28088 -0.26987,0.60802 -0.24584,0.72696 0.0756,0.37409 2.950356,2.07459 3.157326,1.86764 0.03,-0.03 -0.0891,-0.25702 -0.26502,-0.50419 -0.53066,-0.74581 -0.54244,-1.26849 -0.0471,-2.08597 0.4092,-0.67518 0.43354,-0.69267 0.668438,-0.48025 0.13401,0.12134 0.35856,0.44534 0.49884,0.72022 0.32964,0.64592 0.2391,1.23262 -0.29231,1.89387 -0.22135,0.2754 -0.352688,0.54624 -0.291908,0.60189 0.0607,0.0556 0.426468,0.20245 0.812678,0.32624 2.47961,0.79472 3.49624,1.83566 4.35872,4.46302 0.32798,0.9991 0.51488,1.12513 1.9823,1.33639 0.97813,0.14089 3.108774,0.23377 3.104084,0.13534 -8.7e-4,-0.0351 -0.23988,-0.23622 -0.52937,-0.44688 -0.75536,-0.5497 -1.866554,-1.99356 -2.804644,-3.64432 -0.83415,-1.46786 -1.66407,-2.548 -1.95774,-2.548 -0.0913,0 -0.25841,0.14112 -0.37138,0.31345 -0.5601,0.85483 -1.39665,1.08532 -2.28042,0.62831 l -0.40094,-0.20735 0.60451,-0.57115 c 0.55844,-0.52764 0.64535,-0.56651 1.14139,-0.51042 0.29533,0.0333 0.68058,0.0969 0.85612,0.14113 0.17557,0.0442 -0.16712,-0.15468 -0.76125,-0.4421 -1.90667,-0.92189 -2.66199,-1.75772 -3.27676,-3.62605 -0.477148,-1.45004 -0.482588,-1.45326 -1.186018,-0.70403 -0.50679,0.53981 -0.66984,0.63724 -1.06623,0.63724 -0.45852,0 -1.370336,-0.34473 -1.370336,-0.51808 0,-0.0482 0.257256,-0.32491 0.571686,-0.61475 0.47554,-0.43834 0.65947,-0.52695 1.09363,-0.52695 0.28709,0 0.63802,0.062 0.77985,0.13801 0.14179,0.076 0.29522,0.10067 0.34083,0.0551 0.10512,-0.10511 -0.39999,-0.49599 -1.06237,-0.82245 -0.28246,-0.13912 -0.41085,-0.25455 -0.28728,-0.25806 0.352,-0.009 0.26268,-0.17602 -0.24382,-0.45324 -0.67118,-0.36733 -0.97165,-0.9836 -0.88173,-1.80854 0.12934,-1.18651 0.29227,-1.26812 1.18953,-0.59589 0.7517,0.56315 0.95667,1.28438 0.62889,2.21291 -0.21135,0.59842 -0.1429,0.83935 0.28855,1.01809 0.50624,0.20979 0.970048,0.72974 1.283978,1.4397 0.14757,0.33356 0.27984,0.60647 0.29411,0.60647 0.0133,2e-5 0.0258,-0.4247 0.0258,-0.9438 0,-1.07148 0.12112,-1.28038 1.06163,-1.83157 0.71967,-0.42177 0.85224,-0.2888 0.85297,0.85539 6.2e-4,1.01285 -0.20979,1.33765 -1.15468,1.78179 -0.30158,0.14179 -0.58504,0.31718 -0.62996,0.38983 -0.13201,0.21357 0.54695,1.32898 1.20073,1.97293 0.46643,0.45941 0.92042,0.72603 1.98632,1.16653 0.75992,0.31402 1.40003,0.55262 1.4225,0.53015 0.0224,-0.0225 -0.10779,-0.24964 -0.2894,-0.50488 -0.18601,-0.26144 -0.35536,-0.70445 -0.38783,-1.01456 -0.0491,-0.46912 0.0111,-0.66022 0.41281,-1.29285 l 0.47041,-0.74231 0.29704,0.27904 c 0.42361,0.39796 0.69445,1.03447 0.69445,1.63209 0,0.41805 -0.0967,0.62722 -0.51072,1.10565 -0.28089,0.32454 -0.51071,0.62087 -0.51071,0.65849 0,0.0376 0.21557,0.31334 0.47879,0.61271 0.26333,0.29938 0.87993,1.15566 1.37021,1.90282 0.4903,0.74719 0.93013,1.35852 0.977404,1.35852 0.0473,0 0.0549,-0.34271 0.0178,-0.76161 -0.0942,-1.04043 0.10556,-1.4659 0.93902,-1.99909 0.37076,-0.23717 0.69814,-0.43123 0.7275,-0.43123 0.14156,0 0.3664,1.20406 0.30057,1.60973 -0.10712,0.66052 -0.3758,1.00341 -1.03658,1.32329 -0.31925,0.15446 -0.61362,0.33467 -0.65416,0.40023 -0.0404,0.0656 0.0804,0.30482 0.26889,0.5316 1.02156,1.22953 2.98285,2.35027 5.66055,3.23464 1.6292,0.53809 2.61209,1.11641 3.4722,2.04297 0.81241,0.87526 1.15025,1.50528 1.90955,3.56142 0.36305,0.98312 0.70205,1.8322 0.75334,1.88687 0.0511,0.0547 0.46219,0.0111 0.91313,-0.0993 0.45095,-0.10934 1.55245,-0.23453 2.44777,-0.27827 0.89536,-0.0438 1.6279,-0.10022 1.6279,-0.12578 0,-0.0256 -0.26309,-0.36936 -0.58465,-0.76414 -0.32155,-0.39479 -0.70644,-0.96852 -0.85534,-1.27498 -0.3154,-0.64918 -0.64943,-0.72323 -1.26976,-0.28151 -0.21424,0.15268 -0.6506,0.29898 -0.97729,0.32787 -0.50881,0.0449 -0.69229,-0.0133 -1.33125,-0.41752 -0.70774,-0.44859 -0.7314,-0.48046 -0.52575,-0.70769 0.30118,-0.33281 1.21542,-0.7551 1.63476,-0.7551 0.42252,0 0.79339,0.1789 1.24736,0.60195 0.18623,0.17357 0.43156,0.29571 0.54532,0.27166 0.33034,-0.0698 -0.82861,-2.2626 -1.6844,-3.18697 -0.80719,-0.87186 -1.29269,-0.98958 -1.81004,-0.4389 -0.36434,0.38783 -1.02563,0.70943 -1.45879,0.70943 -0.18046,0 -0.64885,-0.14179 -1.04083,-0.31518 l -0.71265,-0.31518 0.29218,-0.39518 c 0.68393,-0.92511 1.81112,-1.16453 2.68541,-0.57044 0.47427,0.32229 0.73863,0.40134 0.73863,0.2209 0,-0.11067 -2.3601,-1.44436 -3.09555,-1.74921 -0.58253,-0.24146 -0.81013,-0.13178 -1.22569,0.59018 -0.39812,0.69176 -0.94324,0.93195 -1.85626,0.81788 -0.39438,-0.0493 -0.71705,-0.11601 -0.71705,-0.14824 0,-0.24159 0.42172,-0.94642 0.7523,-1.25733 0.42714,-0.40174 0.95488,-0.48568 1.76932,-0.28144 0.47868,0.12001 0.56384,-0.0609 0.12756,-0.27113 -0.55035,-0.2654 6.5e-4,-0.1529 1.35248,0.27597 1.45419,0.4615 1.76181,0.41419 0.72458,-0.11156 -0.34987,-0.17734 -0.73563,-0.47421 -0.85726,-0.65987 -0.25377,-0.38729 -0.28531,-1.44025 -0.0598,-1.99329 l 0.14423,-0.35385 0.69945,0.46443 c 0.85735,0.56924 1.20137,1.27643 1.00236,2.06046 -0.20602,0.8121 -0.0133,1.12154 1.02627,1.64125 1.13781,0.56915 2.16186,1.34727 2.61316,1.9856 0.53495,0.75663 0.72156,0.58482 0.34465,-0.31731 -0.40726,-0.97465 -0.15913,-1.7451 0.76687,-2.38228 l 0.57504,-0.39562 0.11779,0.30991 c 0.37811,0.99451 0.40763,1.35376 0.15756,1.91893 -0.13445,0.30409 -0.41854,0.67678 -0.63113,0.82817 -0.75979,0.54099 -0.73881,0.80603 0.2089,2.64012 0.46628,0.90244 0.91267,1.66138 0.99196,1.68656 0.0887,0.0282 0.17801,-0.22424 0.23182,-0.65538 0.13823,-1.10637 0.68109,-1.62014 1.90598,-1.80382 l 0.61879,-0.0929 -0.0891,0.55924 c -0.18646,1.17106 -0.91718,2.02752 -1.72972,2.02752 -0.19157,0 -0.42092,0.0873 -0.50944,0.19379 -0.20068,0.24186 0.002,0.4861 1.06732,1.28702 0.48881,0.36747 0.87746,0.56189 1.12321,0.56189 0.62116,0 2.26603,0.3798 3.58885,0.82868 0.68465,0.2323 1.24484,0.40229 1.24484,0.37773 0,-0.18045 -0.98564,-2.70552 -1.40772,-3.6062 -1.00893,-2.153 -2.06347,-3.62481 -4.73368,-6.60675 l -1.3767,-1.53744 -1.76299,-0.48782 c -3.91896,-1.08438 -4.48549,-1.26308 -5.48078,-1.72905 -0.57013,-0.26693 -1.3857,-0.72238 -1.81239,-1.01216 -0.4267,-0.28975 -0.83642,-0.52681 -0.91051,-0.52681 -0.074,0 -0.13468,0.24417 -0.1349,0.54261 -3.1e-4,1.10428 -0.68634,1.87629 -1.75863,1.97932 l -0.62871,0.0605 0.10778,-0.78728 c 0.0591,-0.43301 0.16535,-0.89513 0.23591,-1.02694 0.20623,-0.38543 0.86679,-0.78868 1.41154,-0.86175 0.2776,-0.0373 0.50424,-0.10312 0.50361,-0.14668 -8.9e-4,-0.10956 -1.3224,-0.93857 -2.16939,-1.36149 -0.38621,-0.1929 -1.17035,-0.50899 -1.74252,-0.70256 -1.14006,-0.38565 -1.32172,-0.34551 -1.32172,0.29211 0,0.58693 -0.43487,1.29036 -0.9494,1.53571 -0.47001,0.22414 -1.731814,0.30882 -1.731814,0.11623 0,-0.26156 0.43879,-1.38692 0.6238,-1.59985 0.32309,-0.37187 0.850504,-0.5934 1.412684,-0.5934 0.28437,0 0.51683,-0.0431 0.51659,-0.0958 -2.7e-4,-0.0527 -0.37232,-0.28802 -0.82679,-0.52301 -0.937494,-0.48477 -2.118624,-1.66076 -2.619814,-2.60843 -0.17534,-0.33171 -0.34813,-0.60311 -0.38378,-0.60311 -0.0356,0 -0.19824,0.29087 -0.36131,0.64633 -0.34041,0.74201 -0.88313,1.14031 -1.55331,1.13995 -0.45968,-2.7e-4 -1.40446,-0.21957 -1.40446,-0.32598 0,-0.0329 0.20602,-0.36993 0.45764,-0.74901 0.55908,-0.84203 0.94862,-1.02511 1.982,-0.93139 0.89786,0.0813 0.89337,0.13934 0.098,-1.25729 -0.561,-0.98498 -1.81953,-2.4806 -2.08739,-2.4806 -0.0922,0 -0.30316,0.27291 -0.46859,0.60647 -0.37296,0.75192 -1.01272,1.11728 -1.7409,0.99427 -0.79777,-0.1349 -0.85415,-0.21668 -0.5539,-0.80528 0.42765,-0.8383 0.83961,-1.08525 1.70671,-1.02323 0.80166,0.0573 0.9076,-0.0358 0.41094,-0.36113 -0.17779,-0.11646 -0.29835,-0.23655 -0.26804,-0.26687 0.0773,-0.0773 1.20618,0.51488 1.73321,0.90953 0.60711,0.45457 0.70285,0.41243 0.3398,-0.14956 -0.61102,-0.94571 -0.53497,-1.6409 0.28278,-2.58547 0.38087,-0.4399 0.39014,-0.44288 0.59542,-0.19157 0.11467,0.14045 0.32533,0.50543 0.46814,0.81105 0.34834,0.74555 0.23611,1.29054 -0.41018,1.99168 -0.27653,0.3 -0.50277,0.58379 -0.50277,0.63069 0,0.0469 0.22573,0.37078 0.50161,0.7198 0.27589,0.34903 0.77159,1.06776 1.10157,1.59718 0.61653,0.98918 0.83286,1.14877 0.58208,0.42941 -0.33926,-0.97323 -0.0482,-1.73148 0.92038,-2.39788 l 0.571394,-0.39314 0.20424,0.51061 c 0.44521,1.11268 0.18646,1.91869 -0.813614,2.534 -0.35303,0.21713 -0.64189,0.47957 -0.64189,0.58298 0,0.38213 1.570384,1.88459 2.362054,2.25989 0.95883,0.45454 1.19829,0.47465 0.90507,0.076 -0.11623,-0.15801 -0.32825,-0.53428 -0.47119,-0.83621 -0.31205,-0.65907 -0.25502,-1.0311 0.28977,-1.89016 l 0.39023,-0.61533 0.4241,0.46279 c 0.23326,0.25453 0.49432,0.69712 0.58013,0.98349 0.13423,0.44832 0.12423,0.59135 -0.0731,1.02874 -0.12601,0.2794 -0.33602,0.6048 -0.46674,0.7231 -0.3721,0.33673 -0.28316,0.53712 0.30495,0.68691 0.29844,0.076 0.99145,0.27933 1.54002,0.45179 0.54855,0.17245 1.02083,0.31357 1.04947,0.31357 0.0287,0 -0.0898,-0.20912 -0.26324,-0.46467 -0.59153,-0.87169 -0.32746,-2.05739 0.63476,-2.85009 0.20157,-0.16623 0.24768,-0.15912 0.41796,0.0638 0.30936,0.4051 0.54708,1.04287 0.54708,1.46775 0,0.4851 -0.17023,0.83086 -0.66802,1.35718 -0.21002,0.22224 -0.36123,0.46168 -0.3358,0.53231 0.0509,0.14134 2.41252,1.71952 2.47686,1.65513 0.0222,-0.0222 -0.0253,-0.28491 -0.10512,-0.58417 -0.23077,-0.86457 0.0536,-1.50611 0.93033,-2.09904 0.38621,-0.26119 0.7431,-0.47663 0.79306,-0.47878 0.16645,-0.007 0.38269,1.06945 0.31551,1.57026 -0.0804,0.60053 -0.48086,1.06045 -1.20733,1.38707 -0.31718,0.14268 -0.51024,0.30265 -0.46105,0.38219 0.13867,0.22448 1.85795,0.96944 2.87142,1.24422 1.53502,0.41618 3.68921,0.7653 3.68921,0.59791 0,-0.48548 -1.2654,-4.18705 -1.80906,-5.29184 -0.52444,-1.06579 -0.83826,-1.51348 -1.63322,-2.33012 -0.54124,-0.55597 -1.05105,-1.01085 -1.13291,-1.01085 -0.0944,0 -0.14912,0.24524 -0.14934,0.67029 -6.7e-4,1.16655 -0.5629,1.74573 -1.90198,1.95985 l -0.52299,0.0836 0.0807,-0.62275 c 0.16646,-1.28469 0.66265,-1.86853 1.7383,-2.04508 0.26336,-0.0433 0.47879,-0.12756 0.47879,-0.18734 0,-0.15201 -1.16895,-0.80713 -2.23435,-1.25231 -1.33652,-0.55853 -1.26234,-0.5808 -1.34908,0.40487 -0.0589,0.66996 -0.14489,0.93629 -0.38482,1.19315 -0.38838,0.41572 -0.81426,0.63291 -1.4261,0.72723 -0.46899,0.0725 -0.47872,0.0656 -0.47575,-0.33309 0.009,-1.2144 0.51726,-1.99281 1.47617,-2.26129 0.31,-0.0867 0.56362,-0.19646 0.56362,-0.24382 0,-0.0744 -2.65296,-1.15757 -2.83542,-1.15757 -0.0371,0 -0.0987,0.23199 -0.13668,0.51557 -0.0913,0.68045 -0.39749,1.12481 -0.92788,1.34641 -0.58887,0.24603 -1.38648,0.24439 -1.29167,-0.002 0.0387,-0.10089 0.13045,-0.40631 0.20379,-0.67862 0.18446,-0.68483 0.63238,-1.06834 1.34116,-1.14824 0.32038,-0.036 0.58251,-0.10956 0.58251,-0.16334 0,-0.0538 -0.28818,-0.28267 -0.64038,-0.50868 -0.3522,-0.226 -0.87282,-0.67498 -1.15688,-0.99772 -0.41378,-0.47007 -0.53997,-0.5497 -0.63444,-0.40036 -0.0649,0.10245 -0.1189,0.28256 -0.11979,0.40007 -0.004,0.34461 -0.61171,0.97003 -1.100944,1.13151 -0.2588,0.0853 -0.68814,0.11378 -1.00354,0.0667 l -0.55126,-0.0827 0.14156,-0.46129 c 0.078,-0.25371 0.32781,-0.65872 0.55538,-0.90002 0.39465,-0.41848 0.44894,-0.43672 1.174814,-0.39492 0.41856,0.0242 0.79864,0.007 0.84457,-0.0396 0.046,-0.046 -0.0642,-0.31764 -0.24484,-0.60377 -0.37245,-0.59 -0.41594,-0.7569 -0.1369,-0.52531 0.24984,0.20735 0.24195,0.13912 -0.0609,-0.5287 -0.1389,-0.30611 -0.25382,-0.70472 -0.25537,-0.88577 -0.002,-0.33916 0.56822,-1.306 1.00485,-1.70114 0.2387,-0.21602 0.25755,-0.20513 0.56472,0.32889 0.63852,1.10994 0.53242,1.91006 -0.34624,2.61116 -0.25302,0.20179 -0.46006,0.46305 -0.46006,0.58035 0,0.21112 1.65903,1.80906 1.76653,1.70156 0.0307,-0.0307 -0.072,-0.35254 -0.22797,-0.71527 -0.36612,-0.85102 -0.28231,-1.29925 0.40396,-2.16117 l 0.53112,-0.66707 0.2218,0.27379 c 0.122,0.15068 0.3208,0.53331 0.44194,0.85046 0.2916,0.76359 0.11556,1.37414 -0.58233,2.01988 -0.28167,0.26062 -0.51213,0.52801 -0.51213,0.59422 0,0.22901 2.16331,1.14608 2.70357,1.14608 0.0569,0 -0.0971,-0.26293 -0.34238,-0.58431 -0.55717,-0.72996 -0.58608,-1.31587 -0.11156,-2.26074 0.18401,-0.36633 0.3566,-0.69022 0.38353,-0.71976 0.0971,-0.10645 0.71681,0.57535 0.96798,1.06525 0.32405,0.63205 0.24984,1.3233 -0.20623,1.92129 -0.18179,0.23846 -0.33069,0.48913 -0.33069,0.55702 0,0.0678 0.30162,0.19446 0.67029,0.28106 0.36867,0.0867 0.97591,0.2704 1.34943,0.40826 0.37351,0.13778 0.70698,0.22277 0.74103,0.18868 0.034,-0.034 -0.0558,-0.25513 -0.1998,-0.49126 -0.17423,-0.28575 -0.2619,-0.6494 -0.26224,-1.08732 -3.1e-4,-0.60238 0.0478,-0.71021 0.5714,-1.27676 l 0.57184,-0.61882 0.25768,0.31918 c 0.7271,0.90066 0.64885,1.90987 -0.21201,2.73481 l -0.58613,0.56164 0.56024,0.28375 c 1.06958,0.54169 2.33952,1.43144 3.13939,2.19951 l 0.80428,0.7723 v -1.34158 c 0,-0.73787 0.038,-1.79017 0.0842,-2.33847 l 0.0842,-0.99687 -0.43539,0.10911 c -0.23946,0.06 -0.71598,0.11157 -1.05894,0.11446 -0.59011,0.004 -0.65347,-0.0289 -1.18101,-0.62825 -0.3066,-0.34842 -0.55744,-0.6712 -0.55744,-0.71729 0,-0.16446 0.83926,-0.43099 1.36223,-0.43245 0.58055,-8.9e-4 1.0594,0.33678 1.39823,0.98802 0.28215,0.54233 0.40378,0.41734 0.29062,-0.2986 -0.11846,-0.74914 -0.51822,-1.63973 -0.88513,-1.9718 -0.24466,-0.22135 -0.26362,-0.2198 -0.54491,0.0444 -0.16023,0.15045 -0.47703,0.33849 -0.70387,0.41756 -0.35958,0.12534 -0.50203,0.1 -1.11167,-0.19824 -0.38459,-0.18823 -0.69716,-0.38096 -0.69461,-0.42847 0.002,-0.0476 0.21291,-0.24438 0.46743,-0.43748 0.6136,-0.46554 1.27856,-0.47307 1.81631,-0.02 0.70078,0.58966 0.41585,0.18001 -0.50561,-0.72696 -0.79988,-0.78726 -0.92791,-0.86853 -1.16691,-0.74063 -0.90195,0.4827 -1.64627,0.35542 -2.32694,-0.39798 -0.25268,-0.27971 -0.45943,-0.5596 -0.45943,-0.622 0,-0.15979 0.95707,-0.52428 1.37512,-0.52373 0.48339,6.7e-4 1.12603,0.42165 1.37316,0.89949 0.30813,0.59588 0.3456,0.38971 0.0725,-0.39828 -0.13223,-0.38124 -0.28031,-0.9934 -0.32913,-1.36033 l -0.0887,-0.66714 -0.7226,0.0727 c -0.40136,0.0404 -0.87915,0.0111 -1.07477,-0.0642 -0.30597,-0.11912 -1.11612,-1.16382 -1.11612,-1.43937 0,-0.1729 1.02947,-0.38138 1.44706,-0.29313 0.51103,0.108 0.95622,0.50583 1.20768,1.07927 0.19357,0.44125 0.19713,0.44286 0.28111,0.12757 0.0807,-0.30267 0.0898,-0.29607 0.17668,0.12756 0.25595,1.24911 0.37062,1.66689 0.47523,1.73157 0.0631,0.0391 0.11579,-0.14779 0.11668,-0.41537 0.004,-0.97775 0.73796,-1.69925 1.72912,-1.69925 h 0.54415 l -0.16424,0.70674 c -0.23697,1.01947 -0.85572,1.59144 -1.72149,1.59144 -0.21424,0 -0.38937,0.0605 -0.38937,0.13401 0,0.41886 1.14193,1.90883 1.46293,1.90883 0.086,0 0.22404,-0.22558 0.30664,-0.50131 0.0827,-0.2757 0.32594,-0.64915 0.54071,-0.8299 0.32237,-0.27126 0.52117,-0.3286 1.13925,-0.3286 0.41181,0 0.77666,0.0451 0.81077,0.10045 0.10556,0.1709 -0.60171,1.33243 -0.98207,1.61283 -0.24681,0.18201 -0.53899,0.26193 -0.92633,0.25352 l -0.56579,-0.0111 0.73483,0.77832 c 0.40414,0.42808 0.76465,0.79306 0.8011,0.81106 0.0364,0.0178 0.17423,-0.16779 0.30613,-0.41261 0.13201,-0.24495 0.38758,-0.54214 0.56817,-0.66049 0.39687,-0.26004 1.20211,-0.27282 1.78697,-0.0284 l 0.42936,0.17934 -0.52323,0.66196 c -0.6666,0.84333 -1.12433,0.96485 -2.28225,0.60591 l -0.28693,-0.0889 0.22301,0.49359 c 0.18913,0.41863 0.22302,0.895 0.22311,3.13625 4e-5,1.45345 0.0338,2.60255 0.0747,2.55353 0.0409,-0.0491 0.20068,-0.57746 0.35478,-1.17435 0.51193,-1.98283 1.2902,-3.34523 2.96959,-5.19834 0.41522,-0.45821 0.8705,-0.99534 1.01169,-1.19362 l 0.25671,-0.36051 -0.69588,0.0247 c -0.53448,0.02 -0.77958,-0.0376 -1.05689,-0.244 -0.40407,-0.30073 -0.74674,-0.83197 -0.87671,-1.35916 l -0.0864,-0.35113 h 0.7283 c 1.1169,0 1.50257,0.32011 1.91013,1.58542 0.0516,0.16001 0.12223,0.20134 0.20424,0.11956 0.1989,-0.1989 1.00493,-2.18348 0.92097,-2.26745 -0.0416,-0.0418 -0.27017,-0.0758 -0.50772,-0.0758 -0.48384,0 -1.01783,-0.23824 -1.32996,-0.59337 -0.26642,-0.30316 -0.63078,-1.55627 -0.47968,-1.64967 0.21868,-0.13512 1.26782,0.10356 1.59887,0.36407 0.37445,0.29455 0.68525,0.94222 0.68525,1.42803 0,1.05358 0.49856,-0.56346 0.71542,-2.32041 l 0.082,-0.66469 -0.7633,0.0222 c -0.98191,0.0271 -1.36538,-0.21802 -1.76952,-1.13191 -0.16912,-0.38238 -0.30747,-0.72234 -0.30747,-0.75545 0,-0.0331 0.37025,-0.0602 0.82277,-0.0602 0.971,0 1.3775,0.26502 1.66469,1.08526 0.0982,0.28091 0.23329,0.49848 0.29985,0.4835 0.16023,-0.036 0.31862,1.2704 0.21246,1.75363 -0.11912,0.54202 0.0905,0.46799 0.33682,-0.11912 0.34378,-0.81883 1.14584,-1.13608 2.18542,-0.86437 0.43187,0.1129 0.43567,0.21335 0.0322,0.85226 -0.54179,0.85826 -1.17012,1.10594 -2.17139,0.85602 l -0.38347,-0.0958 -0.23626,1.05659 c -0.13001,0.5811 -0.37852,1.40127 -0.5524,1.82261 -0.17379,0.42134 -0.34973,0.85224 -0.39083,0.95758 -0.0411,0.10534 0.1898,-0.0887 0.51322,-0.43141 0.58255,-0.6172 0.59415,-0.62237 1.26593,-0.56659 0.37289,0.0309 0.84022,0.16268 1.0385,0.29264 l 0.36051,0.23633 -0.56306,0.56306 c -0.7241,0.72409 -1.34858,0.84444 -2.12311,0.40912 -0.28695,-0.16135 -0.54268,-0.26862 -0.56828,-0.23858 -0.0256,0.03 -0.26068,0.39328 -0.52235,0.80722 -0.26166,0.41389 -0.76738,1.06089 -1.12381,1.43776 -0.3564,0.37687 -0.62164,0.71161 -0.5894,0.74383 0.0322,0.0322 0.26618,-0.0891 0.51986,-0.26953 0.75103,-0.53437 1.66143,-0.39054 2.37699,0.37558 l 0.29836,0.31945 -0.56493,0.33107 c -0.38925,0.22812 -0.74997,0.33109 -1.15984,0.33109 -0.50668,0 -0.67242,-0.07 -1.11794,-0.47257 l -0.52306,-0.47257 -0.24606,0.31296 c -0.52489,0.66758 -1.16457,2.21151 -1.41441,3.41377 -0.52951,2.54827 -0.0973,5.95437 1.04927,8.26893 0.76899,1.55233 2.21784,3.13573 4.34568,4.74925 0.13601,0.10311 0.0222,-0.36496 -0.35878,-1.47237 -1.16548,-3.39013 -1.58031,-6.02556 -1.31491,-8.35359 0.28266,-2.47959 1.10567,-4.20642 3.17871,-6.66946 1.43216,-1.70159 1.70396,-2.30274 1.72594,-3.81722 l 0.0178,-1.16877 -0.77579,0.0424 c -0.67718,0.0369 -0.82432,8.9e-4 -1.15801,-0.27926 -0.21024,-0.1769 -0.48948,-0.55944 -0.62056,-0.85006 -0.28608,-0.63447 -0.17512,-0.75939 0.67743,-0.76243 0.82352,-0.002 1.27626,0.29246 1.62544,1.06047 l 0.30062,0.6612 0.009,-0.82988 c 0.0156,-1.33491 0.31605,-2.4865 0.83933,-3.21486 0.25306,-0.35225 0.44181,-0.65154 0.41945,-0.66505 -1.11766,-0.67503 -1.39083,-1.29058 -1.05907,-2.38637 l 0.22515,-0.74356 0.34946,0.18068 c 0.19224,0.0993 0.49997,0.35956 0.6839,0.57815 0.39265,0.46663 0.44663,1.19488 0.13356,1.80046 -0.24424,0.47234 -0.14779,0.61666 0.2009,0.301 0.49322,-0.44634 0.36765,-0.11334 -0.14489,0.38394 -0.50257,0.48774 -1.0043,1.295 -1.0043,1.61589 0,0.0873 0.21669,-0.0529 0.48146,-0.31147 0.62255,-0.60791 1.10861,-0.70598 1.8331,-0.36987 0.96212,0.44634 0.97409,0.46737 0.49786,0.87337 -0.90033,0.76759 -1.48479,0.86931 -2.3148,0.40281 -0.27211,-0.1529 -0.53849,-0.23391 -0.59193,-0.18001 -0.12846,0.12956 -0.0645,3.23395 0.0718,3.4771 0.0827,0.14757 0.17912,0.078 0.44121,-0.31788 0.43927,-0.66383 1.03342,-0.87744 1.82439,-0.65601 0.90166,0.25247 0.95318,0.42819 0.31582,1.07761 -0.64724,0.65949 -1.17815,0.80764 -1.86535,0.52048 -0.25804,-0.10778 -0.51137,-0.19601 -0.56293,-0.19601 -0.0516,0 -0.13156,0.40578 -0.17757,0.90177 -0.11,1.18409 -0.20868,1.39557 -1.64404,3.52576 -1.36001,2.01834 -1.9302,3.30028 -2.23318,5.02057 -0.32758,1.86009 -0.0765,4.2503 0.69062,6.57028 l 0.33601,1.01634 0.28902,-1.28871 c 0.1589,-0.70878 0.49661,-1.73801 0.75031,-2.28716 0.25373,-0.54915 0.43481,-1.06752 0.40241,-1.15195 -0.0325,-0.0842 -0.23533,-0.19223 -0.45096,-0.23961 -0.51524,-0.11312 -1.15273,-0.76041 -1.17462,-1.19264 -0.0249,-0.4935 0.0273,-1.35159 0.0862,-1.41034 0.0276,-0.0278 0.35811,0.10022 0.73434,0.28435 0.83617,0.40912 1.05838,0.78283 1.01711,1.71058 l -0.0311,0.6955 0.55095,-0.74837 c 0.303,-0.4116 0.73347,-0.90197 0.9566,-1.08972 0.22313,-0.18779 0.40567,-0.37762 0.40567,-0.42196 0,-0.0442 -0.13601,-0.26348 -0.30242,-0.48701 -0.46207,-0.62098 -0.51643,-1.04876 -0.21135,-1.66349 0.14468,-0.29174 0.34741,-0.64069 0.45032,-0.7755 0.18024,-0.23591 0.19668,-0.23651 0.43995,-0.0156 0.13912,0.12579 0.34847,0.47926 0.46536,0.78537 0.2446,0.64044 0.13046,1.08916 -0.40516,1.59228 -0.40534,0.38081 -0.39094,0.52524 0.0422,0.42335 0.33913,-0.0798 0.33624,-0.0722 -0.084,0.2209 -0.50559,0.35278 -0.99102,0.96284 -0.86579,1.08808 0.0476,0.0476 0.19734,-0.0133 0.33264,-0.13646 0.38383,-0.34733 1.15033,-0.38825 1.63045,-0.0871 0.22375,0.14046 0.47076,0.37476 0.54893,0.52084 0.128,0.23917 0.0876,0.2904 -0.40681,0.51473 -0.30191,0.13712 -0.65233,0.25041 -0.7787,0.25195 -0.33329,0.004 -0.93751,-0.33572 -1.15879,-0.65163 -0.10779,-0.15401 -0.27162,-0.24199 -0.37583,-0.20201 -0.43192,0.16579 -1.75532,3.05535 -1.47783,3.22685 0.0742,0.0458 0.28819,-0.0596 0.47563,-0.2342 0.71507,-0.6664 1.25611,-0.7611 2.04608,-0.35809 0.79907,0.40767 0.86472,0.57342 0.37509,0.94687 -0.86053,0.65638 -1.55978,0.71294 -2.30461,0.18645 -0.78218,-0.55286 -0.94326,-0.20134 -1.07196,2.33906 l -0.0816,1.61175 1.26342,2.34623 1.26342,2.34628 0.0653,-0.65022 c 0.0407,-0.40477 0.19468,-0.84531 0.40756,-1.16711 0.38072,-0.57528 0.35451,-0.67238 -0.18157,-0.67238 -0.86812,0 -1.43632,-0.616 -1.58782,-1.72145 l -0.0791,-0.57673 h 0.4045 c 1.01385,0 1.7993,0.74274 1.80024,1.70234 3.1e-4,0.33442 0.0511,0.47272 0.16001,0.43665 0.2713,-0.0896 0.88466,-1.20181 0.9057,-1.64218 0.0178,-0.38718 -0.0178,-0.42645 -0.49076,-0.53875 -0.99856,-0.23681 -1.46542,-0.84283 -1.46757,-1.90515 -6e-4,-0.29078 0.0549,-0.35112 0.3226,-0.35112 0.49754,0 1.16599,0.32667 1.40036,0.68434 0.11623,0.17735 0.23275,0.57008 0.25886,0.87251 0.026,0.30239 0.0511,0.57855 0.0558,0.61366 0.004,0.0351 0.064,-0.0224 0.13201,-0.12756 0.068,-0.10534 0.12467,-0.43908 0.12578,-0.74168 8.9e-4,-0.33382 0.0522,-0.51912 0.12957,-0.47125 0.16401,0.10134 0.16534,1.40205 0.002,1.97138 -0.0691,0.24066 -0.0993,0.46379 -0.0673,0.49586 0.032,0.032 0.29706,-0.15735 0.58888,-0.42108 0.47042,-0.42501 0.58722,-0.47181 1.02965,-0.41245 0.49404,0.0662 1.13384,0.39252 1.12113,0.57166 -0.004,0.0511 -0.23966,0.27956 -0.52451,0.50777 -0.57055,0.4571 -1.10356,0.52975 -1.63942,0.22344 -0.17557,-0.10045 -0.40536,-0.18401 -0.5107,-0.18601 -0.18313,-0.004 -1.20244,1.77119 -1.0849,1.88871 0.0302,0.0302 0.25899,-0.12423 0.50841,-0.34325 0.77083,-0.6768 1.57982,-0.69151 2.35681,-0.0429 l 0.42787,0.35722 -0.54572,0.40134 c -0.79495,0.58462 -1.16411,0.6286 -1.9693,0.23466 -0.37191,-0.18201 -0.76625,-0.33084 -0.87632,-0.33084 -0.28205,0 -0.47666,1.01789 -0.47666,2.49308 0,1.27289 0.20024,2.01337 0.93902,3.47113 0.1829,0.3611 0.47117,1.06775 0.6404,1.57031 l 0.30774,0.91378 0.28788,-0.87262 c 0.69103,-2.09452 1.96025,-4.34208 3.62528,-6.41978 0.53161,-0.66336 0.96658,-1.25598 0.96658,-1.31689 0,-0.0609 -0.4655,-0.75341 -1.03445,-1.53893 -1.21189,-1.6731 -2.30217,-3.81902 -2.67168,-5.25848 -0.36416,-1.41845 -0.4437,-3.12791 -0.26255,-5.64208 0.18823,-2.61258 0.23413,-4.57932 0.10978,-4.70557 -0.0509,-0.0516 -0.32389,0.11534 -0.60682,0.37093 -0.60193,0.54382 -0.9778,0.58516 -1.86455,0.20513 l -0.60593,-0.25973 0.42656,-0.44008 c 0.638,-0.65826 1.14677,-0.78503 1.82771,-0.45538 0.30204,0.14623 0.59126,0.26584 0.64267,0.26584 0.0513,0 -0.0738,-0.24417 -0.27818,-0.54262 -0.20446,-0.29846 -0.49563,-0.78681 -0.64711,-1.08527 -0.30678,-0.60442 -0.34894,-0.62651 -0.65929,-0.34565 -0.41316,0.37392 -1.02798,0.36423 -1.62187,-0.0256 -0.29844,-0.19579 -0.54262,-0.39276 -0.54262,-0.43754 0,-0.0449 0.24827,-0.21312 0.55169,-0.37407 0.64771,-0.34362 1.08767,-0.28555 1.58202,0.20868 l 0.32422,0.32422 -0.0771,-0.61668 -0.0769,-0.61669 0.24793,0.67978 c 0.29638,0.81259 0.79743,1.65705 0.86426,1.45657 0.0262,-0.0787 -0.0133,-0.25753 -0.0882,-0.39725 -0.0747,-0.13979 -0.13601,-0.46779 -0.13601,-0.72905 0,-0.38896 0.0936,-0.56402 0.51608,-0.966 0.28387,-0.27 0.59224,-0.49093 0.68532,-0.49093 0.10223,0 0.22179,0.26562 0.30195,0.6703 0.16912,0.85381 -0.0353,1.39605 -0.6672,1.76879 -0.2492,0.14712 -0.45312,0.3252 -0.45312,0.39591 0,0.0707 0.15245,0.30922 0.33853,0.53002 0.42928,0.50905 0.68065,1.1065 0.69094,1.6422 0.0111,0.55528 0.65996,-1.52933 1.02272,-3.28358 0.20979,-1.01496 0.25564,-1.63465 0.22308,-3.02206 -0.0224,-0.95991 -0.0776,-1.78172 -0.12223,-1.82628 -0.0449,-0.0444 -0.27458,0.0369 -0.51071,0.18068 -0.68226,0.41594 -1.29093,0.3488 -1.91028,-0.21069 l -0.52406,-0.47347 0.27855,-0.22557 c 0.72798,-0.58947 1.71219,-0.50459 2.2626,0.19512 0.1429,0.18157 0.28907,0.30113 0.32476,0.26542 0.0851,-0.0851 -0.21157,-1.62991 -0.52759,-2.7463 -0.24822,-0.87713 -0.25247,-1.19042 -0.007,-0.54584 0.18512,0.48708 0.26551,0.30666 0.10134,-0.22788 -0.20424,-0.66525 0.12467,-1.29027 0.86795,-1.65012 0.31313,-0.15157 0.59133,-0.25364 0.6182,-0.22677 0.0269,0.0269 0.0862,0.33509 0.13178,0.68491 0.0707,0.54082 0.0376,0.70301 -0.21957,1.08295 -0.16801,0.24826 -0.48219,0.50559 -0.70685,0.57899 -0.22237,0.0727 -0.43972,0.16757 -0.48299,0.21068 -0.0433,0.0433 0.0911,0.58709 0.29858,1.20849 0.20757,0.62142 0.44617,1.46474 0.53046,1.87408 0.16557,0.8037 0.2518,0.82682 0.45045,0.12068 0.18268,-0.64947 0.70121,-0.9948 1.47626,-0.98331 0.34509,0.004 0.66065,0.0424 0.70121,0.0831 0.13001,0.13001 -0.57106,1.36105 -0.86889,1.5254 -0.15801,0.0873 -0.56686,0.16112 -0.90839,0.16423 l -0.62093,0.004 0.0222,1.65596 c 0.0111,0.91077 0.0422,1.67682 0.0678,1.70236 0.0256,0.0256 0.28102,-0.18824 0.56775,-0.47494 0.43794,-0.43795 0.60387,-0.52135 1.03714,-0.52135 0.50073,0 1.52704,0.41396 1.52704,0.61593 0,0.13979 -0.77196,0.85584 -1.10879,1.02856 -0.41978,0.21535 -0.94573,0.1729 -1.49226,-0.12001 -0.26982,-0.14467 -0.52677,-0.22675 -0.57099,-0.18245 -0.0442,0.0442 -0.14646,0.46418 -0.227,0.93324 -0.0807,0.46905 -0.18912,1.08265 -0.24137,1.36354 l -0.0949,0.5107 0.3674,-0.33551 c 0.50359,-0.45988 0.85221,-0.62207 1.33727,-0.62207 0.46161,0 1.55922,0.58402 1.48968,0.79264 -0.0247,0.074 -0.29226,0.31393 -0.59457,0.5329 -0.72348,0.52399 -1.45453,0.53159 -2.12262,0.0222 -0.25375,-0.19357 -0.47943,-0.33173 -0.50152,-0.30709 -0.0651,0.0725 -0.56886,2.37933 -0.77674,3.55592 -0.23613,1.33658 -0.39943,4.21334 -0.23915,4.21334 0.0636,0 0.25039,-0.25393 0.41502,-0.56429 0.16468,-0.31035 0.58109,-0.9139 0.92545,-1.34122 0.34435,-0.42734 0.62609,-0.82444 0.62609,-0.88244 0,-0.058 -0.14846,-0.1849 -0.33009,-0.28211 -0.37054,-0.19824 -0.69134,-0.73383 -0.69134,-1.15404 0,-0.39096 0.275,-1.266 0.39787,-1.266 0.0562,0 0.33434,0.22091 0.61818,0.49095 0.5703,0.5425 0.6396,0.88146 0.33109,1.61982 -0.10179,0.24353 -0.1509,0.44277 -0.1089,0.44277 0.0418,0 0.34051,-0.24515 0.6638,-0.54477 0.32327,-0.2996 0.75154,-0.66221 0.95171,-0.80573 l 0.36392,-0.26099 -0.26769,-0.4391 c -0.40669,-0.66714 -0.3514,-1.17666 0.19313,-1.77937 0.25395,-0.28106 0.50185,-0.51106 0.5509,-0.51106 0.15824,0 0.5195,0.89075 0.5195,1.28074 0,0.25677 -0.15134,0.54592 -0.47129,0.89999 l -0.4713,0.52166 0.69471,-0.31742 c 0.38212,-0.17468 0.84702,-0.37658 1.0331,-0.4489 0.28121,-0.10934 0.33833,-0.21112 0.33833,-0.6032 0,-0.65149 0.37156,-1.10021 1.12119,-1.35391 l 0.62798,-0.21268 0.0407,0.45243 c 0.08,0.89148 -0.48595,1.56866 -1.31105,1.56866 -0.17912,0 -0.32554,0.0536 -0.32554,0.11912 0,0.0653 -0.12934,0.15712 -0.28726,0.20379 -0.4129,0.12179 -2.04283,1.09219 -1.96509,1.16993 0.036,0.036 0.19668,-0.0267 0.35736,-0.13912 0.16067,-0.11245 0.397,-0.20446 0.52532,-0.20446 0.34638,0 0.96027,0.35049 1.1127,0.63531 0.11312,0.21135 0.0756,0.27973 -0.24524,0.44554 -0.59533,0.30787 -1.09121,0.24638 -1.5974,-0.19801 l -0.4487,-0.39396 -0.67864,0.68122 c -1.10793,1.11215 -1.98656,2.55309 -1.16068,1.90345 0.51523,-0.40527 1.21361,-0.3532 1.76583,0.13156 0.24822,0.21802 0.4513,0.45099 0.4513,0.51791 0,0.0669 -0.26138,0.23723 -0.58084,0.37856 -0.71487,0.31622 -1.19053,0.23588 -1.71634,-0.28996 -0.20957,-0.20957 -0.43112,-0.35033 -0.49215,-0.31262 -0.0611,0.0378 -0.33118,0.56282 -0.60035,1.1669 -0.4725,1.06043 -0.48444,1.12195 -0.34587,1.78257 0.1849,0.88122 0.66307,2.0607 1.18415,2.92045 0.48743,0.80432 2.17042,2.91 2.38223,2.98061 0.1709,0.0569 2.50366,-1.91865 3.38164,-2.86387 0.51485,-0.55433 0.60726,-0.73823 0.68549,-1.3644 0.0498,-0.39803 0.0538,-0.90665 0.009,-1.13024 -0.0809,-0.40414 -0.57573,-1.24304 -0.7343,-1.24471 -0.0456,-5.1e-4 -0.28408,0.20024 -0.52986,0.44601 -0.50674,0.50675 -1.04723,0.58353 -1.82372,0.25909 l -0.44937,-0.18779 0.28238,-0.38194 c 0.15534,-0.21002 0.48023,-0.47581 0.72209,-0.59058 0.40407,-0.19179 0.48292,-0.19223 0.97334,-0.004 0.72874,0.27831 0.77481,0.26111 0.46516,-0.17379 -0.14779,-0.20757 -0.34398,-0.59547 -0.43587,-0.86182 -0.1609,-0.46634 -0.19268,-0.4867 -0.85704,-0.54946 -0.37949,-0.0358 -0.76263,-0.11156 -0.85139,-0.16823 -0.19824,-0.12668 -0.71034,-1.10788 -0.62345,-1.19475 0.0345,-0.0344 0.32563,-0.0669 0.6468,-0.0716 0.65434,-0.0111 1.01099,0.22817 1.28896,0.86041 l 0.1689,0.3841 0.02,-0.44686 c 0.0156,-0.36991 0.0382,-0.40289 0.12912,-0.19157 0.0833,0.19402 0.11179,0.1149 0.11868,-0.32886 0.0111,-0.64049 0.28662,-1.00994 0.94295,-1.2586 0.59402,-0.22506 0.6398,-0.18668 0.55089,0.46199 -0.1109,0.80856 -0.36563,1.15312 -0.97381,1.31689 -0.28106,0.0758 -0.50979,0.20712 -0.50825,0.29228 0.009,0.46557 1.13212,2.26134 1.41501,2.26134 0.054,0 0.0658,-0.20024 0.026,-0.44474 -0.10423,-0.64242 0.16757,-1.18522 0.73978,-1.47713 0.75797,-0.38669 0.88055,-0.34044 0.88055,0.33227 0,0.31949 -0.0836,0.74263 -0.18601,0.94035 -0.16912,0.32709 -0.86528,0.77695 -1.20233,0.77695 -0.0751,0 0.0111,0.27291 0.18824,0.60646 0.23021,0.42952 0.306,0.72752 0.25977,1.02141 -0.23555,1.49777 1.03921,-1.32321 1.45199,-3.21312 0.62729,-2.87202 0.26535,-6.15051 -0.90511,-8.19901 -0.52294,-0.91522 -0.72691,-1.0673 -0.99393,-0.74103 -0.3707,0.45296 -0.82899,0.69414 -1.31905,0.69414 -0.49326,0 -1.6348,-0.47235 -1.6348,-0.67643 0,-0.22684 0.79523,-0.85175 1.24026,-0.97462 0.48868,-0.1349 1.14606,0.0556 1.59589,0.46278 0.45674,0.41337 0.2109,7e-5 -0.4947,-0.83165 -0.39754,-0.46861 -0.89084,-1.1251 -1.09621,-1.45886 -0.20535,-0.3338 -0.39743,-0.60689 -0.42676,-0.60689 -0.0293,0 -0.26776,0.1149 -0.5298,0.25535 -0.84219,0.45141 -1.5003,0.29407 -2.31467,-0.55337 l -0.43003,-0.44745 0.52068,-0.26566 c 0.29922,-0.15268 0.76526,-0.26565 1.09561,-0.26565 0.50748,0 0.63749,0.0636 1.10879,0.54264 0.31213,0.31725 0.49228,0.43657 0.4337,0.28727 -0.52051,-1.32654 -0.74988,-2.03895 -0.88384,-2.74504 -0.14579,-0.76794 -0.18068,-0.82712 -0.46699,-0.79252 -1.34309,0.16223 -1.73739,0.009 -2.29198,-0.89264 -0.20868,-0.33929 -0.37956,-0.63791 -0.37956,-0.66365 0,-0.15979 1.15457,-0.30995 1.54106,-0.20023 0.61164,0.17334 0.69449,0.24275 1.06483,0.89073 l 0.3276,0.57315 8.9e-4,-1.11317 c 9.1e-4,-0.93664 0.032,-1.1015 0.19312,-1.03967 0.12246,0.0469 0.19157,-0.002 0.19157,-0.13668 0,-0.38856 0.48717,-1.16981 0.82566,-1.32402 0.18446,-0.084 0.65498,-0.1529 1.04552,-0.1529 h 0.71005 l -0.0865,0.35111 c -0.13001,0.52719 -0.47264,1.05845 -0.87671,1.35918 -0.2768,0.20602 -0.52259,0.26298 -1.05334,0.24415 l -0.69229,-0.0244 v 0.48592 c 0,0.51035 0.16512,1.49888 0.38952,2.33239 0.15089,0.55997 0.37653,0.53717 0.37653,-0.038 0,-0.89015 0.68196,-1.51464 1.70241,-1.55897 l 0.53195,-0.0231 -0.044,0.44688 c -0.11046,1.12181 -0.62374,1.65716 -1.68692,1.75932 -0.34712,0.0333 -0.63114,0.11468 -0.63114,0.1809 0,0.23118 0.78402,2.00132 0.94592,2.13571 0.12534,0.10401 0.19868,0.0178 0.31551,-0.37247 0.2677,-0.89351 0.62733,-1.18637 1.5377,-1.25222 0.43717,-0.0316 0.8424,-0.007 0.90051,0.0542 0.16868,0.17846 -0.44943,1.40832 -0.8345,1.66063 -0.23435,0.15357 -0.5774,0.22657 -1.03341,0.22002 -0.37545,-0.004 -0.68262,0.0278 -0.68262,0.074 0,0.046 0.52183,0.68105 1.15961,1.41101 0.6378,0.72998 1.33301,1.57918 1.54489,1.88715 0.58439,0.8494 1.20035,2.26901 1.50877,3.47736 0.15245,0.59684 0.28651,1.09476 0.29811,1.10648 0.0111,0.0111 0.0227,-1.10864 0.0249,-2.48969 0.004,-2.03192 0.0445,-2.61969 0.21779,-3.08059 0.2434,-0.64734 0.22428,-0.72005 -0.13823,-0.52602 -0.34173,0.1829 -1.16204,0.16802 -1.51373,-0.0275 -0.26542,-0.14757 -1.04789,-1.0795 -1.05558,-1.25723 -0.004,-0.10111 0.30922,-0.23439 0.86455,-0.36744 0.67287,-0.16135 1.25977,0.0738 1.69912,0.6802 0.21334,0.29446 0.41011,0.51875 0.43731,0.49837 0.0271,-0.02 0.38512,-0.37263 0.7953,-0.78283 l 0.74583,-0.74583 -0.59855,0.009 c -0.36287,0.004 -0.72956,-0.0769 -0.93124,-0.20891 -0.30629,-0.20068 -0.97305,-1.30633 -0.97305,-1.61356 0,-0.20401 1.36881,-0.15689 1.79166,0.0618 0.37309,0.1929 0.76188,0.77112 0.76188,1.13305 0,0.61647 0.94475,-0.0536 1.52088,-1.07865 0.31013,-0.55184 0.31071,-0.55106 -0.51841,-0.68836 -0.85217,-0.14112 -1.2008,-0.58004 -1.45037,-1.82599 -0.0816,-0.4069 -0.074,-0.41496 0.378,-0.41496 0.61349,0 1.28056,0.2911 1.5262,0.66602 0.10978,0.16734 0.22135,0.54744 0.24806,0.84461 0.0269,0.29716 0.0773,0.56887 0.11201,0.60376 0.0629,0.0629 0.25146,-0.55464 0.4703,-1.53984 0.0624,-0.28089 0.11912,-0.41017 0.12623,-0.28727 0.02,0.36592 0.18823,0.24813 0.45968,-0.32382 0.17756,-0.37405 0.40553,-0.61133 0.74811,-0.77863 0.43688,-0.21335 0.57084,-0.22315 1.18102,-0.0867 0.37854,0.0847 0.68825,0.18268 0.68825,0.21758 0,0.0349 -0.17579,0.319 -0.39052,0.63119 -0.59133,0.85949 -0.87184,0.9969 -1.84888,0.90565 l -0.82484,-0.0769 v 0.48272 c 0,0.53024 -0.332,1.77528 -0.54192,2.03239 -0.0731,0.0896 -0.10001,0.19557 -0.0598,0.23557 0.04,0.04 0.20535,-0.12934 0.36736,-0.37629 0.56557,-0.86277 1.2624,-1.04612 2.2584,-0.59415 l 0.5556,0.2521 -0.36409,0.43059 c -0.20024,0.23684 -0.52788,0.53099 -0.72814,0.65371 -0.44528,0.27289 -1.27465,0.27838 -1.68248,0.0111 -0.16623,-0.10889 -0.37691,-0.16179 -0.46838,-0.11778 -0.0916,0.044 -0.53973,0.48323 -0.99619,0.97582 -0.75025,0.80968 -0.78109,0.86313 -0.32146,0.55675 0.27962,-0.18646 0.68767,-0.33887 0.90677,-0.33887 0.44283,0 1.26602,0.49048 1.26602,0.75434 0,0.0933 -0.27099,0.31156 -0.60219,0.48502 -0.52617,0.27557 -0.6572,0.29724 -1.0379,0.17156 -0.23964,-0.0791 -0.53777,-0.25655 -0.66247,-0.39434 -0.33995,-0.37564 -0.50457,-0.31133 -0.94006,0.36736 -0.40032,0.6238 -0.77237,1.99083 -0.58847,2.16211 0.0547,0.0511 0.12068,0.0353 0.14646,-0.0351 0.18068,-0.49208 0.63215,-1.00241 1.03816,-1.17335 0.39692,-0.16712 0.5714,-0.17513 1.05052,-0.0487 0.316,0.0833 0.62395,0.20068 0.68436,0.26044 0.17068,0.1689 -0.62525,1.22533 -1.05821,1.40465 -0.36576,0.15157 -0.77252,0.13446 -1.57322,-0.0658 l -0.35111,-0.0878 0.002,2.0258 c 0.002,2.74242 -0.02,2.69235 0.83474,1.86444 0.7467,-0.72325 2.21158,-1.73009 3.09071,-2.1243 0.29782,-0.13356 0.5415,-0.29251 0.5415,-0.35325 0,-0.0607 -0.26566,-0.365 -0.59037,-0.67613 l -0.59038,-0.56566 0.0542,-0.74923 c 0.0511,-0.70863 0.4539,-1.5624 0.73685,-1.5624 0.0569,0 0.3174,0.26091 0.57871,0.57979 0.61991,0.75655 0.71031,1.3625 0.32273,2.16316 -0.15712,0.32448 -0.26215,0.61344 -0.23346,0.64211 0.0287,0.0287 0.58106,-0.11801 1.22755,-0.32585 0.64647,-0.20779 1.2616,-0.378 1.36692,-0.378 0.26529,0 0.24197,-0.10134 -0.13801,-0.59949 -0.69569,-0.91211 -0.63269,-1.74441 0.19957,-2.63674 l 0.48757,-0.52268 0.41356,0.83866 c 0.49437,1.00256 0.45765,1.52599 -0.15623,2.22504 -0.21646,0.24664 -0.36083,0.48135 -0.32063,0.52155 0.10423,0.10423 1.73346,-0.43796 2.22716,-0.74129 0.5061,-0.31098 0.52168,-0.51469 0.0667,-0.87262 -0.99345,-0.78146 -1.05087,-1.75481 -0.18001,-3.05115 0.0951,-0.14156 0.20846,-0.0787 0.54755,0.3042 0.23521,0.26551 0.49745,0.60438 0.58273,0.75305 0.23706,0.4133 0.19334,1.18095 -0.10001,1.7561 -0.14534,0.28489 -0.23304,0.54924 -0.1949,0.58742 0.0382,0.0382 0.48092,-0.3316 0.98382,-0.82177 l 0.91442,-0.89117 -0.65573,-0.72409 c -0.56091,-0.61936 -0.65574,-0.7985 -0.65574,-1.23853 0,-0.28294 0.11268,-0.72761 0.25042,-0.98814 0.46612,-0.88177 0.45032,-0.87577 0.91789,-0.34802 0.23521,0.26548 0.49743,0.60437 0.58273,0.75305 0.23466,0.40909 0.19423,1.17904 -0.0911,1.73863 -0.32769,0.64231 -0.32191,0.73534 0.0269,0.43474 l 0.28226,-0.24322 -0.23933,0.38303 c -0.13156,0.21068 -0.32273,0.5123 -0.42462,0.67032 -0.21158,0.32797 -0.23191,0.32077 0.81934,0.28955 0.56215,-0.0156 0.71867,0.0356 1.09341,0.36451 0.36932,0.32427 0.82846,1.24731 0.68956,1.38623 -0.0233,0.0233 -0.32309,0.0727 -0.66616,0.10979 -1.02989,0.11134 -1.675,-0.37725 -2.02687,-1.53478 -0.0651,-0.21468 -0.16935,-0.15489 -0.80421,0.4621 -0.4011,0.38976 -0.94443,0.85051 -1.2074,1.02392 -0.53004,0.34951 -0.50661,0.48392 0.0845,0.48463 0.68525,6.5e-4 1.18533,0.41479 1.40837,1.16582 0.26299,0.88559 0.26559,0.87655 -0.25276,0.87655 -0.9674,0 -1.71609,-0.62196 -1.72147,-1.43004 -0.004,-0.65935 -0.13357,-0.66569 -1.63809,-0.0804 -0.78148,0.30405 -1.42164,0.58907 -1.42255,0.6334 -6.6e-4,0.0442 0.24704,0.14313 0.551,0.2198 1.04183,0.26233 1.43619,0.80039 1.51099,2.06165 l 0.034,0.57455 -0.4424,-0.0407 c -0.58447,-0.0536 -1.26216,-0.40791 -1.57054,-0.82094 -0.18512,-0.24791 -0.24724,-0.53193 -0.24246,-1.10817 0.004,-0.42616 -0.0313,-0.79823 -0.0778,-0.82683 -0.25362,-0.15668 -3.66466,1.49512 -3.53167,1.71032 0.0362,0.0587 0.30309,0.14645 0.59315,0.19557 0.83608,0.14134 1.36216,0.71767 1.5402,1.6876 0.0804,0.43832 0.11512,0.82804 0.0771,0.86606 -0.038,0.038 -0.30978,0.0307 -0.60389,-0.0155 -1.08657,-0.17379 -1.79693,-0.98854 -1.79733,-2.06157 -1.1e-4,-0.29842 -0.0487,-0.54262 -0.108,-0.54262 -0.1789,0 -1.61872,1.46113 -2.02863,2.05868 -0.61022,0.8896 -1.11281,1.98458 -1.60427,3.49527 -0.53404,1.64162 -0.98576,3.16988 -0.94689,3.20353 0.0791,0.0684 2.84369,-0.49146 3.84494,-0.77865 1.20297,-0.34507 2.75772,-1.03785 2.75772,-1.22882 0,-0.0602 -0.25302,-0.22844 -0.56224,-0.37378 -0.72205,-0.33941 -0.99056,-0.6438 -1.09167,-1.23765 -0.0696,-0.40831 0.0607,-1.52744 0.19468,-1.67489 0.0944,-0.10401 1.19803,0.64216 1.52559,1.03143 0.3264,0.38791 0.34407,0.47036 0.27555,1.28753 l -0.0733,0.87311 0.3542,-0.23171 c 0.19468,-0.12734 0.76396,-0.49025 1.26482,-0.80625 0.50083,-0.31603 0.91297,-0.63687 0.91584,-0.71305 0.002,-0.0762 -0.1649,-0.29 -0.37267,-0.47519 -0.56559,-0.50395 -0.80977,-1.05592 -0.70772,-1.59985 0.10312,-0.54944 0.35463,-1.06181 0.63596,-1.29529 0.17779,-0.14756 0.25697,-0.11156 0.58455,0.26464 0.84655,0.97234 0.96327,1.77468 0.37407,2.5716 -0.33267,0.44997 -0.28213,0.53449 0.20757,0.34694 0.20291,-0.0778 0.87895,-0.27824 1.50246,-0.44565 0.62351,-0.16735 1.15944,-0.33014 1.19095,-0.36165 0.0316,-0.0316 -0.14823,-0.35611 -0.39951,-0.72134 -0.52693,-0.76605 -0.58311,-1.29182 -0.21513,-2.01303 0.23826,-0.46683 0.73518,-1.01138 0.82964,-0.90915 0.34831,0.37702 0.84374,1.40083 0.84374,1.74356 0,0.44006 -0.26317,1.07361 -0.61044,1.46964 -0.29753,0.33929 -0.0996,0.40674 0.49519,0.16868 0.84124,-0.3366 1.61307,-0.92856 2.22151,-1.70379 0.63076,-0.80365 0.61918,-0.92726 -0.12667,-1.34971 -0.72561,-0.41099 -1.00872,-0.86304 -0.99772,-1.59307 0.004,-0.33894 0.10423,-0.79997 0.22046,-1.02454 l 0.21113,-0.40827 0.60195,0.4591 c 0.33107,0.25253 0.67174,0.58397 0.75701,0.73654 0.18935,0.33858 0.21157,1.4185 0.036,1.74636 -0.0702,0.13157 -0.082,0.26769 -0.0256,0.30251 0.0564,0.0349 0.37212,-0.38671 0.70174,-0.93673 0.3296,-0.55001 0.80075,-1.2412 1.04701,-1.53593 0.50226,-0.60115 0.56455,-0.95089 0.20379,-1.14399 -0.38276,-0.2049 -0.77748,-0.94804 -0.77748,-1.46388 0,-0.6204 0.57673,-1.73414 0.898,-1.73414 0.0507,0 0.3082,0.31342 0.57202,0.69647 0.42972,0.62393 0.4727,0.75825 0.41276,1.29004 -0.0367,0.32649 -0.19335,0.7645 -0.34769,0.97338 -0.37145,0.50239 -0.24873,0.58924 0.27595,0.19535 0.46628,-0.35007 1.76355,-1.02772 1.83348,-0.95778 0.0242,0.0242 -0.12489,0.15735 -0.33153,0.29587 -0.20668,0.13845 -0.37583,0.28635 -0.37605,0.32871 -2.4e-4,0.0425 0.28627,0.0496 0.63654,0.0156 0.88219,-0.0847 1.32784,0.13512 1.78708,0.88137 0.21179,0.34407 0.38491,0.65124 0.38491,0.6826 0,0.0313 -0.23066,0.11912 -0.51259,0.19513 -1.0098,0.2719 -1.86266,-0.15868 -2.17231,-1.09699 -0.0791,-0.2396 -0.21312,-0.43563 -0.29784,-0.43563 -0.20713,0 -1.35756,1.20148 -1.83373,1.91513 -0.34104,0.51119 -0.8215,1.38237 -0.94722,1.71759 -0.0262,0.07 0.36558,0.12423 0.92413,0.12779 0.66585,0.004 1.04281,0.066 1.20284,0.19756 0.24306,0.1998 0.95551,1.25818 0.95551,1.41955 0,0.18601 -0.93869,0.39609 -1.49137,0.33378 -0.67662,-0.0762 -1.12443,-0.44546 -1.46852,-1.21069 -0.13424,-0.29844 -0.2658,-0.54264 -0.29249,-0.54264 -0.0267,0 -0.23644,0.33038 -0.46614,0.73417 -0.58522,1.02862 -1.67743,2.08216 -2.6343,2.54104 -0.8489,0.4071 -0.8992,0.55511 -0.18868,0.55511 0.54839,0 1.23604,0.31871 1.46999,0.68131 0.14512,0.22491 0.60278,1.4213 0.60278,1.57578 0,0.0224 -0.28356,0.0411 -0.63009,0.0411 -1.22566,0 -1.83197,-0.4391 -2.06906,-1.49848 -0.086,-0.38381 -0.22995,-0.72614 -0.32011,-0.76077 -0.31704,-0.12178 -2.6042,0.75339 -3.70537,1.41766 -0.61237,0.36943 -1.13319,0.73094 -1.15734,0.80339 -0.0242,0.0725 0.19001,0.16912 0.47603,0.2149 0.78699,0.12579 1.37483,0.73783 1.53344,1.5964 0.21179,1.14671 0.21179,1.14646 -0.44579,1.02361 -1.24337,-0.23231 -1.72536,-0.75617 -1.72536,-1.87524 0,-0.34292 -0.0338,-0.65718 -0.0749,-0.69843 -0.0413,-0.0413 -0.56415,0.24386 -1.16201,0.63355 -1.23871,0.80744 -2.62641,1.40619 -4.3808,1.8902 -2.99678,0.82679 -4.40528,1.23502 -4.53931,1.31572 -0.30305,0.18245 -3.22583,3.54596 -4.10658,4.72586 -1.31084,1.75608 -2.83235,4.84074 -3.28989,6.66989 l -0.0822,0.32844 1.25855,-0.4204 c 1.38025,-0.46106 2.89487,-0.81102 3.51,-0.81102 0.4239,0 0.97476,-0.35444 1.85149,-1.19137 0.58311,-0.55666 0.5635,-0.85144 -0.0567,-0.85144 -0.4541,0 -1.17077,-0.37078 -1.40366,-0.72622 -0.27057,-0.41294 -0.55806,-1.67779 -0.40311,-1.77355 0.17068,-0.10556 1.13036,0.0702 1.54653,0.28318 0.49083,0.25119 0.74954,0.70147 0.8449,1.47061 0.0451,0.36369 0.14868,0.68342 0.23037,0.71052 0.0838,0.0278 0.52417,-0.69432 1.0131,-1.66168 0.81305,-1.60875 0.85517,-1.73398 0.705,-2.09652 -0.0878,-0.21202 -0.28518,-0.45423 -0.43854,-0.53815 -0.74492,-0.40767 -0.98331,-1.24669 -0.66518,-2.34103 l 0.21224,-0.72998 0.3424,0.1789 c 0.46585,0.24339 0.99869,0.8253 1.16946,1.2772 0.1529,0.40465 0.0771,0.95344 -0.20935,1.51368 -0.35271,0.69018 -0.0338,0.56449 0.88157,-0.3474 0.70254,-0.69987 1.17942,-1.04383 1.97274,-1.42281 0.6274,-0.29973 1.08401,-0.60202 1.14063,-0.75516 0.052,-0.14046 0.0982,-0.70716 0.1029,-1.25936 0.009,-0.99313 0.0133,-1.00838 0.47468,-1.40445 0.25642,-0.22024 0.64158,-0.50266 0.85588,-0.62758 l 0.38967,-0.22717 0.14668,0.54501 c 0.32038,1.18989 -0.12246,2.20658 -1.10228,2.52991 -0.22799,0.0753 -0.44899,0.22662 -0.4911,0.33636 -0.0582,0.15201 -0.0231,0.17668 0.14823,0.10356 0.40872,-0.17445 2.6167,-0.82643 2.76277,-0.81585 0.0789,0.007 -0.0224,0.0836 -0.22532,0.17312 -0.53222,0.23502 -0.20113,0.3618 0.49028,0.18779 0.45223,-0.11378 0.6684,-0.11045 0.97189,0.0156 0.44398,0.18401 0.95319,0.79356 1.07687,1.28929 0.0791,0.31755 0.0527,0.3398 -0.50704,0.42372 -0.32488,0.0489 -0.7578,0.052 -0.96206,0.007 -0.35278,-0.0776 -1.14817,-0.83019 -1.14817,-1.08654 0,-0.0662 -0.1409,-0.21268 -0.31322,-0.32553 -0.30234,-0.19802 -0.36558,-0.17802 -1.81942,0.57719 -0.82837,0.43032 -1.61687,0.86546 -1.75219,0.96703 -0.44972,0.33746 -0.102,0.34264 0.47068,0.007 0.6032,-0.35351 1.32398,-0.42878 1.79466,-0.18757 0.34673,0.17779 1.10876,0.89053 1.10876,1.03703 0,0.17068 -1.30138,0.73252 -1.70009,0.7339 -0.43028,8.9e-4 -0.77415,-0.16712 -1.33667,-0.65587 -0.66874,-0.58091 -1.09806,-0.50481 -1.89274,0.33553 -0.55859,0.59071 -1.83735,2.79235 -1.83735,3.1634 0,0.19113 0.35014,0.0873 0.58638,-0.17356 0.67485,-0.74575 1.76221,-0.81151 2.5726,-0.15557 0.25226,0.20424 0.45521,0.42621 0.45099,0.49339 -0.004,0.0671 -0.27869,0.30889 -0.60987,0.5371 -0.75863,0.5228 -1.43232,0.55355 -2.17022,0.0991 -0.8019,-0.49388 -0.98486,-0.43658 -1.51837,0.47548 -0.2567,0.43887 -0.66647,1.0096 -0.91055,1.26824 -0.24411,0.25864 -0.44381,0.49397 -0.44381,0.52293 0,0.0289 0.76128,0.0896 1.69174,0.13467 0.93044,0.0451 2.03645,0.16668 2.45777,0.27051 0.42134,0.10379 0.80313,0.19068 0.84839,0.19313 0.0453,0.002 0.41294,-0.89031 0.817,-1.98403 0.40405,-1.09372 0.94566,-2.31512 1.20361,-2.71421 0.87246,-1.34987 2.37206,-2.3739 4.34475,-2.96688 1.23938,-0.37256 2.47248,-0.89806 3.44586,-1.46854 0.76523,-0.4485 2.42728,-1.8932 2.42728,-2.10988 0,-0.0609 -0.28159,-0.25358 -0.62577,-0.42799 -0.88722,-0.44959 -1.16171,-0.84537 -1.16171,-1.67509 0,-0.37218 0.0576,-0.82777 0.12757,-1.01239 l 0.12756,-0.33571 0.52611,0.29547 c 1.01031,0.56741 1.44234,1.44163 1.16272,2.35276 -0.2648,0.86273 0.0962,0.52475 1.25658,-1.17637 0.65106,-0.95453 1.2602,-1.76483 1.35356,-1.80066 0.28173,-0.10801 0.19379,-0.41607 -0.27518,-0.96398 -0.50525,-0.59028 -0.66544,-1.18835 -0.46912,-1.75152 0.16979,-0.48694 0.78168,-1.29833 0.91638,-1.21508 0.056,0.0344 0.27931,0.33109 0.49652,0.65902 0.51824,0.78241 0.54033,1.55606 0.0645,2.25642 -0.39107,0.57551 -0.34327,0.68516 0.18068,0.41428 0.21135,-0.10934 0.71954,-0.32367 1.12903,-0.47626 1.34767,-0.50212 1.96112,-1.01294 2.67072,-2.22378 0.18513,-0.31571 0.29611,-0.65846 0.25498,-0.78678 -0.04,-0.12512 -0.332,-0.33367 -0.64867,-0.46359 -0.96278,-0.39507 -1.34874,-1.2194 -1.07674,-2.29967 0.082,-0.32569 0.1989,-0.59216 0.25973,-0.59216 0.0609,0 0.39278,0.17357 0.73769,0.38585 0.89269,0.54929 1.23489,1.37401 0.91702,2.21009 -0.24915,0.65527 0.0518,0.43734 0.40121,-0.29044 0.28373,-0.5912 0.50619,-0.85199 0.99922,-1.17148 0.34885,-0.22602 0.63362,-0.4731 0.63287,-0.54906 -6.7e-4,-0.076 -0.0862,-0.41797 -0.19001,-0.76003 -0.20602,-0.67883 -0.15113,-1.11484 0.20379,-1.62323 0.24764,-0.35469 1.32682,-0.99085 1.45812,-0.85953 0.0438,0.0438 0.11245,0.5146 0.15268,1.04632 l 0.0731,0.96678 -0.49862,0.48197 c -0.27424,0.26506 -0.61277,0.55619 -0.75232,0.64691 -0.24548,0.15957 -0.24439,0.16312 0.0336,0.10778 0.15801,-0.0316 0.28729,-0.0393 0.28729,-0.0178 0,0.0222 -0.30353,0.2109 -0.67454,0.42038 -0.71491,0.40347 -1.29435,0.94087 -0.79374,0.73619 0.14045,-0.0576 0.55906,-0.1329 0.93031,-0.16779 0.66191,-0.0622 0.68476,-0.0527 1.18101,0.48476 0.27833,0.30149 0.50604,0.59898 0.50604,0.66112 0,0.1809 -0.84384,0.48294 -1.34927,0.48294 -0.35687,0 -0.55642,-0.0962 -0.86593,-0.41801 -0.22113,-0.22992 -0.46319,-0.52726 -0.53775,-0.66075 -0.20246,-0.36247 -0.40956,-0.14757 -0.64591,0.67031 -0.60891,2.10699 -1.41108,3.09237 -3.21736,3.95232 -0.65447,0.31158 -1.16515,0.59126 -1.13488,0.62155 0.0302,0.0302 0.21046,-0.004 0.40027,-0.0762 0.72354,-0.27509 1.21582,-0.16779 1.76926,0.38562 0.47581,0.47584 0.5005,0.53326 0.31064,0.72312 -0.12089,0.1209 -0.50185,0.23075 -0.9203,0.26544 l -0.7141,0.0591 -0.55399,-0.60342 c -0.80953,-0.88173 -0.92131,-0.7893 -2.69815,2.23071 -0.80203,1.36316 -1.24108,1.9506 -2.09943,2.80888 l -1.08534,1.08528 1.14908,-0.0353 c 1.18806,-0.0364 2.33876,-0.18779 3.14657,-0.41371 0.44845,-0.12557 0.48084,-0.17513 0.89184,-1.36746 0.49124,-1.42509 1.13686,-2.4961 1.81668,-3.01363 0.5282,-0.40205 1.76662,-0.99118 2.61681,-1.24482 0.30575,-0.0911 0.58475,-0.24099 0.62,-0.33282 0.0353,-0.0918 -0.11446,-0.37025 -0.33249,-0.61867 -0.60078,-0.68424 -0.54326,-1.56226 0.15245,-2.32598 0.14401,-0.15801 0.30667,-0.28729 0.36169,-0.28729 0.0551,0 0.24609,0.24924 0.42461,0.55386 0.42894,0.73192 0.42699,1.4067 -0.007,2.04381 -0.18179,0.26755 -0.29544,0.52155 -0.25255,0.56444 0.19691,0.1969 3.13207,-1.55642 3.13498,-1.87262 6.6e-4,-0.0982 -0.15023,-0.48912 -0.33576,-0.86844 -0.31149,-0.63664 -0.32513,-0.73085 -0.17757,-1.22566 0.14824,-0.49703 1.00045,-1.49357 1.27716,-1.49357 0.1389,0 0.64218,1.31429 0.64218,1.67721 0,0.42145 -0.39187,1.13059 -0.78568,1.42174 -0.53119,0.39272 -0.44419,0.52946 0.11534,0.18135 0.26335,-0.16379 0.56497,-0.34165 0.67031,-0.39517 0.24907,-0.12645 -0.78521,0.81199 -1.56124,1.4167 -0.332,0.25871 -0.58317,0.49086 -0.55815,0.51588 0.0249,0.0249 0.31007,-0.0222 0.63342,-0.10245 0.92749,-0.23355 1.38766,-0.0809 2.05473,0.68167 0.3192,0.36489 0.58035,0.70276 0.58035,0.75081 0,0.048 -0.25809,0.18601 -0.57353,0.30642 -1.06419,0.40643 -2.08806,0.009 -2.49313,-0.9698 -0.0818,-0.19735 -0.22779,-0.38921 -0.32449,-0.42632 -0.0967,-0.0371 -0.65162,0.18224 -1.23315,0.48732 -0.58153,0.30516 -1.61898,0.7979 -2.30543,1.09504 -1.37385,0.59466 -2.31756,1.3344 -2.84027,2.22631 -0.39967,0.68198 -0.85281,1.98591 -0.69013,1.98591 0.1629,0 0.81245,-0.41516 2.28878,-1.46288 1.48966,-1.05714 2.38228,-1.51761 3.59149,-1.8527 1.33441,-0.36978 2.63986,-0.44023 4.06913,-0.21957 0.66712,0.10289 1.23818,0.16356 1.26905,0.13467 0.0309,-0.0289 -0.0413,-0.32415 -0.16024,-0.65613 -0.26762,-0.74668 -0.27275,-1.20689 -0.02,-1.69768 0.17846,-0.34507 1.11364,-1.14023 1.34101,-1.14023 0.0518,0 0.19423,0.36896 0.31629,0.81988 0.21779,0.80485 0.2169,0.83001 -0.0478,1.37254 -0.14823,0.30393 -0.47081,0.68876 -0.7166,0.8551 -0.24582,0.16624 -0.4201,0.34585 -0.38732,0.3989 0.0773,0.12534 1.05894,-0.0596 1.68299,-0.31691 0.73965,-0.305 0.83145,-0.49544 0.54403,-1.12844 -0.37804,-0.83266 -0.32677,-1.51888 0.15446,-2.06699 0.22113,-0.25182 0.56079,-0.53997 0.7549,-0.64035 0.35282,-0.18246 0.353,-0.18224 0.55561,0.41231 0.38376,1.12626 0.20735,1.82191 -0.64826,2.55698 -0.2514,0.21602 -0.28822,0.28747 -0.12046,0.234 0.21357,-0.0682 0.22091,-0.052 0.0638,0.13867 -0.0978,0.11868 -0.39119,0.37087 -0.65216,0.56049 -0.55251,0.40142 -0.50939,0.50623 0.20846,0.50688 0.97024,6.6e-4 1.61242,0.65822 1.91667,1.96187 l 0.0856,0.3664 -0.80968,-0.0516 c -1.29683,-0.0827 -1.63283,-0.41714 -1.94796,-1.93971 -0.0691,-0.334 -0.11001,-0.35752 -0.48461,-0.27922 -0.225,0.0471 -1.08417,0.11667 -1.90929,0.15468 -0.8251,0.0382 -1.50022,0.11934 -1.50022,0.18045 0,0.0611 0.11468,0.29927 0.25489,0.52917 0.40907,0.67096 0.34004,1.35332 -0.20802,2.0569 -0.25517,0.32754 -0.50857,0.59551 -0.56312,0.59551 -0.14001,0 -0.76041,-1.27756 -0.76041,-1.5656 0,-0.33358 0.22001,-0.72674 0.67691,-1.20946 0.2149,-0.22719 0.34714,-0.45683 0.29362,-0.51032 -0.15934,-0.15935 -1.79317,-0.0596 -2.64629,0.16134 -0.43643,0.11312 -1.14284,0.3798 -1.56978,0.59275 -0.7257,0.36189 -2.87453,1.87302 -2.88033,2.0255 -0.009,0.21557 2.4357,1.36452 3.36503,1.58184 0.33456,0.0782 0.36105,0.0598 0.29773,-0.20779 -0.0382,-0.16157 -0.15756,-0.5309 -0.26548,-0.82079 -0.26189,-0.70427 -0.0878,-1.3198 0.56835,-2.01074 l 0.50001,-0.52646 0.25522,0.3192 c 0.69191,0.86542 0.64293,1.86544 -0.12823,2.61849 -0.28027,0.27367 -0.50957,0.54338 -0.50957,0.59934 0,0.18334 1.02294,0.10689 2.0385,-0.15246 0.54768,-0.13979 1.23717,-0.27597 1.53219,-0.30255 0.62896,-0.0567 0.80439,-0.21713 1.00194,-0.91678 0.25513,-0.90346 1.08861,-1.45008 2.22615,-1.45995 0.30651,-0.002 0.35112,0.046 0.35112,0.3841 0,0.52508 -0.28005,1.14419 -0.68752,1.51999 -0.25748,0.23749 -0.51841,0.32427 -1.10172,0.36647 -0.42036,0.0304 -0.7643,0.10579 -0.7643,0.16757 0,0.0618 0.10357,0.11223 0.23035,0.11223 0.27175,0 1.28283,0.6212 1.55713,0.95667 0.17935,0.21935 0.17335,0.22455 -0.0958,0.0813 -0.37681,-0.20091 -0.36809,-0.0529 0.0156,0.24815 0.47329,0.37231 0.65551,0.9346 0.4861,1.50008 -0.0782,0.26104 -0.22486,0.58768 -0.32589,0.72583 -0.18268,0.24973 -0.18535,0.2497 -0.46366,-0.002 -0.64975,-0.58801 -0.78914,-1.27937 -0.38994,-1.93411 0.36554,-0.59944 0.22469,-0.88575 -0.58473,-1.18859 -0.78214,-0.29264 -1.5073,-0.32882 -2.23282,-0.11157 -0.57402,0.17202 -0.61053,0.29794 -0.18357,0.63372 0.17046,0.13401 0.37481,0.44025 0.45401,0.68033 0.12246,0.37125 0.10245,0.53319 -0.13423,1.08328 -0.15312,0.35569 -0.32264,0.64671 -0.37696,0.64671 -0.0542,0 -0.27704,-0.20313 -0.49499,-0.4513 -0.47652,-0.54275 -0.52392,-1.1633 -0.13667,-1.78979 0.14267,-0.23095 0.21357,-0.44825 0.15756,-0.4829 -0.056,-0.0347 -0.41518,0.0178 -0.79805,0.11756 -0.78715,0.20424 -1.6273,0.22697 -2.33217,0.0631 -0.53403,-0.12401 -0.60179,-0.0336 -0.22826,0.30444 0.13779,0.12468 0.31594,0.42479 0.39581,0.66687 0.1269,0.38449 0.10645,0.5157 -0.16246,1.0379 -0.16912,0.32877 -0.38809,0.59777 -0.48648,0.59777 -0.27146,0 -0.76356,-0.81592 -0.76356,-1.266 0,-0.21913 0.14201,-0.6072 0.31536,-0.86244 0.34184,-0.50308 0.2933,-0.62735 -0.31536,-0.80754 -0.17557,-0.052 -0.82837,-0.34558 -1.45068,-0.65251 l -1.13148,-0.55802 -0.3586,0.25533 c -0.64545,0.45961 -2.21033,1.13701 -3.22247,1.39494 -0.54579,0.13912 -1.86724,0.31382 -2.93658,0.38832 -3.41553,0.23788 -4.5217,0.46843 -6.02549,1.25588 -2.1081,1.1039 -3.18711,2.93039 -3.28614,5.5625 l -0.038,1.00785 0.81979,0.42152 0.81979,0.42154 0.36285,-0.30533 c 0.19957,-0.16801 0.9654,-0.59382 1.70185,-0.94642 0.73643,-0.35261 1.33896,-0.71834 1.33896,-0.81277 0,-0.0944 -0.17757,-0.30298 -0.39476,-0.4635 -0.41094,-0.30382 -0.75434,-0.95382 -0.75434,-1.42783 0,-0.32076 0.62864,-1.77562 0.76725,-1.77562 0.23493,0 1.1393,1.16486 1.21415,1.56387 0.0864,0.46081 -0.16401,1.2422 -0.52628,1.64262 -0.13579,0.15001 -0.15201,0.24202 -0.0533,0.30305 0.33907,0.20957 3.39853,-2.65132 3.24978,-3.0389 -0.0455,-0.11846 -0.13467,-0.21535 -0.19845,-0.21535 -0.2118,0 -0.62189,-0.82359 -0.62238,-1.24993 -2.7e-4,-0.23102 0.12134,-0.65892 0.27031,-0.95085 l 0.27082,-0.53081 0.49525,0.53097 c 0.58391,0.62597 0.65458,1.21048 0.22951,1.89829 -0.34985,0.56606 -0.20491,0.54332 0.46341,-0.0727 0.53646,-0.4945 1.68105,-1.15708 1.99883,-1.15708 0.0891,0 -0.14357,0.20579 -0.51715,0.45748 -0.75977,0.51163 -0.8037,0.66518 -0.10712,0.37411 0.92213,-0.38529 1.59404,-0.15556 2.17782,0.74483 l 0.33744,0.52037 -0.54354,0.16935 c -0.83111,0.25888 -1.61761,0.13445 -2.00772,-0.31745 -0.17779,-0.20601 -0.38841,-0.48461 -0.46797,-0.61904 -0.13956,-0.23586 -0.15668,-0.23326 -0.49357,0.0749 -0.56264,0.5147 -2.26955,2.56106 -2.19686,2.63376 0.0367,0.0367 0.28826,-0.0802 0.55917,-0.2594 0.7371,-0.48777 1.20102,-0.53877 1.88569,-0.20735 0.31942,0.15468 0.69956,0.43219 0.84479,0.61682 0.25369,0.32252 0.25495,0.34267 0.0324,0.51395 -0.99932,0.76901 -2.03579,0.80066 -2.79429,0.0853 -0.24701,-0.23297 -0.52712,-0.45352 -0.62244,-0.4901 -0.0953,-0.0365 -0.45185,0.19246 -0.79228,0.50917 -0.74214,0.69022 -1.31478,1.08881 -2.62991,1.83066 -0.54422,0.307 -0.98949,0.60822 -0.98949,0.66942 0,0.29858 2.05241,-0.13801 5.14642,-1.09498 0.82919,-0.25644 1.61027,-0.46626 1.73574,-0.46626 0.36659,0 1.68172,-0.92384 2.38026,-1.67203 0.35434,-0.37949 0.96209,-1.12092 1.3506,-1.64758 0.3885,-0.52668 1.01454,-1.25891 1.39121,-1.62722 l 0.68485,-0.66963 -0.35831,-0.374 c -0.53626,-0.55973 -0.58813,-1.33676 -0.14024,-2.10099 0.19046,-0.32482 0.39939,-0.5906 0.46448,-0.5906 0.22291,0 0.8788,1.19553 0.8788,1.6018 0,0.24504 -0.15024,0.61018 -0.38383,0.93258 -0.43654,0.60264 -0.42292,0.61995 0.2293,0.29091 0.91905,-0.46364 1.10293,-0.41503 0.34605,0.0916 -0.84061,0.56255 -1.86982,1.55193 -1.6144,1.55193 0.0887,0 0.37398,-0.17112 0.6342,-0.3802 0.84777,-0.6813 1.7063,-0.63578 2.55407,0.13534 0.50679,0.46099 0.45672,0.55839 -0.54809,1.06678 -0.84206,0.42606 -1.38472,0.37963 -2.018,-0.17268 -0.22673,-0.19779 -0.52826,-0.39564 -0.67012,-0.43983 -0.26199,-0.0816 -0.42196,0.11268 -1.32536,1.60992 -0.28515,0.47259 -0.20023,0.66698 0.12201,0.27886 0.50097,-0.60362 1.45466,-0.72112 2.34439,-0.28884 0.48156,0.23395 0.55141,0.31335 0.4471,0.50826 -0.068,0.12712 -0.33663,0.37573 -0.59694,0.55261 -0.62982,0.42797 -1.34609,0.42885 -1.9736,0.002 -0.25835,-0.17556 -0.52555,-0.3192 -0.59377,-0.3192 -0.0682,0 -0.2418,0.19046 -0.38568,0.42337 -0.14401,0.23284 -0.37842,0.52901 -0.52112,0.65815 -0.14268,0.12912 -0.25949,0.27511 -0.25949,0.32429 0,0.0491 0.41917,0.12112 0.93147,0.16001 0.51232,0.0387 1.346,0.20957 1.85266,0.37939 l 0.92116,0.30893 0.5313,-0.71205 c 1.24682,-1.67103 2.09968,-2.43813 3.07292,-2.76393 0.67854,-0.22715 0.71563,-0.33502 0.39972,-1.16223 -0.28357,-0.74252 -0.15379,-1.26407 0.48175,-1.93767 0.56666,-0.60051 0.59248,-0.59504 0.94653,0.20023 0.10067,0.22598 0.1829,0.62363 0.1829,0.88371 0,0.39518 -0.0962,0.56517 -0.58651,1.03483 -0.32258,0.30909 -0.5589,0.5896 -0.52515,0.62335 0.0338,0.0338 0.68552,-0.009 1.44833,-0.0922 1.57282,-0.17423 1.70616,-0.2605 1.70616,-1.10374 0,-0.78468 0.27362,-1.23033 0.95091,-1.54869 0.31814,-0.14956 0.63147,-0.2719 0.69627,-0.2719 0.0649,0 0.15668,0.22935 0.20402,0.50963 0.15423,0.91278 -0.28331,1.51604 -1.40426,1.93618 l -0.38305,0.14357 0.3192,0.0971 c 0.17557,0.0536 0.26176,0.10556 0.19157,0.11578 -0.0702,0.0111 -0.75967,0.18446 -1.53213,0.38687 -1.15701,0.30318 -1.31058,0.36956 -0.87161,0.3769 0.68425,0.0111 1.22895,0.45489 1.48624,1.21008 l 0.19068,0.55931 -0.35894,0.0718 c -0.83286,0.16668 -1.7229,-0.39707 -1.86718,-1.18239 -0.0996,-0.54184 -0.25121,-0.66643 -0.68471,-0.56249 -1.08652,0.26053 -2.12104,1.13979 -3.18231,2.70466 -0.43345,0.63915 -0.51406,0.83637 -0.3768,0.92197 0.28128,0.17535 1.83975,0.4993 2.40225,0.4993 0.61,0 0.67003,-0.19512 0.19668,-0.63975 -0.17645,-0.16557 -0.38002,-0.52179 -0.45263,-0.79144 -0.11467,-0.4262 -0.0873,-0.58979 0.21046,-1.25315 0.18823,-0.41961 0.38125,-0.76292 0.42874,-0.76292 0.12601,0 0.71772,0.65629 0.8846,0.98107 0.2381,0.4635 0.16712,1.11857 -0.17602,1.62413 -0.42965,0.63316 -0.41076,0.76435 0.0958,0.66447 0.68176,-0.13445 1.63342,-0.66709 2.6446,-1.48019 0.52409,-0.42143 1.25123,-0.88988 1.61583,-1.041 0.73843,-0.30607 0.92955,-0.59207 0.84748,-1.2682 -0.0929,-0.76459 0.23737,-1.33394 0.99682,-1.71877 0.78755,-0.39909 0.88069,-0.32982 0.88364,0.6572 0.002,0.80161 -0.30786,1.24887 -1.10265,1.58958 -0.62633,0.26846 -0.73238,0.48201 -0.20401,0.41092 0.30631,-0.0411 0.82381,0.0707 1.91717,0.41438 0.23922,0.0751 0.39152,-0.0222 0.88026,-0.56053 0.68434,-0.75438 1.11319,-0.88952 2.08368,-0.65671 l 0.64272,0.15424 -0.28816,0.51745 c -0.42165,0.75721 -0.90437,1.02116 -1.69261,0.92551 -0.86023,-0.10445 -1.57768,-0.17023 -2.88646,-0.26497 -1.00727,-0.0729 -1.1564,-0.0522 -1.78748,0.24915 -0.72397,0.34562 -2.6675,1.79828 -2.6675,1.99378 0,0.16668 1.78508,1.00396 2.23433,1.04808 0.38274,0.0375 0.38307,0.0369 0.39859,-0.67432 0.02,-0.90902 0.16534,-1.16797 0.8817,-1.56831 l 0.58191,-0.32522 0.13245,0.34516 c 0.29642,0.77176 -0.32958,1.94111 -1.03918,1.94111 -0.13934,0 -0.25333,0.0802 -0.25333,0.17801 0,0.21891 0.77474,0.0709 1.64609,-0.31464 0.31014,-0.13712 0.59331,-0.22002 0.62927,-0.18401 0.036,0.036 -0.004,0.0653 -0.0911,0.0653 -0.086,0 -0.1209,0.0576 -0.0776,0.12757 0.0433,0.0702 0.33136,0.12778 0.63991,0.12778 0.30856,0 0.70876,0.0673 0.88935,0.14957 0.38154,0.17379 0.76759,0.75772 0.89298,1.35061 0.0829,0.39149 0.0673,0.41478 -0.27351,0.41189 -1.1039,-0.009 -2.0849,-0.63224 -2.0849,-1.32394 0,-0.54537 -0.26151,-0.60939 -1.09299,-0.26757 -0.49621,0.20401 -1.01207,0.31278 -1.49246,0.31478 -0.40378,8.6e-4 -0.73414,0.0547 -0.73414,0.11756 0,0.0631 0.1429,0.36472 0.31764,0.67032 0.49288,0.86217 0.38314,1.4307 -0.42434,2.19824 l -0.38482,0.36578 -0.32878,-0.64882 c -0.1809,-0.35685 -0.3288,-0.83068 -0.3288,-1.05294 0,-0.44228 0.40534,-1.19642 0.7048,-1.31134 0.312,-0.11979 0.21335,-0.42656 -0.16223,-0.50455 -0.19313,-0.04 -0.66711,-0.26402 -1.05336,-0.49759 l -0.70223,-0.42469 -0.76603,0.30882 c -0.89613,0.36125 -2.13797,0.47874 -3.12811,0.29597 -0.38623,-0.0713 -0.72072,-0.11134 -0.74336,-0.0891 -0.0225,0.0222 0.52697,0.41507 1.22128,0.87288 0.69434,0.45783 1.33752,0.92289 1.4293,1.03347 0.25564,0.30805 0.35792,0.24882 0.62916,-0.3644 0.30449,-0.68836 0.78545,-0.96662 1.67063,-0.96662 0.73185,0 0.76145,0.0618 0.39289,0.8215 -0.3314,0.68309 -0.68294,0.88502 -1.50373,0.86379 -0.36867,-0.009 -0.67031,0.004 -0.67031,0.0293 0,0.0258 0.1429,0.29677 0.31767,0.60237 0.41211,0.7209 0.41025,0.91827 -0.004,0.35705 -0.40789,-0.55348 -1.22175,-1.20464 -2.00178,-1.6016 -0.77499,-0.39438 -0.8604,-0.38607 -0.45868,0.0447 0.73223,0.78505 0.79228,1.36067 0.23382,2.24127 -0.20913,0.32975 -0.43294,0.59955 -0.49739,0.59955 -0.228,0 -0.90987,-1.23311 -0.90987,-1.6454 0,-0.44953 0.25362,-1.02483 0.56613,-1.28418 0.11001,-0.0913 0.20002,-0.21224 0.20002,-0.26873 0,-0.0567 -0.3591,-0.31903 -0.79797,-0.58329 -0.4389,-0.26426 -1.10832,-0.70758 -1.48764,-0.98513 -1.53942,-1.1265 -3.67985,-1.25638 -6.26875,-0.38041 -0.52668,0.17824 -1.00271,0.36556 -1.05787,0.41639 -0.0551,0.0509 0.32658,0.21646 0.8483,0.368 0.52173,0.15157 1.33641,0.44963 1.8104,0.66229 0.47396,0.21268 0.89459,0.35385 0.93473,0.31373 0.04,-0.0402 0.13245,-0.25488 0.20512,-0.47725 0.19002,-0.58118 0.85646,-0.98774 1.61932,-0.98774 0.70445,0 0.73105,0.0611 0.37138,0.85335 -0.31205,0.68727 -0.86553,0.99285 -1.58885,0.87717 l -0.52165,-0.0833 0.76434,0.53073 c 0.42041,0.29191 0.88939,0.64551 1.0422,0.78579 0.33023,0.30317 0.55206,0.20846 0.55206,-0.23593 0,-0.38345 0.63814,-1.0679 0.99565,-1.0679 0.13712,0 0.42877,-0.036 0.6482,-0.0798 0.37294,-0.0747 0.39896,-0.0558 0.39852,0.28727 -6.2e-4,0.48967 -0.43216,1.17361 -0.83779,1.32782 -0.18001,0.0685 -0.53555,0.12445 -0.7899,0.12445 h -0.46203 l 0.37498,0.40145 c 0.31344,0.33556 0.21246,0.29298 -0.61449,-0.25924 -0.54422,-0.36338 -0.98949,-0.62793 -0.98949,-0.58788 0,0.04 0.12001,0.30784 0.26642,0.59508 0.34876,0.68359 0.24295,1.28189 -0.32756,1.85242 -0.23321,0.23322 -0.48101,0.42403 -0.55061,0.42403 -0.19935,0 -0.53735,-0.97351 -0.53735,-1.54746 0,-0.42508 0.0822,-0.60311 0.44687,-0.96778 0.24577,-0.24577 0.44686,-0.46743 0.44686,-0.49255 0,-0.21268 -2.76371,-1.42096 -2.91159,-1.27308 -0.0384,0.0387 0.0767,0.22759 0.25602,0.41998 0.74203,0.79568 0.81788,1.57229 0.2422,2.48004 -0.20379,0.32136 -0.4289,0.62035 -0.50022,0.66445 -0.0713,0.044 -0.33937,-0.25071 -0.5957,-0.65507 -0.40412,-0.63747 -0.45899,-0.81508 -0.41279,-1.33627 0.0347,-0.39267 0.17068,-0.75494 0.39172,-1.04481 0.18623,-0.24408 0.33844,-0.49694 0.33844,-0.56199 0,-0.0651 -0.64635,-0.26984 -1.43636,-0.45512 l -1.43637,-0.33692 -0.89375,0.28702 c -0.75008,0.24091 -1.17077,0.28618 -2.61738,0.28171 -1.65087,-0.004 -1.77753,-0.0247 -3.00041,-0.46492 -4.18541,-1.50666 -4.30655,-1.54253 -5.41994,-1.6042 -1.88484,-0.10445 -5.00463,0.47859 -6.43205,1.20191 -1.43023,0.72478 -2.69336,2.49946 -3.09394,4.34703 -0.10712,0.49435 -0.24102,2.21002 -0.3116,3.99461 -0.068,1.72046 -0.18091,3.64517 -0.25102,4.27717 -0.16557,1.49497 -0.16557,4.63266 2.4e-4,5.65428 0.29573,1.82237 1.17364,3.98508 2.2985,5.66229 0.2998,0.44703 1.27344,1.5453 2.16364,2.44066 l 1.61851,1.62789 -1.15933,-0.002 c -1.32142,-0.002 -2.39354,-0.2178 -3.07019,-0.61694 -0.25613,-0.15112 -0.49117,-0.27482 -0.52226,-0.27482 -0.14334,0 -0.0322,0.84169 0.19713,1.49438 0.13956,0.39707 0.24008,0.73227 0.22344,0.74489 -0.0178,0.0133 -0.34632,-0.16823 -0.73254,-0.40218 z"
         inkscape:connector-curvature="0" />
    </g>
  </g>
</svg>
