<?xml version="1.0" encoding="UTF-8" standalone="no"?>
<!-- Created with Inkscape (http://www.inkscape.org/) -->

<svg
   xmlns:dc="http://purl.org/dc/elements/1.1/"
   xmlns:cc="http://creativecommons.org/ns#"
   xmlns:rdf="http://www.w3.org/1999/02/22-rdf-syntax-ns#"
   xmlns:svg="http://www.w3.org/2000/svg"
   xmlns="http://www.w3.org/2000/svg"
   xmlns:sodipodi="http://sodipodi.sourceforge.net/DTD/sodipodi-0.dtd"
   xmlns:inkscape="http://www.inkscape.org/namespaces/inkscape"
   version="1.1"
   id="svg2"
   width="256"
   height="256"
   viewBox="0 0 256 256"
   sodipodi:docname="drax.svg"
   inkscape:version="0.92.4 (5da689c313, 2019-01-14)">
  <metadata
     id="metadata8">
    <rdf:RDF>
      <cc:Work
         rdf:about="">
        <dc:format>image/svg+xml</dc:format>
        <dc:type
           rdf:resource="http://purl.org/dc/dcmitype/StillImage" />
        <dc:title></dc:title>
      </cc:Work>
    </rdf:RDF>
  </metadata>
  <defs
     id="defs6" />
  <sodipodi:namedview
     pagecolor="#ffffff"
     bordercolor="#666666"
     borderopacity="1"
     objecttolerance="10"
     gridtolerance="10"
     guidetolerance="10"
     inkscape:pageopacity="0"
     inkscape:pageshadow="2"
     inkscape:window-width="1366"
     inkscape:window-height="705"
     id="namedview4"
     showgrid="false"
     inkscape:zoom="1.2421053"
     inkscape:cx="159.64123"
     inkscape:cy="180.57586"
     inkscape:window-x="-8"
     inkscape:window-y="-8"
     inkscape:window-maximized="1"
     inkscape:current-layer="svg2" />
  <g
     id="g983"
     transform="matrix(0.55009258,0,0,0.55009258,118.29903,88.301579)">
    <path
       inkscape:transform-center-x="-8.5258148e-06"
       transform="scale(-1)"
       inkscape:transform-center-y="58.392491"
       d="m 182.70124,82.332868 -404.55501,-2e-6 202.277508,-350.354916 z"
       inkscape:randomized="0"
       inkscape:rounded="0"
       inkscape:flatsided="true"
       sodipodi:arg2="1.5707963"
       sodipodi:arg1="0.52359878"
       sodipodi:r2="116.78498"
       sodipodi:r1="233.56995"
       sodipodi:cy="-34.452106"
       sodipodi:cx="-19.576263"
       sodipodi:sides="3"
       id="path817"
       style="opacity:1;fill:#052444;fill-opacity:1;fill-rule:evenodd;stroke:#dddddd;stroke-width:35.65114594;stroke-linecap:square;stroke-linejoin:round;stroke-miterlimit:4;stroke-dasharray:none;stroke-opacity:1;paint-order:stroke markers fill"
       sodipodi:type="star" />
    <path
       inkscape:transform-center-x="-7.6693727e-06"
       transform="scale(-1)"
       inkscape:transform-center-y="50.75898"
       d="m 156.25798,67.433232 -351.6685,-10e-7 175.834256,-304.553851 z"
       inkscape:randomized="0"
       inkscape:rounded="0"
       inkscape:flatsided="true"
       sodipodi:arg2="1.5707963"
       sodipodi:arg1="0.52359878"
       sodipodi:r2="101.51796"
       sodipodi:r1="203.0359"
       sodipodi:cy="-34.084721"
       sodipodi:cx="-19.576265"
       sodipodi:sides="3"
       id="path817-3"
       style="opacity:1;fill:#abfc00;fill-opacity:1;fill-rule:evenodd;stroke:none;stroke-width:30.99055672;stroke-linecap:square;stroke-linejoin:round;stroke-miterlimit:4;stroke-dasharray:none;stroke-opacity:1;paint-order:stroke markers fill"
       sodipodi:type="star" />
    <path
       inkscape:connector-curvature="0"
       id="path834"
       d="m 15.757992,127.25191 c -2.90211,-1.85411 -5.70845,-4.50705 -6.2363097,-5.89543 -0.99106,-2.6067 -0.42763,-4.77253 1.0103597,-3.8838 0.44968,0.27791 1.43108,-0.24278 2.1809,-1.15711 1.22068,-1.48848 1.10176,-1.59337 -1.13669,-1.00264 -1.375,0.36287 -3.0279697,0.66591 -3.6732697,0.67342 -0.64531,0.008 -2.61637,1.22793 -4.38014,2.71205 l -3.20687003,2.6984 -1.88253997,-2.32485 c -2.4028,-2.96733 -3.40502,-6.92411 -2.08752,-8.24161 0.56277,-0.56277 4.30319997,-1.6482 8.31205,-2.41205 4.00885,-0.76385 7.7679497,-1.91168 8.3535597,-2.55074 0.79321,-0.86561 0.55471,-0.96599 -0.93527,-0.39365 -1.1,0.42255 -4.1299297,0.9953 -6.7331797,1.2728 -5.18821003,0.55303 -6.5089,-0.66617 -5.41504003,-4.99894 0.49346,-1.95459 1.22109003,-2.24863 5.57882003,-2.25444 3.10197,-0.004 5.5815697,-0.57566 6.5079697,-1.500004 1.32783,-1.32489 0.96454,-1.49332 -3.2209697,-1.49332 -4.45817,0 -4.73573,-0.15879 -5.0473,-2.88757 -0.25621,-2.24395 0.008,-2.75792 1.18618,-2.30588 2.1023,0.80673 6.6084897,-2.97846 8.2646997,-6.94233 1.56362,-3.74228 1.81224,-12.13058 0.42456,-14.32446 -0.78713,-1.24441 -1.24358,-1.17069 -3.08833,0.49879 -3.2680497,2.95754 -7.1636797,10.1417 -7.4577697,13.75333 -0.24101,2.95963 -0.53635,3.20812 -3.81303003,3.20812 -2.56821997,0 -4.40291997,0.81497 -6.62533997,2.94297 -3.3549103,3.21238 -3.3420203,5.40265 0.0537,9.121484 2.16319,2.36905 2.40432,4.51629 0.69871,6.2219 -1.45592,1.45589 -4.8136803,-1.16006 -4.8136803,-3.75021 0,-0.90963 -0.59747,-2.47096 -1.3277,-3.46962 -1.23526,-1.689314 -1.47098,-1.572914 -3.38533,1.67168 -2.2599,3.83024 -6.99063,5.83429 -8.4268,3.56979 -1.36745,-2.15613 -1.0244,-2.77854 2.76311,-5.01323 l 3.62328,-2.137794 -4.87328,-1.28435 c -2.6803,-0.7064 -6.08422,-1.30421 -7.56426,-1.32849 -1.48004,-0.0243 -2.97364,-0.50147 -3.319097,-1.06044 -0.34546,-0.55897 -1.04702,-0.75742 -1.55902,-0.44098 -0.51199,0.31643 -0.9309,-0.054 -0.9309,-0.82318 0,-0.76917 1.18027,-1.93627 2.62283,-2.59354 2.119667,-0.96579 3.050827,-0.91461 4.853797,0.26674 1.22704,0.80399 3.98426,1.75031 6.12717,2.10294 l 3.8962,0.64115 -4.13019,-3.81841 c -2.2716,-2.10013 -4.40635,-4.63553 -4.74387,-5.63424 -1.1038,-3.266 4.44956,-1.68537 6.37971,1.81583 2.38946,4.33437 6.25765,5.44835 9.74636,2.80681 2.0810003,-1.57567 2.6690603,-2.77272 2.4228103,-4.93187 -0.17885,-1.56815 -0.7964503,-3.41903 -1.3724403,-4.11306 -0.7339,-0.88429 -0.72182,-1.26188 0.0404,-1.26188 2.0582103,0 8.3522403,-6.26145 7.0827203,-7.04605 -0.88813,-0.5489 -0.77574,-1.32965 0.44159,-3.06763 2.20972997,-3.15483 2.07922997,-8.17245 -0.26779,-10.29648 -2.15779,-1.95276 -2.47381,-1.64272 -3.9857,3.91016 -2.39713,8.8042 -7.6430103,13.5 -15.0814603,13.5 -3.68338,0 -3.80867,-0.92185 -0.54234,-3.9904 2.48228,-2.33198 7.0617,-12.79146 6.04539,-13.80777 -0.29435,-0.29434 -0.66639,-0.34766 -0.82676,-0.1185 -0.16038,0.22917 -1.53104,2.35074 -3.04592,4.71461 -3.81959,5.96023 -9.48409,12.05845 -12.78768,13.7668 -4.089177,2.1146 -10.774787,1.79461 -14.874807,-0.71195 l -3.5,-2.13973 2.5,-0.93719 c 9.11173,-3.41578 18.297177,-10.84503 22.010577,-17.80229 l 1.32026,-2.47358 -3.41542,2.76695 c -19.039207,15.4243 -30.523806,20.09622 -35.602576,14.48305 -1.73819,-1.92109 -4.32563,-7.71779 -4.30706,-9.64922 0.003,-0.33043 2.59067,-0.63978 5.75,-0.68745 4.15137,-0.0626 7.584689,-0.93227 12.381419,-3.13614 7.08404,-3.25477 19.333437,-11.13989 18.539297,-11.93402 -0.2627,-0.2627 -2.659877,0.62516 -5.327067,1.97302 -7.10188,3.58892 -20.918669,7.71884 -28.052269,8.38498 -8.98936,0.83944 -12.28212,-1.82442 -14.83678,-12.00303 -0.67265,-2.68004 -0.66368,-2.68498 2.1821,-1.20079 4.98626,2.60056 15.59339,1.48344 29.357519,-3.09187 8.06623,-2.68128 15.44791,-6.2952 12.99802,-6.36356 -0.82609,-0.023 -6.00109,0.81336 -11.5,1.85871 -17.208969,3.27142 -28.953389,4.46121 -31.354109,3.17638 -3.6416,-1.94892 -7.25743,-11.73284 -5.76929,-15.61088 0.51302,-1.3369 0.98223,-1.26217 3.42783,0.54594 1.67187,1.23607 5.06255,2.32492 8.27091,2.65605 5.91438,0.61042 24.423919,-1.09211 32.426639,-2.98264 4.57283,-1.08027 3.33403,-1.22959 -14.5,-1.74778 -20.559059,-0.59738 -24.482589,-1.3973 -28.395579,-5.78928 -1.59334,-1.78839 -1.80218,-3.12776 -1.30982,-8.4003404 0.86614,-9.27528 1.30249,-10.02599 4.24335,-7.30049 1.32393,1.22697 4.78199,3.0016 7.68459,3.94361 11.01134,3.57363 42.476796,7.6088 59.331906,7.6088 5.1122003,0 6.8592503,0.4137204 8.4455303,2.0000004 2.95723,2.95723 2.58835,8.61591 -1,15.34034 -5.0817503,9.52299 -3.19308,15.90966 4.70482,15.90966 2.92262,0 6.29518,-3.35039 6.29518,-6.2538 0,-0.98022 0.675,-2.04125 1.5,-2.35783 0.825,-0.31658 1.5,-1.66224 1.5,-2.99035 0,-1.52297 0.69478,-2.59645 1.88131,-2.90673 1.0791997,-0.28222 2.4124197,-2.10127 3.1270197,-4.26652 1.16335,-3.52501 1.08856,-3.89705 -1.13131,-5.62763 -3.1814397,-2.4802 -7.1599397,-3.49839 -7.6716197,-1.96334 -0.64858,1.94575 -3.20540003,-0.75337 -3.20540003,-3.3838 0,-2.93623 2.05323003,-4.5540704 7.26828003,-5.7270104 8.6655597,-1.94901 12.4447497,-2.003 16.1787097,-0.23112 4.5108,2.14052 6.47311,5.8098204 7.6692,14.3405904 1.31443,9.37476 1.7011,10.31031 3.96446,9.59194 2.82879,-0.89782 2.59436,3.83346 -0.28467,5.74506 l -2.20401,1.46342 2.75434,2.75433 c 2.17687,2.17688 3.32034,2.61524 5.45401,2.09085 7.98348,-1.96211 9.229,-6.763 4.19968,-16.18772 -3.58835,-6.72443 -3.95723,-12.38311 -1,-15.34034 1.58628,-1.58628 3.33333,-2.0000004 8.44553,-2.0000004 16.85511,0 48.320568,-4.03517 59.331928,-7.6088 2.9026,-0.94201 6.36066,-2.71664 7.68459,-3.94361 2.94086,-2.7255 3.37721,-1.97479 4.24335,7.30049 0.49236,5.2725804 0.28352,6.6119504 -1.30982,8.4003404 -3.91299,4.39198 -7.83652,5.1919 -28.395578,5.78928 -17.83403,0.51819 -19.07283,0.66751 -14.5,1.74778 8.00272,1.89053 26.512258,3.59306 32.426638,2.98264 3.20836,-0.33113 6.59904,-1.41998 8.27091,-2.65605 2.4456,-1.80811 2.91481,-1.88284 3.42783,-0.54594 1.48814,3.87804 -2.12769,13.66196 -5.76929,15.61088 -2.40072,1.28483 -14.14514,0.095 -31.354108,-3.17639 -5.49891,-1.04534 -10.67391,-1.88176 -11.5,-1.8587 -2.44989,0.0684 4.93179,3.68228 12.99802,6.36356 13.764128,4.57531 24.371258,5.69243 29.357518,3.09187 2.84578,-1.48419 2.85475,-1.47925 2.1821,1.20079 -2.55466,10.17861 -5.84742,12.84247 -14.83678,12.00303 -7.133598,-0.66614 -20.950388,-4.79606 -28.052268,-8.38498 -2.66719,-1.34786 -5.06437,-2.23572 -5.32707,-1.97302 -0.79414,0.79413 11.45526,8.67925 18.5393,11.93402 4.79673,2.20387 8.23005,3.07351 12.381418,3.13614 3.15933,0.0477 5.74683,0.35702 5.75,0.68745 0.0186,1.93143 -2.56887,7.72813 -4.30706,9.64922 -5.078768,5.61317 -16.563368,0.94125 -35.602578,-14.48305 l -3.41542,-2.76695 1.32026,2.47358 c 3.7134,6.95726 12.89885,14.38651 22.01058,17.80229 l 2.5,0.93719 -3.5,2.13973 c -4.12186,2.51991 -10.79079,2.82387 -14.93516,0.68074 -3.34799,-1.73131 -10.39001,-9.4841 -13.42119,-14.77583 -2.74242,-4.78761 -3.76612,-4.79083 -2.45272,-0.008 1.37796,5.01822 3.16666,8.35865 5.70669,10.65735 2.88966,2.6151 2.63668,3.59265 -0.92974,3.59265 -7.54242,0 -12.80109,-4.7899 -15.11434,-13.767 -1.26943,-4.92634 -2.14719,-5.78903 -3.82868,-3.76295 -1.5243,1.83666 -0.52971,6.61842 2.06188,9.9131 1.19815,1.5232 1.55661,2.71924 0.93086,3.10597 -0.55968,0.3459 -1.0176,1.02171 -1.0176,1.5018 0,1.18015 5.65185,5.13495 7.78607,5.44819 2.41969,0.35543 2.15589,4.56119 -0.28607,4.56119 -2.13769,0 -1.85767,1.31536 0.81445,3.82569 4.09963,3.8514 8.27314,2.66233 11.16968,-3.18234 0.62679,-1.26475 2.2174,-2.27667 3.88031,-2.46858 2.53059,-0.29205 2.74827,-0.088 2.13376,2 -0.37638,1.27888 -1.63052,3.00023 -2.78698,3.82523 -1.15646,0.825 -3.02708,2.27253 -4.15694,3.21673 -2.0493,1.71257 -2.04822,1.7168 0.44572,1.74384 1.375,0.0149 3.84617,-0.67481 5.4915,-1.53272 3.41817,-1.7823 9.5085,-1.13599 9.5085,1.00906 0,1.30312 -2.82678,2.42607 -8,3.17803 -1.375,0.19987 -4.3,0.72912 -6.5,1.17613 l -4,0.81273 3.18659,1.69099 c 4.02258,2.134614 4.6613,3.186654 3.38386,5.573574 -0.95479,1.78404 -1.24278,1.80965 -4.37663,0.3892 -2.08657,-0.94575 -3.81133,-2.69929 -4.56291,-4.639034 -1.16213,-2.99934 -1.26416,-3.04434 -2.66961,-1.1774 -0.80372,1.06762 -1.4613,2.685384 -1.4613,3.595014 0,2.59015 -3.35776,5.2061 -4.81365,3.75021 -1.73805,-1.73805 -1.45002,-4.23775 0.71396,-6.196134 3.14193,-2.84341 3.21721,-5.42714 0.25473,-8.74273 -2.45505,-2.74767 -2.93003,-2.90714 -5.36061,-1.79969 -3.53013,1.60844 -5.79443,0.60952 -5.79443,-2.55625 0,-2.96881 -2.7926,-8.66383 -6.3705,-12.99155 -3.45608,-4.18037 -5.16504,-2.32379 -5.02198,5.4558 0.13293,7.22848 3.18629,12.85296 7.43924,13.70355 3.063,0.6126 4.24852,2.40758 3.27158,4.95344 -0.48862,1.27334 -1.63962,1.51471 -5.46861,1.14679 -2.66735,-0.2563 -4.84973,-0.31861 -4.84973,-0.13847 0,0.18014 1.42324,1.06351 3.16275,1.963054 2.06871,1.06977 4.50918,1.45493 7.05513,1.11344 l 3.89239,-0.52208 -0.30514,3.66224 c -0.29647,3.55825 -0.41871,3.66178 -4.30513,3.64598 -2.2,-0.009 -5.35,-0.36011 -7,-0.78037 -2.13473,-0.54373 -2.56736,-0.47459 -1.5,0.23974 0.825,0.55212 3.975,1.4835 7,2.06974 10.42367,2.02006 10,1.81368 10,4.87134 0,1.56535 -0.95113,4.05525 -2.11362,5.53312 -1.91002,2.4282 -2.27476,2.54119 -3.78659,1.173 C 37.906572,117.98896 31.351042,115 29.608372,115 c -0.56767,0 -1.03212,0.45 -1.03212,1 0,0.55 0.9,1 2,1 4.56198,0 1.54257,6.14235 -5.28428,10.74973 l -4.25742,2.8733 z"
       style="fill:#062543" />
    <text
       id="text867"
       y="-16.118645"
       x="-76.129059"
       style="font-style:normal;font-variant:normal;font-weight:normal;font-stretch:normal;font-size:60.08028793px;line-height:1.25;font-family:'Digital Dismay';-inkscape-font-specification:'Digital Dismay';letter-spacing:0px;word-spacing:0px;fill:#052444;fill-opacity:1;stroke:none;stroke-width:0.70406586"
       xml:space="preserve"><tspan
         style="font-style:normal;font-variant:normal;font-weight:bold;font-stretch:condensed;font-family:'Agency FB';-inkscape-font-specification:'Agency FB Bold Condensed';fill:#052444;fill-opacity:1;stroke-width:0.70406586"
         y="-16.118645"
         x="-76.129059"
         id="tspan865"
         sodipodi:role="line">DRAX F.C.</tspan></text>
    <g
       transform="translate(144.3644,-83.474219)"
       id="g958">
      <ellipse
         style="opacity:1;fill:#ffffff;fill-opacity:1;fill-rule:evenodd;stroke:none;stroke-width:3.74835157;stroke-linecap:square;stroke-linejoin:round;stroke-miterlimit:4;stroke-dasharray:none;stroke-opacity:1;paint-order:stroke markers fill"
         id="path1280"
         cx="-124.78813"
         cy="252.37711"
         rx="30.650097"
         ry="30.866522" />
      <g
         id="g1276"
         transform="matrix(1.2161031,0,0,1.2161031,42.61976,144.42101)">
        <g
           id="g1259">
          <path
             inkscape:connector-curvature="0"
             id="path912"
             d="m -133.07342,99.865559 -8.14385,-1.925238 -2.40462,-8.015399 5.73923,-6.090161 8.14385,1.925237 2.40462,8.015399 z"
             style="opacity:1;fill:#0f2a47;fill-opacity:1;fill-rule:evenodd;stroke:none;stroke-width:1.68895912;stroke-linecap:square;stroke-linejoin:round;stroke-miterlimit:4;stroke-dasharray:none;stroke-opacity:1;paint-order:stroke markers fill" />
          <path
             inkscape:connector-curvature="0"
             id="path912-6"
             d="m -119.73314,95.729849 -7.74734,-1.831501 -2.28754,-7.625142 5.45979,-5.793641 7.74734,1.831501 2.28754,7.625142 z"
             style="opacity:1;fill:#ffffff;fill-opacity:1;fill-rule:evenodd;stroke:#0a2644;stroke-width:1.14157391;stroke-linecap:square;stroke-linejoin:round;stroke-miterlimit:4;stroke-dasharray:none;stroke-opacity:1;paint-order:stroke markers fill" />
          <path
             inkscape:connector-curvature="0"
             id="path912-6-8"
             d="m -129.73882,85.759998 -7.74733,-1.831501 -2.28755,-7.625141 5.4598,-5.793641 7.74734,1.8315 2.28754,7.625142 z"
             style="opacity:1;fill:#ffffff;fill-opacity:1;fill-rule:evenodd;stroke:#0a2644;stroke-width:1.14157391;stroke-linecap:square;stroke-linejoin:round;stroke-miterlimit:4;stroke-dasharray:none;stroke-opacity:1;paint-order:stroke markers fill" />
          <path
             inkscape:connector-curvature="0"
             id="path912-6-8-5"
             d="m -143.62189,89.924925 -7.74734,-1.831501 -2.28754,-7.625142 5.4598,-5.793641 7.74734,1.831501 2.28754,7.625142 z"
             style="opacity:1;fill:#ffffff;fill-opacity:1;fill-rule:evenodd;stroke:#0a2644;stroke-width:1.14157391;stroke-linecap:square;stroke-linejoin:round;stroke-miterlimit:4;stroke-dasharray:none;stroke-opacity:1;paint-order:stroke markers fill" />
          <path
             inkscape:connector-curvature="0"
             id="path912-6-8-5-3"
             d="m -146.67706,103.73396 -7.74734,-1.8315 -2.28754,-7.625142 5.45979,-5.793641 7.74734,1.831501 2.28754,7.625142 z"
             style="opacity:1;fill:#ffffff;fill-opacity:1;fill-rule:evenodd;stroke:#0a2644;stroke-width:1.14157391;stroke-linecap:square;stroke-linejoin:round;stroke-miterlimit:4;stroke-dasharray:none;stroke-opacity:1;paint-order:stroke markers fill" />
          <path
             inkscape:connector-curvature="0"
             id="path912-6-8-5-3-5"
             d="m -136.24567,113.28434 -7.74734,-1.8315 -2.28754,-7.62514 5.45979,-5.793642 7.74734,1.831501 2.28754,7.625141 z"
             style="opacity:1;fill:#ffffff;fill-opacity:1;fill-rule:evenodd;stroke:#0a2644;stroke-width:1.14157391;stroke-linecap:square;stroke-linejoin:round;stroke-miterlimit:4;stroke-dasharray:none;stroke-opacity:1;paint-order:stroke markers fill" />
          <path
             inkscape:connector-curvature="0"
             id="path912-6-8-5-3-5-6"
             d="m -122.75911,109.02568 -7.74733,-1.8315 -2.28755,-7.62514 5.4598,-5.793641 7.74734,1.8315 2.28754,7.625141 z"
             style="opacity:1;fill:#ffffff;fill-opacity:1;fill-rule:evenodd;stroke:#0a2644;stroke-width:1.14157391;stroke-linecap:square;stroke-linejoin:round;stroke-miterlimit:4;stroke-dasharray:none;stroke-opacity:1;paint-order:stroke markers fill" />
          <path
             sodipodi:nodetypes="ccccccc"
             inkscape:connector-curvature="0"
             id="path912-5"
             d="m -157.10846,94.183586 -5.29638,-1.332017 -0.38767,-7.18489 2.06125,-6.208806 6.95741,0.620153 2.40462,8.015399 z"
             style="opacity:1;fill:#0f2a47;fill-opacity:1;fill-rule:evenodd;stroke:none;stroke-width:1.68895912;stroke-linecap:square;stroke-linejoin:round;stroke-miterlimit:4;stroke-dasharray:none;stroke-opacity:1;paint-order:stroke markers fill" />
          <path
             sodipodi:nodetypes="ccccccc"
             inkscape:connector-curvature="0"
             id="path912-5-5"
             d="m -140.44963,76.506142 -8.14385,-1.925238 -2.16733,-6.59167 6.09516,-2.768127 7.55062,-1.278153 2.40462,6.473026 z"
             style="opacity:1;fill:#0f2a47;fill-opacity:1;fill-rule:evenodd;stroke:none;stroke-width:1.68895912;stroke-linecap:square;stroke-linejoin:round;stroke-miterlimit:4;stroke-dasharray:none;stroke-opacity:1;paint-order:stroke markers fill" />
          <path
             sodipodi:nodetypes="ccccccc"
             inkscape:connector-curvature="0"
             id="path912-5-5-0"
             d="m -116.01809,82.281853 -8.14385,-1.925238 -2.40462,-8.015399 4.14524,-3.99281 4.6203,5.280998 4.1664,6.16973 z"
             style="opacity:1;fill:#0f2a47;fill-opacity:1;fill-rule:evenodd;stroke:none;stroke-width:1.68895912;stroke-linecap:square;stroke-linejoin:round;stroke-miterlimit:4;stroke-dasharray:none;stroke-opacity:1;paint-order:stroke markers fill" />
          <path
             sodipodi:nodetypes="ccccccc"
             inkscape:connector-curvature="0"
             id="path912-5-5-0-1"
             d="m -117.29931,103.23204 v 0 l -2.40462,-8.015396 5.73923,-6.090162 1.51622,0.582934 -1.5384,7.092564 z"
             style="opacity:1;fill:#0f2a47;fill-opacity:1;fill-rule:evenodd;stroke:none;stroke-width:1.68895912;stroke-linecap:square;stroke-linejoin:round;stroke-miterlimit:4;stroke-dasharray:none;stroke-opacity:1;paint-order:stroke markers fill" />
          <path
             sodipodi:nodetypes="ccccccc"
             inkscape:connector-curvature="0"
             id="path912-5-5-0-1-0"
             d="m -143.99301,111.45284 -7.33935,-2.63049 -5.72316,-3.51144 2.51404,-3.7987 8.14385,1.92523 z"
             style="opacity:1;fill:#0f2a47;fill-opacity:1;fill-rule:evenodd;stroke:none;stroke-width:1.68895912;stroke-linecap:square;stroke-linejoin:round;stroke-miterlimit:4;stroke-dasharray:none;stroke-opacity:1;paint-order:stroke markers fill" />
          <path
             sodipodi:nodetypes="ccccccc"
             inkscape:connector-curvature="0"
             id="path912-5-5-0-1-0-9"
             d="m -128.32567,111.27297 -4.45252,2.10168 -3.46748,-0.0903 5.45979,-5.79364 8.02677,1.53498 -1.92468,1.02298 z"
             style="opacity:1;fill:#0f2a47;fill-opacity:1;fill-rule:evenodd;stroke:none;stroke-width:1.68895912;stroke-linecap:square;stroke-linejoin:round;stroke-miterlimit:4;stroke-dasharray:none;stroke-opacity:1;paint-order:stroke markers fill" />
          <path
             inkscape:connector-curvature="0"
             id="path1141-2"
             d="m -113.53373,88.772161 a 24.125566,24.125566 0 0 1 -24.12556,24.125569 24.125566,24.125566 0 0 1 -24.12557,-24.125569 24.125566,24.125566 0 0 1 24.12557,-24.125567 24.125566,24.125566 0 0 1 24.12556,24.125567 z"
             style="opacity:1;fill:none;fill-opacity:1;fill-rule:evenodd;stroke:#0a2644;stroke-width:3.12800002;stroke-linecap:square;stroke-linejoin:round;stroke-miterlimit:4;stroke-dasharray:none;stroke-opacity:1;paint-order:stroke markers fill" />
        </g>
      </g>
    </g>
  </g>
</svg>
