<?xml version="1.0" encoding="UTF-8" standalone="no"?>
<!-- Created with Inkscape (http://www.inkscape.org/) -->

<svg
   xmlns:dc="http://purl.org/dc/elements/1.1/"
   xmlns:cc="http://creativecommons.org/ns#"
   xmlns:rdf="http://www.w3.org/1999/02/22-rdf-syntax-ns#"
   xmlns:svg="http://www.w3.org/2000/svg"
   xmlns="http://www.w3.org/2000/svg"
   xmlns:sodipodi="http://sodipodi.sourceforge.net/DTD/sodipodi-0.dtd"
   xmlns:inkscape="http://www.inkscape.org/namespaces/inkscape"
   version="1.1"
   id="svg2"
   width="256"
   height="256"
   viewBox="0 0 256 256"
   sodipodi:docname="lanz.svg"
   inkscape:version="0.92.4 (5da689c313, 2019-01-14)">
  <metadata
     id="metadata8">
    <rdf:RDF>
      <cc:Work
         rdf:about="">
        <dc:format>image/svg+xml</dc:format>
        <dc:type
           rdf:resource="http://purl.org/dc/dcmitype/StillImage" />
        <dc:title />
      </cc:Work>
    </rdf:RDF>
  </metadata>
  <defs
     id="defs6" />
  <sodipodi:namedview
     pagecolor="#ffffff"
     bordercolor="#666666"
     borderopacity="1"
     objecttolerance="10"
     gridtolerance="10"
     guidetolerance="10"
     inkscape:pageopacity="0"
     inkscape:pageshadow="2"
     inkscape:window-width="1366"
     inkscape:window-height="705"
     id="namedview4"
     showgrid="false"
     inkscape:zoom="1.6619719"
     inkscape:cx="58.837944"
     inkscape:cy="172.36167"
     inkscape:window-x="-8"
     inkscape:window-y="-8"
     inkscape:window-maximized="1"
     inkscape:current-layer="svg2"
     inkscape:pagecheckerboard="true" />
  <g
     id="g849"
     transform="matrix(1.1961464,0,0,1.1961464,-25.106743,-50.213478)">
    <g
       transform="translate(0,8.0340558)"
       id="g833">
      <path
         style="fill:#ffffff;fill-opacity:1;stroke:#ffffff;stroke-width:20;stroke-linecap:butt;stroke-linejoin:miter;stroke-miterlimit:4;stroke-dasharray:none;stroke-opacity:1"
         d="m 68.689035,74.57446 -20.67821,30.4724 c 20.86441,3.58697 14.74276,37.11951 5.74581,55.07713 -2.70018,5.38947 -2.98605,28.36678 7.3143,37.97039 23.73034,27.01709 44.382805,11.69312 66.929065,35.37038 22.54626,-23.67726 43.19873,-8.35329 66.92908,-35.37038 10.30034,-9.60361 10.01448,-32.58092 7.31429,-37.97039 -8.99695,-17.95762 -15.11861,-51.49016 5.74581,-55.07713 L 187.31097,74.57446 C 163.79401,76.88179 145.49379,77.87987 128,77.77325 110.50621,77.87987 92.205995,76.88179 68.689035,74.57446 Z"
         id="path4520-99"
         inkscape:connector-curvature="0" />
      <g
         id="g4687"
         transform="matrix(0.90435141,0,0,0.90435141,-240.20274,3.7079866)">
        <g
           id="g4664">
          <path
             style="fill:#f7f521;fill-opacity:1;stroke:#201f19;stroke-width:10;stroke-linecap:butt;stroke-linejoin:miter;stroke-miterlimit:4;stroke-dasharray:none;stroke-opacity:1"
             d="m 341.56167,77.36948 -22.86524,33.69531 c 23.07114,3.96634 16.30203,41.04545 6.35352,60.90235 -2.98577,5.95949 -3.30187,31.36699 8.08789,41.98632 26.24018,29.87455 49.07695,12.92984 74.00781,39.11133 24.93086,-26.18149 47.76764,-9.23678 74.00782,-39.11133 11.38976,-10.61933 11.07366,-36.02683 8.08789,-41.98632 -9.94851,-19.8569 -16.71763,-56.93601 6.35351,-60.90235 L 472.72964,77.36948 c -26.00423,2.551358 -46.23997,3.655003 -65.58399,3.537109 -19.34402,0.117894 -39.57975,-0.985751 -65.58398,-3.537109 z"
             id="path4520"
             inkscape:connector-curvature="0" />
          <path
             style="fill:#201f19;fill-opacity:1;stroke:none;stroke-width:10;stroke-linecap:butt;stroke-linejoin:miter;stroke-miterlimit:4;stroke-dasharray:none;stroke-opacity:1"
             d="m 334.07533,131.06479 c 0.97055,10.94195 -2.06851,24.32935 -6.35351,34.95312 v 40.23048 c 1.40181,2.96409 3.18095,5.62119 5.41601,7.70507 4.29508,4.88997 8.49795,8.50953 12.63477,11.28516 v -94.17383 z m 28.84571,0 v 101.89453 c 6.06497,1.72393 12.05411,2.76209 18.05078,4.46289 V 131.06479 Z m 35.19922,0 v 114.20117 c 2.98411,2.07176 5.98908,4.61021 9.02539,7.79883 3.0363,-3.18862 6.04127,-5.72707 9.02539,-7.79883 V 131.06479 Z m 35.19921,0 v 106.35742 c 5.99667,-1.7008 11.98581,-2.73896 18.05079,-4.46289 V 131.06479 Z m 35.19922,0 v 94.17383 c 4.13682,-2.77563 8.33969,-6.39519 12.63477,-11.28516 2.23506,-2.08388 4.0142,-4.74098 5.41601,-7.70507 v -40.23048 c -4.285,-10.62377 -7.32406,-24.01117 -6.35351,-34.95312 z"
             id="path4520-9"
             inkscape:connector-curvature="0" />
        </g>
        <g
           id="text4668"
           style="font-style:normal;font-variant:normal;font-weight:normal;font-stretch:normal;font-size:46.46282196px;line-height:1.25;font-family:'Digital Dismay';-inkscape-font-specification:'Digital Dismay';letter-spacing:0px;word-spacing:0px;fill:#000000;fill-opacity:1;stroke:none;stroke-width:0.54448622"
           aria-label="LANZ">
          <path
             id="path4670"
             style="font-style:normal;font-variant:normal;font-weight:normal;font-stretch:normal;font-family:'Bernard MT Condensed';-inkscape-font-specification:'Bernard MT Condensed, ';stroke-width:0.54448622"
             d="m 377.35276,123.16431 h 1.29315 q 0.99822,0 1.47465,-0.79405 0.47643,-0.79404 1.24778,-3.67528 0.27224,-1.11166 0.65792,-1.33853 0.38568,-0.24955 1.31584,-0.24955 1.02092,0 1.31585,0.18149 0.29493,0.15881 0.29493,0.61255 0,0.31762 -0.11344,1.02091 l -0.79404,5.42218 q -0.13612,0.83941 -0.36299,1.11166 -0.20418,0.27224 -0.86211,0.27224 h -14.92799 q -0.95285,0 -0.95285,-1.17972 0,-0.90748 0.11343,-1.15704 0.13612,-0.27224 0.54449,-0.40836 1.29315,-0.40836 1.29315,-2.38213 V 93.648617 q 0,-0.839417 -0.81673,-1.202407 -0.70329,-0.294931 -0.8621,-0.657921 -0.15881,-0.362991 -0.15881,-1.202407 0,-0.998225 0.13612,-1.225094 0.13612,-0.249556 0.72598,-0.249556 h 10.45868 q 0.58986,0 0.79404,0.29493 0.22687,0.272243 0.22687,1.520024 0,0.748668 -0.15881,1.020911 -0.13612,0.249556 -0.74867,0.453739 -1.13434,0.385677 -1.13434,1.497337 z"
             inkscape:connector-curvature="0" />
          <path
             id="path4672"
             style="font-style:normal;font-variant:normal;font-weight:normal;font-stretch:normal;font-family:'Bernard MT Condensed';-inkscape-font-specification:'Bernard MT Condensed, ';stroke-width:0.54448622"
             d="m 396.77276,117.90094 h -5.67173 l -0.24955,2.0872 q 0,0.0681 -0.0454,0.20418 -0.18149,0.65792 -0.18149,1.17972 0,0.81673 1.06628,1.3839 0.56717,0.29493 0.7033,0.61255 0.13612,0.31761 0.13612,1.0436 0,0.93016 -0.11344,1.13434 -0.0907,0.1815 -0.47642,0.1815 h -5.98935 q -0.49911,0 -0.49911,-1.0436 0,-1.24778 0.79404,-2.01914 0.74867,-0.70329 0.8621,-1.49733 l 4.19708,-26.702514 q 0.11344,-0.612547 0.11344,-1.066286 0,-0.703294 -0.97554,-1.247781 -0.45374,-0.272243 -0.45374,-1.202407 0,-1.24778 0.13612,-1.54271 0.13613,-0.29493 0.72599,-0.29493 h 8.6664 q 0.79404,0 1.11166,0.748668 0.31762,0.748669 0.63523,3.266917 0.13613,0.975538 0.27225,1.928389 l 3.72065,24.932934 q 0.27225,1.81495 1.33853,2.7678 0.29493,0.24956 0.38568,0.40837 0.0908,0.13612 0.0908,0.88479 0,1.15703 -0.15881,1.42927 -0.15881,0.24956 -0.68061,0.24956 h -10.09568 q -0.45374,0 -0.45374,-0.8621 0,-1.08898 0.11343,-1.36122 0.11344,-0.27224 0.65793,-0.63523 0.79404,-0.49912 0.79404,-1.27047 0,-0.79404 -0.47643,-3.69797 z m -2.72243,-20.236738 -2.51825,17.627738 h 4.99113 z"
             inkscape:connector-curvature="0" />
          <path
             id="path4674"
             style="font-style:normal;font-variant:normal;font-weight:normal;font-stretch:normal;font-family:'Bernard MT Condensed';-inkscape-font-specification:'Bernard MT Condensed, ';stroke-width:0.54448622"
             d="m 413.78796,104.96939 v 16.01697 q 0,0.99823 1.13434,1.49734 0.95285,0.43105 0.95285,1.22509 0,1.65615 -0.0907,1.83764 -0.0681,0.1815 -0.65792,0.1815 h -6.03473 q -0.45374,0 -0.56717,-0.34031 -0.11343,-0.36299 -0.11343,-1.74689 0,-0.63523 0.61254,-0.88479 1.17972,-0.5218 1.17972,-1.17972 V 94.760276 q 0,-0.975538 -0.18149,-1.451963 -0.1815,-0.499113 -0.81673,-0.81673 -0.56718,-0.272243 -0.77136,-0.58986 -0.18149,-0.317617 -0.18149,-1.202407 0,-1.588084 0.83941,-1.588084 h 6.30697 l 7.6228,17.673118 V 93.762051 q 0,-1.088972 -1.11165,-1.542711 -0.65793,-0.29493 -0.86211,-0.657921 -0.18149,-0.385677 -0.18149,-1.47465 0,-0.680607 0.13612,-0.816729 0.13612,-0.158808 0.5218,-0.158808 h 6.26159 q 0.5218,0.06806 0.5218,1.497337 0,0.839416 -0.11344,1.066285 -0.0907,0.226869 -0.45373,0.385678 -0.79405,0.317617 -0.99823,0.612547 -0.20418,0.29493 -0.20418,0.816729 v 32.238122 h -3.85678 z"
             inkscape:connector-curvature="0" />
          <path
             id="path4676"
             style="font-style:normal;font-variant:normal;font-weight:normal;font-stretch:normal;font-family:'Bernard MT Condensed';-inkscape-font-specification:'Bernard MT Condensed, ';stroke-width:0.54448622"
             d="m 431.30226,89.111232 h 14.27008 q 0.47642,0 0.47642,0.29493 0,0.113434 -0.0227,0.249556 -0.0227,0.06806 -0.11344,0.408364 l -7.37325,33.009478 h 1.3839 q 1.15704,0 1.70152,-0.81673 0.54449,-0.83942 0.99823,-3.01736 0.22687,-1.17972 0.56717,-1.49734 0.34031,-0.31762 1.24778,-0.31762 1.17972,0 1.38391,0.11344 0.22686,0.0907 0.22686,0.43105 0,0.0907 -0.13612,0.88479 l -1.0436,6.87414 h -14.7465 q -0.45374,0 -0.45374,-0.22687 0,-0.3403 0.1815,-1.02091 l 7.75893,-32.827983 h -1.5654 q -1.45196,0 -2.29138,3.584534 -0.31762,1.361216 -0.72598,1.678833 -0.40836,0.29493 -1.47465,0.29493 -0.8621,0 -1.11166,-0.06806 -0.22687,-0.09075 -0.22687,-0.453739 0,-0.181495 0.0908,-0.794042 z"
             inkscape:connector-curvature="0" />
        </g>
      </g>
    </g>
  </g>
</svg>
