<?xml version="1.0" encoding="UTF-8" standalone="no"?>
<!-- Created with Inkscape (http://www.inkscape.org/) -->

<svg
   xmlns:dc="http://purl.org/dc/elements/1.1/"
   xmlns:cc="http://creativecommons.org/ns#"
   xmlns:rdf="http://www.w3.org/1999/02/22-rdf-syntax-ns#"
   xmlns:svg="http://www.w3.org/2000/svg"
   xmlns="http://www.w3.org/2000/svg"
   xmlns:sodipodi="http://sodipodi.sourceforge.net/DTD/sodipodi-0.dtd"
   xmlns:inkscape="http://www.inkscape.org/namespaces/inkscape"
   version="1.1"
   id="svg2"
   width="256"
   height="256"
   viewBox="0 0 256 256"
   sodipodi:docname="pegasus.svg"
   inkscape:version="0.92.4 (5da689c313, 2019-01-14)">
  <metadata
     id="metadata8">
    <rdf:RDF>
      <cc:Work
         rdf:about="">
        <dc:format>image/svg+xml</dc:format>
        <dc:type
           rdf:resource="http://purl.org/dc/dcmitype/StillImage" />
        <dc:title></dc:title>
      </cc:Work>
    </rdf:RDF>
  </metadata>
  <defs
     id="defs6" />
  <sodipodi:namedview
     pagecolor="#ffffff"
     bordercolor="#666666"
     borderopacity="1"
     objecttolerance="10"
     gridtolerance="10"
     guidetolerance="10"
     inkscape:pageopacity="0"
     inkscape:pageshadow="2"
     inkscape:window-width="1366"
     inkscape:window-height="705"
     id="namedview4"
     showgrid="false"
     inkscape:zoom="1.4142136"
     inkscape:cx="-31.886319"
     inkscape:cy="95.291698"
     inkscape:window-x="-8"
     inkscape:window-y="-8"
     inkscape:window-maximized="1"
     inkscape:current-layer="svg2" />
  <g
     id="g983"
     transform="matrix(1.3787166,0,0,1.3787166,-297.11975,-54.267499)">
    <g
       id="g880">
      <path
         style="fill:#ddb946;fill-opacity:1;stroke:#000000;stroke-width:1px;stroke-linecap:butt;stroke-linejoin:miter;stroke-opacity:1"
         d="m 308.84873,47.70419 -52.01367,11.425781 c -22.24957,3.389082 -21.76065,3.713229 -18.3125,24.689451 l 15.89453,96.695318 c 0.70204,7.43445 0.92267,7.38083 6.79297,11.20118 l 47.21484,30.72656 -0.002,0.55273 0.42578,-0.27734 0.42383,0.27734 -0.002,-0.55273 47.21484,-30.72656 c 5.8703,-3.82036 6.09093,-3.76673 6.79297,-11.20118 L 379.17294,83.819422 C 382.62109,62.84319 383.11197,62.519053 360.8624,59.129971 Z"
         id="path819"
         inkscape:connector-curvature="0" />
      <g
         id="g874"
         transform="translate(-38.749957,-23.093044)">
        <path
           inkscape:connector-curvature="0"
           id="path819-7"
           d="M 347.59791,76.134766 V 240.61523 l -0.39843,0.26172 0.002,-0.51953 -44.37305,-28.87695 c -5.51699,-3.59043 -5.72302,-3.54035 -6.38281,-10.52735 l -14.93945,-90.875 c -3.24062,-19.713762 -3.70149,-20.019964 17.20898,-23.205073 z"
           style="fill:#e7262b;fill-opacity:1;stroke:#000000;stroke-width:0.93981457px;stroke-linecap:butt;stroke-linejoin:miter;stroke-opacity:1" />
        <path
           inkscape:connector-curvature="0"
           id="path819-7-3"
           d="M 347.59791,76.134766 V 240.61522 l 0.39843,0.26172 -0.002,-0.51953 44.37305,-28.87695 c 5.51699,-3.59043 5.72302,-3.54035 6.38281,-10.52735 l 14.93945,-90.87499 c 3.24062,-19.713762 3.70149,-20.019964 -17.20898,-23.205073 z"
           style="fill:#000000;fill-opacity:1;stroke:#000000;stroke-width:0.93981457px;stroke-linecap:butt;stroke-linejoin:miter;stroke-opacity:1" />
      </g>
    </g>
    <g
       transform="translate(291.52959,-17.154829)"
       id="g932">
      <path
         style="fill:#dfbb48;fill-opacity:1;stroke:#000000;stroke-width:1px;stroke-linecap:butt;stroke-linejoin:miter;stroke-opacity:1"
         d="m 17.318357,115.38063 -68.59375,6.01562 -19.855468,32.49219 21.058593,28.88086 67.205078,7.18164 v 0.0391 l 0.185547,-0.0195 0.185547,0.0195 v -0.0391 L 84.707029,182.7693 105.76758,153.88844 85.910154,121.39625 Z"
         id="path882"
         inkscape:connector-curvature="0" />
      <path
         inkscape:connector-curvature="0"
         style="fill:#000000;fill-opacity:1;stroke:#000000;stroke-width:0.91999435px;stroke-linecap:butt;stroke-linejoin:miter;stroke-opacity:1"
         d="m 17.318359,119.23606 -64.74234,5.39445 -18.740621,29.13704 19.876193,25.89861 63.431639,6.44007 v 0.0351 l 0.175129,-0.0175 0.175129,0.0175 v -0.0351 l 63.429797,-6.44007 19.878035,-25.89861 -18.742468,-29.13704 z"
         id="path882-6" />
    </g>
    <path
       inkscape:connector-curvature="0"
       id="path945"
       d="m 305.39558,91.790869 c -0.0636,-0.04042 -0.14551,-0.206441 -0.18203,-0.368864 -0.12766,-0.567852 -0.15815,-0.631299 -0.32939,-0.685649 -0.12302,-0.03907 -0.20309,-0.233457 -0.27925,-0.678155 -0.12559,-0.733156 -0.48717,-1.512551 -1.04148,-2.244921 l -0.39857,-0.526607 0.11536,-0.49976 c 0.0634,-0.274867 0.35413,-0.899801 0.64597,-1.388743 0.29184,-0.488942 0.55903,-0.986767 0.59376,-1.106278 0.0834,-0.287054 -0.16323,-0.754833 -0.70672,-1.340402 -0.24055,-0.259185 -0.49772,-0.615653 -0.57146,-0.792155 -0.0737,-0.176501 -0.22683,-0.404848 -0.34019,-0.507433 -0.11335,-0.102585 -0.30077,-0.446139 -0.41646,-0.763452 -0.1157,-0.317314 -0.26767,-0.576933 -0.33771,-0.576933 -0.17972,0 -0.73972,0.489117 -0.82551,0.721035 -0.13391,0.361987 0.17757,1.569862 0.64184,2.488946 0.99979,1.979219 0.748,4.203041 -0.55143,4.870389 -0.35735,0.183526 -0.53805,0.216518 -0.92196,0.168332 -0.83521,-0.104812 -1.51362,-0.425261 -2.15245,-1.016702 -0.55497,-0.513805 -0.58291,-0.559689 -0.38531,-0.632784 0.22932,-0.08483 0.21894,-0.123866 -0.17118,-0.643712 -0.13055,-0.173972 -0.22259,-0.38585 -0.20454,-0.470848 0.027,-0.12682 0.0994,-0.107039 0.40384,0.110293 0.24806,0.177071 0.50488,0.267641 0.77499,0.273309 0.34696,0.0073 0.44083,-0.03885 0.66494,-0.326653 l 0.26095,-0.335131 -0.24579,0.08631 c -0.13518,0.04747 -0.44579,0.08716 -0.69024,0.08821 -0.40869,0.0017 -0.45814,-0.02549 -0.61436,-0.338501 -0.0934,-0.187223 -0.15583,-0.354481 -0.13863,-0.371679 0.0172,-0.01721 0.19786,0.03835 0.40148,0.123405 0.33486,0.139916 0.39256,0.140041 0.6043,0.0013 0.51564,-0.33786 0.67626,-1.012673 0.48231,-2.026263 -0.25256,-1.319871 -0.13228,-2.105922 0.45879,-2.99828 0.40444,-0.610596 0.58036,-0.698797 1.51234,-0.758257 l 0.78024,-0.04978 0.13132,-0.451899 c 0.18118,-0.623424 0.66283,-1.079623 1.5468,-1.465038 0.41163,-0.179477 0.77221,-0.388278 0.80127,-0.463994 0.0811,-0.211308 -0.25823,-0.169598 -0.88875,0.10925 -0.61221,0.270747 -0.92677,0.308254 -1.10344,0.131572 -0.088,-0.08796 -0.20679,-0.08796 -0.50037,0 -0.72408,0.216939 -1.03797,0.150027 -2.2387,-0.477257 -0.6239,-0.325938 -1.2491,-0.592615 -1.38935,-0.592615 -0.28403,0 -1.24771,-0.852445 -1.5546,-1.375159 l -0.17843,-0.303908 0.32658,-0.0017 c 0.41456,-0.0021 0.6025,-0.120684 0.55785,-0.352513 -0.0286,-0.148512 -0.13686,-0.185336 -0.58547,-0.199138 -0.70359,-0.02165 -1.00385,-0.182229 -1.6719,-0.894138 l -0.54188,-0.577456 0.51611,-0.0519 c 0.92666,-0.09318 0.88813,-0.384113 -0.0716,-0.541076 -1.10128,-0.180102 -1.73722,-0.727729 -2.46129,-2.119466 -0.22715,-0.436615 -0.39964,-0.793662 -0.38331,-0.793436 0.0163,2.26e-4 0.24834,0.111344 0.51558,0.246922 0.83101,0.421603 0.92191,0.314462 0.27266,-0.321412 -0.65379,-0.640316 -1.20092,-1.65666 -1.43729,-2.669869 l -0.14403,-0.61742 0.51016,0.458941 c 1.47052,1.322916 3.30951,2.183373 5.4772,2.562772 1.08404,0.189734 1.46219,0.16719 3.47767,-0.207327 1.763,-0.327595 2.6841,0.07327 3.75331,1.633438 0.46757,0.68226 1.53298,1.777834 1.72889,1.777834 0.10857,0 0.14761,-0.114739 0.14761,-0.433706 0,-0.359923 0.0667,-0.514437 0.39216,-0.908271 0.41637,-0.503857 0.66256,-1.028472 0.48263,-1.028472 -0.0565,0 -0.28278,0.154212 -0.50298,0.342696 -0.2202,0.188483 -0.43838,0.319197 -0.48485,0.290478 -0.154,-0.09518 -0.0868,-0.776322 0.10813,-1.096022 0.10554,-0.173081 0.28315,-0.36354 0.3947,-0.423239 0.34238,-0.183233 0.22596,-0.311452 -0.14286,-0.157349 -0.34549,0.144354 -0.34569,0.144278 -0.3439,-0.122136 6.7e-4,-0.146614 0.13996,-0.511025 0.30883,-0.8098 0.16888,-0.298776 0.3768,-0.676567 0.46207,-0.839533 0.0853,-0.162971 0.19019,-0.340754 0.23315,-0.395077 0.043,-0.05432 0.22479,-0.297968 0.40403,-0.541432 0.22921,-0.311335 0.47131,-0.501547 0.81608,-0.641149 0.68178,-0.276064 0.68643,-0.285576 0.47221,-0.965638 -0.0774,-0.245834 0.10597,-0.213803 0.37474,0.06544 0.22315,0.23185 0.23293,0.233169 0.36205,0.04882 0.13514,-0.192946 0.49234,-0.406741 0.87821,-0.525645 0.1603,-0.04939 0.22959,-0.01771 0.27512,0.12574 0.0335,0.105471 0.30374,0.30676 0.60059,0.447308 0.44107,0.208842 0.53971,0.300538 0.53971,0.501736 0,0.326092 0.5057,0.583225 1.67778,0.853088 0.69259,0.159467 0.93351,0.260554 1.08749,0.4563 0.32436,0.412351 0.2172,0.99203 -0.20969,1.134323 -0.0847,0.02822 -0.0864,0.09112 -0.007,0.240471 0.0832,0.155494 0.0738,0.251423 -0.0408,0.415047 -0.19299,0.275519 -0.38799,0.268235 -1.06043,-0.03961 -0.43078,-0.197216 -0.59399,-0.229619 -0.74621,-0.14815 -0.10716,0.05735 -0.41682,0.104272 -0.68812,0.104272 -0.57498,0 -0.8037,0.171553 -0.8037,0.602839 0,0.443079 0.23145,0.908174 0.77986,1.567166 0.2731,0.328161 0.5484,0.769724 0.61177,0.981249 0.0699,0.233174 0.21214,0.43646 0.36139,0.516338 0.13539,0.07246 0.42008,0.329316 0.63264,0.5708 l 0.38647,0.43906 -0.0668,0.970026 c -0.0848,1.230586 -0.047,1.239746 0.84305,0.204567 l 0.53076,-0.617303 0.70126,0.0021 c 0.50573,0.0017 0.82519,0.06061 1.14572,0.211756 0.31898,0.150419 0.74092,0.228954 1.49457,0.278186 1.01611,0.06637 1.06975,0.0817 1.65612,0.473268 l 0.606,0.404672 -0.32805,0.250221 c -0.37637,0.287066 -0.96846,0.552635 -1.23213,0.552635 -0.1163,0 -0.21382,-0.110272 -0.27479,-0.31072 -0.0826,-0.271718 -0.18747,-0.345375 -0.83526,-0.586842 -0.85473,-0.318603 -1.27041,-0.350839 -1.69471,-0.131426 -0.2669,0.138024 -0.29489,0.192393 -0.24009,0.466385 0.0341,0.170582 0.24149,0.607176 0.46084,0.970214 l 0.39882,0.660063 -0.0921,1.346946 c -0.0507,0.740817 -0.11963,1.374421 -0.15321,1.408005 -0.0941,0.09412 -0.4507,-0.269805 -0.728,-0.742998 -0.23044,-0.393213 -0.24027,-0.456944 -0.12453,-0.807619 0.0718,-0.217503 0.092,-0.457962 0.0471,-0.560907 -0.0432,-0.0991 -0.0863,-0.388555 -0.0958,-0.643221 -0.0124,-0.333503 -0.0923,-0.561451 -0.28557,-0.814842 -0.14758,-0.193494 -0.31096,-0.35181 -0.36305,-0.35181 -0.0521,0 -0.42185,0.303318 -0.82166,0.674034 -0.81993,0.760246 -1.33826,1.050879 -1.73328,0.971876 -0.24349,-0.0487 -0.32093,0.02474 -0.90048,0.854165 -0.94485,1.35217 -1.7305,2.084078 -3.00793,2.802199 -0.59755,0.335918 -1.2367,0.766254 -1.42034,0.956307 -0.31163,0.322508 -0.33952,0.406569 -0.41834,1.260758 -0.15231,1.650523 -0.62129,2.66755 -1.72566,3.742237 -0.40266,0.391824 -0.7321,0.780826 -0.7321,0.864443 0,0.278236 0.50388,0.81778 1.18951,1.273689 0.43497,0.28923 0.74442,0.579232 0.86397,0.809661 0.10246,0.197451 0.30806,0.569558 0.45689,0.826897 0.24304,0.420185 0.26229,0.520042 0.18881,0.979517 -0.045,0.281402 -0.13319,0.528737 -0.19598,0.549631 -0.0628,0.02088 -0.2689,-0.09786 -0.458,-0.263892 -0.25858,-0.227025 -0.35999,-0.409645 -0.409,-0.736479 -0.0373,-0.248806 -0.16548,-0.54283 -0.29979,-0.687757 -0.12905,-0.139234 -0.26346,-0.344036 -0.29871,-0.455098 -0.0353,-0.111075 -0.2261,-0.312037 -0.42411,-0.446578 -0.31165,-0.211778 -0.37145,-0.224172 -0.44525,-0.09231 -0.13492,0.241084 0.0799,0.702668 0.65798,1.414078 0.55901,0.68789 0.85275,1.183568 0.85275,1.439006 0,0.122073 -0.12499,0.152756 -0.6173,0.151548 -0.33952,-6.72e-4 -0.66934,-0.03464 -0.73294,-0.07507 z M 299.5604,75.503795 c 0.0408,-0.02399 0.0741,-0.08543 0.0741,-0.136543 0,-0.160634 -0.33533,-0.09698 -0.59261,0.112491 l -0.24692,0.201039 0.34569,-0.0667 c 0.19013,-0.03667 0.37903,-0.08632 0.41977,-0.110292 z m 9.05379,-2.838141 c -0.0804,-0.07949 -1.13001,-0.453068 -1.27305,-0.453118 -0.19377,-6.7e-5 0.14058,0.230545 0.54052,0.372801 0.29023,0.103238 0.8138,0.160643 0.73253,0.08032 z"
       style="fill:#ddb946;fill-opacity:1;stroke-width:0.09876869" />
    <g
       id="text949"
       style="font-style:normal;font-variant:normal;font-weight:normal;font-stretch:normal;font-size:85.33333588px;line-height:1.25;font-family:'Digital Dismay';-inkscape-font-specification:'Digital Dismay';letter-spacing:0px;word-spacing:0px;fill:#ddb946;fill-opacity:1;stroke:none"
       aria-label="PEGASUS">
      <path
         id="path951"
         style="font-style:normal;font-variant:normal;font-weight:normal;font-stretch:normal;font-size:53.33333206px;font-family:Aldhabi;-inkscape-font-specification:Aldhabi;fill:#ddb946;fill-opacity:1"
         d="m 243.40625,137.46354 v -10.92448 q 0,-0.61198 -0.013,-1.05468 0,-0.45573 -0.013,-0.8073 -0.78125,0.10417 -1.57552,0.23438 -0.78125,0.11719 -1.52344,0.26042 l 0.3125,-1.30209 q 0.84635,-0.20833 1.9401,-0.39062 1.09375,-0.19532 2.26563,-0.32552 1.18489,-0.14323 2.35677,-0.22136 1.1849,-0.0781 2.22656,-0.0781 0.91146,0 1.86198,0.0911 0.95052,0.0781 1.83594,0.29948 0.89844,0.20834 1.67969,0.59896 0.79427,0.39063 1.3802,1.01563 0.59896,0.61197 0.9375,1.48437 0.33855,0.85938 0.33855,2.04427 0,1.30208 -0.41667,2.34375 -0.41667,1.02865 -1.15885,1.82292 -0.72917,0.79427 -1.7448,1.36719 -1.0026,0.57291 -2.1875,0.9375 -1.17187,0.36458 -2.48698,0.53385 -1.30208,0.16927 -2.6302,0.16927 v 2.52604 q 0,0.97656 0.013,1.62761 0.013,0.65104 0.026,1.08073 0.013,0.42968 0.0391,0.83333 0.0391,0.3776 0.10417,0.61198 0.0781,0.23437 0.41666,0.3776 0.33855,0.14323 1.05469,0.23438 0.72917,0.0781 2.07031,0.15625 l -0.52083,1.19791 q -0.33854,-0.0391 -0.88542,-0.0781 -0.54687,-0.0391 -1.21093,-0.0651 -0.66407,-0.026 -1.38021,-0.0521 -0.71615,-0.013 -1.38021,-0.013 -0.9375,0 -1.75781,0.026 -0.82031,0.0391 -1.44531,0.0781 -0.625,0.0391 -1.01563,0.0781 -0.39062,0.026 -0.48177,0.026 0,-0.11718 0.0391,-0.32552 0.0521,-0.22135 0.3125,-0.45573 0.26042,-0.23437 0.83334,-0.42968 0.57291,-0.19532 1.6276,-0.27344 0.0521,-0.58594 0.0781,-1.40625 0.0391,-0.82031 0.0521,-1.79688 0.026,-0.97656 0.026,-2.05729 z m 4.83073,-13.20312 q -0.27344,0 -0.65104,0.013 -0.36459,0.013 -0.74219,0.0391 -0.026,0.78125 -0.0391,1.71875 -0.013,0.9375 -0.013,2.13542 v 6.09375 q 0.89843,-0.013 1.74479,-0.0911 0.85937,-0.0911 1.6276,-0.29948 0.76823,-0.22135 1.40625,-0.58594 0.63802,-0.3776 1.10677,-0.95052 0.46875,-0.58593 0.72917,-1.40625 0.26042,-0.83333 0.26042,-1.96614 0,-1.34115 -0.37761,-2.23959 -0.36458,-0.89843 -1.06771,-1.44531 -0.70312,-0.54687 -1.71875,-0.78125 -1.0026,-0.23437 -2.26562,-0.23437 z"
         inkscape:connector-curvature="0" />
      <path
         id="path953"
         style="font-style:normal;font-variant:normal;font-weight:normal;font-stretch:normal;font-size:53.33333206px;font-family:Aldhabi;-inkscape-font-specification:Aldhabi;fill:#ddb946;fill-opacity:1"
         d="M 265.85417,133.97396 V 139 q 0,0.97656 0.013,1.6276 0.013,0.65105 0.0391,0.89844 0.026,0.37761 0.14323,0.59896 0.13021,0.20833 0.42969,0.32552 0.29948,0.10417 0.82031,0.14323 0.52083,0.026 1.34114,0.026 1.22396,0 2.1224,-0.0521 0.89844,-0.0651 1.5625,-0.23438 0.66406,-0.16927 1.14583,-0.48177 0.4948,-0.3125 0.88542,-0.82031 0.39063,-0.52083 0.74219,-1.25 0.35156,-0.72917 0.75521,-1.74479 l 1.17187,0.26042 q -0.3125,1.40625 -0.54687,2.39583 -0.23438,0.97656 -0.42969,1.64062 -0.19531,0.65105 -0.37761,1.04167 -0.18229,0.3776 -0.40364,0.57292 -0.20833,0.18229 -0.48177,0.23437 -0.26042,0.0521 -0.625,0.0521 -0.28646,0 -0.89844,-0.026 -0.61198,-0.013 -1.41927,-0.0391 -0.80729,-0.026 -1.77083,-0.0521 -0.95052,-0.026 -1.94011,-0.0521 -0.97656,-0.026 -1.92708,-0.0521 -0.95052,-0.013 -1.75781,-0.013 -2.30469,0 -3.48959,0.10417 -1.19791,0.10416 -1.45833,0.10416 0,-0.11718 0.0391,-0.32552 0.0521,-0.22135 0.3125,-0.45573 0.26042,-0.23437 0.83334,-0.42968 0.57291,-0.19532 1.6276,-0.27344 0.0521,-0.54688 0.0781,-1.38021 0.0391,-0.83333 0.0521,-1.78385 0.026,-0.95052 0.026,-1.94011 v -5.40364 q 0,-1.48438 -0.013,-2.52605 0,-1.05468 -0.013,-1.71875 -0.013,-0.67708 -0.026,-1.11979 -0.013,-0.44271 -0.026,-0.71614 -0.013,-0.27344 -0.026,-0.52084 -0.026,-0.36458 -0.0911,-0.57291 -0.0521,-0.20834 -0.32552,-0.32552 -0.27344,-0.11719 -0.85938,-0.1823 -0.57292,-0.0781 -1.64062,-0.16927 l 0.4427,-1.14583 q 0.32553,0.0521 1.5625,0.10417 1.25,0.0521 3.28125,0.0521 1.01563,0 2.10938,-0.013 1.10677,-0.013 2.17448,-0.0391 1.08073,-0.026 2.04427,-0.0521 0.97656,-0.026 1.74479,-0.0521 0.75521,-0.026 1.22396,-0.0391 0.48177,-0.013 0.5599,-0.013 0.18229,0 0.3776,0.13021 0.19531,0.11718 0.20833,0.52083 0.026,0.75521 0.026,1.875 0,1.11979 0.0521,2.31771 l -1.14584,0.13021 q -0.16927,-0.8073 -0.33854,-1.38021 -0.16927,-0.57292 -0.41666,-0.9375 -0.2474,-0.37761 -0.625,-0.58594 -0.36459,-0.22135 -0.95052,-0.32552 -0.58594,-0.10417 -1.41928,-0.13021 -0.83333,-0.026 -2.0052,-0.026 h -2.3698 q -0.0391,0.70312 -0.0651,1.48437 -0.026,0.78125 -0.0391,1.71875 -0.013,0.9375 -0.026,2.08334 0,1.13281 0,2.55208 1.57552,-0.11719 2.86458,-0.20833 1.28906,-0.0911 2.22656,-0.15625 0.9375,-0.0651 1.4974,-0.0911 0.55989,-0.0391 0.67708,-0.0391 0.40365,0 0.5599,0.32552 0.16927,0.3125 0.16927,0.70312 0,0.36459 -0.0911,0.66407 -0.0911,0.28646 -0.16927,0.49479 -1.01562,-0.0521 -1.97917,-0.0911 -0.96354,-0.0521 -1.91406,-0.0911 -0.9375,-0.0391 -1.90104,-0.0651 -0.95052,-0.0391 -1.9401,-0.0651 z"
         inkscape:connector-curvature="0" />
      <path
         id="path955"
         style="font-style:normal;font-variant:normal;font-weight:normal;font-stretch:normal;font-size:53.33333206px;font-family:Aldhabi;-inkscape-font-specification:Aldhabi;fill:#ddb946;fill-opacity:1"
         d="m 296.80469,129 q -0.39063,-2.27865 -1.90104,-3.3724 -1.51042,-1.10677 -4.33594,-1.10677 -2.04427,0 -3.46354,0.5599 -1.40625,0.54687 -2.27865,1.58854 -0.8724,1.04167 -1.26302,2.53906 -0.3776,1.4974 -0.3776,3.38542 0,1.32813 0.18229,2.60417 0.19531,1.27604 0.59896,2.42187 0.40364,1.13281 1.04166,2.09636 0.63802,0.96354 1.54948,1.66666 0.91146,0.69011 2.09636,1.08073 1.19791,0.39063 2.69531,0.39063 0.33854,0 0.78125,-0.026 0.44271,-0.026 0.91146,-0.0781 0.46875,-0.0651 0.92448,-0.15625 0.45572,-0.0911 0.83333,-0.23437 0,-1.06771 -0.013,-1.91407 0,-0.84635 -0.013,-1.49739 -0.013,-0.66407 -0.0391,-1.14584 -0.013,-0.49479 -0.0391,-0.85937 -0.026,-0.36458 -0.0911,-0.57292 -0.0651,-0.20833 -0.40365,-0.32552 -0.32552,-0.11719 -1.01562,-0.18229 -0.67709,-0.0651 -1.92709,-0.16927 l 0.41667,-1.14583 q 0.11719,0.026 0.65104,0.0521 0.53385,0.026 1.25,0.0521 0.72917,0.013 1.53646,0.0391 0.80729,0.013 1.47135,0.013 1.00261,0 1.8099,-0.0391 0.80729,-0.0391 1.38021,-0.0781 0.57291,-0.0391 0.88541,-0.0781 0.3125,-0.0391 0.33855,-0.0391 0,0.15625 -0.0521,0.39063 -0.0521,0.22135 -0.3125,0.45572 -0.24739,0.23438 -0.80729,0.42969 -0.54687,0.19531 -1.53646,0.28646 -0.0781,1.32813 -0.0781,3.41146 0,0.52083 0,0.97656 0.013,0.45573 0.026,0.92448 0.013,0.46875 0.0391,0.96354 0.026,0.49479 0.0651,1.09375 -0.45573,0.0391 -1.28907,0.20834 -0.83333,0.16927 -1.91406,0.35156 -1.06771,0.18229 -2.30469,0.32552 -1.23698,0.15625 -2.5,0.15625 -2.5651,0 -4.58333,-0.69011 -2.01823,-0.70312 -3.42448,-2.01822 -1.40625,-1.31511 -2.14844,-3.19011 -0.74218,-1.88802 -0.74218,-4.25781 0,-1.86198 0.4427,-3.4375 0.45573,-1.57552 1.26302,-2.83854 0.82032,-1.27604 1.94011,-2.23959 1.13281,-0.96354 2.48698,-1.61458 1.35416,-0.65104 2.8776,-0.97656 1.53646,-0.32552 3.15104,-0.32552 0.79427,0 1.61459,0.0781 0.83333,0.0651 1.58854,0.19531 0.75521,0.11719 1.38021,0.28646 0.63802,0.16927 1.04166,0.35157 0.15625,0.0651 0.27344,0.1302 0.11719,0.0521 0.19531,0.14323 0.0781,0.0911 0.11719,0.22136 0.0521,0.13021 0.0651,0.33854 0.013,0.22135 0.013,0.70312 0.013,0.48177 0.013,1.09375 0.013,0.59896 0.026,1.26302 0,0.66407 0.026,1.23698 z"
         inkscape:connector-curvature="0" />
      <path
         id="path957"
         style="font-style:normal;font-variant:normal;font-weight:normal;font-stretch:normal;font-size:53.33333206px;font-family:Aldhabi;-inkscape-font-specification:Aldhabi;fill:#ddb946;fill-opacity:1"
         d="m 317.85937,133.01042 q 0.625,1.79687 1.10677,3.17708 0.48177,1.36719 0.84636,2.38281 0.36458,1.01563 0.63802,1.71875 0.27344,0.69011 0.48177,1.13282 0.19531,0.45572 0.36458,0.72916 0.16927,0.27344 0.52084,0.44271 0.36458,0.16927 1.0026,0.26042 0.65104,0.0781 1.78385,0.15625 l -0.52083,1.17187 q -0.15625,-0.013 -0.57292,-0.0521 -0.41666,-0.026 -1.01562,-0.0521 -0.58594,-0.026 -1.31511,-0.0521 -0.71614,-0.026 -1.49739,-0.026 -0.83333,0 -1.65365,0.026 -0.80729,0.026 -1.47135,0.0651 -0.66406,0.0391 -1.10677,0.0651 -0.42969,0.0391 -0.50781,0.0521 0,-0.13021 0.0391,-0.33854 0.0521,-0.22135 0.29948,-0.44271 0.26041,-0.22135 0.78125,-0.41666 0.52083,-0.19532 1.48437,-0.28646 -0.33854,-1.09375 -0.83333,-2.55208 -0.48177,-1.45834 -1.14583,-3.28125 -2.14844,0 -3.91928,0.013 -1.77083,0.013 -3.34635,0.0651 -0.45573,1.05469 -0.76823,1.78385 -0.3125,0.72917 -0.52083,1.23698 -0.19531,0.4948 -0.32552,0.82032 -0.13021,0.32552 -0.20834,0.55989 -0.14323,0.40365 -0.20833,0.61198 -0.0521,0.20833 -0.0521,0.33854 0,0.15625 0.10416,0.26042 0.11719,0.10417 0.40365,0.18229 0.29948,0.0651 0.80729,0.11719 0.52083,0.0521 1.34115,0.10417 l -0.52084,1.17187 q -0.10416,-0.013 -0.50781,-0.0391 -0.40364,-0.026 -0.95052,-0.0521 -0.54687,-0.026 -1.14583,-0.0521 -0.59896,-0.013 -1.08073,-0.013 -0.53386,0 -1.15886,0.026 -0.61198,0.026 -1.15885,0.0521 -0.53385,0.026 -0.91146,0.0521 -0.39062,0.0391 -0.45573,0.0521 0,-0.13021 0.0521,-0.33854 0.0521,-0.22135 0.32552,-0.44271 0.27343,-0.23437 0.84635,-0.42969 0.57292,-0.19531 1.61458,-0.27343 0.36459,-0.67709 0.85938,-1.67969 0.49479,-1.0026 1.06771,-2.22656 0.57291,-1.22396 1.19791,-2.60417 0.625,-1.39323 1.27605,-2.83854 0.78125,-1.75781 1.35416,-3.0599 0.57292,-1.3151 0.98959,-2.27864 0.41666,-0.97657 0.70312,-1.66667 0.28646,-0.70312 0.49479,-1.23698 0.20834,-0.54687 0.36459,-1.0026 0.16927,-0.45573 0.33854,-0.9375 0.20833,-0.013 0.46875,-0.0391 0.26041,-0.026 0.53385,-0.0651 0.28646,-0.0391 0.5599,-0.0781 0.28646,-0.0521 0.54687,-0.10417 0.20834,0.79427 0.45573,1.66667 0.26042,0.87239 0.625,2.04427 0.37761,1.15885 0.91146,2.72135 0.53385,1.54948 1.28906,3.69792 z m -0.26041,9.80468 z m 3.80208,0.19532 z m -17.46094,-0.23438 z m 1.90104,0.20834 z m 3.0599,-7.3698 q 1.52344,-0.0651 3.04687,-0.0911 1.52344,-0.013 3.125,-0.0391 l -0.72916,-2.0573 q -0.46875,-1.3802 -0.95052,-2.77343 -0.48177,-1.38021 -0.95052,-2.82552 h -0.10417 q -0.625,1.45833 -1.25,2.89062 -0.61198,1.43229 -1.27604,2.89063 z"
         inkscape:connector-curvature="0" />
      <path
         id="path959"
         style="font-style:normal;font-variant:normal;font-weight:normal;font-stretch:normal;font-size:53.33333206px;font-family:Aldhabi;-inkscape-font-specification:Aldhabi;fill:#ddb946;fill-opacity:1"
         d="m 327.97656,137.82813 q 0.13021,1.43229 0.65104,2.40885 0.53386,0.96354 1.28907,1.54948 0.7552,0.58594 1.66666,0.84635 0.91146,0.2474 1.8099,0.2474 0.79427,0 1.47135,-0.18229 0.69011,-0.18229 1.17188,-0.54688 0.49479,-0.3776 0.76823,-0.92448 0.28646,-0.55989 0.28646,-1.3151 0,-0.89844 -0.39063,-1.54948 -0.39062,-0.66406 -1.05469,-1.19792 -0.66406,-0.53385 -1.54948,-0.98958 -0.88541,-0.45573 -1.875,-0.95052 -0.67708,-0.32552 -1.35416,-0.67708 -0.66407,-0.35157 -1.27604,-0.75521 -0.61198,-0.40365 -1.14584,-0.8724 -0.52083,-0.46875 -0.91146,-1.04167 -0.39062,-0.57291 -0.61198,-1.25 -0.22135,-0.6901 -0.22135,-1.51041 0,-1.39323 0.61198,-2.53906 0.625,-1.15886 1.69271,-1.97917 1.06771,-0.83333 2.5,-1.28906 1.44531,-0.45573 3.07291,-0.45573 1.06771,0 2.14844,0.18229 1.09375,0.18229 1.92709,0.44271 0.16927,0.0651 0.27343,0.11718 0.10417,0.0521 0.15625,0.13021 0.0521,0.0781 0.0651,0.19532 0.026,0.11718 0.026,0.3125 v 1.6927 q 0,0.65105 0.013,1.38021 0.013,0.72917 0.0391,1.32813 l -1.14583,0.10416 q -0.27344,-2.16145 -1.43229,-3.20312 -1.15886,-1.04167 -3.17709,-1.04167 -0.78125,0 -1.47135,0.16927 -0.67708,0.15625 -1.1849,0.52084 -0.50781,0.36458 -0.80729,0.9375 -0.28646,0.55989 -0.28646,1.35416 0,0.89844 0.36459,1.57552 0.3776,0.66407 1.01562,1.21094 0.63802,0.54688 1.4974,1.01563 0.85937,0.45573 1.83594,0.92448 1.09375,0.53385 2.16145,1.09375 1.06771,0.55989 1.91407,1.27604 0.84635,0.70312 1.36718,1.6276 0.52084,0.92448 0.52084,2.17448 0,0.95052 -0.3125,1.77083 -0.3125,0.8073 -0.8724,1.48438 -0.54687,0.66406 -1.30208,1.19792 -0.75521,0.52083 -1.65365,0.88541 -0.88541,0.35156 -1.88802,0.53386 -0.98958,0.19531 -2.01823,0.19531 -0.92448,0 -1.92708,-0.14323 -1.00261,-0.14323 -1.83594,-0.3776 -0.82031,-0.2474 -1.35417,-0.57292 -0.53385,-0.32552 -0.53385,-0.67708 v -0.0391 q 0,-0.0391 0.013,-0.19531 0,-0.14323 0.013,-0.44271 0,-0.28646 0.013,-0.80729 0.013,-0.53385 0.0391,-1.32812 0.026,-0.79428 0.0521,-1.92709 z"
         inkscape:connector-curvature="0" />
      <path
         id="path961"
         style="font-style:normal;font-variant:normal;font-weight:normal;font-stretch:normal;font-size:53.33333206px;font-family:Aldhabi;-inkscape-font-specification:Aldhabi;fill:#ddb946;fill-opacity:1"
         d="m 348.83593,124.70313 q -0.0391,0.18229 -0.0781,0.71614 -0.026,0.53386 -0.0521,1.26302 -0.013,0.72917 -0.0391,1.5625 -0.013,0.83334 -0.013,1.60156 -0.013,0.76823 -0.013,1.40625 -0.013,0.63803 -0.013,0.96355 0,2.61718 0.29948,4.55729 0.3125,1.9401 1.02864,3.22916 0.72917,1.27605 1.92709,1.91407 1.19791,0.625 2.98177,0.625 1.51041,0 2.55208,-0.41667 1.04167,-0.42969 1.73177,-1.1849 0.69011,-0.7552 1.06771,-1.78385 0.39063,-1.02865 0.57292,-2.22656 0.18229,-1.21094 0.22135,-2.53906 0.0391,-1.32813 0.0391,-2.69532 0,-1.51041 -0.013,-2.51302 -0.013,-1.01562 -0.0391,-1.67969 -0.026,-0.67708 -0.0651,-1.10677 -0.026,-0.42968 -0.0651,-0.78125 -0.0391,-0.36458 -0.10416,-0.57291 -0.0651,-0.20834 -0.35157,-0.32552 -0.28646,-0.11719 -0.88541,-0.1823 -0.58594,-0.0781 -1.67969,-0.16927 l 0.33854,-1.14583 q 0.0912,0.026 0.48177,0.0521 0.39063,0.026 0.92448,0.0521 0.53385,0.026 1.14583,0.0391 0.61198,0.013 1.14584,0.013 0.84635,0 1.60156,-0.0391 0.75521,-0.0391 1.3151,-0.0781 0.57292,-0.0391 0.91146,-0.0781 0.33854,-0.0391 0.36459,-0.0391 0,0.15625 -0.0521,0.39062 -0.0521,0.22135 -0.33854,0.45573 -0.27344,0.23437 -0.8724,0.42969 -0.59895,0.19531 -1.67968,0.28646 -0.10417,0.95052 -0.15625,1.92708 -0.0391,0.97656 -0.0651,1.90104 -0.013,0.91146 -0.013,1.71875 -0.013,0.82031 -0.026,1.43229 -0.026,1.78386 -0.15625,3.42448 -0.13021,1.64063 -0.46875,3.07292 -0.33854,1.41927 -0.96354,2.57812 -0.61198,1.15886 -1.62761,1.99219 -1.0026,0.82031 -2.44791,1.26302 -1.44531,0.45573 -3.46354,0.45573 -2.16146,0 -3.77605,-0.5599 -1.61458,-0.57291 -2.69531,-1.79687 -1.08073,-1.23698 -1.6276,-3.17708 -0.53386,-1.95313 -0.53386,-4.71355 0,-0.24739 0.013,-0.85937 0,-0.61198 0,-1.38021 0,-0.75521 0.013,-1.57552 0,-0.82031 0,-1.51042 0,-0.83333 -0.013,-1.40625 0,-0.57291 -0.013,-0.9375 -0.013,-0.3776 -0.026,-0.58593 -0.013,-0.22136 -0.026,-0.35157 -0.026,-0.36458 -0.0911,-0.57291 -0.0521,-0.20834 -0.33854,-0.32552 -0.27343,-0.11719 -0.85937,-0.1823 -0.57292,-0.0781 -1.62761,-0.16927 l 0.44271,-1.14583 q 0.11719,0.026 0.58594,0.0521 0.46875,0.026 1.10677,0.0521 0.65104,0.026 1.38021,0.0391 0.74219,0.013 1.38021,0.013 1.02864,0 1.86198,-0.0391 0.84635,-0.0391 1.43229,-0.0781 0.59896,-0.0391 0.9375,-0.0781 0.33854,-0.0391 0.3776,-0.0391 0,0.15625 -0.0651,0.39062 -0.0651,0.22135 -0.33854,0.45573 -0.27344,0.23437 -0.84636,0.42969 -0.55989,0.19531 -1.5625,0.28646 z"
         inkscape:connector-curvature="0" />
      <path
         id="path963"
         style="font-style:normal;font-variant:normal;font-weight:normal;font-stretch:normal;font-size:53.33333206px;font-family:Aldhabi;-inkscape-font-specification:Aldhabi;fill:#ddb946;fill-opacity:1"
         d="m 368.91406,137.82813 q 0.13021,1.43229 0.65104,2.40885 0.53386,0.96354 1.28907,1.54948 0.7552,0.58594 1.66666,0.84635 0.91146,0.2474 1.8099,0.2474 0.79427,0 1.47135,-0.18229 0.69011,-0.18229 1.17188,-0.54688 0.49479,-0.3776 0.76823,-0.92448 0.28646,-0.55989 0.28646,-1.3151 0,-0.89844 -0.39063,-1.54948 -0.39062,-0.66406 -1.05469,-1.19792 -0.66406,-0.53385 -1.54948,-0.98958 -0.88541,-0.45573 -1.875,-0.95052 -0.67708,-0.32552 -1.35416,-0.67708 -0.66407,-0.35157 -1.27604,-0.75521 -0.61198,-0.40365 -1.14584,-0.8724 -0.52083,-0.46875 -0.91146,-1.04167 -0.39062,-0.57291 -0.61198,-1.25 -0.22135,-0.6901 -0.22135,-1.51041 0,-1.39323 0.61198,-2.53906 0.625,-1.15886 1.69271,-1.97917 1.06771,-0.83333 2.5,-1.28906 1.44531,-0.45573 3.07291,-0.45573 1.06771,0 2.14844,0.18229 1.09375,0.18229 1.92709,0.44271 0.16927,0.0651 0.27343,0.11718 0.10417,0.0521 0.15625,0.13021 0.0521,0.0781 0.0651,0.19532 0.026,0.11718 0.026,0.3125 v 1.6927 q 0,0.65105 0.013,1.38021 0.013,0.72917 0.0391,1.32813 l -1.14583,0.10416 q -0.27344,-2.16145 -1.43229,-3.20312 -1.15886,-1.04167 -3.17709,-1.04167 -0.78125,0 -1.47135,0.16927 -0.67708,0.15625 -1.1849,0.52084 -0.50781,0.36458 -0.80729,0.9375 -0.28646,0.55989 -0.28646,1.35416 0,0.89844 0.36459,1.57552 0.3776,0.66407 1.01562,1.21094 0.63802,0.54688 1.4974,1.01563 0.85937,0.45573 1.83594,0.92448 1.09375,0.53385 2.16145,1.09375 1.06771,0.55989 1.91407,1.27604 0.84635,0.70312 1.36718,1.6276 0.52084,0.92448 0.52084,2.17448 0,0.95052 -0.3125,1.77083 -0.3125,0.8073 -0.8724,1.48438 -0.54687,0.66406 -1.30208,1.19792 -0.75521,0.52083 -1.65365,0.88541 -0.88541,0.35156 -1.88802,0.53386 -0.98958,0.19531 -2.01823,0.19531 -0.92448,0 -1.92708,-0.14323 -1.00261,-0.14323 -1.83594,-0.3776 -0.82031,-0.2474 -1.35417,-0.57292 -0.53385,-0.32552 -0.53385,-0.67708 v -0.0391 q 0,-0.0391 0.013,-0.19531 0,-0.14323 0.013,-0.44271 0,-0.28646 0.013,-0.80729 0.013,-0.53385 0.0391,-1.32812 0.026,-0.79428 0.0521,-1.92709 z"
         inkscape:connector-curvature="0" />
    </g>
  </g>
</svg>
