<?xml version="1.0" encoding="UTF-8" standalone="no"?>
<!-- Created with Inkscape (http://www.inkscape.org/) -->

<svg
   xmlns:dc="http://purl.org/dc/elements/1.1/"
   xmlns:cc="http://creativecommons.org/ns#"
   xmlns:rdf="http://www.w3.org/1999/02/22-rdf-syntax-ns#"
   xmlns:svg="http://www.w3.org/2000/svg"
   xmlns="http://www.w3.org/2000/svg"
   xmlns:sodipodi="http://sodipodi.sourceforge.net/DTD/sodipodi-0.dtd"
   xmlns:inkscape="http://www.inkscape.org/namespaces/inkscape"
   version="1.1"
   id="svg2"
   width="210"
   height="256"
   viewBox="0 0 210 256"
   sodipodi:docname="talmikan.svg"
   inkscape:version="0.92.4 (5da689c313, 2019-01-14)">
  <metadata
     id="metadata8">
    <rdf:RDF>
      <cc:Work
         rdf:about="">
        <dc:format>image/svg+xml</dc:format>
        <dc:type
           rdf:resource="http://purl.org/dc/dcmitype/StillImage" />
        <dc:title />
      </cc:Work>
    </rdf:RDF>
  </metadata>
  <defs
     id="defs6" />
  <sodipodi:namedview
     pagecolor="#ffffff"
     bordercolor="#666666"
     borderopacity="1"
     objecttolerance="10"
     gridtolerance="10"
     guidetolerance="10"
     inkscape:pageopacity="0"
     inkscape:pageshadow="2"
     inkscape:window-width="1366"
     inkscape:window-height="705"
     id="namedview4"
     showgrid="false"
     inkscape:zoom="1.1751916"
     inkscape:cx="-48.579206"
     inkscape:cy="106.29361"
     inkscape:window-x="-8"
     inkscape:window-y="-8"
     inkscape:window-maximized="1"
     inkscape:current-layer="svg2" />
  <g
     id="g856">
    <path
       sodipodi:nodetypes="cscsccc"
       inkscape:transform-center-x="1.6101692e-06"
       inkscape:connector-curvature="0"
       id="path817"
       d="m 206.95685,40.206961 c -9.02803,48.836833 10.86117,112.132279 -8.40838,153.137349 -13.78776,29.33996 -55.89029,58.0775 -91.96842,60.30757 C 73.274469,252.69082 34.431098,220.81939 12.665657,188.12409 -6.6674027,159.08261 17.590684,92.906716 3.793458,40.206961 53.283663,31.571956 64.217571,28.358921 103.46625,1.6506539 149.61033,27.154044 146.95659,33.981729 206.95685,40.206961 Z"
       inkscape:transform-center-y="24.839879"
       style="opacity:1;fill:#000000;fill-opacity:1;fill-rule:evenodd;stroke:none;stroke-width:3.52872086;stroke-linecap:square;stroke-linejoin:round;stroke-miterlimit:4;stroke-dasharray:none;stroke-opacity:1;paint-order:stroke markers fill" />
    <path
       sodipodi:nodetypes="cscsccc"
       inkscape:transform-center-x="1.3346813e-06"
       inkscape:connector-curvature="0"
       id="path817-3"
       d="m 201.25358,45.125077 c -8.52026,46.090107 10.2503,105.825643 -7.93548,144.524473 -13.01228,27.68981 -52.74686,54.81107 -86.79585,56.91571 C 75.089856,245.65825 38.431143,215.57936 17.88985,184.72293 -0.35585798,157.31483 22.537885,94.86084 9.516653,45.125077 56.223386,36.975745 66.542353,33.943399 103.58358,8.7372736 147.13239,32.80629 144.6279,39.249977 201.25358,45.125077 Z"
       inkscape:transform-center-y="23.442816"
       style="opacity:1;fill:#ffffff;fill-opacity:1;fill-rule:evenodd;stroke:none;stroke-width:3.33025622;stroke-linecap:square;stroke-linejoin:round;stroke-miterlimit:4;stroke-dasharray:none;stroke-opacity:1;paint-order:stroke markers fill" />
    <path
       sodipodi:nodetypes="cscsccc"
       inkscape:transform-center-x="2.2124865e-06"
       inkscape:connector-curvature="0"
       id="path817-3-5"
       d="m 193.14895,52.113966 c -7.79871,42.186872 9.38223,96.863594 -7.26345,132.285144 -11.91031,25.34483 -48.2799,50.16929 -79.44537,52.09569 C 77.66964,235.6646 44.115441,208.133 25.313724,179.8897 8.6131792,154.80272 29.568133,97.637755 17.649631,52.113966 60.400908,44.654763 69.845995,41.879221 103.75031,18.807732 c 39.8608,22.03068 37.56842,27.928663 89.39864,33.306234 z"
       inkscape:transform-center-y="21.457517"
       style="opacity:1;fill:#ff6600;fill-opacity:1;fill-rule:evenodd;stroke:none;stroke-width:3.04822707;stroke-linecap:square;stroke-linejoin:round;stroke-miterlimit:4;stroke-dasharray:none;stroke-opacity:1;paint-order:stroke markers fill" />
    <path
       inkscape:connector-curvature="0"
       id="path817-3-5-8"
       d="m 192.17822,161.8079 c -88.13763,24.94581 -88.80131,25.21023 -172.809177,0.38442 0.929457,6.872 2.739562,12.88033 5.945955,17.69687 18.801717,28.24329 52.354642,55.77541 81.125132,56.60561 31.16547,-1.9264 67.53612,-26.75015 79.44642,-52.09498 3.23273,-6.87914 5.17986,-14.49281 6.29167,-22.59192 z"
       style="opacity:1;fill:#000000;fill-opacity:1;fill-rule:evenodd;stroke:none;stroke-width:3.04822707;stroke-linecap:square;stroke-linejoin:round;stroke-miterlimit:4;stroke-dasharray:none;stroke-opacity:1;paint-order:stroke markers fill" />
    <path
       inkscape:connector-curvature="0"
       id="path949"
       d="m 96.602521,209.73609 c -12.238696,-3.09555 -22.445716,-12.84731 -26.27423,-25.10231 -0.886794,-2.8386 -1.014925,-4.12361 -1.014925,-10.17928 0,-6.06122 0.127438,-7.33617 1.015336,-10.16402 3.414215,-10.87292 11.254398,-19.51595 21.458643,-23.65602 18.032795,-7.31629 38.389615,0.72004 46.814925,18.48126 2.6409,5.56725 3.40884,9.58083 3.13788,16.4001 -0.27384,6.89185 -0.91611,9.55831 -3.65697,15.18222 -1.78955,3.67193 -2.54496,4.65449 -7.01561,9.12513 -4.47064,4.47064 -5.45319,5.22605 -9.12513,7.01561 -5.83478,2.84362 -8.25029,3.40161 -15.5938,3.60221 -5.26676,0.14388 -6.840319,0.0302 -9.746119,-0.7049 z m 19.383949,-2.09379 c 4.89505,-1.59403 3.48566,-2.4052 -1.84093,-1.05953 -1.94634,0.4917 -4.84355,0.72373 -9.38471,0.75163 -3.61304,0.0222 -6.711371,0.18233 -6.885177,0.3559 -0.807424,0.80628 2.225687,1.18134 8.472987,1.04773 5.46771,-0.11696 7.25674,-0.32035 9.63783,-1.09573 z m -4.00673,-1.84531 c 4.70519,-0.84605 4.97061,-1.02132 8.21802,-5.42659 1.67429,-2.27124 3.04416,-4.32569 3.04416,-4.56544 0,-0.52568 -3.79662,-5.33749 -5.36787,-6.80319 l -1.12188,-1.04651 -6.46725,0.40715 c -5.4694,0.34435 -6.61508,0.53923 -7.42544,1.2631 -1.13354,1.01256 -7.339858,8.72638 -7.339858,9.1227 0,0.37407 4.028952,5.40677 5.109508,6.38247 1.61532,1.45856 5.63298,1.6944 11.35061,0.66631 z m -31.486611,-9.35957 c 0.164861,-0.83519 -0.255129,-2.22684 -1.405265,-4.65648 -0.902214,-1.90592 -2.172438,-5.07815 -2.822694,-7.04942 -1.152968,-3.49524 -3.98124,-7.89464 -5.075289,-7.89464 -0.796554,0 -0.108889,5.07156 1.176232,8.67572 1.294678,3.6307 3.08949,7.00276 5.353726,10.0585 1.740581,2.34902 2.43762,2.56677 2.77329,0.86632 z m 13.817729,0.64974 c 1.508039,-1.18427 6.839952,-8.33518 6.841462,-9.17543 0.002,-1.04633 -4.232805,-11.91463 -4.937539,-12.67219 -0.652517,-0.70139 -12.429338,-3.62191 -13.097449,-3.24801 -0.593192,0.33196 -6.012336,7.10646 -6.674656,8.34401 -0.488028,0.91187 1.673988,7.41234 3.74592,11.26274 l 1.25329,2.32905 5.631086,1.81687 c 6.465829,2.08619 6.324784,2.06002 7.237886,1.34296 z m 35.211892,-4.82831 4.33161,-2.32548 1.23618,-3.18981 c 1.43685,-3.70766 2.42746,-8.04205 2.43817,-10.66819 0.007,-1.64985 -0.28141,-2.17528 -2.73167,-4.98134 -1.50656,-1.72532 -3.03304,-3.19363 -3.39218,-3.26293 -0.72765,-0.14032 -8.09831,4.25276 -9.11918,5.43531 -0.71908,0.83297 -3.37792,11.07093 -3.37104,12.98035 0.003,0.83436 0.89069,2.29669 2.89929,4.77614 1.59224,1.96547 3.00347,3.57085 3.13609,3.5675 0.13262,-0.003 2.19035,-1.05254 4.57273,-2.33155 z m 8.38668,-5.02612 c 1.71409,-4.34456 2.30725,-7.69929 2.14448,-12.12849 -0.11539,-3.13974 -0.21267,-3.54695 -0.6608,-2.76552 -0.28904,0.50399 -0.74295,2.7456 -1.0087,4.98136 -0.28836,2.42598 -1.17085,6.12928 -2.1887,9.18473 -2.46427,7.39738 -1.1396,7.96006 1.71372,0.72792 z M 98.859761,171.35389 c 4.393529,-3.53528 7.925629,-6.70916 8.351079,-7.50413 0.39843,-0.74448 -0.90938,-11.59442 -1.51583,-12.57567 -0.36757,-0.59474 -9.916081,-3.53739 -11.636633,-3.58616 -1.828188,-0.0518 -4.53902,1.89546 -8.884717,6.38218 l -3.198789,3.30262 0.295909,2.90978 c 0.444034,4.36615 1.170569,9.00596 1.488326,9.50471 0.208275,0.3269 8.913404,2.82152 12.285108,3.52052 0.169405,0.0351 1.436401,-0.84411 2.815547,-1.95385 z m 26.787429,-2.3529 c 5.41763,-3.32234 5.16151,-2.7616 4.33984,-9.50105 -0.38255,-3.13775 -0.88339,-6.05598 -1.11299,-6.485 -0.51863,-0.96905 -5.20045,-3.95289 -9.23949,-5.88855 l -3.04016,-1.45696 -3.82784,2.01826 c -5.61818,2.96221 -5.37072,2.43355 -4.46255,9.53403 0.42001,3.28383 0.97184,6.23402 1.2263,6.55599 0.84406,1.068 11.23132,7.42807 12.13151,7.42807 0.21455,0 2.00798,-0.99216 3.98538,-2.20479 z M 77.789575,157.60316 c 3.241311,-0.77531 3.795975,-1.11867 5.967492,-3.69394 1.02614,-1.21697 3.398824,-3.40103 5.272605,-4.85346 3.147107,-2.43945 4.178981,-3.75777 4.95489,-6.33031 0.422058,-1.39933 -0.679892,-1.27448 -4.141741,0.4693 -5.178202,2.60836 -10.915995,7.69843 -13.794507,12.23738 -1.952906,3.07944 -1.969571,3.05865 1.741261,2.17103 z m 54.548725,-5.17394 c 0,-0.73648 -4.3209,-4.85836 -7.0414,-6.71706 -2.30442,-1.57442 -7.70388,-4.20273 -9.52701,-4.6375 -0.85772,-0.20454 -1.18626,-0.11937 -1.17359,0.30435 0.0363,1.2153 2.47309,3.3533 5.61349,4.92534 1.78679,0.89445 4.97454,2.7698 7.08389,4.16747 3.87531,2.5678 5.04462,3.02151 5.04462,1.9574 z"
       style="fill:#ffffff;stroke-width:0.43316096" />
    <g
       id="text980"
       style="font-style:normal;font-variant:normal;font-weight:normal;font-stretch:normal;font-size:16px;line-height:1.25;font-family:'Cambria Math';-inkscape-font-specification:'Cambria Math';letter-spacing:0px;word-spacing:0px;fill:#ffffff;fill-opacity:1;stroke:#ffffff;stroke-opacity:1"
       aria-label="TALMIKAN">
      <path
         id="path982"
         style="font-size:32px;fill:#ffffff;stroke:#ffffff;stroke-opacity:1"
         d="m 29.962706,58.53038 h 16.90625 v 5.4375 h -1.53125 q -0.34375,-1.34375 -0.6875,-2.125 -0.328125,-0.78125 -0.703125,-1.1875 -0.375,-0.40625 -0.8125,-0.578125 -0.421875,-0.171875 -1.28125,-0.171875 h -1.984375 v 16 q 0,0.921875 0.09375,1.46875 0.109375,0.546875 0.3125,0.875 0.21875,0.3125 0.578125,0.5 0.359375,0.171875 1.125,0.34375 v 0.765625 H 34.837706 V 79.09288 q 0.46875,-0.109375 0.828125,-0.234375 0.359375,-0.125 0.578125,-0.296875 0.234375,-0.1875 0.375,-0.46875 0.15625,-0.28125 0.234375,-0.765625 0.09375,-0.484375 0.09375,-1.421875 v -16 h -1.96875 q -0.734375,0 -1.21875,0.140625 -0.46875,0.140625 -0.875,0.59375 -0.40625,0.4375 -0.75,1.265625 -0.328125,0.8125 -0.625,2.0625 h -1.546875 z" />
      <path
         id="path984"
         style="font-size:32px;fill:#ffffff;stroke:#ffffff;stroke-opacity:1"
         d="M 57.868956,79.858505 V 79.09288 q 0.78125,-0.15625 1.15625,-0.34375 0.390625,-0.1875 0.578125,-0.515625 0.1875,-0.34375 0.1875,-0.90625 0,-0.53125 -0.125,-1.140625 -0.125,-0.625 -0.359375,-1.390625 L 58.728331,72.78038 h -7.28125 l -0.53125,1.53125 q -0.40625,1.15625 -0.53125,1.75 -0.125,0.59375 -0.125,1.078125 0,0.9375 0.46875,1.375 0.484375,0.4375 1.46875,0.578125 v 0.765625 H 45.525206 V 79.09288 q 0.875,-0.140625 1.515625,-1.015625 0.65625,-0.875 1.265625,-2.5 L 54.822081,58.28038 h 2.46875 l 5.3125,17.421875 q 0.375,1.21875 0.65625,1.859375 0.296875,0.640625 0.703125,1 0.40625,0.359375 1.109375,0.53125 v 0.765625 z m -6,-8.4375 h 6.53125 L 55.431456,61.34288 Z" />
      <path
         id="path986"
         style="font-size:32px;fill:#ffffff;stroke:#ffffff;stroke-opacity:1"
         d="m 72.009581,78.421005 h 4.09375 q 0.671875,0 1.125,-0.07813 0.453125,-0.07813 0.765625,-0.234375 0.328125,-0.171875 0.578125,-0.453125 0.265625,-0.296875 0.5,-0.765625 0.234375,-0.46875 0.4375,-1.171875 0.21875,-0.71875 0.53125,-2.140625 h 1.578125 l -0.3125,6.28125 H 67.259581 V 79.09288 q 0.96875,-0.25 1.296875,-0.546875 0.328125,-0.3125 0.421875,-0.875 0.109375,-0.5625 0.109375,-1.71875 V 62.43663 q 0,-1.078125 -0.07813,-1.5625 -0.07813,-0.5 -0.265625,-0.765625 -0.171875,-0.28125 -0.46875,-0.4375 -0.296875,-0.171875 -1.015625,-0.375 V 58.53038 h 6.578125 v 0.765625 q -0.6875,0.1875 -0.984375,0.34375 -0.28125,0.140625 -0.46875,0.390625 -0.1875,0.25 -0.28125,0.765625 -0.09375,0.515625 -0.09375,1.640625 z" />
      <path
         id="path988"
         style="font-size:32px;fill:#ffffff;stroke:#ffffff;stroke-opacity:1"
         d="m 106.75958,59.296005 q -0.6875,0.171875 -1,0.34375 -0.29687,0.171875 -0.48437,0.4375 -0.17188,0.25 -0.26563,0.765625 -0.0781,0.515625 -0.0781,1.59375 v 13.515625 q 0,1.046875 0.0625,1.53125 0.0781,0.484375 0.23437,0.765625 0.17188,0.28125 0.48438,0.46875 0.32812,0.1875 1.04687,0.375 v 0.765625 h -6.51562 V 79.09288 q 0.89062,-0.21875 1.23437,-0.5 0.34375,-0.28125 0.46875,-0.828125 0.125,-0.546875 0.125,-1.8125 V 69.96788 q 0,-2.359375 0.0625,-4.765625 0.0781,-2.421875 0.17188,-3.3125 h -0.26563 L 95.853331,77.37413 h -1.796875 l -5.75,-15.734375 h -0.265625 q 0.07813,0.953125 0.140625,3.453125 0.07813,2.5 0.07813,5.140625 v 5.71875 q 0,1.046875 0.0625,1.53125 0.07813,0.484375 0.234375,0.765625 0.171875,0.28125 0.484375,0.46875 0.328125,0.1875 1.046875,0.375 v 0.765625 H 84.384581 V 79.09288 q 0.96875,-0.25 1.296875,-0.546875 0.328125,-0.3125 0.421875,-0.875 0.109375,-0.5625 0.109375,-1.71875 V 62.43663 q 0,-1.078125 -0.07813,-1.5625 -0.07813,-0.5 -0.265625,-0.765625 -0.171875,-0.28125 -0.46875,-0.4375 -0.296875,-0.171875 -1.015625,-0.375 V 58.53038 h 5.578125 l 5.484375,15.203125 6.031249,-15.203125 h 5.28125 z" />
      <path
         id="path990"
         style="font-size:32px;fill:#ffffff;stroke:#ffffff;stroke-opacity:1"
         d="m 115.33771,75.952255 q 0,1.046875 0.0625,1.53125 0.0781,0.484375 0.23437,0.765625 0.17188,0.28125 0.48438,0.46875 0.32812,0.1875 1.04687,0.375 v 0.765625 h -6.59375 V 79.09288 q 0.96875,-0.25 1.29688,-0.546875 0.32812,-0.3125 0.42187,-0.875 0.10938,-0.5625 0.10938,-1.71875 V 62.43663 q 0,-1.078125 -0.0781,-1.5625 -0.0781,-0.5 -0.26562,-0.765625 -0.17188,-0.28125 -0.46875,-0.4375 -0.29688,-0.171875 -1.01563,-0.375 V 58.53038 h 6.59375 v 0.765625 q -0.6875,0.171875 -1,0.34375 -0.29687,0.171875 -0.48437,0.4375 -0.17188,0.25 -0.26563,0.765625 -0.0781,0.515625 -0.0781,1.59375 z" />
      <path
         id="path992"
         style="font-size:32px;fill:#ffffff;stroke:#ffffff;stroke-opacity:1"
         d="m 125.68146,68.171005 h 0.46875 q 0.59375,0 1.07812,-0.1875 0.5,-0.1875 1.10938,-0.703125 0.60937,-0.515625 1.85937,-1.921875 1.5,-1.671875 2.04688,-2.421875 0.6875,-0.890625 0.92187,-1.5 0.1875,-0.453125 0.1875,-0.875 0,-0.625 -0.35937,-0.90625 -0.35938,-0.296875 -0.98438,-0.359375 V 58.53038 h 6.8125 v 0.765625 q -0.5,0.109375 -0.98437,0.390625 -0.48438,0.265625 -1,0.75 -0.5,0.46875 -1.48438,1.5625 l -5.25,5.90625 5.6875,8.265625 q 0.90625,1.3125 1.42188,1.84375 0.51562,0.515625 0.98437,0.765625 0.46875,0.234375 1,0.3125 v 0.765625 h -6.89062 V 79.09288 q 0.57812,-0.04687 0.84375,-0.21875 0.26562,-0.171875 0.26562,-0.515625 0,-0.28125 -0.1875,-0.671875 -0.17187,-0.40625 -0.5625,-0.96875 l -3.64062,-5.421875 q -0.64063,-0.96875 -0.9375,-1.28125 -0.29688,-0.3125 -0.64063,-0.453125 -0.34375,-0.15625 -0.92187,-0.15625 h -0.82813 v 6.546875 q 0,1.046875 0.0625,1.53125 0.0781,0.484375 0.23438,0.765625 0.17187,0.28125 0.48437,0.46875 0.32813,0.1875 1.04688,0.375 v 0.765625 h -6.57813 V 79.09288 q 0.96875,-0.25 1.29688,-0.546875 0.32812,-0.3125 0.42187,-0.875 0.10938,-0.5625 0.10938,-1.71875 V 62.43663 q 0,-1.078125 -0.0781,-1.5625 -0.0781,-0.5 -0.26562,-0.765625 -0.17188,-0.28125 -0.46875,-0.4375 -0.29688,-0.171875 -1.01563,-0.375 V 58.53038 h 6.57813 v 0.765625 q -0.6875,0.171875 -1,0.34375 -0.29688,0.171875 -0.48438,0.4375 -0.17187,0.25 -0.26562,0.765625 -0.0781,0.515625 -0.0781,1.59375 z" />
      <path
         id="path994"
         style="font-size:32px;fill:#ffffff;stroke:#ffffff;stroke-opacity:1"
         d="M 151.61896,79.858505 V 79.09288 q 0.78125,-0.15625 1.15625,-0.34375 0.39062,-0.1875 0.57812,-0.515625 0.1875,-0.34375 0.1875,-0.90625 0,-0.53125 -0.125,-1.140625 -0.125,-0.625 -0.35937,-1.390625 l -0.57813,-2.015625 h -7.28125 l -0.53125,1.53125 q -0.40625,1.15625 -0.53125,1.75 -0.125,0.59375 -0.125,1.078125 0,0.9375 0.46875,1.375 0.48438,0.4375 1.46875,0.578125 v 0.765625 h -6.67187 V 79.09288 q 0.875,-0.140625 1.51562,-1.015625 0.65625,-0.875 1.26563,-2.5 l 6.51562,-17.296875 h 2.46875 l 5.3125,17.421875 q 0.375,1.21875 0.65625,1.859375 0.29688,0.640625 0.70313,1 0.40625,0.359375 1.10937,0.53125 v 0.765625 z m -6,-8.4375 h 6.53125 L 149.18146,61.34288 Z" />
      <path
         id="path996"
         style="font-size:32px;fill:#ffffff;stroke:#ffffff;stroke-opacity:1"
         d="m 173.55646,71.40538 q 0.5625,0.9375 0.9375,1.640625 0.39062,0.703125 0.79687,1.578125 h 0.20313 q -0.0781,-0.953125 -0.14063,-3.78125 -0.0625,-2.84375 -0.0625,-5.125 v -3.28125 q 0,-1.078125 -0.0625,-1.578125 -0.0625,-0.5 -0.23437,-0.765625 -0.15625,-0.265625 -0.45313,-0.421875 -0.28125,-0.171875 -1,-0.375 V 58.53038 h 5.625 v 0.765625 q -0.70312,0.1875 -1,0.34375 -0.28125,0.15625 -0.46875,0.40625 -0.17187,0.25 -0.26562,0.75 -0.0937,0.5 -0.0937,1.640625 v 17.515625 h -1.95313 l -8.70312,-14.59375 q -0.8125,-1.359375 -1.15625,-1.984375 -0.34375,-0.625 -0.64063,-1.234375 h -0.26562 q 0.10937,1.203125 0.15625,4.359375 0.0469,3.140625 0.0469,6.265625 v 3.1875 q 0,1.046875 0.0625,1.53125 0.0781,0.484375 0.23438,0.765625 0.17187,0.28125 0.48437,0.46875 0.32813,0.1875 1.04688,0.375 v 0.765625 h -5.70313 V 79.09288 q 0.96875,-0.25 1.29688,-0.546875 0.32812,-0.3125 0.42187,-0.875 0.10938,-0.5625 0.10938,-1.71875 V 62.43663 q 0,-1.078125 -0.0781,-1.5625 -0.0781,-0.5 -0.26562,-0.765625 -0.17188,-0.28125 -0.46875,-0.4375 -0.29688,-0.171875 -1.01563,-0.375 V 58.53038 h 4.89063 z" />
    </g>
    <path
       inkscape:connector-curvature="0"
       id="path1018"
       d="m 95.118398,126.95393 c -0.129262,-0.0276 -0.587552,-0.0961 -1.018424,-0.15224 -0.762183,-0.0993 -0.854312,-0.17241 -3.401194,-2.70011 -1.778714,-1.76532 -2.649457,-2.74225 -2.716588,-3.0479 -0.193982,-0.88319 0.739578,-1.62922 1.567002,-1.25221 0.321632,0.14654 0.402666,0.10116 0.733886,-0.41099 0.233865,-0.36162 0.573941,-0.64103 0.914452,-0.75133 0.401249,-0.12998 0.57308,-0.29508 0.661255,-0.63536 0.146276,-0.5645 0.701906,-1.10214 1.212215,-1.17298 0.266617,-0.037 0.417209,-0.18853 0.501138,-0.50425 0.139365,-0.52425 0.719728,-1.1938 1.034788,-1.1938 0.168333,0 0.193794,-0.15681 0.11297,-0.69578 -0.09179,-0.61207 -0.05609,-0.74403 0.296639,-1.09677 0.490299,-0.4903 0.922587,-0.5073 1.549422,-0.061 l 0.477513,0.34002 1.975224,-2.06451 c 1.086374,-1.13548 2.061664,-2.06406 2.167314,-2.06351 0.21927,0.001 2.86318,1.85902 2.86318,2.01195 0,0.0552 -1.00414,1.10626 -2.23142,2.33574 -1.69112,1.69414 -2.193793,2.28681 -2.076016,2.4477 0.682166,0.93188 0.739466,1.10123 0.901616,2.66476 0.15115,1.45736 0.1406,1.68193 -0.096,2.04296 -0.20158,0.30765 -0.39736,0.40563 -0.810536,0.40563 -0.78301,0 -1.125693,-0.41687 -1.245194,-1.51475 -0.193471,-1.77747 -0.346545,-2.00259 -0.785071,-1.15458 -0.169823,0.3284 -0.423207,0.51359 -0.865767,0.63276 -0.379421,0.10217 -0.625676,0.26166 -0.625676,0.40524 0,0.56596 -0.48129,1.15208 -1.097677,1.33675 -0.344195,0.10313 -0.62581,0.2856 -0.62581,0.4055 0,0.44968 -0.471704,1.10519 -0.932694,1.29614 -0.262588,0.10877 -0.477431,0.24503 -0.477431,0.30281 0,0.0578 0.308128,0.40746 0.68473,0.77706 0.62047,0.60895 0.785895,0.68505 1.762657,0.8109 0.592859,0.0764 1.16606,0.1412 1.273778,0.14402 0.36202,0.009 0.822573,0.62641 0.822573,1.10189 0,0.74443 -0.477843,1.10005 -1.449296,1.07859 -0.452415,-0.01 -0.928332,-0.0408 -1.057594,-0.0684 z m 18.666462,-0.20533 c -0.46437,-0.46437 -0.45494,-1.346 0.0177,-1.65442 0.19389,-0.12653 0.90811,-0.29872 1.58715,-0.38266 1.15819,-0.14316 1.27701,-0.19421 1.91934,-0.82461 0.37659,-0.3696 0.68471,-0.71927 0.68471,-0.77705 0,-0.0578 -0.21484,-0.19404 -0.47743,-0.30281 -0.46099,-0.19095 -0.93269,-0.84646 -0.93269,-1.29614 0,-0.1199 -0.28162,-0.30237 -0.62581,-0.4055 -0.61584,-0.18451 -1.09768,-0.77071 -1.09768,-1.33542 0,-0.13724 -0.23644,-0.30073 -0.56691,-0.39197 -0.31181,-0.0861 -0.70596,-0.28237 -0.8759,-0.43616 -0.29666,-0.26847 -0.31727,-0.26829 -0.51681,0.005 -0.11431,0.15632 -0.25663,0.63898 -0.31626,1.07256 -0.13244,0.96293 -0.50956,1.38096 -1.24582,1.38096 -0.41318,0 -0.60897,-0.098 -0.81055,-0.40562 -0.23656,-0.36104 -0.24711,-0.58561 -0.096,-2.04297 0.16216,-1.56359 0.21939,-1.73272 0.90172,-2.66491 0.25404,-0.34706 -4.60555,-5.1204 -6.6815,-6.56291 -5.757031,-4.00039 -10.569196,-8.84642 -14.320736,-14.421531 -1.067877,-1.58696 -1.377445,-2.26126 -1.038137,-2.26126 0.07081,0 0.911696,0.52312 1.868625,1.16249 2.708636,1.80977 4.907565,2.73096 7.852365,3.28958 0.708117,0.13433 1.425353,0.31802 1.593873,0.40821 0.16851,0.0902 0.73991,0.80871 1.26977,1.59673 1.18426,1.761251 3.15906,4.377741 4.40957,5.842421 1.38618,1.62359 7.31898,7.90122 7.6189,8.06174 0.17842,0.0955 0.37886,0.0462 0.64544,-0.15863 0.53278,-0.40941 1.03281,-0.37726 1.50695,0.0969 0.35273,0.35274 0.38843,0.4847 0.29664,1.09677 -0.0808,0.53897 -0.0554,0.69578 0.11297,0.69578 0.31506,0 0.89542,0.66955 1.03479,1.1938 0.0839,0.31572 0.23452,0.46725 0.50114,0.50425 0.5103,0.0708 1.06593,0.60848 1.21221,1.17298 0.0882,0.34028 0.26001,0.50538 0.66125,0.63536 0.34207,0.1108 0.68084,0.39009 0.91801,0.75682 0.30687,0.4745 0.42746,0.55361 0.6568,0.43087 0.47353,-0.25342 0.92368,-0.16914 1.34457,0.25175 0.72478,0.72478 0.50194,1.10107 -2.33884,3.94936 -2.80699,2.81441 -2.74789,2.77946 -4.99218,2.95197 -1.2412,0.0954 -1.37263,0.0773 -1.68128,-0.23132 z m -4.62744,-20.82082 c -1.05356,-1.12836 -2.44142,-2.75452 -2.44326,-2.86278 -7.9e-4,-0.0449 0.35929,-0.57373 0.80014,-1.17511 0.44084,-0.60137 1.21664,-1.70798 1.724,-2.459131 0.50737,-0.75114 1.06036,-1.43951 1.22887,-1.52969 0.16851,-0.0902 0.88575,-0.27388 1.59387,-0.40821 2.92946,-0.55571 5.40337,-1.60793 8.08415,-3.43841 0.81649,-0.55751 1.54777,-1.01366 1.62506,-1.01366 0.34237,0 0.0632,0.6208 -0.97672,2.17207 -1.74943,2.60962 -3.48309,4.74787 -5.77669,7.124821 -2.11041,2.1871 -4.61295,4.49101 -4.87821,4.49101 -0.077,0 -0.51855,-0.40541 -0.98121,-0.90091 z"
       style="fill:#ffffff;stroke-width:0.15668064" />
  </g>
</svg>
