<?xml version="1.0" encoding="UTF-8" standalone="no"?>
<!-- Created with Inkscape (http://www.inkscape.org/) -->

<svg
   version="1.1"
   id="svg2"
   width="256"
   height="256"
   viewBox="0 0 256 256"
   sodipodi:docname="albaduz.svg"
   inkscape:version="1.2.2 (1:1.2.2+202212051552+b0a8486541)"
   xmlns:inkscape="http://www.inkscape.org/namespaces/inkscape"
   xmlns:sodipodi="http://sodipodi.sourceforge.net/DTD/sodipodi-0.dtd"
   xmlns="http://www.w3.org/2000/svg"
   xmlns:svg="http://www.w3.org/2000/svg"
   xmlns:rdf="http://www.w3.org/1999/02/22-rdf-syntax-ns#"
   xmlns:cc="http://creativecommons.org/ns#"
   xmlns:dc="http://purl.org/dc/elements/1.1/">
  <metadata
     id="metadata8">
    <rdf:RDF>
      <cc:Work
         rdf:about="">
        <dc:format>image/svg+xml</dc:format>
        <dc:type
           rdf:resource="http://purl.org/dc/dcmitype/StillImage" />
        <dc:title />
      </cc:Work>
    </rdf:RDF>
  </metadata>
  <defs
     id="defs6" />
  <sodipodi:namedview
     pagecolor="#ffffff"
     bordercolor="#666666"
     borderopacity="1"
     objecttolerance="10"
     gridtolerance="10"
     guidetolerance="10"
     inkscape:pageopacity="0"
     inkscape:pageshadow="2"
     inkscape:window-width="1366"
     inkscape:window-height="732"
     id="namedview4"
     showgrid="false"
     inkscape:zoom="2.2264149"
     inkscape:cx="134.07204"
     inkscape:cy="114.08475"
     inkscape:window-x="0"
     inkscape:window-y="0"
     inkscape:window-maximized="1"
     inkscape:current-layer="svg2"
     inkscape:pagecheckerboard="true"
     inkscape:showpageshadow="2"
     inkscape:deskcolor="#d1d1d1" />
  <path
     inkscape:connector-curvature="0"
     id="path819-2"
     d="M 120.18468,29.888178 C 83.176021,30.49525 70.624489,57.925364 50.720663,56.518019 c 2.390154,4.516673 4.480328,10.27786 5.968235,16.728856 H 33.974765 l 11.580493,19.943971 -10.936714,17.370744 22.519107,-0.0776 c -0.476267,2.11139 -1.048548,4.20741 -1.73064,6.27307 -6.355156,19.24615 -13.800914,8.15564 -14.979282,54.92216 18.442859,45.46379 42.674148,60.04675 68.837281,80.41968 l 18.6583,-0.32567 18.65641,0.32567 c 26.16314,-20.37293 50.39634,-34.95589 68.83921,-80.41968 -1.17837,-46.76652 -8.62414,-35.67601 -14.97929,-54.92216 -0.73464,-2.22479 -1.3382,-4.48487 -1.83477,-6.76159 l 22.58726,-0.0777 -11.5805,-16.726963 12.22428,-19.943971 h -22.67815 c 1.4879,-6.450996 3.57808,-12.212183 5.96823,-16.728855 -19.90383,1.407345 -32.45536,-26.022769 -69.46405,-26.629842 -2.46725,-0.04048 -5.04459,0.03737 -7.73863,0.251832 -2.69405,-0.214452 -5.27139,-0.292304 -7.73863,-0.251832 z m 66.44584,80.148912 c 3.56398,13.83409 11.70114,25.64453 13.65764,33.03168 3.83783,7.43159 10.07118,26.2823 -10.89316,49.57686 A 61.826006,35.062888 0 0 0 127.92331,160.99241 61.826006,35.062888 0 0 0 66.404306,192.59262 C 45.49677,169.32232 51.72164,150.49475 55.556598,143.06877 c 1.937358,-7.31489 9.936649,-18.96721 13.553488,-32.62647 z"
     style="fill:#ffffff;fill-opacity:1;stroke:#ffffff;stroke-width:7.75568;stroke-linecap:butt;stroke-linejoin:miter;stroke-miterlimit:4;stroke-dasharray:none;stroke-opacity:1" />
  <path
     style="fill:#000080;fill-opacity:1;stroke:#ffffff;stroke-width:0.969459;stroke-linecap:butt;stroke-linejoin:miter;stroke-miterlimit:4;stroke-dasharray:none;stroke-opacity:1"
     d="M 34.058235,73.256353 H 221.91812 l -12.22376,19.944028 11.58039,16.727229 -186.573162,0.64337 10.937057,-17.370599 z"
     id="path819"
     inkscape:connector-curvature="0" />
  <path
     style="fill:#fff604;fill-opacity:1;fill-rule:evenodd;stroke:none;stroke-width:2.86475;stroke-linecap:square;stroke-linejoin:round;stroke-miterlimit:4;stroke-dasharray:none;stroke-opacity:1;paint-order:stroke fill markers"
     d="m 70.103641,89.101002 c 4.829301,22.495838 -11.572703,43.061728 -14.463655,53.977128 -3.834959,7.42599 -10.061201,26.25303 10.846345,49.52332 a 61.826006,35.062888 0 0 1 61.519479,-31.59903 61.826006,35.062888 0 0 1 61.4719,31.65218 c 20.96433,-23.29456 14.73172,-42.14489 10.89389,-49.57647 -2.89097,-10.9154 -19.29292,-31.48129 -14.46364,-53.977128 h -57.90215 z"
     id="rect878"
     inkscape:connector-curvature="0" />
  <g
     id="g2167"
     style="fill:#000080;fill-opacity:1;stroke:#000080;stroke-width:4;stroke-miterlimit:4;stroke-dasharray:none;stroke-opacity:1"
     transform="matrix(0.96945939,0,0,0.96945939,-8.2743347,16.669694)">
    <rect
       y="72.296608"
       x="96.567795"
       height="100.23776"
       width="14.327213"
       id="rect2137"
       style="opacity:1;fill:#000080;fill-opacity:1;fill-rule:evenodd;stroke:#000080;stroke-width:4;stroke-linecap:square;stroke-linejoin:round;stroke-miterlimit:4;stroke-dasharray:none;stroke-opacity:1;paint-order:stroke fill markers" />
    <rect
       y="72.296608"
       x="133.40973"
       height="100.23776"
       width="14.327213"
       id="rect2137-5"
       style="opacity:1;fill:#000080;fill-opacity:1;fill-rule:evenodd;stroke:#000080;stroke-width:4;stroke-linecap:square;stroke-linejoin:round;stroke-miterlimit:4;stroke-dasharray:none;stroke-opacity:1;paint-order:stroke fill markers" />
    <rect
       y="72.296608"
       x="170.25165"
       height="100.23776"
       width="14.327213"
       id="rect2137-1"
       style="opacity:1;fill:#000080;fill-opacity:1;fill-rule:evenodd;stroke:#000080;stroke-width:4;stroke-linecap:square;stroke-linejoin:round;stroke-miterlimit:4;stroke-dasharray:none;stroke-opacity:1;paint-order:stroke fill markers" />
  </g>
  <path
     style="fill:#000080;fill-opacity:1;stroke:#ffffff;stroke-width:0.969459;stroke-linecap:butt;stroke-linejoin:miter;stroke-miterlimit:4;stroke-dasharray:none;stroke-opacity:1"
     d="m 120.26761,29.897959 c -37.008662,0.607072 -49.560853,28.037797 -69.464688,26.630459 7.228489,13.659645 11.846672,38.552654 4.686006,60.238162 -6.355155,19.24615 -13.800048,8.15619 -14.978407,54.92271 18.442853,45.46379 42.674874,60.0472 68.838009,80.42012 l 18.65728,-0.32732 18.65726,0.32732 c 26.16313,-20.37292 50.39514,-34.95633 68.83801,-80.42012 -1.17837,-46.76652 -8.62325,-35.67656 -14.97841,-54.92271 -7.16066,-21.685507 -2.54247,-46.578517 4.68601,-60.238162 -19.90384,1.407338 -32.45601,-26.023387 -69.46469,-26.630459 -2.46724,-0.04048 -5.04414,0.03732 -7.73818,0.251784 -2.69405,-0.214452 -5.27095,-0.292256 -7.7382,-0.251784 z M 70.103641,89.101002 h 57.902169 57.90215 c -4.8293,22.495818 11.57267,43.061708 14.46364,53.977118 3.83783,7.43158 10.07045,26.2819 -10.89388,49.57646 A 61.826006,35.062888 0 0 0 128.00581,161.0024 61.826006,35.062888 0 0 0 66.486331,192.60143 c -20.907546,-23.27029 -14.68129,-42.09733 -10.84633,-49.52331 2.890952,-10.91541 19.292941,-31.4813 14.46364,-53.977118 z"
     id="path817"
     inkscape:connector-curvature="0" />
  <g
     aria-label="Albaduz"
     id="text983"
     style="font-size:20.8054px;line-height:1.25;font-family:'a Atmospheric';-inkscape-font-specification:'a Atmospheric, Normal';letter-spacing:0px;word-spacing:0px;stroke-width:0.243813">
    <path
       d="m 70.785215,78.711566 h 7.489944 l 1.019465,2.163762 h 4.057053 l -7.947663,-16.561099 -3.848999,1.04027 -7.677193,15.520829 h 4.057053 l 5.617458,-12.150354 3.162421,6.699339 h -4.514772 z"
       style="fill:#ffff00"
       id="path337" />
    <path
       d="m 84.516755,64.730337 v 16.144991 h 14.168478 l 1.04027,-3.432891 H 88.365755 v -12.7121 z"
       style="fill:#ffff00"
       id="path339" />
    <path
       d="m 101.28588,70.535044 v 10.340284 h 11.40136 c 3.89061,0 5.78391,-2.246983 5.78391,-4.514772 0,-1.373156 -0.81142,-2.746313 -2.41343,-3.640945 1.33154,-0.853022 1.99732,-2.101346 1.99732,-3.328864 0,-2.3094 -1.97652,-4.66041 -5.7839,-4.66041 h -9.94499 l -1.04027,3.432891 h 10.94364 c 1.18591,0 1.76846,0.707384 1.76846,1.435573 0,0.748994 -0.60335,1.497989 -1.76846,1.497989 h -7.09464 v -1.602016 z m 3.849,3.973831 h 7.51075 c 1.18591,0 1.76846,0.707384 1.76846,1.435573 0,0.748994 -0.60335,1.497989 -1.76846,1.497989 h -7.51075 z"
       style="fill:#ffff00"
       id="path341" />
    <path
       d="m 125.44094,78.711566 h 7.48994 l 1.01947,2.163762 h 4.05705 l -7.94766,-16.561099 -3.849,1.04027 -7.67719,15.520829 h 4.05705 l 5.61746,-12.150354 3.16242,6.699339 h -4.51477 z"
       style="fill:#ffff00"
       id="path343" />
    <path
       d="m 139.15168,70.555849 v 10.319479 h 10.36109 c 4.59799,0 6.82417,-3.932221 6.82417,-7.926858 0,-4.077858 -2.33021,-8.218133 -6.82417,-8.218133 h -9.32082 l -1.04027,3.432891 h 9.90337 c 2.18456,0 3.22483,2.246983 3.22483,4.535578 0,2.35101 -1.10268,4.743631 -3.22483,4.743631 h -6.05438 v -7.926858 z"
       style="fill:#ffff00"
       id="path345" />
    <path
       d="m 171.296,74.467265 c 0,2.309399 -1.58121,3.266448 -4.78524,3.266448 -3.30806,0 -4.88927,-0.894633 -4.88927,-3.266448 V 64.314229 l -3.849,1.04027 v 9.112766 c 0,4.556382 3.72417,6.761755 8.55102,6.761755 4.97249,0 8.82149,-2.059735 8.82149,-6.761755 v -9.736928 h -3.849 z"
       style="fill:#ffff00"
       id="path347" />
    <path
       d="M 192.12218,68.163228 V 64.730337 H 177.9537 l -1.04027,3.432891 h 10.11143 l -10.31948,9.279209 v 3.432891 h 14.37653 l 1.04027,-3.432891 H 181.8027 Z"
       style="fill:#ffff00"
       id="path349" />
  </g>
  <path
     id="path916"
     style="fill:#ffff00;stroke-width:0.123778"
     d="m 131.7084,235.89683 c -0.90606,-0.54855 -2.40432,-1.12768 -3.18561,-1.23132 -0.90494,-0.12 -1.76342,0.12648 -2.71946,0.78118 -1.41693,0.97018 -2.19124,0.85313 -2.75268,-0.41615 -0.17344,-0.39219 -0.33115,-0.54951 -0.65923,-0.6578 -0.46652,-0.15405 -0.58693,-0.12367 -2.19226,0.55238 -1.04136,0.43847 -2.11262,0.52856 -2.9558,0.2485 -0.34973,-0.11613 -0.63586,-0.25454 -0.63586,-0.3075 0,-0.053 0.32029,-0.30728 0.71172,-0.56512 4.20571,-2.77033 6.48053,-6.069 6.97186,-10.1098 0.15384,-1.26565 0.0985,-2.17807 -0.28786,-4.74299 -0.20899,-1.38702 -0.26451,-2.37519 -0.27849,-4.95112 -0.0108,-1.77001 -0.0633,-3.38531 -0.11914,-3.58955 -0.42687,-1.5589 -2.26275,-3.0709 -4.72649,-3.89267 -0.95873,-0.31978 -1.32086,-0.37767 -2.36291,-0.37767 -1.48355,0 -2.53195,0.24577 -4.48851,1.05213 -2.72859,1.12454 -4.43282,1.31776 -6.6221,0.75074 l -1.11399,-0.28853 -1.39249,0.31852 c -0.7693,0.17603 -1.3925,0.38141 -1.3925,0.45904 0,0.0774 0.13982,0.27192 0.31082,0.43252 0.47117,0.44264 0.62153,1.15528 0.3758,1.78104 -0.10967,0.27913 -0.33861,0.67464 -0.50885,0.87888 l -0.30952,0.37133 -0.36075,-0.39684 c -0.42349,-0.46586 -0.68708,-1.24362 -0.57408,-1.69391 0.0439,-0.17516 0.24623,-0.50778 0.44949,-0.73925 0.20317,-0.2315 0.36953,-0.48692 0.36953,-0.5676 0,-0.19779 -0.31313,-0.095 -1.725763,0.56691 l -1.168751,0.54766 0.453416,0.44039 c 0.572039,0.55565 0.683818,1.07902 0.392999,1.84047 -0.119136,0.31199 -0.272883,0.60204 -0.341656,0.64454 -0.06874,0.0425 -0.33903,-0.15211 -0.600551,-0.43248 -0.560581,-0.60098 -0.630576,-1.19176 -0.220785,-1.8639 0.139612,-0.22894 0.233756,-0.43622 0.209413,-0.46068 -0.02433,-0.0243 -0.319854,0.13984 -0.656499,0.36494 -0.336644,0.22514 -0.779154,0.50772 -0.9834,0.62792 -0.355627,0.2092 -0.353193,0.20231 0.05729,-0.16525 0.452583,-0.40537 0.44379,-0.41916 -0.247503,-0.38828 -0.53359,0.0239 -1.067103,-0.35924 -1.31003,-0.94072 -0.309209,-0.74003 -0.254958,-0.82214 0.479165,-0.72484 0.772281,0.10234 1.289429,0.52008 1.404737,1.13467 0.04246,0.22635 0.105137,0.41155 0.139175,0.41155 0.03422,0 0.378012,-0.23673 0.764186,-0.52607 0.386175,-0.28932 0.835626,-0.61388 0.998805,-0.72124 0.289888,-0.19067 0.282287,-0.19498 -0.331574,-0.18571 -0.462549,0.007 -0.701617,-0.0559 -0.906464,-0.23804 -0.308589,-0.27459 -0.755762,-1.17137 -0.660726,-1.32512 0.104498,-0.16913 1.041704,-0.10729 1.47226,0.0969 0.372602,0.17688 0.801889,0.79465 0.801889,1.15408 0,0.20102 0.196703,0.1674 0.778547,-0.13336 0.28662,-0.14823 1.07412,-0.44561 1.75002,-0.66108 l 1.22889,-0.39174 -1.1051,-0.40005 c -1.65612,-0.59949 -2.771136,-0.72785 -4.204617,-0.48397 -1.063933,0.18098 -1.238368,0.25202 -2.003621,0.81572 -0.461026,0.33962 -1.160869,0.79803 -1.555235,1.01875 -0.691293,0.38693 -0.71012,0.41074 -0.525205,0.665 0.105574,0.145 0.282568,0.39084 0.393504,0.54625 0.281889,0.3949 0.253949,1.16035 -0.06059,1.65597 -0.532805,0.8398 -0.473086,0.79836 -0.76692,0.53243 -0.730117,-0.66075 -0.826588,-1.66294 -0.225981,-2.34702 0.213291,-0.24291 0.35586,-0.47365 0.3168,-0.51269 -0.148453,-0.14844 -1.539829,0.77639 -2.245537,1.49274 l -0.736363,0.7475 0.381027,-0.70347 c 0.209626,-0.3869 0.357081,-0.72735 0.327891,-0.75657 -0.02908,-0.0291 -0.259205,-0.007 -0.51109,0.0508 -0.660638,0.14995 -1.247971,-0.16697 -1.598964,-0.86277 -0.151032,-0.29935 -0.241366,-0.59797 -0.200804,-0.66357 0.04052,-0.0657 0.400076,-0.0957 0.798908,-0.0668 0.828413,0.0599 1.250651,0.3587 1.477262,1.04532 0.137024,0.41549 0.286204,0.51941 0.424391,0.29581 0.04052,-0.0655 0.623798,-0.48079 1.296194,-0.92273 1.383797,-0.90954 1.577611,-1.10254 0.971728,-0.96758 -0.224653,0.05 -0.909741,0.0883 -1.522437,0.0853 -0.921529,-0.004 -1.231621,-0.0597 -1.79477,-0.31833 l -0.680783,-0.3127 -0.68077,0.41064 c -0.374435,0.22586 -0.718942,0.41089 -0.765563,0.41117 -0.04653,2.6e-4 -0.233417,0.0571 -0.415064,0.12604 l -0.330285,0.1256 0.433115,0.47943 c 0.61932,0.68547 0.672146,1.08147 0.265206,1.98819 -0.18443,0.41087 -0.372903,0.74701 -0.418923,0.74701 -0.122162,0 -0.69582,-0.63627 -0.857603,-0.95115 -0.231391,-0.45042 -0.162016,-1.0844 0.172573,-1.57753 0.171284,-0.25246 0.279437,-0.51088 0.240271,-0.57428 -0.03917,-0.0633 -0.388239,-0.11569 -0.775665,-0.11656 -0.4917,-6.3e-4 -0.907414,-0.0957 -1.376593,-0.3141 -0.369713,-0.17215 -0.738651,-0.28742 -0.819882,-0.25622 -0.08124,0.031 -0.184643,0.25389 -0.229907,0.49496 -0.129694,0.6917 -0.674482,1.14443 -1.501256,1.24773 -0.38314,0.0478 -0.726474,0.0573 -0.762955,0.0215 -0.173436,-0.17343 0.140911,-1.02272 0.517769,-1.39967 0.369567,-0.36954 0.482461,-0.41108 1.117476,-0.41108 0.570275,0 0.69298,-0.0351 0.636683,-0.18184 -0.05604,-0.14607 0.05167,-0.1338 0.550731,0.0629 1.324679,0.52214 2.226683,0.53293 1.050322,0.0129 -0.634996,-0.28088 -0.815151,-0.55427 -0.815151,-1.23697 0,-0.84213 0.07193,-0.91618 0.619097,-0.63705 0.742412,0.37877 1.026871,0.82087 0.955606,1.48523 -0.08037,0.7496 -0.01726,0.88197 0.385049,0.79183 0.420048,-0.0943 2.248788,-0.93047 2.248439,-1.02794 -6.02e-4,-0.1743 -2.030679,-1.65735 -2.667856,-1.94907 -0.643246,-0.29448 -0.784758,-0.31343 -1.769583,-0.2371 -1.793296,0.13897 -2.160033,0.173 -2.808912,0.2605 -0.563188,0.0758 -0.663905,0.0511 -1.02561,-0.2533 -0.389141,-0.32745 -0.836372,-1.01911 -0.728626,-1.12685 0.02928,-0.0293 0.365835,-0.11871 0.747976,-0.19886 0.593872,-0.12454 0.756595,-0.11634 1.120434,0.0573 0.234124,0.1116 0.52376,0.36904 0.643672,0.57201 0.341279,0.57775 0.638185,0.68072 1.29131,0.44792 0.3057,-0.10901 0.824545,-0.21748 1.153017,-0.24119 0.328482,-0.0237 0.627832,-0.0737 0.665204,-0.11118 0.03752,-0.0372 -0.247183,-0.20747 -0.632407,-0.37775 -0.570711,-0.25236 -0.736431,-0.39594 -0.894918,-0.77522 -0.177963,-0.4258 -0.167619,-1.44309 0.01726,-1.62724 0.120862,-0.12086 1.076798,0.40462 1.370049,0.75311 0.242511,0.2882 0.301677,0.49692 0.301677,1.06415 0,0.81012 0.204459,1.18832 0.70883,1.31111 0.412156,0.10039 1.071824,0.5218 2.000091,1.27787 0.37775,0.30769 1.022844,0.7184 1.433555,0.9127 1.223245,0.5787 1.491998,0.4627 0.913057,-0.39406 -0.303761,-0.44954 -0.361454,-0.64112 -0.31046,-1.03091 0.05972,-0.45695 0.614443,-1.30774 0.918747,-1.40916 0.201657,-0.0672 0.772601,1.12149 0.772601,1.60873 0,0.4262 -0.260717,0.90569 -0.643595,1.18359 -0.122588,0.089 -0.22284,0.25019 -0.22284,0.35828 0,0.16805 0.129917,0.18615 0.897399,0.12454 0.970495,-0.0779 2.073275,-0.40308 2.073275,-0.61126 0,-0.273 -1.451339,-2.13639 -2.008854,-2.57921 -0.729857,-0.57968 -1.753597,-0.95012 -2.018405,-0.73037 -0.09976,0.0827 -0.181192,0.25772 -0.181192,0.38893 0,0.35491 -0.338128,0.94242 -0.633299,1.10039 -0.259743,0.13897 -1.295805,0.20878 -1.409668,0.0948 -0.03316,-0.0332 0.02889,-0.32337 0.138536,-0.64464 0.227067,-0.6664 0.589063,-0.95717 1.332557,-1.07031 l 0.510013,-0.0776 -0.495103,-0.0931 c -0.89916,-0.1687 -2.355773,-0.62451 -2.135172,-0.66801 0.36219,-0.0715 0.245865,-0.20359 -0.372302,-0.42316 -0.390808,-0.13875 -0.661471,-0.33197 -0.804554,-0.57422 -0.232214,-0.39308 -0.294628,-1.4393 -0.09326,-1.56374 0.207474,-0.12819 1.205814,0.39011 1.440113,0.74768 0.126689,0.19348 0.230101,0.60038 0.241172,0.94964 0.01076,0.33759 0.09627,0.68296 0.190896,0.77165 0.168483,0.15772 2.688918,0.50027 2.807657,0.38151 0.03335,-0.0334 -0.162016,-0.27697 -0.434414,-0.54123 -0.272331,-0.2643 -0.532573,-0.62971 -0.578331,-0.81202 -0.10062,-0.40074 0.09094,-1.14507 0.395888,-1.53778 l 0.222966,-0.28723 0.518942,0.56297 c 0.460736,0.49982 0.518457,0.62922 0.51456,1.15367 -0.0019,0.3249 -0.08405,0.72997 -0.181202,0.90015 -0.285573,0.49959 -0.226301,0.59771 0.587948,0.97311 0.994993,0.45874 1.664114,1.04932 2.610782,2.30439 l 0.76246,1.01085 0.408947,-0.16676 c 0.594725,-0.24266 2.058259,-0.53192 2.691384,-0.53192 h 0.547008 l -0.49267,-0.64985 c -0.270993,-0.35741 -0.492931,-0.69159 -0.493212,-0.74265 -8.63e-4,-0.18443 -0.370169,-0.0866 -0.816876,0.21661 -0.746494,0.50661 -1.583302,0.37413 -2.268283,-0.35906 -0.342917,-0.36707 -0.359611,-0.3323 0.325632,-0.67784 0.773444,-0.38999 1.414402,-0.34897 1.954284,0.12496 0.242918,0.2133 0.470198,0.35931 0.50506,0.32445 0.0633,-0.0633 -0.508879,-1.09657 -0.956944,-1.72781 -0.274018,-0.38604 -0.433232,-0.35902 -1.12403,0.19068 -0.657487,0.52326 -1.297612,0.51581 -2.238598,-0.0261 l -0.720202,-0.41477 0.286979,-0.31181 c 0.348056,-0.37823 1.157981,-0.76789 1.603729,-0.77158 0.179466,-8.8e-4 0.616188,0.19649 0.970273,0.44013 0.354076,0.24355 0.68059,0.4048 0.725602,0.35831 0.106214,-0.10967 -1.002411,-1.09856 -1.687586,-1.50563 -0.721365,-0.42856 -0.587987,-0.48052 0.26505,-0.1032 0.716847,0.31703 0.887743,0.27349 0.456906,-0.11634 -0.133582,-0.12087 -0.304265,-0.40583 -0.379301,-0.63318 -0.112894,-0.34208 -0.09539,-0.50479 0.101047,-0.94429 0.130557,-0.29204 0.353125,-0.63355 0.494395,-0.7589 0.252932,-0.22448 0.261357,-0.22076 0.556896,0.24755 0.587939,0.93167 0.576906,1.46095 -0.04479,2.15742 l -0.367987,0.41217 0.54979,0.46997 c 0.302403,0.25847 0.871583,0.90128 1.264863,1.42849 1.7551,2.3527 2.736645,3.19731 4.133095,3.55652 0.44251,0.11375 1.58436,0.44828 2.53745,0.74327 1.64953,0.51052 3.6056,0.89242 3.76327,0.73473 0.0985,-0.0984 -0.19153,-0.30038 -1.43126,-0.99622 -0.57441,-0.32236 -1.39834,-0.91047 -1.83094,-1.3069 -0.43263,-0.3964 -0.81643,-0.72073 -0.85291,-0.72073 -0.0364,0 -0.32097,0.22039 -0.63219,0.48975 -0.80366,0.69553 -1.22623,0.74332 -2.26193,0.25574 l -0.83871,-0.39484 0.58385,-0.53212 c 0.69809,-0.63623 1.24283,-0.77842 1.91159,-0.49898 0.25641,0.10708 0.56245,0.28192 0.68016,0.38841 0.11763,0.10643 0.27267,0.17409 0.34444,0.14996 0.14758,-0.0495 -2.16539,-2.82865 -2.35421,-2.82865 -0.0672,0 -0.23828,0.19692 -0.38033,0.43775 -0.28658,0.48567 -0.79013,0.80004 -1.28155,0.80004 -0.412001,0 -1.422662,-0.25236 -1.422042,-0.35509 8.63e-4,-0.23043 0.545418,-0.9173 0.895781,-1.13092 0.486688,-0.29672 0.967251,-0.31372 1.473191,-0.052 0.61981,0.32052 0.54601,0.10168 -0.12927,-0.38357 -0.34708,-0.24935 -0.63101,-0.47287 -0.63101,-0.49677 0,-0.16288 1.35411,0.57161 1.97225,1.06971 0.76306,0.61488 1.07359,0.78351 0.71676,0.38922 -0.30746,-0.33975 -0.47864,-0.90651 -0.39238,-1.29919 0.0772,-0.35082 0.72909,-1.20711 0.91916,-1.20711 0.0528,0 0.21877,0.28603 0.36916,0.63563 0.33709,0.78363 0.26769,1.28884 -0.2445,1.77953 -0.20338,0.19476 -0.3698,0.41698 -0.3698,0.49362 0,0.0767 0.54306,0.67037 1.20682,1.31938 1.74713,1.70835 2.36124,2.04479 1.71286,0.93843 -0.53531,-0.91344 -0.33832,-1.8781 0.51841,-2.53883 l 0.38446,-0.29645 0.3303,0.65178 c 0.48071,0.94867 0.39425,1.64535 -0.2973,2.39557 -0.28245,0.30644 -0.51354,0.58896 -0.51354,0.62782 0,0.0388 0.59875,0.34992 1.33059,0.69123 0.73184,0.34132 1.47624,0.75955 1.65426,0.92944 l 0.32362,0.30884 0.83638,-0.40937 0.8364,-0.40938 -0.068,-1.17591 c -0.10902,-1.8831 -0.72755,-3.27827 -1.93475,-4.36345 -1.40876,-1.26638 -2.97407,-1.7528 -6.49337,-2.01781 -1.50111,-0.1131 -2.869005,-0.28668 -3.472658,-0.44081 -0.974607,-0.24884 -2.360236,-0.83812 -3.100331,-1.31851 l -0.371332,-0.24102 -0.928326,0.46327 c -0.510575,0.2548 -1.170874,0.5359 -1.467267,0.62469 -0.296431,0.0888 -0.564196,0.22726 -0.595054,0.30768 -0.03083,0.0804 0.08638,0.35616 0.260416,0.61272 0.346883,0.51116 0.389384,0.80195 0.177315,1.21368 -0.162879,0.3163 -0.61134,0.82737 -0.725978,0.82737 -0.164605,0 -0.620105,-0.97705 -0.620105,-1.33021 0,-0.20252 0.139175,-0.57334 0.309432,-0.82414 0.170198,-0.25079 0.309451,-0.4755 0.309451,-0.49933 0,-0.0239 -0.208773,0.004 -0.464167,0.0645 -0.683818,0.15879 -1.497989,0.13659 -2.262747,-0.0618 -0.372143,-0.0966 -0.700324,-0.15189 -0.729253,-0.12302 -0.02889,0.0289 0.07261,0.30357 0.225942,0.61033 0.341075,0.68295 0.270751,1.14317 -0.254987,1.66894 -0.204032,0.20403 -0.408433,0.37073 -0.454231,0.37047 -0.13617,-6e-4 -0.516547,-1.02669 -0.516547,-1.393 0,-0.21329 0.160513,-0.51634 0.433232,-0.81826 0.238264,-0.26373 0.433222,-0.50898 0.433222,-0.545 0,-0.15275 -1.313346,-0.36327 -1.861875,-0.29831 -0.693193,0.0821 -1.603903,0.50904 -1.603903,0.75192 0,0.0922 0.112467,0.42151 0.249771,0.73208 0.23588,0.53324 0.238739,0.59227 0.05128,1.06049 -0.16762,0.41899 -0.737633,0.99406 -0.853183,0.86081 -0.01939,-0.0226 -0.126039,-0.21909 -0.2368,-0.43695 -0.317575,-0.62462 -0.259699,-1.19987 0.169995,-1.6892 0.392379,-0.44689 0.500726,-0.71362 0.182695,-0.44965 -0.103839,0.0862 -0.218827,0.12647 -0.255695,0.0897 -0.102123,-0.10212 0.692543,-0.66912 1.379492,-0.98422 l 0.612087,-0.28071 -0.748597,-0.0633 c -1.156623,-0.0978 -1.629603,-0.55196 -1.857639,-1.78326 l -0.08919,-0.48209 0.790768,0.0881 c 0.43489,0.0485 0.918728,0.17085 1.075141,0.27223 0.355752,0.23044 0.766619,0.89164 0.767239,1.23465 6.11e-4,0.38589 0.422762,0.6966 1.019019,0.75011 0.290769,0.0261 0.92213,0.15771 1.403011,0.29263 0.800983,0.22459 2.034436,0.33445 2.034436,0.18119 0,-0.0351 -0.250654,-0.30413 -0.557003,-0.59768 -0.510401,-0.48905 -0.557003,-0.58398 -0.557003,-1.13473 0,-0.56567 0.399873,-1.6694 0.604807,-1.6694 0.13013,0 0.953715,0.88669 1.113453,1.19871 0.209413,0.40907 0.166757,0.98354 -0.113766,1.53357 -0.138749,0.27194 -0.221047,0.54487 -0.182918,0.60649 0.135308,0.21884 2.157007,-0.52438 3.249539,-1.19452 l 0.400629,-0.24577 -0.830022,-0.66515 c -1.109188,-0.88884 -2.009978,-1.4187 -2.926418,-1.72137 -0.920909,-0.30412 -2.33775,-0.51427 -2.818757,-0.41808 -0.376936,0.0754 -0.473911,0.33815 -0.168056,0.45551 0.301502,0.11569 0.680648,0.85118 0.67897,1.31706 -8.62e-4,0.43235 -0.443779,1.3716 -0.678282,1.44064 -0.203809,0.0601 -0.934898,-1.01396 -1.011427,-1.48558 -0.05468,-0.33644 0.0039,-0.56709 0.253543,-0.99234 0.178603,-0.30471 0.324681,-0.58016 0.324681,-0.6121 0,-0.0319 -0.682334,-0.0896 -1.516273,-0.12797 -0.833968,-0.0386 -1.678425,-0.086 -1.876602,-0.10557 -0.341124,-0.0336 -0.368201,-6.5e-4 -0.508801,0.61635 -0.238856,1.04852 -0.850555,1.51413 -1.989282,1.51413 H 81.30091 l 0.07649,-0.38245 c 0.04198,-0.21027 0.180765,-0.61821 0.308201,-0.90632 0.262917,-0.59437 0.830284,-0.93923 1.54526,-0.93923 0.63646,0 0.64057,-0.15965 0.01512,-0.60841 -0.559348,-0.40169 -0.73421,-0.68519 -0.33647,-0.54551 0.119147,0.0418 -0.01939,-0.13036 -0.306649,-0.38248 -0.734744,-0.64387 -0.886057,-1.20151 -0.590721,-2.17693 0.123674,-0.40847 0.263363,-0.74265 0.310469,-0.74265 0.241968,0 1.097506,0.76952 1.277699,1.14925 0.266582,0.56181 0.257295,0.89315 -0.04372,1.55643 -0.342675,0.75516 -0.314794,0.86707 0.28123,1.12869 0.595093,0.26123 1.825705,0.51186 1.825705,0.37184 0,-0.0509 -0.194987,-0.24091 -0.433338,-0.42271 -0.505787,-0.38579 -0.805204,-0.9061 -0.802548,-1.39466 0.0039,-0.57103 0.325283,-1.46517 0.511623,-1.41984 0.447124,0.10881 0.980802,0.5805 1.223205,1.08122 0.285186,0.58913 0.269054,0.87421 -0.09287,1.63939 -0.111817,0.23656 -0.147154,0.45262 -0.08337,0.51158 0.06078,0.056 0.70881,0.0129 1.440238,-0.0941 1.563263,-0.23054 2.743237,-0.11463 4.358211,0.42846 0.923893,0.31063 1.273266,0.51977 4.069081,2.43562 0.464855,0.31854 0.897612,0.57915 0.961645,0.57915 0.176451,0 0.0068,-0.58229 -0.459553,-1.56854 -0.630303,-1.33553 -1.283293,-1.82275 -4.052154,-3.02352 -0.622713,-0.27008 -1.346046,-0.6325 -1.607363,-0.8054 -0.261338,-0.17279 -0.551254,-0.28515 -0.644264,-0.24947 -0.09307,0.0358 -0.285235,0.29258 -0.427212,0.57087 -0.472695,0.92655 -1.490375,1.23999 -2.505128,0.77154 l -0.462209,-0.2133 0.495539,-0.64557 c 0.618089,-0.80523 1.197603,-1.02879 2.065327,-0.7967 0.309622,0.083 0.584367,0.12906 0.610561,0.10299 0.02608,-0.0261 -0.424066,-0.43181 -1.000526,-0.90137 -1.12911,-0.91973 -1.408974,-1.29084 -0.503828,-0.6681 0.306349,0.2107 0.557003,0.34502 0.557003,0.29828 0,-0.0467 -0.222792,-0.32664 -0.495123,-0.62206 -0.411322,-0.44624 -0.495112,-0.6238 -0.495112,-1.04933 0,-0.52906 0.360086,-1.72134 0.519863,-1.72134 0.174948,0 0.98021,0.78348 1.157462,1.12625 0.256539,0.49607 0.219312,1.08788 -0.104271,1.65877 -0.154483,0.2723 -0.261628,0.58945 -0.238332,0.70476 0.07329,0.36266 2.860251,2.01123 3.0609,1.8106 0.02908,-0.0291 -0.08638,-0.24917 -0.256926,-0.48879 -0.514454,-0.72304 -0.525874,-1.22975 -0.04566,-2.02227 0.396703,-0.65456 0.420299,-0.67151 0.648024,-0.46558 0.129917,0.11763 0.347609,0.43174 0.483605,0.69822 0.319572,0.6262 0.231797,1.19498 -0.283383,1.83603 -0.21459,0.26699 -0.341917,0.52956 -0.282993,0.58351 0.05885,0.0539 0.413443,0.19627 0.787858,0.31628 2.403882,0.77045 3.389463,1.7796 4.225602,4.32672 0.317964,0.96858 0.499156,1.09076 1.92176,1.29557 0.948252,0.13659 3.013822,0.22663 3.009282,0.13121 -8.5e-4,-0.034 -0.23256,-0.22901 -0.51321,-0.43323 -0.73229,-0.53292 -1.80954,-1.93268 -2.71898,-3.53302 -0.808675,-1.42303 -1.613248,-2.47019 -1.89795,-2.47019 -0.08851,0 -0.250518,0.13681 -0.360037,0.30388 -0.542995,0.82872 -1.353996,1.05217 -2.210775,0.60912 l -0.388695,-0.20102 0.586048,-0.5537 c 0.541385,-0.51153 0.625641,-0.54921 1.106531,-0.49483 0.286311,0.0323 0.659795,0.0939 0.829974,0.13682 0.170208,0.0428 -0.162016,-0.14996 -0.738001,-0.4286 -1.848439,-0.89374 -2.580691,-1.70404 -3.176686,-3.51531 -0.462576,-1.40576 -0.467849,-1.40888 -1.149796,-0.68253 -0.491313,0.52333 -0.649383,0.61778 -1.033667,0.61778 -0.444516,0 -1.328485,-0.3342 -1.328485,-0.50226 0,-0.0467 0.249399,-0.31499 0.554226,-0.59597 0.461017,-0.42496 0.63933,-0.51086 1.06023,-0.51086 0.278322,0 0.618535,0.0601 0.756033,0.1338 0.13746,0.0737 0.286204,0.0976 0.330421,0.0534 0.10191,-0.1019 -0.387774,-0.48084 -1.029925,-0.79733 -0.273833,-0.13487 -0.398302,-0.24678 -0.278506,-0.25018 0.34125,-0.009 0.254658,-0.17064 -0.236374,-0.4394 -0.650681,-0.35611 -0.941975,-0.95356 -0.854801,-1.7533 0.12539,-1.15028 0.283344,-1.22939 1.153201,-0.57769 0.728743,0.54595 0.927453,1.24515 0.609683,2.14532 -0.204895,0.58015 -0.138535,0.81372 0.279738,0.987 0.490779,0.20338 0.940422,0.70745 1.244764,1.39573 0.143064,0.32337 0.271294,0.58795 0.285128,0.58795 0.01289,2e-5 0.02501,-0.41173 0.02501,-0.91498 0,-1.03875 0.117421,-1.24127 1.029207,-1.77563 0.697691,-0.40889 0.826212,-0.27998 0.82692,0.82927 6.01e-4,0.98191 -0.203383,1.29679 -1.119415,1.72737 -0.29237,0.13746 -0.567173,0.30749 -0.610721,0.37792 -0.127978,0.20705 0.530246,1.2884 1.164059,1.91268 0.452185,0.44538 0.89231,0.70386 1.925657,1.1309 0.736711,0.30443 1.357272,0.53575 1.379056,0.51396 0.02172,-0.0218 -0.104498,-0.24201 -0.280562,-0.48946 -0.180329,-0.25345 -0.344507,-0.68293 -0.375985,-0.98357 -0.0476,-0.4548 0.01076,-0.64006 0.400202,-1.25337 l 0.456044,-0.71964 0.287968,0.27052 c 0.410673,0.38581 0.673241,1.00288 0.673241,1.58224 0,0.40529 -0.09375,0.60807 -0.495122,1.07189 -0.272312,0.31463 -0.495113,0.60191 -0.495113,0.63838 0,0.0365 0.208986,0.30377 0.464167,0.59399 0.255288,0.29024 0.853057,1.12037 1.328363,1.84471 0.475325,0.72437 0.901725,1.31703 0.947555,1.31703 0.0459,0 0.0532,-0.33224 0.0173,-0.73835 -0.0913,-1.00865 0.10234,-1.42113 0.91035,-1.93804 0.35943,-0.22992 0.67681,-0.41806 0.70528,-0.41806 0.13723,0 0.35521,1.16729 0.29139,1.56057 -0.10385,0.64035 -0.36433,0.97277 -1.00493,1.28288 -0.30949,0.14974 -0.59487,0.32445 -0.63418,0.388 -0.0392,0.0636 0.078,0.29551 0.26068,0.51537 0.99036,1.19198 2.89175,2.27849 5.48767,3.13585 1.57945,0.52166 2.53232,1.08232 3.36616,1.98058 0.7876,0.84853 1.11512,1.45931 1.85123,3.45265 0.35196,0.95309 0.68061,1.77624 0.73034,1.82924 0.0495,0.053 0.44807,0.0108 0.88524,-0.0963 0.43718,-0.106 1.50503,-0.22737 2.37301,-0.26978 0.86802,-0.0425 1.57818,-0.0971 1.57818,-0.12193 0,-0.0248 -0.25505,-0.35808 -0.56679,-0.74081 -0.31173,-0.38273 -0.68487,-0.93894 -0.82922,-1.23604 -0.30577,-0.62935 -0.62959,-0.70114 -1.23098,-0.27291 -0.2077,0.14802 -0.63073,0.28985 -0.94744,0.31786 -0.49327,0.0435 -0.67115,-0.0129 -1.29059,-0.40477 -0.68613,-0.43489 -0.70907,-0.46579 -0.5097,-0.68608 0.29198,-0.32265 1.1783,-0.73204 1.58484,-0.73204 0.40961,0 0.76916,0.17344 1.20926,0.58357 0.18054,0.16827 0.41838,0.28668 0.52867,0.26336 0.32025,-0.0677 -0.80331,-2.1935 -1.63296,-3.08964 -0.78254,-0.84523 -1.25321,-0.95935 -1.75476,-0.42549 -0.35321,0.37598 -0.99431,0.68776 -1.41424,0.68776 -0.17495,0 -0.62903,-0.13746 -1.00904,-0.30555 l -0.69089,-0.30556 0.28326,-0.38311 c 0.66304,-0.89685 1.75581,-1.12896 2.6034,-0.55302 0.45978,0.31245 0.71607,0.38909 0.71607,0.21416 0,-0.10729 -2.28802,-1.40025 -3.00101,-1.69579 -0.56474,-0.23409 -0.78539,-0.12776 -1.18826,0.57215 -0.38596,0.67064 -0.91443,0.90349 -1.79957,0.79291 -0.38233,-0.0478 -0.69515,-0.11247 -0.69515,-0.14372 0,-0.23421 0.40884,-0.91751 0.72933,-1.21893 0.41409,-0.38947 0.92571,-0.47084 1.71528,-0.27284 0.46406,0.11634 0.54662,-0.059 0.12366,-0.26285 -0.53354,-0.2573 6.3e-4,-0.14823 1.31118,0.26754 1.40978,0.44741 1.708,0.40154 0.70245,-0.10815 -0.33919,-0.17193 -0.71316,-0.45973 -0.83108,-0.63972 -0.24602,-0.37546 -0.2766,-1.39626 -0.058,-1.93241 l 0.13982,-0.34305 0.67809,0.45025 c 0.83117,0.55185 1.16468,1.23745 0.97175,1.99753 -0.19973,0.7873 -0.0129,1.08729 0.99492,1.59113 1.10307,0.55176 2.09584,1.30612 2.53336,1.92496 0.51861,0.73352 0.69952,0.56695 0.33412,-0.30762 -0.39482,-0.94489 -0.15427,-1.69181 0.74345,-2.30953 l 0.55748,-0.38353 0.11419,0.30044 c 0.36656,0.96414 0.39518,1.31242 0.15275,1.86033 -0.13034,0.2948 -0.40576,0.65611 -0.61186,0.80287 -0.73658,0.52447 -0.71624,0.78142 0.20252,2.55949 0.45204,0.87488 0.8848,1.61064 0.96167,1.63505 0.086,0.0273 0.17257,-0.21739 0.22474,-0.63536 0.13401,-1.07258 0.66029,-1.57066 1.84777,-1.74873 l 0.59989,-0.0901 -0.0864,0.54216 c -0.18076,1.13529 -0.88917,1.96559 -1.67689,1.96559 -0.18572,0 -0.40807,0.0846 -0.49388,0.18788 -0.19455,0.23447 0.002,0.47125 1.03472,1.24771 0.47388,0.35625 0.85066,0.54473 1.08891,0.54473 0.60219,0 2.19682,0.3682 3.47924,0.80337 0.66374,0.22521 1.20682,0.39 1.20682,0.36619 0,-0.17493 -0.95553,-2.62289 -1.36472,-3.49606 -0.97812,-2.08725 -2.00045,-3.51411 -4.58911,-6.40498 l -1.33466,-1.49048 -1.70915,-0.47292 c -3.79927,-1.05127 -4.3485,-1.22451 -5.31339,-1.67625 -0.55272,-0.25877 -1.34338,-0.70032 -1.75704,-0.98124 -0.41367,-0.28091 -0.81087,-0.51073 -0.8827,-0.51073 -0.0717,0 -0.13057,0.23672 -0.13078,0.52604 -3e-4,1.07056 -0.66538,1.81899 -1.70492,1.91887 l -0.60951,0.0587 0.10449,-0.76324 c 0.0573,-0.41979 0.1603,-0.86779 0.2287,-0.99558 0.19994,-0.37366 0.84032,-0.76459 1.36843,-0.83543 0.26913,-0.0362 0.48884,-0.1 0.48823,-0.1422 -8.6e-4,-0.10621 -1.28201,-0.9099 -2.10313,-1.31991 -0.37442,-0.18701 -1.13461,-0.49344 -1.6893,-0.6811 -1.10525,-0.37387 -1.28136,-0.33496 -1.28136,0.28319 0,0.569 -0.42159,1.25095 -0.9204,1.48881 -0.45566,0.21729 -1.678924,0.29938 -1.678924,0.11268 0,-0.25358 0.425384,-1.34457 0.604744,-1.55099 0.31323,-0.36052 0.82453,-0.57528 1.36954,-0.57528 0.27569,0 0.50105,-0.0418 0.50082,-0.0929 -2.7e-4,-0.0511 -0.36095,-0.27922 -0.80154,-0.50703 -0.90887,-0.46997 -2.053921,-1.61004 -2.539805,-2.52877 -0.169985,-0.32158 -0.337498,-0.58469 -0.372059,-0.58469 -0.03451,0 -0.192186,0.28199 -0.350275,0.62659 -0.330014,0.71935 -0.856159,1.10548 -1.505871,1.10514 -0.445641,-2.7e-4 -1.361567,-0.21287 -1.361567,-0.31603 0,-0.0319 0.199728,-0.35863 0.443663,-0.72613 0.542006,-0.81632 0.919649,-0.99381 1.921469,-0.90295 0.870439,0.0788 0.866086,0.13509 0.09501,-1.21889 -0.543867,-0.9549 -1.763961,-2.40484 -2.02364,-2.40484 -0.08938,0 -0.293901,0.26457 -0.454279,0.58795 -0.36157,0.72895 -0.981791,1.08315 -1.687732,0.9639 -0.773406,-0.13078 -0.828064,-0.21006 -0.536983,-0.78068 0.414589,-0.8127 0.813967,-1.05211 1.654586,-0.99198 0.777176,0.0555 0.879881,-0.0347 0.398389,-0.35011 -0.17236,-0.1129 -0.289238,-0.22932 -0.259854,-0.25871 0.07494,-0.0749 1.169343,0.49915 1.680277,0.88175 0.588568,0.44068 0.681385,0.39983 0.329422,-0.14499 -0.592359,-0.91683 -0.518631,-1.59079 0.274144,-2.50651 0.369238,-0.42647 0.378225,-0.42936 0.577236,-0.18572 0.111167,0.13616 0.315394,0.48999 0.453842,0.78628 0.337702,0.72278 0.228899,1.25112 -0.397653,1.93085 -0.268084,0.29084 -0.487415,0.56596 -0.487415,0.61143 0,0.0455 0.218836,0.35946 0.486291,0.69782 0.267464,0.33837 0.748025,1.03515 1.067927,1.5484 0.597701,0.95897 0.807424,1.11368 0.564303,0.41629 -0.328899,-0.9435 -0.04673,-1.6786 0.892264,-2.32464 l 0.55395,-0.38114 0.198,0.49502 c 0.43161,1.0787 0.18076,1.86009 -0.78877,2.45661 -0.34225,0.2105 -0.622279,0.46492 -0.622279,0.56517 0,0.37046 1.522419,1.82704 2.289909,2.19087 0.92955,0.44066 1.16169,0.46016 0.87743,0.0737 -0.11268,-0.15318 -0.31823,-0.51796 -0.4568,-0.81067 -0.30252,-0.63894 -0.24723,-0.99961 0.28092,-1.83243 l 0.37831,-0.59654 0.41115,0.44866 c 0.22614,0.24675 0.47922,0.67583 0.56241,0.95345 0.13013,0.43463 0.12044,0.57329 -0.0709,0.99732 -0.12217,0.27087 -0.32576,0.58633 -0.45249,0.70102 -0.36074,0.32644 -0.27451,0.52071 0.29564,0.66593 0.28932,0.0737 0.96117,0.2708 1.49298,0.43799 0.5318,0.16719 0.98966,0.304 1.01742,0.304 0.0278,0 -0.0871,-0.20274 -0.2552,-0.45048 -0.57346,-0.84507 -0.31746,-1.99456 0.61538,-2.76305 0.19541,-0.16115 0.24011,-0.15426 0.40519,0.0618 0.29991,0.39273 0.53037,1.01102 0.53037,1.42293 0,0.47028 -0.16503,0.80548 -0.64762,1.31573 -0.2036,0.21545 -0.35019,0.44758 -0.32554,0.51605 0.0494,0.13702 2.33884,1.667 2.40122,1.60458 0.0215,-0.0215 -0.0245,-0.27621 -0.10191,-0.56633 -0.22373,-0.83816 0.052,-1.46011 0.90191,-2.03493 0.37442,-0.25322 0.72041,-0.46208 0.76884,-0.46416 0.16137,-0.007 0.371,1.03679 0.30588,1.5223 -0.078,0.58219 -0.46618,1.02807 -1.17046,1.34471 -0.30749,0.13832 -0.49466,0.29341 -0.44697,0.37052 0.13443,0.21762 1.80121,0.93983 2.78372,1.20622 1.48814,0.40347 3.57654,0.74193 3.57654,0.57965 0,-0.47065 -1.22675,-4.05918 -1.75381,-5.13022 -0.50842,-1.03324 -0.81266,-1.46726 -1.58334,-2.25896 -0.52471,-0.53899 -1.01895,-0.97998 -1.09831,-0.97998 -0.0915,0 -0.14456,0.23775 -0.14478,0.64982 -6.5e-4,1.13092 -0.5457,1.69241 -1.84389,1.89999 l -0.50702,0.0811 0.0782,-0.60373 c 0.16138,-1.24545 0.64241,-1.81146 1.68521,-1.98262 0.25532,-0.042 0.46417,-0.12367 0.46417,-0.18162 0,-0.14737 -1.13325,-0.78248 -2.16611,-1.21406 -1.29571,-0.54148 -1.22379,-0.56307 -1.30788,0.3925 -0.0571,0.6495 -0.14047,0.9077 -0.37307,1.15671 -0.37652,0.40303 -0.78939,0.61358 -1.38255,0.70502 -0.45466,0.0703 -0.46409,0.0636 -0.46122,-0.32292 0.009,-1.17731 0.50147,-1.93194 1.43109,-2.19222 0.30053,-0.0841 0.54641,-0.19046 0.54641,-0.23638 0,-0.0721 -2.57194,-1.12222 -2.74883,-1.12222 -0.036,0 -0.0957,0.22491 -0.1325,0.49983 -0.0885,0.65967 -0.38535,1.09046 -0.89954,1.30529 -0.57089,0.23851 -1.34414,0.23693 -1.25223,-0.002 0.0375,-0.0978 0.12647,-0.3939 0.19757,-0.65789 0.17883,-0.66392 0.61307,-1.03572 1.3002,-1.11318 0.3106,-0.0349 0.56472,-0.10621 0.56472,-0.15835 0,-0.0522 -0.27938,-0.27404 -0.62082,-0.49314 -0.34145,-0.2191 -0.84617,-0.65437 -1.12155,-0.96725 -0.40114,-0.45572 -0.52348,-0.53291 -0.61506,-0.38813 -0.0629,0.0993 -0.11527,0.27393 -0.11614,0.38785 -0.004,0.33408 -0.59302,0.9404 -1.06732,1.09695 -0.25089,0.0827 -0.66712,0.11031 -0.972882,0.0647 l -0.534425,-0.0802 0.137237,-0.4472 c 0.07562,-0.24596 0.317799,-0.63861 0.538418,-0.87254 0.382592,-0.4057 0.435222,-0.42338 1.138932,-0.38285 0.40577,0.0235 0.77425,0.007 0.81877,-0.0384 0.0446,-0.0446 -0.0622,-0.30793 -0.23736,-0.58533 -0.36107,-0.57198 -0.40324,-0.73378 -0.13272,-0.50926 0.24221,0.20101 0.23456,0.13487 -0.059,-0.51256 -0.13466,-0.29676 -0.24607,-0.68319 -0.24757,-0.85871 -0.002,-0.32881 0.55087,-1.26612 0.97416,-1.64919 0.23141,-0.20942 0.24969,-0.19887 0.54748,0.31885 0.61902,1.07604 0.51616,1.85172 -0.33567,2.53141 -0.24529,0.19563 -0.44601,0.44891 -0.44601,0.56262 0,0.20468 1.60836,1.75381 1.71258,1.6496 0.0298,-0.0298 -0.0698,-0.34178 -0.22101,-0.69343 -0.35494,-0.82503 -0.27369,-1.25957 0.39163,-2.09516 l 0.51489,-0.6467 0.21503,0.26543 c 0.11827,0.14608 0.311,0.51702 0.42844,0.82448 0.2827,0.74027 0.11203,1.33218 -0.56454,1.9582 -0.27307,0.25266 -0.49649,0.51188 -0.49649,0.57607 0,0.22201 2.09724,1.11108 2.621,1.11108 0.0552,0 -0.0941,-0.2549 -0.33192,-0.56647 -0.54016,-0.70767 -0.56818,-1.27568 -0.10816,-2.19169 0.17839,-0.35515 0.34571,-0.66915 0.37182,-0.69778 0.0941,-0.1032 0.69492,0.55778 0.93842,1.03271 0.31415,0.61275 0.24221,1.28289 -0.19993,1.86262 -0.17624,0.23117 -0.32059,0.47419 -0.32059,0.54 0,0.0657 0.2924,0.18853 0.64981,0.27248 0.35742,0.084 0.94611,0.26214 1.30822,0.39579 0.36211,0.13357 0.68539,0.21597 0.7184,0.18292 0.033,-0.033 -0.0541,-0.24734 -0.1937,-0.47626 -0.16891,-0.27702 -0.2539,-0.62956 -0.25423,-1.05411 -3e-4,-0.58398 0.0463,-0.68852 0.55395,-1.23777 l 0.55438,-0.59992 0.24981,0.30943 c 0.70489,0.87316 0.62903,1.85155 -0.20554,2.65129 l -0.56823,0.54449 0.54313,0.27508 c 1.03692,0.52515 2.26807,1.38773 3.04351,2.13234 l 0.77972,0.74871 v -1.3006 c 0,-0.71534 0.0368,-1.7355 0.0816,-2.26706 l 0.0816,-0.96642 -0.4221,0.10578 c -0.23214,0.0582 -0.69411,0.10816 -1.02659,0.11096 -0.57209,0.004 -0.63352,-0.028 -1.14495,-0.60906 -0.29723,-0.33778 -0.54041,-0.6507 -0.54041,-0.69539 0,-0.15943 0.81363,-0.41782 1.32063,-0.41924 0.56281,-8.6e-4 1.02704,0.3265 1.35552,0.95785 0.27354,0.52576 0.39145,0.40459 0.28175,-0.28948 -0.11485,-0.72626 -0.5024,-1.58966 -0.8581,-1.91158 -0.23719,-0.21459 -0.25557,-0.21309 -0.52827,0.043 -0.15534,0.14586 -0.46246,0.32815 -0.68237,0.40481 -0.3486,0.12151 -0.4867,0.0969 -1.07772,-0.19219 -0.37285,-0.18248 -0.67587,-0.36932 -0.6734,-0.41538 0.002,-0.0462 0.20641,-0.23692 0.45316,-0.42412 0.59486,-0.45132 1.23951,-0.45862 1.76084,-0.0194 0.67937,0.57165 0.40315,0.17451 -0.49017,-0.70476 -0.77545,-0.76322 -0.89957,-0.842 -1.13127,-0.71801 -0.87441,0.46796 -1.596,0.34457 -2.25588,-0.38582 -0.24496,-0.27117 -0.4454,-0.54251 -0.4454,-0.60301 0,-0.15491 0.92784,-0.50827 1.33313,-0.50773 0.46862,6.5e-4 1.09164,0.40877 1.33122,0.87202 0.29872,0.57768 0.33504,0.3778 0.0703,-0.38612 -0.12819,-0.3696 -0.27174,-0.96306 -0.31907,-1.31879 l -0.086,-0.64676 -0.70054,0.0705 c -0.3891,0.0392 -0.8523,0.0108 -1.04194,-0.0622 -0.29663,-0.11548 -1.08203,-1.12828 -1.08203,-1.39541 0,-0.16762 0.99802,-0.36973 1.40286,-0.28418 0.49542,0.1047 0.92702,0.49038 1.1708,1.04631 0.18766,0.42777 0.19111,0.42933 0.27252,0.12367 0.0782,-0.29342 0.0871,-0.28702 0.17129,0.12367 0.24813,1.21096 0.3593,1.61598 0.46071,1.67868 0.0612,0.0379 0.11226,-0.14327 0.11312,-0.40268 0.004,-0.94789 0.71542,-1.64735 1.67631,-1.64735 h 0.52753 l -0.15922,0.68515 c -0.22973,0.98834 -0.82959,1.54284 -1.66892,1.54284 -0.20769,0 -0.37747,0.0587 -0.37747,0.12992 0,0.40606 1.10705,1.85053 1.41825,1.85053 0.0834,0 0.21719,-0.21869 0.29727,-0.486 0.0802,-0.26728 0.31599,-0.62933 0.5242,-0.80455 0.31252,-0.26298 0.50525,-0.31857 1.10445,-0.31857 0.39924,0 0.75294,0.0437 0.78601,0.0974 0.10234,0.16568 -0.58333,1.29174 -0.95207,1.56358 -0.23928,0.17645 -0.52253,0.25393 -0.89804,0.24577 l -0.54851,-0.0108 0.71238,0.75455 c 0.3918,0.41501 0.7413,0.76884 0.77664,0.78629 0.0353,0.0173 0.16891,-0.16266 0.29678,-0.40001 0.12798,-0.23747 0.37574,-0.52558 0.55082,-0.64032 0.38475,-0.25209 1.16539,-0.26448 1.73239,-0.0275 l 0.41625,0.17387 -0.50725,0.64174 c -0.64624,0.81757 -1.08999,0.93538 -2.21255,0.5874 l -0.27817,-0.0862 0.2162,0.47851 c 0.18336,0.40585 0.21621,0.86767 0.2163,3.04047 4e-5,1.40906 0.0328,2.52307 0.0724,2.47554 0.0396,-0.0476 0.19455,-0.55982 0.34394,-1.13848 0.4963,-1.92227 1.2508,-3.24306 2.8789,-5.03958 0.40254,-0.44422 0.84391,-0.96494 0.98079,-1.15717 l 0.24887,-0.3495 -0.67463,0.024 c -0.51815,0.0194 -0.75577,-0.0365 -1.02461,-0.23655 -0.39173,-0.29154 -0.72393,-0.80656 -0.84993,-1.31765 l -0.0838,-0.3404 h 0.70606 c 1.08279,0 1.45668,0.31033 1.8518,1.537 0.05,0.15512 0.11849,0.19519 0.198,0.1159 0.19282,-0.19282 0.97424,-2.11679 0.89284,-2.1982 -0.0403,-0.0405 -0.26192,-0.0735 -0.49221,-0.0735 -0.46907,0 -0.98675,-0.23097 -1.28935,-0.57525 -0.25828,-0.2939 -0.61151,-1.50874 -0.46503,-1.59929 0.21201,-0.13099 1.2291,0.1004 1.55004,0.35295 0.36302,0.28556 0.66433,0.91345 0.66433,1.38442 0,1.0214 0.48333,-0.54625 0.69357,-2.24954 l 0.0795,-0.64439 -0.73999,0.0215 c -0.95192,0.0263 -1.32368,-0.21136 -1.71547,-1.09734 -0.16396,-0.3707 -0.29808,-0.70028 -0.29808,-0.73238 0,-0.0321 0.35894,-0.0584 0.79764,-0.0584 0.94134,0 1.33543,0.25693 1.61385,1.05211 0.0952,0.27234 0.22616,0.48326 0.29069,0.46874 0.15534,-0.0349 0.30889,1.2316 0.20597,1.70007 -0.11548,0.52547 0.0877,0.4537 0.32654,-0.11548 0.33328,-0.79382 1.11084,-1.10138 2.11867,-0.83797 0.41868,0.10945 0.42237,0.20683 0.0312,0.82623 -0.52525,0.83205 -1.13439,1.07216 -2.10508,0.82988 l -0.37176,-0.0929 -0.22904,1.02432 c -0.12604,0.56336 -0.36696,1.35848 -0.53553,1.76695 -0.16848,0.40847 -0.33905,0.82621 -0.37889,0.92833 -0.0399,0.10213 0.184,-0.086 0.49754,-0.41823 0.56476,-0.59835 0.57601,-0.60336 1.22727,-0.54929 0.3615,0.03 0.81456,0.15772 1.00678,0.28371 l 0.3495,0.22911 -0.54586,0.54586 c -0.70199,0.70198 -1.30739,0.81865 -2.05827,0.39663 -0.27818,-0.15642 -0.5261,-0.26042 -0.55092,-0.2313 -0.0248,0.0291 -0.25272,0.38127 -0.5064,0.78257 -0.25367,0.40125 -0.74394,1.02849 -1.08949,1.39385 -0.34551,0.36536 -0.60265,0.68988 -0.5714,0.72111 0.0312,0.0312 0.25805,-0.0864 0.50399,-0.26129 0.72809,-0.51805 1.61068,-0.37862 2.30439,0.3641 l 0.28925,0.3097 -0.54768,0.32096 c -0.37736,0.22115 -0.72706,0.32098 -1.12442,0.32098 -0.4912,0 -0.65188,-0.0679 -1.08379,-0.45814 l -0.50709,-0.45814 -0.23854,0.3034 c -0.50886,0.64719 -1.12901,2.14397 -1.37122,3.30951 -0.51334,2.47045 -0.0943,5.77252 1.01723,8.0164 0.7455,1.50492 2.1501,3.03996 4.21296,4.6042 0.13185,0.1 0.0215,-0.35381 -0.34782,-1.4274 -1.12989,-3.28659 -1.53205,-5.84154 -1.27476,-8.09847 0.27403,-2.40386 1.07191,-4.07795 3.08163,-6.46577 1.38842,-1.64962 1.65192,-2.23241 1.67323,-3.70064 l 0.0173,-1.13307 -0.7521,0.0411 c -0.6565,0.0358 -0.79914,8.6e-4 -1.12264,-0.27073 -0.20382,-0.1715 -0.47453,-0.54235 -0.60161,-0.8241 -0.27734,-0.61509 -0.16977,-0.7362 0.65674,-0.73914 0.79837,-0.002 1.23728,0.28353 1.5758,1.02808 l 0.29144,0.64101 0.009,-0.80454 c 0.0151,-1.29414 0.3064,-2.41056 0.8137,-3.11668 0.24533,-0.34149 0.42832,-0.63164 0.40664,-0.64473 -1.08353,-0.65442 -1.34835,-1.25117 -1.02673,-2.31349 l 0.21828,-0.72085 0.33879,0.17516 c 0.18636,0.0963 0.4847,0.34858 0.66301,0.56049 0.38066,0.45238 0.43299,1.15839 0.12948,1.74547 -0.23678,0.45792 -0.14328,0.59783 0.19476,0.29181 0.47816,-0.43271 0.35643,-0.10988 -0.14046,0.37222 -0.48722,0.47284 -0.97363,1.25545 -0.97363,1.56653 0,0.0846 0.21007,-0.0513 0.46676,-0.30195 0.60353,-0.58935 1.07475,-0.68442 1.77711,-0.35858 0.93274,0.43271 0.94434,0.4531 0.48266,0.8467 -0.87284,0.74415 -1.43945,0.84276 -2.24411,0.39051 -0.2638,-0.14823 -0.52204,-0.22677 -0.57385,-0.17451 -0.12454,0.1256 -0.0625,3.13518 0.0696,3.3709 0.0802,0.14307 0.17365,0.0756 0.42773,-0.30817 0.42586,-0.64356 1.00186,-0.85064 1.76868,-0.63597 0.87412,0.24476 0.92407,0.41511 0.30617,1.0447 -0.62747,0.63934 -1.14217,0.78297 -1.80838,0.50458 -0.25016,-0.10449 -0.49575,-0.19002 -0.54574,-0.19002 -0.05,0 -0.12754,0.39338 -0.17215,0.87423 -0.10664,1.14792 -0.2023,1.35294 -1.59383,3.41808 -1.31847,1.95669 -1.87125,3.19948 -2.16497,4.86724 -0.31758,1.80328 -0.0742,4.12049 0.66953,6.36961 l 0.32574,0.98531 0.2802,-1.24936 c 0.15404,-0.68713 0.48144,-1.68493 0.72739,-2.21731 0.24598,-0.53237 0.42153,-1.03491 0.39012,-1.11676 -0.0315,-0.0816 -0.22814,-0.18636 -0.43719,-0.2323 -0.4995,-0.10966 -1.11752,-0.73718 -1.13874,-1.15621 -0.0241,-0.47843 0.0265,-1.31031 0.0836,-1.36727 0.0268,-0.0269 0.34717,0.0972 0.71191,0.27567 0.81063,0.39662 1.02605,0.75892 0.98605,1.65833 l -0.0302,0.67426 0.53413,-0.72551 c 0.29374,-0.39903 0.71107,-0.87443 0.92738,-1.05644 0.21632,-0.18206 0.39328,-0.36609 0.39328,-0.40907 0,-0.0429 -0.13185,-0.25544 -0.29318,-0.47214 -0.44796,-0.60202 -0.50066,-1.01673 -0.2049,-1.61269 0.14027,-0.28283 0.3368,-0.62112 0.43657,-0.75181 0.17474,-0.22871 0.19068,-0.22929 0.42652,-0.0151 0.13487,0.12195 0.33782,0.46463 0.45114,0.76139 0.23713,0.62088 0.12648,1.05589 -0.39278,1.54365 -0.39296,0.36918 -0.379,0.5092 0.0409,0.41042 0.32877,-0.0774 0.32597,-0.07 -0.0814,0.21415 -0.49015,0.34201 -0.96075,0.93344 -0.83934,1.05485 0.0461,0.0462 0.19131,-0.0129 0.32248,-0.13229 0.3721,-0.33672 1.11519,-0.37639 1.58065,-0.0844 0.21692,0.13617 0.45638,0.36332 0.53217,0.50493 0.12409,0.23187 0.0849,0.28153 -0.39439,0.49901 -0.29269,0.13294 -0.63241,0.24277 -0.75492,0.24426 -0.32311,0.004 -0.90888,-0.32547 -1.1234,-0.63173 -0.1045,-0.14931 -0.26332,-0.2346 -0.36435,-0.19584 -0.41873,0.16073 -1.70171,2.96204 -1.4327,3.1283 0.0719,0.0444 0.27939,-0.0578 0.46111,-0.22705 0.69323,-0.64605 1.21775,-0.73785 1.98359,-0.34715 0.77467,0.39522 0.83831,0.55591 0.36363,0.91795 -0.83424,0.63633 -1.51214,0.69117 -2.23422,0.18076 -0.75829,-0.53598 -0.91445,-0.19519 -1.03922,2.26762 l -0.0791,1.56253 1.22483,2.27457 1.22484,2.27462 0.0633,-0.63036 c 0.0395,-0.39241 0.18874,-0.81949 0.39512,-1.13146 0.36909,-0.55771 0.34368,-0.65185 -0.17603,-0.65185 -0.84161,0 -1.39245,-0.59719 -1.53932,-1.66887 l -0.0767,-0.55912 h 0.39215 c 0.98288,0 1.74435,0.72006 1.74526,1.65035 3e-4,0.32421 0.0495,0.45828 0.15512,0.42331 0.26301,-0.0869 0.85764,-1.1651 0.87804,-1.59202 0.0173,-0.37536 -0.0173,-0.41343 -0.47577,-0.5223 -0.96807,-0.22958 -1.42067,-0.81709 -1.42275,-1.84697 -5.8e-4,-0.2819 0.0532,-0.34039 0.31275,-0.34039 0.48234,0 1.13038,0.31669 1.35759,0.66344 0.11268,0.17193 0.22564,0.55267 0.25095,0.84586 0.0252,0.29316 0.0495,0.56088 0.0541,0.59492 0.004,0.034 0.062,-0.0217 0.12798,-0.12367 0.0659,-0.10212 0.12086,-0.42567 0.12193,-0.71902 8.7e-4,-0.32363 0.0506,-0.50327 0.12562,-0.45686 0.159,0.0982 0.16029,1.35923 0.002,1.91117 -0.067,0.23331 -0.0963,0.44963 -0.0653,0.48072 0.031,0.031 0.28799,-0.15255 0.5709,-0.40822 0.45605,-0.41203 0.56928,-0.4574 0.9982,-0.39986 0.47895,0.0642 1.09921,0.38054 1.08689,0.55421 -0.004,0.0495 -0.23234,0.27102 -0.50849,0.49226 -0.55313,0.44314 -1.06986,0.51357 -1.58935,0.21661 -0.17021,-0.0974 -0.39298,-0.17839 -0.4951,-0.18033 -0.17754,-0.004 -1.16572,1.7171 -1.05177,1.83103 0.0293,0.0293 0.25108,-0.12043 0.49288,-0.33276 0.74729,-0.65614 1.53157,-0.6704 2.28483,-0.0416 l 0.41481,0.34631 -0.52906,0.38908 c -0.77067,0.56676 -1.12855,0.6094 -1.90915,0.22749 -0.36056,-0.17645 -0.74285,-0.32073 -0.84956,-0.32073 -0.27344,0 -0.4621,0.9868 -0.4621,2.41694 0,1.23401 0.19412,1.95188 0.91034,3.36512 0.17731,0.35007 0.45678,1.03514 0.62084,1.52235 l 0.29834,0.88587 0.27909,-0.84597 c 0.66993,-2.03055 1.90038,-4.20947 3.51456,-6.22372 0.51538,-0.6431 0.93706,-1.21762 0.93706,-1.27667 0,-0.059 -0.45128,-0.7304 -1.00286,-1.49193 -1.17487,-1.622 -2.23186,-3.70238 -2.59008,-5.09788 -0.35304,-1.37513 -0.43015,-3.03238 -0.25453,-5.46977 0.18248,-2.53279 0.22698,-4.43946 0.10643,-4.56186 -0.0493,-0.05 -0.314,0.11182 -0.58829,0.3596 -0.58355,0.52722 -0.94794,0.56729 -1.80761,0.19887 l -0.58742,-0.2518 0.41353,-0.42664 c 0.61852,-0.63815 1.11175,-0.76105 1.77189,-0.44147 0.29282,0.14176 0.5732,0.25772 0.62304,0.25772 0.0497,0 -0.0715,-0.23671 -0.26968,-0.52605 -0.19822,-0.28934 -0.48049,-0.76278 -0.62735,-1.05212 -0.29741,-0.58596 -0.33828,-0.60738 -0.63915,-0.3351 -0.40054,0.3625 -0.99659,0.35311 -1.57234,-0.0248 -0.28932,-0.18981 -0.52605,-0.38077 -0.52605,-0.42418 0,-0.0435 0.24069,-0.20661 0.53484,-0.36265 0.62793,-0.33312 1.05446,-0.27683 1.53371,0.20231 l 0.31432,0.31432 -0.0747,-0.59785 -0.0746,-0.59785 0.24036,0.65902 c 0.28733,0.78777 0.77307,1.60644 0.83786,1.41208 0.0254,-0.0763 -0.0129,-0.24966 -0.0855,-0.38512 -0.0724,-0.13552 -0.13186,-0.4535 -0.13186,-0.70678 0,-0.37708 0.0907,-0.5468 0.50032,-0.9365 0.2752,-0.26175 0.57415,-0.47594 0.66439,-0.47594 0.0991,0 0.21501,0.25751 0.29273,0.64983 0.16395,0.82774 -0.0342,1.35342 -0.64683,1.71477 -0.24159,0.14263 -0.43928,0.31527 -0.43928,0.38382 0,0.0685 0.1478,0.29978 0.32819,0.51383 0.41617,0.49351 0.65987,1.07271 0.66984,1.59205 0.0108,0.53832 0.63981,-1.48262 0.99149,-3.1833 0.20338,-0.98396 0.24783,-1.58472 0.21626,-2.92976 -0.0217,-0.9306 -0.0752,-1.72731 -0.11849,-1.77051 -0.0435,-0.043 -0.2662,0.0358 -0.49512,0.17517 -0.66142,0.40323 -1.2515,0.33814 -1.85194,-0.20426 l -0.50805,-0.45901 0.27004,-0.21868 c 0.70575,-0.57147 1.6599,-0.48918 2.1935,0.18916 0.13854,0.17603 0.28024,0.29193 0.31484,0.25731 0.0825,-0.0825 -0.20511,-1.58013 -0.51147,-2.66242 -0.24064,-0.85034 -0.24476,-1.15407 -0.007,-0.52917 0.17947,0.4722 0.2574,0.29729 0.0982,-0.22092 -0.19801,-0.64493 0.12086,-1.25087 0.84144,-1.59973 0.30356,-0.14694 0.57327,-0.24589 0.59932,-0.21984 0.0261,0.0261 0.0836,0.32486 0.12775,0.66399 0.0685,0.52431 0.0365,0.68154 -0.21286,1.04988 -0.16288,0.24068 -0.46747,0.49015 -0.68526,0.56131 -0.21558,0.0705 -0.42629,0.16245 -0.46824,0.20424 -0.042,0.042 0.0883,0.56916 0.28946,1.17158 0.20123,0.60244 0.43254,1.42001 0.51426,1.81685 0.16051,0.77915 0.24411,0.80157 0.43669,0.11699 0.1771,-0.62963 0.6798,-0.96442 1.43117,-0.95328 0.33456,0.004 0.64048,0.0411 0.6798,0.0806 0.12604,0.12604 -0.55362,1.31949 -0.84235,1.47882 -0.15319,0.0846 -0.54955,0.1562 -0.88065,0.15921 l -0.60197,0.004 0.0215,1.60539 c 0.0108,0.88295 0.0409,1.62561 0.0657,1.65037 0.0248,0.0248 0.27244,-0.1825 0.55041,-0.46044 0.42457,-0.42457 0.58543,-0.50543 1.00547,-0.50543 0.48544,0 1.4804,0.40132 1.4804,0.59712 0,0.13552 -0.74838,0.8297 -1.07492,0.99715 -0.40696,0.20877 -0.91685,0.16762 -1.44669,-0.11635 -0.26158,-0.14025 -0.51068,-0.21982 -0.55355,-0.17687 -0.0428,0.0428 -0.14199,0.45 -0.22007,0.90473 -0.0782,0.45473 -0.18334,1.04959 -0.234,1.3219 l -0.092,0.4951 0.35618,-0.32526 c 0.48821,-0.44583 0.82618,-0.60307 1.29643,-0.60307 0.44751,0 1.5116,0.56618 1.44418,0.76843 -0.0239,0.0717 -0.28333,0.30434 -0.57641,0.51663 -0.70138,0.50798 -1.41011,0.51535 -2.05779,0.0215 -0.246,-0.18766 -0.46479,-0.3216 -0.48621,-0.29771 -0.0631,0.0703 -0.55148,2.30666 -0.75301,3.44732 -0.22892,1.29576 -0.38723,4.08466 -0.23185,4.08466 0.0617,0 0.24274,-0.24618 0.40235,-0.54706 0.15965,-0.30087 0.56334,-0.88599 0.89718,-1.30026 0.33384,-0.41428 0.60697,-0.79926 0.60697,-0.85549 0,-0.0562 -0.14393,-0.17925 -0.32001,-0.27349 -0.35922,-0.19219 -0.67022,-0.71142 -0.67022,-1.11879 0,-0.37902 0.2666,-1.22734 0.38571,-1.22734 0.0545,0 0.32413,0.21416 0.59931,0.47596 0.55288,0.52593 0.62006,0.85454 0.32097,1.57035 -0.0987,0.23609 -0.14629,0.42924 -0.10557,0.42924 0.0405,0 0.33011,-0.23766 0.64353,-0.52813 0.31339,-0.29045 0.72858,-0.64198 0.92264,-0.78112 l 0.35281,-0.25302 -0.25952,-0.42569 c -0.39427,-0.64677 -0.34067,-1.14072 0.18723,-1.72503 0.2462,-0.27247 0.48653,-0.49545 0.53408,-0.49545 0.15341,0 0.50363,0.86355 0.50363,1.24163 0,0.24892 -0.14672,0.52924 -0.45689,0.8725 l -0.45691,0.50573 0.67349,-0.30773 c 0.37045,-0.16934 0.82115,-0.36508 1.00155,-0.43519 0.27262,-0.106 0.328,-0.20467 0.328,-0.58478 0,-0.63159 0.36021,-1.0666 1.08695,-1.31256 l 0.6088,-0.20618 0.0395,0.43861 c 0.0776,0.86425 -0.47111,1.52075 -1.27101,1.52075 -0.17365,0 -0.3156,0.052 -0.3156,0.11549 0,0.0633 -0.12539,0.15232 -0.27849,0.19756 -0.40029,0.11807 -1.98044,1.05884 -1.90507,1.1342 0.0349,0.0349 0.19067,-0.0259 0.34644,-0.13487 0.15576,-0.10902 0.38488,-0.19822 0.50928,-0.19822 0.3358,0 0.93094,0.33979 1.07872,0.61591 0.10966,0.2049 0.0733,0.27119 -0.23775,0.43193 -0.57715,0.29847 -1.05789,0.23886 -1.54862,-0.19196 l -0.435,-0.38193 -0.65791,0.66042 c -1.07409,1.07818 -1.92589,2.47512 -1.12523,1.84532 0.49949,-0.3929 1.17654,-0.34242 1.7119,0.12754 0.24064,0.21136 0.43752,0.43721 0.43752,0.50209 0,0.0649 -0.2534,0.22999 -0.5631,0.367 -0.69304,0.30656 -1.15418,0.22868 -1.66393,-0.2811 -0.20317,-0.20317 -0.41795,-0.33964 -0.47712,-0.30308 -0.0592,0.0366 -0.32106,0.54563 -0.58201,1.13126 -0.45807,1.02805 -0.46965,1.08769 -0.33531,1.72813 0.17925,0.85431 0.64282,1.99777 1.14799,2.83126 0.47254,0.77976 2.10413,2.82113 2.30947,2.88958 0.16568,0.0552 2.4272,-1.86005 3.27837,-2.7764 0.49912,-0.5374 0.58871,-0.71569 0.66455,-1.32273 0.0483,-0.38588 0.0522,-0.87896 0.009,-1.09573 -0.0784,-0.39179 -0.55815,-1.20507 -0.71188,-1.20669 -0.0442,-5e-4 -0.2754,0.19412 -0.51368,0.43239 -0.49126,0.49127 -1.01524,0.56571 -1.76802,0.25117 l -0.43565,-0.18205 0.27376,-0.37028 c 0.1506,-0.2036 0.46556,-0.46127 0.70004,-0.57254 0.39173,-0.18593 0.46817,-0.18636 0.94361,-0.004 0.70649,0.26981 0.75115,0.25314 0.45096,-0.16848 -0.14328,-0.20123 -0.33348,-0.57728 -0.42256,-0.8355 -0.15599,-0.4521 -0.1868,-0.47183 -0.83087,-0.53268 -0.3679,-0.0347 -0.73934,-0.10815 -0.82539,-0.16309 -0.19218,-0.12281 -0.68864,-1.07404 -0.60441,-1.15826 0.0334,-0.0333 0.31569,-0.0649 0.62705,-0.0694 0.63436,-0.0108 0.98011,0.22121 1.24959,0.83414 l 0.16375,0.37237 0.0194,-0.43322 c 0.0151,-0.35861 0.037,-0.39058 0.12517,-0.18572 0.0808,0.1881 0.10838,0.1114 0.11506,-0.31881 0.0108,-0.62093 0.27786,-0.9791 0.91415,-1.22016 0.57588,-0.21819 0.62026,-0.18098 0.53406,0.44788 -0.10751,0.78386 -0.35446,1.1179 -0.94406,1.27667 -0.27248,0.0735 -0.49423,0.20079 -0.49273,0.28335 0.009,0.45135 1.09754,2.19228 1.37179,2.19228 0.0523,0 0.0638,-0.19412 0.0252,-0.43116 -0.10105,-0.6228 0.16245,-1.14902 0.71718,-1.43202 0.73483,-0.37488 0.85366,-0.33004 0.85366,0.32213 0,0.30973 -0.081,0.71995 -0.18033,0.91163 -0.16395,0.3171 -0.83885,0.75322 -1.16561,0.75322 -0.0728,0 0.0108,0.26457 0.18249,0.58794 0.22318,0.4164 0.29666,0.7053 0.25184,0.99021 -0.22836,1.45203 1.00747,-1.28279 1.40765,-3.11499 0.60813,-2.7843 0.25724,-5.96267 -0.87747,-7.9486 -0.50697,-0.88727 -0.70471,-1.03471 -0.96358,-0.7184 -0.35937,0.43912 -0.80367,0.67294 -1.27876,0.67294 -0.4782,0 -1.58487,-0.45793 -1.58487,-0.65577 0,-0.21991 0.77094,-0.82574 1.20238,-0.94486 0.47375,-0.13078 1.11106,0.0539 1.54715,0.44865 0.44279,0.40074 0.20446,7e-5 -0.47959,-0.80625 -0.3854,-0.4543 -0.86364,-1.09074 -1.06273,-1.41431 -0.19908,-0.3236 -0.3853,-0.58835 -0.41373,-0.58835 -0.0284,0 -0.25958,0.11139 -0.51362,0.24755 -0.81647,0.43762 -1.45448,0.28509 -2.24398,-0.53647 l -0.4169,-0.43379 0.50478,-0.25754 c 0.29008,-0.14802 0.74189,-0.25754 1.06215,-0.25754 0.49198,0 0.61802,0.0617 1.07493,0.52607 0.3026,0.30756 0.47724,0.42324 0.42045,0.2785 -0.50461,-1.28603 -0.72697,-1.97668 -0.85684,-2.66121 -0.14134,-0.74449 -0.17517,-0.80186 -0.45273,-0.76832 -1.30207,0.15728 -1.68433,0.009 -2.22198,-0.86537 -0.20231,-0.32893 -0.36797,-0.61843 -0.36797,-0.64339 0,-0.15491 1.11931,-0.30048 1.49399,-0.19411 0.59296,0.16805 0.67328,0.23534 1.03231,0.86353 l 0.3176,0.55564 8.6e-4,-1.07917 c 8.8e-4,-0.90804 0.031,-1.06786 0.18722,-1.00792 0.11872,0.0455 0.18572,-0.002 0.18572,-0.1325 0,-0.3767 0.47229,-1.13409 0.80045,-1.28359 0.17882,-0.0814 0.63497,-0.14823 1.01359,-0.14823 h 0.68836 l -0.0839,0.34039 c -0.12604,0.51109 -0.4582,1.02612 -0.84993,1.31767 -0.26835,0.19973 -0.50663,0.25495 -1.02117,0.23669 l -0.67115,-0.0237 v 0.47108 c 0,0.49476 0.16008,1.4531 0.37762,2.26115 0.14629,0.54287 0.36503,0.52077 0.36503,-0.0368 0,-0.86296 0.66114,-1.46838 1.65042,-1.51135 l 0.51571,-0.0224 -0.0427,0.43323 c -0.10709,1.08755 -0.60469,1.60655 -1.6354,1.70559 -0.33652,0.0323 -0.61187,0.11118 -0.61187,0.17538 0,0.22412 0.76008,1.9402 0.91704,2.07048 0.12151,0.10084 0.19261,0.0173 0.30587,-0.36109 0.25952,-0.86622 0.60817,-1.15014 1.49074,-1.21398 0.42382,-0.0306 0.81667,-0.007 0.87301,0.0525 0.16352,0.17301 -0.43571,1.36531 -0.80902,1.60991 -0.22719,0.14888 -0.55976,0.21965 -1.00185,0.2133 -0.36398,-0.004 -0.66177,0.0269 -0.66177,0.0717 0,0.0446 0.50589,0.66025 1.12419,1.36792 0.61833,0.70768 1.2923,1.53095 1.49771,1.82951 0.56655,0.82346 1.16369,2.19972 1.46269,3.37116 0.1478,0.57861 0.27776,1.06133 0.28901,1.07269 0.0108,0.0108 0.022,-1.07478 0.0241,-2.41365 0.004,-1.96987 0.0431,-2.53969 0.21114,-2.98651 0.23596,-0.62757 0.21743,-0.69806 -0.13401,-0.50996 -0.33129,0.17732 -1.12655,0.16289 -1.4675,-0.0267 -0.25731,-0.14306 -1.01589,-1.04653 -1.02334,-1.21883 -0.004,-0.098 0.29977,-0.22723 0.83814,-0.35622 0.65232,-0.15642 1.2213,0.0716 1.64723,0.65943 0.20683,0.28547 0.39759,0.50291 0.42396,0.48315 0.0263,-0.0194 0.37335,-0.36125 0.77101,-0.75892 l 0.72305,-0.72306 -0.58027,0.009 c -0.35179,0.004 -0.70728,-0.0746 -0.9028,-0.20253 -0.29694,-0.19455 -0.94333,-1.26643 -0.94333,-1.56428 0,-0.19778 1.327,-0.1521 1.73694,0.0599 0.36169,0.18701 0.73861,0.74757 0.73861,1.09845 0,0.59764 0.9159,-0.052 1.47443,-1.04571 0.30066,-0.53499 0.30122,-0.53423 -0.50258,-0.66734 -0.82614,-0.13681 -1.16412,-0.56232 -1.40607,-1.77022 -0.0791,-0.39447 -0.0717,-0.40229 0.36646,-0.40229 0.59475,0 1.24145,0.28221 1.47958,0.64568 0.10643,0.16223 0.21459,0.53072 0.24049,0.81882 0.0261,0.28808 0.0749,0.55149 0.10859,0.58532 0.061,0.061 0.24378,-0.5377 0.45593,-1.49281 0.0605,-0.27232 0.11549,-0.39765 0.12238,-0.2785 0.0194,0.35474 0.18248,0.24055 0.44564,-0.31393 0.17214,-0.36263 0.39314,-0.59266 0.72526,-0.75485 0.42354,-0.20684 0.55341,-0.21634 1.14495,-0.084 0.36698,0.0821 0.66723,0.1771 0.66723,0.21093 0,0.0338 -0.17042,0.30926 -0.37859,0.61191 -0.57327,0.83324 -0.84521,0.96646 -1.79241,0.878 l -0.79965,-0.0746 v 0.46798 c 0,0.51405 -0.32186,1.72106 -0.52537,1.97032 -0.0709,0.0869 -0.097,0.1896 -0.058,0.22838 0.0388,0.0388 0.19908,-0.12539 0.35614,-0.3648 0.5483,-0.83642 1.22385,-1.01417 2.18943,-0.57601 l 0.53863,0.2444 -0.35297,0.41744 c -0.19412,0.22961 -0.51176,0.51478 -0.7059,0.63375 -0.43168,0.26456 -1.23572,0.26988 -1.63109,0.0108 -0.16116,-0.10556 -0.3654,-0.15685 -0.45408,-0.11418 -0.0888,0.0427 -0.52325,0.46847 -0.96577,0.94602 -0.72733,0.78495 -0.75723,0.83677 -0.31164,0.53974 0.27108,-0.18076 0.66667,-0.32852 0.87908,-0.32852 0.4293,0 1.22735,0.4755 1.22735,0.7313 0,0.0905 -0.26271,0.30205 -0.5838,0.47021 -0.5101,0.26715 -0.63712,0.28816 -1.0062,0.16632 -0.23232,-0.0767 -0.52134,-0.24871 -0.64224,-0.3823 -0.32956,-0.36416 -0.48916,-0.30182 -0.91135,0.35614 -0.38809,0.60475 -0.74878,1.93003 -0.57049,2.09608 0.053,0.0495 0.11699,0.0342 0.14198,-0.034 0.17517,-0.47705 0.61285,-0.97179 1.00646,-1.13751 0.3848,-0.16202 0.55395,-0.16978 1.01843,-0.0472 0.30635,0.0807 0.6049,0.19455 0.66346,0.25248 0.16547,0.16374 -0.60615,1.18791 -1.02589,1.36175 -0.35459,0.14695 -0.74892,0.13036 -1.52517,-0.0638 l -0.34039,-0.0851 0.002,1.96393 c 0.002,2.65866 -0.0194,2.61012 0.80925,1.80749 0.72389,-0.70116 2.14403,-1.67725 2.99632,-2.05942 0.28872,-0.12948 0.52496,-0.28357 0.52496,-0.34246 0,-0.0588 -0.25755,-0.35385 -0.57234,-0.65548 l -0.57235,-0.54838 0.0525,-0.72635 c 0.0495,-0.68699 0.44004,-1.51469 0.71435,-1.51469 0.0552,0 0.30771,0.25295 0.56104,0.56209 0.60097,0.73344 0.68861,1.32089 0.31287,2.09709 -0.15232,0.31457 -0.25414,0.59471 -0.22633,0.6225 0.0278,0.0278 0.56331,-0.1144 1.19006,-0.3159 0.62673,-0.20144 1.22307,-0.36645 1.32517,-0.36645 0.25719,0 0.23458,-0.0983 -0.13379,-0.58118 -0.67445,-0.88426 -0.61337,-1.69114 0.19347,-2.55622 l 0.47268,-0.50671 0.40093,0.81304 c 0.47927,0.97195 0.44367,1.47939 -0.15146,2.15709 -0.20985,0.23911 -0.34981,0.46665 -0.31084,0.50562 0.10105,0.10105 1.68052,-0.42458 2.15915,-0.71865 0.49064,-0.30148 0.50574,-0.49897 0.0647,-0.84597 -0.96311,-0.75759 -1.01878,-1.70122 -0.17451,-2.95796 0.0922,-0.13724 0.20209,-0.0763 0.53082,0.29491 0.22803,0.2574 0.48226,0.58592 0.56494,0.73005 0.22982,0.40067 0.18743,1.14488 -0.097,1.70246 -0.1409,0.27619 -0.22592,0.53247 -0.18895,0.56948 0.037,0.037 0.46624,-0.32147 0.95378,-0.79667 l 0.88649,-0.86395 -0.6357,-0.70198 c -0.54378,-0.60044 -0.63572,-0.77411 -0.63572,-1.2007 0,-0.2743 0.10924,-0.70539 0.24278,-0.95796 0.45188,-0.85484 0.43656,-0.84903 0.88985,-0.33739 0.22803,0.25737 0.48224,0.58591 0.56494,0.73005 0.22749,0.39659 0.18829,1.14303 -0.0883,1.68553 -0.31768,0.62269 -0.31208,0.71288 0.0261,0.42146 l 0.27364,-0.23579 -0.23202,0.37133 c -0.12755,0.20425 -0.31288,0.49665 -0.41166,0.64985 -0.20511,0.31795 -0.22482,0.31097 0.79432,0.28071 0.54498,-0.0151 0.69672,0.0345 1.06002,0.35337 0.35804,0.31437 0.80316,1.20922 0.6685,1.3439 -0.0226,0.0226 -0.31323,0.0705 -0.64582,0.10643 -0.99843,0.10794 -1.62384,-0.36572 -1.96497,-1.4879 -0.0631,-0.20813 -0.16417,-0.15016 -0.77964,0.44798 -0.38886,0.37786 -0.91559,0.82454 -1.17053,0.99265 -0.51385,0.33884 -0.49114,0.46914 0.0819,0.46983 0.66432,6.3e-4 1.14913,0.40212 1.36536,1.13022 0.25495,0.85854 0.25748,0.84978 -0.24504,0.84978 -0.93786,0 -1.66368,-0.60297 -1.6689,-1.38637 -0.004,-0.63921 -0.12949,-0.64536 -1.58806,-0.0779 -0.75761,0.29476 -1.37822,0.57108 -1.37911,0.61405 -6.4e-4,0.0428 0.2395,0.13876 0.53418,0.21309 1.01001,0.25432 1.39232,0.77595 1.46484,1.99869 l 0.033,0.557 -0.42889,-0.0395 c -0.56662,-0.052 -1.22361,-0.39545 -1.52257,-0.79587 -0.17947,-0.24034 -0.23969,-0.51568 -0.23506,-1.07432 0.004,-0.41315 -0.0303,-0.77385 -0.0754,-0.80158 -0.24588,-0.1519 -3.55274,1.44946 -3.42381,1.65809 0.0351,0.0569 0.29383,0.14197 0.57503,0.18959 0.81055,0.13703 1.32056,0.69575 1.49316,1.63606 0.0779,0.42494 0.11161,0.80275 0.0747,0.83961 -0.0368,0.0368 -0.30032,0.0298 -0.58545,-0.015 -1.05338,-0.16849 -1.74205,-0.95835 -1.74244,-1.99861 -1e-4,-0.28931 -0.0472,-0.52605 -0.1047,-0.52605 -0.17343,0 -1.56928,1.41651 -1.96667,1.99581 -0.59158,0.86243 -1.07883,1.92397 -1.55528,3.38852 -0.51773,1.59148 -0.95565,3.07307 -0.91797,3.10569 0.0767,0.0663 2.75684,-0.47645 3.72752,-0.75487 1.16623,-0.33453 2.67349,-1.00615 2.67349,-1.19129 0,-0.0584 -0.24529,-0.22146 -0.54507,-0.36236 -0.69999,-0.32905 -0.9603,-0.62414 -1.05833,-1.19986 -0.0675,-0.39584 0.0588,-1.48079 0.18874,-1.62373 0.0915,-0.10084 1.16144,0.62254 1.479,0.99993 0.31643,0.37606 0.33356,0.45599 0.26713,1.2482 l -0.0711,0.84645 0.34338,-0.22464 c 0.18874,-0.12345 0.74063,-0.47527 1.22619,-0.78162 0.48554,-0.30638 0.88509,-0.61742 0.88787,-0.69127 0.002,-0.0739 -0.15986,-0.28115 -0.36128,-0.46068 -0.54832,-0.48856 -0.78504,-1.02367 -0.68611,-1.55099 0.1,-0.53266 0.3438,-1.02938 0.61654,-1.25573 0.17236,-0.14306 0.24912,-0.10816 0.56669,0.25655 0.8207,0.94265 0.93386,1.72048 0.36265,2.49307 -0.32251,0.43622 -0.27351,0.51816 0.20123,0.33634 0.19671,-0.0754 0.85211,-0.26974 1.45657,-0.43204 0.60447,-0.16224 1.12403,-0.32006 1.15458,-0.3506 0.0306,-0.0306 -0.1437,-0.34524 -0.38731,-0.69931 -0.51083,-0.74266 -0.5653,-1.25237 -0.20856,-1.95155 0.23099,-0.45258 0.71273,-0.9805 0.80431,-0.88139 0.33767,0.36551 0.81797,1.35805 0.81797,1.69031 0,0.42662 -0.25513,1.04082 -0.5918,1.42476 -0.28844,0.32893 -0.0966,0.39432 0.48007,0.16353 0.81555,-0.32632 1.5638,-0.9002 2.15366,-1.65176 0.6115,-0.7791 0.60027,-0.89894 -0.1228,-1.30849 -0.70345,-0.39844 -0.97791,-0.83668 -0.96725,-1.54441 0.004,-0.32859 0.10105,-0.77554 0.21373,-0.99325 l 0.20468,-0.39581 0.58357,0.44508 c 0.32095,0.24482 0.65122,0.56614 0.73389,0.71405 0.18356,0.32824 0.2051,1.37518 0.0349,1.69302 -0.0681,0.12756 -0.0795,0.25952 -0.0248,0.29328 0.0547,0.0338 0.36075,-0.3749 0.68031,-0.90813 0.31953,-0.53321 0.77629,-1.20329 1.01503,-1.48902 0.48692,-0.58279 0.54731,-0.92185 0.19757,-1.10905 -0.37107,-0.19864 -0.75374,-0.91909 -0.75374,-1.41917 0,-0.60145 0.55912,-1.68118 0.87058,-1.68118 0.0491,0 0.29878,0.30385 0.55455,0.6752 0.41659,0.60487 0.45826,0.73509 0.40015,1.25064 -0.0356,0.31652 -0.18744,0.74115 -0.33707,0.94365 -0.36011,0.48705 -0.24113,0.57125 0.26752,0.18939 0.45204,-0.33938 1.70969,-0.99634 1.77749,-0.92853 0.0235,0.0235 -0.12108,0.15254 -0.32141,0.28683 -0.20037,0.13422 -0.36435,0.27761 -0.36456,0.31867 -2.4e-4,0.0412 0.27752,0.0481 0.6171,0.0151 0.85524,-0.0821 1.28728,0.13099 1.7325,0.85445 0.20532,0.33356 0.37315,0.63135 0.37315,0.66175 0,0.0303 -0.22361,0.11548 -0.49693,0.18917 -0.97896,0.2636 -1.80578,-0.15383 -2.10597,-1.06348 -0.0767,-0.23229 -0.20661,-0.42233 -0.28874,-0.42233 -0.20081,0 -1.3161,1.16479 -1.77773,1.85664 -0.33062,0.49558 -0.79641,1.34015 -0.91829,1.66513 -0.0254,0.0679 0.35441,0.12044 0.8959,0.12389 0.64552,0.004 1.01097,0.064 1.16611,0.19153 0.23564,0.1937 0.92633,1.21975 0.92633,1.37619 0,0.18033 -0.91002,0.384 -1.44583,0.32359 -0.65595,-0.0739 -1.09008,-0.43186 -1.42367,-1.17371 -0.13014,-0.28933 -0.25768,-0.52607 -0.28355,-0.52607 -0.0259,0 -0.22922,0.32029 -0.45191,0.71175 -0.56734,0.9972 -1.6262,2.01857 -2.55384,2.46343 -0.82298,0.39467 -0.87174,0.53816 -0.18292,0.53816 0.53164,0 1.19829,0.30897 1.42509,0.6605 0.14069,0.21804 0.58438,1.37789 0.58438,1.52765 0,0.0217 -0.2749,0.0398 -0.61085,0.0398 -1.18823,0 -1.77602,-0.42569 -2.00587,-1.45272 -0.0834,-0.37208 -0.22293,-0.70396 -0.31033,-0.73753 -0.30736,-0.11806 -2.52467,0.73038 -3.59221,1.37436 -0.59367,0.35815 -1.09858,0.70862 -1.12199,0.77886 -0.0235,0.0703 0.1842,0.16395 0.46149,0.20833 0.76295,0.12195 1.33284,0.7153 1.4866,1.54765 0.20533,1.11169 0.20533,1.11144 -0.43217,0.99235 -1.2054,-0.22522 -1.67267,-0.73308 -1.67267,-1.81797 0,-0.33245 -0.0328,-0.63711 -0.0726,-0.6771 -0.04,-0.04 -0.54692,0.23641 -1.12652,0.6142 -1.20088,0.78278 -2.5462,1.36324 -4.24701,1.83247 -2.90526,0.80154 -4.27074,1.1973 -4.40068,1.27554 -0.29379,0.17688 -3.12731,3.43766 -3.98116,4.58153 -1.2708,1.70245 -2.74585,4.6929 -3.18941,6.46618 l -0.0797,0.31841 1.22011,-0.40756 c 1.3381,-0.44698 2.80646,-0.78625 3.4028,-0.78625 0.41096,0 0.94499,-0.34361 1.79495,-1.15498 0.5653,-0.53966 0.54629,-0.82544 -0.055,-0.82544 -0.44023,0 -1.13501,-0.35946 -1.36079,-0.70404 -0.26231,-0.40033 -0.54102,-1.62655 -0.3908,-1.71938 0.16547,-0.10234 1.09584,0.068 1.4993,0.27453 0.47584,0.24352 0.72665,0.68004 0.81909,1.42569 0.0437,0.35259 0.14414,0.66255 0.22334,0.68882 0.0812,0.0269 0.50816,-0.67311 0.98216,-1.61093 0.78822,-1.55962 0.82905,-1.68102 0.68347,-2.03249 -0.0851,-0.20554 -0.27647,-0.44036 -0.42515,-0.52171 -0.72217,-0.39522 -0.95328,-1.20862 -0.64487,-2.26954 l 0.20576,-0.70768 0.33195,0.17343 c 0.45162,0.23596 0.96818,0.8001 1.13374,1.2382 0.14823,0.39229 0.0747,0.92432 -0.20296,1.46745 -0.34194,0.6691 -0.0328,0.54725 0.85465,-0.33679 0.68108,-0.6785 1.1434,-1.01195 1.91249,-1.37936 0.60824,-0.29057 1.0509,-0.58363 1.1058,-0.7321 0.0504,-0.13617 0.0952,-0.68556 0.0998,-1.22089 0.009,-0.9628 0.0129,-0.97759 0.46019,-1.36156 0.24858,-0.21351 0.62198,-0.48731 0.82974,-0.60841 l 0.37777,-0.22024 0.1422,0.52837 c 0.31059,1.15355 -0.11872,2.13919 -1.06862,2.45264 -0.22103,0.073 -0.43528,0.2197 -0.4761,0.32609 -0.0564,0.14737 -0.0224,0.17129 0.1437,0.1004 0.39624,-0.16912 2.53679,-0.80119 2.67839,-0.79093 0.0765,0.007 -0.0217,0.081 -0.21843,0.16783 -0.51597,0.22784 -0.19499,0.35075 0.4753,0.18205 0.43842,-0.1103 0.64799,-0.10707 0.94221,0.0151 0.43042,0.17839 0.92408,0.76932 1.04398,1.24991 0.0767,0.30785 0.0511,0.32942 -0.49155,0.41078 -0.31496,0.0474 -0.73466,0.0504 -0.93268,0.007 -0.34201,-0.0752 -1.1131,-0.80484 -1.1131,-1.05336 0,-0.0642 -0.1366,-0.20618 -0.30366,-0.31559 -0.2931,-0.19197 -0.35441,-0.17258 -1.76385,0.55956 -0.80307,0.41718 -1.56749,0.83903 -1.69868,0.9375 -0.43598,0.32715 -0.0989,0.33218 0.45631,0.007 0.58477,-0.34272 1.28354,-0.41569 1.73985,-0.18185 0.33614,0.17237 1.07489,0.86334 1.07489,1.00536 0,0.16547 -1.26163,0.71015 -1.64816,0.71149 -0.41714,8.6e-4 -0.75051,-0.16202 -1.29585,-0.63584 -0.64832,-0.56317 -1.06453,-0.48939 -1.83494,0.32528 -0.54153,0.57267 -1.78123,2.70707 -1.78123,3.06679 0,0.18529 0.33944,0.0846 0.56847,-0.16826 0.65424,-0.72297 1.70839,-0.78672 2.49403,-0.15082 0.24456,0.19801 0.44131,0.4132 0.43722,0.47832 -0.004,0.0651 -0.27018,0.29946 -0.59125,0.5207 -0.73546,0.50683 -1.38857,0.53665 -2.10394,0.0961 -0.77741,-0.47879 -0.95478,-0.42324 -1.472,0.46096 -0.24886,0.42547 -0.64611,0.97877 -0.88274,1.22951 -0.23665,0.25074 -0.43025,0.47888 -0.43025,0.50696 0,0.028 0.73803,0.0869 1.64007,0.13056 0.90202,0.0437 1.97426,0.16159 2.38271,0.26224 0.40847,0.10063 0.7786,0.18486 0.82248,0.18724 0.0439,0.002 0.40033,-0.86312 0.79205,-1.92344 0.39171,-1.06032 0.91678,-2.24441 1.16685,-2.63132 0.84581,-1.30864 2.29961,-2.3014 4.21206,-2.87627 1.20152,-0.36118 2.39697,-0.87063 3.34062,-1.42369 0.74186,-0.4348 2.35315,-1.83538 2.35315,-2.04544 0,-0.059 -0.27299,-0.24583 -0.60666,-0.41492 -0.86013,-0.43586 -1.12623,-0.81955 -1.12623,-1.62393 0,-0.36081 0.0558,-0.80249 0.12367,-0.98147 l 0.12367,-0.32546 0.51004,0.28645 c 0.97945,0.55008 1.39829,1.3976 1.12721,2.2809 -0.25671,0.83639 0.0933,0.50873 1.2182,-1.14044 0.63118,-0.92538 1.22171,-1.71093 1.31222,-1.74567 0.27313,-0.10471 0.18787,-0.40336 -0.26677,-0.93454 -0.48982,-0.57225 -0.64512,-1.15205 -0.4548,-1.69802 0.16461,-0.47207 0.75781,-1.25868 0.8884,-1.17797 0.0543,0.0333 0.27078,0.32097 0.48135,0.63889 0.50242,0.75851 0.52383,1.50854 0.0625,2.18751 -0.37912,0.55793 -0.33278,0.66423 0.17517,0.40162 0.20489,-0.106 0.69756,-0.31378 1.09454,-0.46171 1.30652,-0.48678 1.90123,-0.982 2.58916,-2.15586 0.17947,-0.30607 0.28707,-0.63835 0.24719,-0.76276 -0.0388,-0.12129 -0.32186,-0.32348 -0.62886,-0.44943 -0.93337,-0.383 -1.30755,-1.18216 -1.04385,-2.22943 0.0795,-0.31575 0.19282,-0.57408 0.25179,-0.57408 0.059,0 0.38079,0.16827 0.71516,0.37407 0.86543,0.53251 1.19718,1.33204 0.88902,2.14259 -0.24154,0.63526 0.0502,0.42398 0.38896,-0.28157 0.27506,-0.57314 0.49073,-0.82597 0.9687,-1.1357 0.33819,-0.21912 0.61427,-0.45865 0.61354,-0.53229 -6.5e-4,-0.0737 -0.0836,-0.40521 -0.18421,-0.73682 -0.19972,-0.6581 -0.14651,-1.08079 0.19757,-1.57366 0.24008,-0.34386 1.2863,-0.96059 1.41359,-0.83328 0.0425,0.0425 0.10901,0.49889 0.14801,1.01437 l 0.0709,0.93725 -0.48339,0.46725 c -0.26586,0.25697 -0.59406,0.53921 -0.72934,0.62715 -0.23799,0.1547 -0.23693,0.15814 0.0326,0.10449 0.15318,-0.0306 0.27852,-0.0381 0.27852,-0.0172 0,0.0215 -0.29426,0.20446 -0.65394,0.40754 -0.69308,0.39115 -1.25482,0.91213 -0.7695,0.7137 0.13616,-0.0558 0.54198,-0.12884 0.9019,-0.16266 0.64169,-0.0603 0.66384,-0.0511 1.14494,0.46995 0.26983,0.29229 0.49058,0.58069 0.49058,0.64093 0,0.17538 -0.81807,0.46819 -1.30806,0.46819 -0.34597,0 -0.53943,-0.0933 -0.83948,-0.40524 -0.21438,-0.2229 -0.44905,-0.51116 -0.52133,-0.64057 -0.19628,-0.3514 -0.39705,-0.14306 -0.62618,0.64984 -0.59032,2.04264 -1.36799,2.99792 -3.1191,3.83161 -0.63449,0.30207 -1.12957,0.5732 -1.10022,0.60257 0.0293,0.0293 0.20403,-0.004 0.38804,-0.0739 0.70144,-0.26669 1.17869,-0.16267 1.71523,0.37384 0.46128,0.46131 0.48521,0.51697 0.30115,0.70103 -0.1172,0.11721 -0.48652,0.22371 -0.89219,0.25734 l -0.69229,0.0573 -0.53708,-0.58499 c -0.7848,-0.8548 -0.89317,-0.76519 -2.61574,2.16258 -0.77754,1.32153 -1.20318,1.89103 -2.03531,2.7231 l -1.0522,1.05213 1.11399,-0.0342 c 1.15178,-0.0353 2.26733,-0.18205 3.05047,-0.40107 0.43476,-0.12174 0.46616,-0.16978 0.8646,-1.3257 0.47624,-1.38157 1.10214,-2.41987 1.7612,-2.92159 0.51207,-0.38977 1.71267,-0.96091 2.53689,-1.2068 0.29641,-0.0883 0.56689,-0.23363 0.60107,-0.32266 0.0342,-0.089 -0.11097,-0.35894 -0.32234,-0.59977 -0.58243,-0.66335 -0.52667,-1.51455 0.1478,-2.25495 0.13961,-0.15318 0.2973,-0.27851 0.35064,-0.27851 0.0534,0 0.23857,0.24162 0.41164,0.53694 0.41584,0.70957 0.41395,1.36374 -0.007,1.98139 -0.17624,0.25938 -0.28642,0.50562 -0.24484,0.5472 0.19089,0.19089 3.03641,-1.50888 3.03923,-1.81543 6.4e-4,-0.0952 -0.14564,-0.47418 -0.3255,-0.84191 -0.30198,-0.6172 -0.3152,-0.70853 -0.17215,-1.18823 0.14371,-0.48185 0.9699,-1.44796 1.23816,-1.44796 0.13465,0 0.62256,1.27415 0.62256,1.62599 0,0.40858 -0.3799,1.09606 -0.76168,1.37832 -0.51497,0.38073 -0.43063,0.51329 0.11182,0.17581 0.2553,-0.15879 0.54771,-0.33121 0.64983,-0.3831 0.24147,-0.12259 -0.76122,0.78719 -1.51355,1.37343 -0.32186,0.25081 -0.56536,0.47587 -0.54111,0.50013 0.0241,0.0241 0.3006,-0.0215 0.61408,-0.0993 0.89916,-0.22642 1.34528,-0.0784 1.99197,0.66085 0.30946,0.35374 0.56263,0.6813 0.56263,0.72788 0,0.0465 -0.25021,0.18033 -0.55601,0.29706 -1.03169,0.39402 -2.02429,0.009 -2.41699,-0.94018 -0.0793,-0.19132 -0.22084,-0.37732 -0.31458,-0.4133 -0.0937,-0.036 -0.63172,0.17667 -1.19549,0.47244 -0.56377,0.29584 -1.56954,0.77353 -2.23502,1.06159 -1.33189,0.5765 -2.24678,1.29365 -2.75353,2.15832 -0.38746,0.66115 -0.82676,1.92526 -0.66905,1.92526 0.15792,0 0.78764,-0.40248 2.21888,-1.4182 1.44416,-1.02486 2.30952,-1.47127 3.4818,-1.79612 1.29366,-0.35849 2.55924,-0.42679 3.94486,-0.21287 0.64674,0.0998 1.20036,0.15857 1.23029,0.13056 0.03,-0.028 -0.04,-0.31425 -0.15535,-0.63609 -0.25944,-0.72388 -0.26442,-1.17003 -0.0194,-1.64583 0.173,-0.33453 1.07962,-1.10541 1.30005,-1.10541 0.0502,0 0.1883,0.35769 0.30663,0.79484 0.21114,0.78027 0.21028,0.80466 -0.0463,1.33062 -0.1437,0.29465 -0.45643,0.66773 -0.69471,0.82899 -0.23832,0.16116 -0.40727,0.33529 -0.3755,0.38672 0.0749,0.12151 1.0266,-0.0578 1.63159,-0.30724 0.71707,-0.29568 0.80606,-0.4803 0.52742,-1.09397 -0.36649,-0.80723 -0.31679,-1.4725 0.14974,-2.00387 0.21438,-0.24412 0.54367,-0.52347 0.73185,-0.62079 0.34204,-0.17689 0.34222,-0.17667 0.53864,0.39972 0.37204,1.09186 0.20102,1.76627 -0.62846,2.47889 -0.24373,0.20942 -0.27942,0.27869 -0.11678,0.22685 0.20704,-0.0661 0.21416,-0.0504 0.0618,0.13444 -0.0948,0.11505 -0.37925,0.35954 -0.63225,0.54337 -0.53563,0.38916 -0.49383,0.49077 0.2021,0.4914 0.94061,6.4e-4 1.56317,0.63812 1.85813,1.90195 l 0.083,0.35521 -0.78495,-0.05 c -1.25723,-0.0802 -1.58297,-0.4044 -1.88847,-1.88047 -0.067,-0.3238 -0.10665,-0.3466 -0.46981,-0.2707 -0.21813,0.0457 -1.05106,0.11311 -1.85098,0.14996 -0.7999,0.037 -1.4544,0.1157 -1.4544,0.17494 0,0.0592 0.11117,0.29013 0.2471,0.51301 0.39658,0.65047 0.32966,1.31199 -0.20166,1.99408 -0.24738,0.31754 -0.49304,0.57732 -0.54593,0.57732 -0.13573,0 -0.73718,-1.23854 -0.73718,-1.51778 0,-0.3234 0.21329,-0.70455 0.65623,-1.17253 0.20834,-0.22025 0.33654,-0.44287 0.28466,-0.49473 -0.15448,-0.15448 -1.73841,-0.0578 -2.56547,0.15641 -0.42311,0.10967 -1.10794,0.3682 -1.52184,0.57465 -0.70354,0.35084 -2.78674,1.81582 -2.79237,1.96364 -0.009,0.20899 2.36132,1.32285 3.26226,1.53353 0.32435,0.0758 0.35003,0.058 0.28864,-0.20145 -0.037,-0.15663 -0.15275,-0.51468 -0.25737,-0.79572 -0.25389,-0.68276 -0.0851,-1.27949 0.55099,-1.94933 l 0.48474,-0.51038 0.24743,0.30945 c 0.67078,0.83899 0.62329,1.80847 -0.12432,2.53852 -0.27171,0.26531 -0.494,0.52679 -0.494,0.58104 0,0.17774 0.99169,0.10362 1.97624,-0.14781 0.53095,-0.13552 1.19938,-0.26754 1.48539,-0.29331 0.60976,-0.055 0.77983,-0.2105 0.97134,-0.88878 0.24734,-0.87587 1.05537,-1.40579 2.15817,-1.41536 0.29715,-0.002 0.34039,0.0446 0.34039,0.37237 0,0.50904 -0.27149,1.10924 -0.66652,1.47357 -0.24962,0.23023 -0.50258,0.31436 -1.06807,0.35528 -0.40752,0.0295 -0.74096,0.10255 -0.74096,0.16245 0,0.0599 0.10041,0.1088 0.22331,0.1088 0.26346,0 1.24366,0.60223 1.50958,0.92745 0.17387,0.21265 0.16805,0.21769 -0.0929,0.0788 -0.3653,-0.19477 -0.35684,-0.0513 0.0151,0.24057 0.45883,0.36094 0.63549,0.90606 0.47125,1.45427 -0.0758,0.25307 -0.21799,0.56973 -0.31593,0.70366 -0.17711,0.2421 -0.17969,0.24207 -0.4495,-0.002 -0.62991,-0.57005 -0.76504,-1.2403 -0.37804,-1.87504 0.35438,-0.58113 0.21783,-0.8587 -0.56687,-1.15229 -0.75825,-0.2837 -1.46126,-0.31878 -2.16463,-0.10816 -0.55648,0.16676 -0.59188,0.28884 -0.17796,0.61436 0.16525,0.12992 0.36336,0.42681 0.44015,0.65956 0.11872,0.35991 0.0993,0.5169 -0.13014,1.05019 -0.14844,0.34483 -0.31278,0.62696 -0.36544,0.62696 -0.0525,0 -0.26858,-0.19692 -0.47988,-0.43752 -0.46196,-0.52617 -0.50791,-1.12777 -0.13249,-1.73512 0.13831,-0.2239 0.20705,-0.43456 0.15275,-0.46816 -0.0543,-0.0336 -0.4025,0.0173 -0.77368,0.11397 -0.76311,0.19801 -1.5776,0.22004 -2.26094,0.0612 -0.51773,-0.12023 -0.58342,-0.0326 -0.22129,0.29514 0.13358,0.12087 0.30629,0.41182 0.38372,0.6465 0.12302,0.37275 0.1032,0.49995 -0.1575,1.0062 -0.16396,0.31873 -0.37624,0.57952 -0.47162,0.57952 -0.26317,0 -0.74024,-0.791 -0.74024,-1.22734 0,-0.21244 0.13767,-0.58865 0.30573,-0.8361 0.3314,-0.48771 0.28434,-0.60819 -0.30573,-0.78288 -0.17021,-0.0504 -0.80307,-0.33502 -1.40638,-0.63258 l -1.09692,-0.54098 -0.34765,0.24754 c -0.62574,0.44557 -2.14283,1.10228 -3.12405,1.35233 -0.52913,0.13488 -1.81022,0.30424 -2.8469,0.37646 -3.31122,0.23062 -4.3836,0.45413 -5.84147,1.21753 -2.04371,1.07019 -3.08977,2.84089 -3.18578,5.39262 l -0.0368,0.97707 0.79476,0.40864 0.79475,0.40867 0.35177,-0.29601 c 0.19347,-0.16287 0.93591,-0.57568 1.64987,-0.91751 0.71394,-0.34184 1.29807,-0.6964 1.29807,-0.78795 0,-0.0915 -0.17215,-0.29373 -0.3827,-0.44934 -0.39839,-0.29454 -0.73131,-0.92469 -0.73131,-1.38423 0,-0.31096 0.60945,-1.72139 0.74382,-1.72139 0.22776,0 1.10451,1.12929 1.17707,1.51611 0.0838,0.44674 -0.159,1.20426 -0.51021,1.59245 -0.13164,0.14543 -0.14736,0.23463 -0.0517,0.2938 0.32872,0.20317 3.29474,-2.57035 3.15053,-2.94609 -0.0441,-0.11484 -0.13056,-0.20877 -0.19239,-0.20877 -0.20533,0 -0.60289,-0.79844 -0.60337,-1.21176 -2.6e-4,-0.22397 0.11763,-0.6388 0.26206,-0.92181 l 0.26254,-0.5146 0.48013,0.51475 c 0.56608,0.60686 0.63459,1.17351 0.2225,1.84032 -0.33917,0.54877 -0.19865,0.52673 0.44926,-0.0705 0.52007,-0.4794 1.62971,-1.12174 1.93778,-1.12174 0.0864,0 -0.13918,0.1995 -0.50135,0.4435 -0.73657,0.49601 -0.77916,0.64487 -0.10385,0.36269 0.89396,-0.37352 1.54535,-0.15081 2.1113,0.72208 l 0.32714,0.50448 -0.52694,0.16418 c -0.80573,0.25097 -1.56821,0.13034 -1.9464,-0.30776 -0.17236,-0.19972 -0.37655,-0.46981 -0.45368,-0.60013 -0.1353,-0.22866 -0.1519,-0.22614 -0.4785,0.0726 -0.54545,0.49898 -2.20023,2.48284 -2.12976,2.55332 0.0356,0.0356 0.27945,-0.0778 0.54209,-0.25147 0.71459,-0.47288 1.16434,-0.52232 1.8281,-0.20102 0.30966,0.14995 0.67819,0.41899 0.81899,0.59798 0.24594,0.31267 0.24716,0.33221 0.0314,0.49825 -0.9688,0.74553 -1.97362,0.77621 -2.70895,0.0827 -0.23947,-0.22586 -0.51102,-0.43967 -0.60343,-0.47513 -0.0924,-0.0354 -0.43805,0.18658 -0.76809,0.49362 -0.71947,0.66914 -1.27462,1.05555 -2.54959,1.77475 -0.5276,0.29762 -0.95927,0.58964 -0.95927,0.64897 0,0.28946 1.98973,-0.13379 4.98925,-1.06154 0.80386,-0.2486 1.56109,-0.45202 1.68273,-0.45202 0.35539,0 1.63036,-0.89562 2.30756,-1.62096 0.34352,-0.3679 0.93271,-1.08669 1.30935,-1.59726 0.37664,-0.5106 0.98356,-1.22046 1.34873,-1.57753 l 0.66393,-0.64918 -0.34737,-0.36257 c -0.51988,-0.54264 -0.57016,-1.29594 -0.13595,-2.03683 0.18464,-0.3149 0.38719,-0.57256 0.45029,-0.57256 0.2161,0 0.85196,1.15902 0.85196,1.55288 0,0.23756 -0.14565,0.59154 -0.37211,0.9041 -0.4232,0.58423 -0.41,0.60101 0.2223,0.28202 0.89098,-0.44948 1.06925,-0.40235 0.33548,0.0888 -0.81493,0.54537 -1.81271,1.50453 -1.56509,1.50453 0.086,0 0.36256,-0.16589 0.61483,-0.36859 0.82188,-0.66049 1.65419,-0.61636 2.47607,0.13121 0.49131,0.44691 0.44277,0.54133 -0.53136,1.0342 -0.81634,0.41304 -1.34243,0.36803 -1.95636,-0.16741 -0.21981,-0.19175 -0.51213,-0.38356 -0.64966,-0.4264 -0.25399,-0.0791 -0.40907,0.10924 -1.28488,1.56076 -0.27644,0.45815 -0.19412,0.64661 0.11828,0.27034 0.48567,-0.58519 1.41024,-0.6991 2.27279,-0.28002 0.46686,0.22681 0.53457,0.30378 0.43345,0.49274 -0.0659,0.12324 -0.32635,0.36425 -0.57871,0.53573 -0.61059,0.4149 -1.30498,0.41575 -1.91333,0.002 -0.25046,-0.1702 -0.50949,-0.30945 -0.57563,-0.30945 -0.0661,0 -0.23442,0.18464 -0.3739,0.41044 -0.13961,0.22573 -0.36687,0.51285 -0.50521,0.63805 -0.13832,0.12517 -0.25156,0.26671 -0.25156,0.31438 0,0.0476 0.40637,0.11742 0.90302,0.15513 0.49667,0.0375 1.30489,0.20317 1.79608,0.3678 l 0.89303,0.2995 0.51507,-0.69031 c 1.20874,-1.61999 2.03555,-2.36367 2.97907,-2.67952 0.65782,-0.22021 0.69378,-0.32478 0.38751,-1.12673 -0.27491,-0.71984 -0.14909,-1.22547 0.46704,-1.87849 0.54935,-0.58217 0.57439,-0.57687 0.91762,0.19411 0.0976,0.21908 0.17732,0.60459 0.17732,0.85672 0,0.38311 -0.0933,0.54791 -0.5686,1.00323 -0.31273,0.29965 -0.54183,0.57159 -0.50911,0.60431 0.0328,0.0328 0.66458,-0.009 1.40409,-0.0894 1.52479,-0.16891 1.65406,-0.25255 1.65406,-1.07003 0,-0.76072 0.26526,-1.19276 0.92187,-1.5014 0.30842,-0.14499 0.61218,-0.26359 0.675,-0.26359 0.0629,0 0.1519,0.22234 0.19779,0.49406 0.14952,0.88491 -0.27466,1.46974 -1.36137,1.87705 l -0.37135,0.13919 0.30945,0.0941 c 0.17021,0.052 0.25376,0.10234 0.18572,0.11224 -0.0681,0.0108 -0.73647,0.17883 -1.48534,0.37506 -1.12167,0.29392 -1.27055,0.35827 -0.84499,0.36539 0.66335,0.0108 1.19142,0.441 1.44085,1.17312 l 0.18485,0.54223 -0.34797,0.0696 c -0.80743,0.16159 -1.67028,-0.38495 -1.81016,-1.14628 -0.0966,-0.52529 -0.24354,-0.64608 -0.6638,-0.54531 -1.05333,0.25257 -2.05626,1.10498 -3.08512,2.62206 -0.42021,0.61963 -0.49836,0.81082 -0.36529,0.89381 0.27269,0.16999 1.78356,0.48405 2.32888,0.48405 0.59137,0 0.64957,-0.18916 0.19068,-0.62021 -0.17106,-0.16052 -0.36842,-0.50586 -0.43881,-0.76727 -0.11117,-0.41319 -0.0846,-0.57178 0.20403,-1.21488 0.18249,-0.40679 0.36961,-0.73962 0.41565,-0.73962 0.12216,0 0.6958,0.63625 0.85758,0.95111 0.23083,0.44934 0.16202,1.08441 -0.17064,1.57453 -0.41653,0.61382 -0.39822,0.741 0.0929,0.64417 0.66094,-0.13034 1.58354,-0.64671 2.56384,-1.43498 0.50808,-0.40856 1.21301,-0.8627 1.56648,-1.00921 0.71588,-0.29672 0.90116,-0.57399 0.82159,-1.22947 -0.0901,-0.74124 0.23013,-1.2932 0.96638,-1.66627 0.7635,-0.38691 0.85379,-0.31975 0.85665,0.63712 0.002,0.77713 -0.29845,1.21073 -1.06897,1.54104 -0.6072,0.26026 -0.71001,0.46729 -0.19778,0.39837 0.29696,-0.0399 0.79865,0.0685 1.85862,0.40172 0.23191,0.0728 0.37956,-0.0215 0.85338,-0.54341 0.66344,-0.73134 1.07919,-0.86235 2.02004,-0.63665 l 0.62309,0.14953 -0.27936,0.50164 c -0.40877,0.73409 -0.87675,0.98998 -1.64092,0.89725 -0.83395,-0.10126 -1.52949,-0.16503 -2.7983,-0.25688 -0.97651,-0.0707 -1.12109,-0.0506 -1.73289,0.24154 -0.70186,0.33507 -2.58603,1.74336 -2.58603,1.93289 0,0.16159 1.73056,0.9733 2.16609,1.01607 0.37105,0.0364 0.37137,0.0358 0.38641,-0.65373 0.0194,-0.88125 0.16029,-1.13229 0.85478,-1.52041 l 0.56413,-0.31529 0.12841,0.33462 c 0.28737,0.74819 -0.31951,1.88183 -1.00744,1.88183 -0.13509,0 -0.2456,0.0778 -0.2456,0.17257 0,0.21223 0.75108,0.0687 1.59582,-0.30503 0.30067,-0.13293 0.57519,-0.2133 0.61005,-0.17839 0.0349,0.0349 -0.004,0.0633 -0.0883,0.0633 -0.0834,0 -0.11721,0.0558 -0.0752,0.12367 0.042,0.0681 0.32124,0.12388 0.62036,0.12388 0.29914,0 0.68712,0.0652 0.86219,0.145 0.36989,0.16848 0.74415,0.73458 0.86571,1.30936 0.0804,0.37954 0.0652,0.40212 -0.26516,0.39931 -1.07018,-0.009 -2.02122,-0.61293 -2.02122,-1.2835 0,-0.52872 -0.25353,-0.59078 -1.05961,-0.2594 -0.48106,0.19778 -0.98116,0.30323 -1.44688,0.30517 -0.39145,8.3e-4 -0.71172,0.053 -0.71172,0.11397 0,0.0612 0.13853,0.35358 0.30794,0.64984 0.47782,0.83584 0.37144,1.38701 -0.41138,2.13111 l -0.37307,0.35461 -0.31874,-0.62901 c -0.17537,-0.34595 -0.31876,-0.80531 -0.31876,-1.02078 0,-0.42877 0.39296,-1.15988 0.68328,-1.27129 0.30247,-0.11613 0.20683,-0.41353 -0.15728,-0.48914 -0.18723,-0.0388 -0.64673,-0.25596 -1.02119,-0.48239 l -0.68078,-0.41172 -0.74264,0.29938 c -0.86876,0.35022 -2.07267,0.46412 -3.03257,0.28693 -0.37444,-0.0691 -0.69871,-0.10793 -0.72066,-0.0864 -0.0218,0.0215 0.51088,0.40239 1.18398,0.84622 0.67314,0.44385 1.29667,0.8947 1.38565,1.0019 0.24783,0.29865 0.34699,0.24123 0.60995,-0.35327 0.29519,-0.66733 0.76146,-0.9371 1.6196,-0.9371 0.7095,0 0.7382,0.0599 0.38089,0.79642 -0.32127,0.66222 -0.66208,0.85799 -1.4578,0.83741 -0.35741,-0.009 -0.64984,0.004 -0.64984,0.0284 0,0.025 0.13854,0.28771 0.30797,0.58397 0.39952,0.69889 0.39772,0.89023 -0.004,0.34615 -0.39543,-0.53658 -1.18444,-1.16785 -1.94064,-1.55269 -0.75132,-0.38233 -0.83413,-0.37428 -0.44467,0.0433 0.70986,0.76107 0.76808,1.31911 0.22667,2.17282 -0.20274,0.31968 -0.41971,0.58124 -0.4822,0.58124 -0.22103,0 -0.88208,-1.19545 -0.88208,-1.59515 0,-0.4358 0.24588,-0.99353 0.54884,-1.24496 0.10665,-0.0885 0.19391,-0.20576 0.19391,-0.26052 0,-0.055 -0.34813,-0.30929 -0.7736,-0.56548 -0.42549,-0.25619 -1.07447,-0.68597 -1.4422,-0.95504 -1.49241,-1.0921 -3.56747,-1.21801 -6.0773,-0.3688 -0.5106,0.1728 -0.97209,0.3544 -1.02556,0.40368 -0.0534,0.0493 0.3166,0.20985 0.82239,0.35676 0.5058,0.14694 1.29559,0.4359 1.75511,0.64206 0.45948,0.20619 0.86727,0.34304 0.90618,0.30415 0.0388,-0.039 0.12841,-0.2471 0.19886,-0.46267 0.18421,-0.56343 0.8303,-0.95758 1.56986,-0.95758 0.68294,0 0.70873,0.0592 0.36004,0.82729 -0.30252,0.66628 -0.8391,0.96253 -1.54033,0.85038 l -0.50571,-0.0808 0.74099,0.51453 c 0.40757,0.28299 0.86223,0.62579 1.01037,0.76179 0.32015,0.29391 0.5352,0.20209 0.5352,-0.22873 0,-0.37174 0.61865,-1.03528 0.96525,-1.03528 0.13293,0 0.41567,-0.0349 0.6284,-0.0774 0.36155,-0.0724 0.38677,-0.0541 0.38635,0.2785 -6e-4,0.47472 -0.41896,1.13777 -0.81221,1.28727 -0.17451,0.0664 -0.51919,0.12065 -0.76577,0.12065 h -0.44792 l 0.36353,0.38919 c 0.30386,0.32531 0.20597,0.28403 -0.59573,-0.25133 -0.5276,-0.35228 -0.95927,-0.60875 -0.95927,-0.56992 0,0.0388 0.11635,0.29844 0.25829,0.5769 0.33811,0.66272 0.23553,1.24274 -0.31756,1.79585 -0.22609,0.2261 -0.46632,0.41108 -0.53379,0.41108 -0.19327,0 -0.52094,-0.94378 -0.52094,-1.5002 0,-0.4121 0.0797,-0.58469 0.43322,-0.93822 0.23826,-0.23827 0.43321,-0.45316 0.43321,-0.47751 0,-0.20618 -2.6793,-1.37756 -2.82267,-1.2342 -0.0372,0.0375 0.0744,0.22064 0.24821,0.40715 0.71936,0.77138 0.7929,1.52428 0.2348,2.4043 -0.19757,0.31155 -0.4158,0.60141 -0.48494,0.64416 -0.0691,0.0427 -0.32901,-0.24305 -0.57751,-0.63506 -0.39178,-0.61801 -0.44497,-0.79019 -0.40018,-1.29546 0.0336,-0.38068 0.16546,-0.73189 0.37975,-1.0129 0.18054,-0.23663 0.32811,-0.48177 0.32811,-0.54483 0,-0.0631 -0.62661,-0.2616 -1.3925,-0.44122 l -1.3925,-0.32663 -0.86645,0.27825 c -0.72718,0.23356 -1.13502,0.27744 -2.53745,0.27311 -1.60045,-0.004 -1.72324,-0.0239 -2.90877,-0.45072 -4.05759,-1.46065 -4.17503,-1.49542 -5.25441,-1.55521 -1.82728,-0.10126 -4.85179,0.46397 -6.23562,1.1652 -1.38655,0.70265 -2.6111,2.42313 -2.99945,4.21427 -0.10384,0.47926 -0.23365,2.14253 -0.30208,3.87262 -0.0659,1.66791 -0.17538,3.53384 -0.24335,4.14654 -0.16052,1.44931 -0.16052,4.49117 2.3e-4,5.48159 0.2867,1.76672 1.1378,3.86338 2.2283,5.48936 0.29065,0.43338 1.23455,1.49811 2.09756,2.36612 l 1.56908,1.57818 -1.12392,-0.002 c -1.28106,-0.002 -2.32044,-0.21115 -2.97642,-0.5981 -0.24831,-0.1465 -0.47617,-0.26643 -0.50631,-0.26643 -0.13897,0 -0.0312,0.81599 0.19111,1.44874 0.13529,0.38495 0.23274,0.70991 0.21661,0.72214 -0.0173,0.0129 -0.33574,-0.16309 -0.71017,-0.38989 z"
     inkscape:connector-curvature="0" />
</svg>
