<?xml version="1.0" encoding="UTF-8" standalone="no"?>
<!-- Generator: Adobe Illustrator 18.0.0, SVG Export Plug-In . SVG Version: 6.00 Build 0)  -->

<svg
   xmlns:dc="http://purl.org/dc/elements/1.1/"
   xmlns:cc="http://creativecommons.org/ns#"
   xmlns:rdf="http://www.w3.org/1999/02/22-rdf-syntax-ns#"
   xmlns:svg="http://www.w3.org/2000/svg"
   xmlns="http://www.w3.org/2000/svg"
   xmlns:sodipodi="http://sodipodi.sourceforge.net/DTD/sodipodi-0.dtd"
   xmlns:inkscape="http://www.inkscape.org/namespaces/inkscape"
   version="1.1"
   id="Layer_1"
   x="0px"
   y="0px"
   viewBox="0 0 234.44921 234.44921"
   width="256"
   height="256"
   enable-background="new 0 0 380.2 220.6"
   xml:space="preserve"
   sodipodi:docname="artania.svg"
   inkscape:version="0.92.4 (5da689c313, 2019-01-14)"><metadata
   id="metadata55"><rdf:RDF><cc:Work
       rdf:about=""><dc:format>image/svg+xml</dc:format><dc:type
         rdf:resource="http://purl.org/dc/dcmitype/StillImage" /><dc:title /></cc:Work></rdf:RDF></metadata><defs
   id="defs53"><inkscape:path-effect
     effect="skeletal"
     id="path-effect5221"
     is_visible="true"
     pattern="m 296.48789,-3.9203432 c 0.24066,0.601653 0.24066,1.403853 0.0802,2.045616 -0.0401,0.04011 -0.0802,0.04011 -0.12033,0 -0.12033,-0.561537 -0.24066,-1.123081 -0.44122,-1.684625 -0.12033,-0.320881 -0.52143,-0.601651 -0.36099,-0.962644 0.0802,-0.08022 0.24066,-0.08022 0.36099,-0.04011 0.20056,0.200551 0.32089,0.401102 0.48133,0.641763 m 6.41762,5.615424 c 0.44122,0.521433 0.76211,1.082976 0.60166,1.76485 -0.0802,0.120329 -0.0401,0.360991 -0.24066,0.401099 -0.0802,0.04011 -0.16044,-0.04011 -0.16044,-0.12033 -0.0401,-0.360988 -0.0401,-0.762094 -0.24066,-1.042865 -0.24066,-0.240659 -0.52144,-0.721981 -0.92254,-0.721981 -0.28077,0.08022 -0.48132,0.4011 -0.64175,0.601652 0,0.04011 -0.0401,0.04011 -0.0802,0 -0.16044,-0.4011 0.16044,-0.721982 0.28077,-1.042862 0.24067,-0.240664 0.20055,-0.92253703 0.72199,-0.72198803 0.36098,0.24066203 0.44121,0.64176303 0.68186,0.88242503 m -0.8423,4.773113 c 0.0401,0.24066 0.0401,0.601655 -0.20056,0.762093 -0.24065,0.08022 -0.56153,0.120329 -0.8423,0.08022 -0.0802,-0.0401 -0.16046,-0.08022 -0.12034,-0.160437 0.12034,-0.360992 0.48132,-0.762096 0.88242,-0.842314 0.0802,0 0.24066,0 0.28078,0.16044 m -29.28043,-14.640216 c 0.96263,0.24066 2.0055,0.24066 2.72749,1.002754 0.4011,0.481322 0.44121,1.323636 0.12032,1.804958 -0.56154,0.962645 -1.68463,1.443967 -2.3665,2.28628 -0.68187,0.56154 -0.92254,1.443966 -0.72198,2.32638997 0.24067,0.762096 1.00276,1.283525 1.76484,1.323636 1.20332,0.04011 2.08574,-0.56154 3.04838,-1.123084 0.96264,-0.68187397 1.84507,-1.56429897 2.92804,-1.84506897 0.72199,-0.240662 1.52419,-0.120333 2.24617,-0.401102 0.7621,-0.160441 1.36374,-0.802201 1.9654,-1.363745 0.68188,-0.561542 1.48408,-0.882425 2.36651,-0.842314 0.8022,0.12033 1.24341,-0.601653 1.80495,-1.082975 0.92254,-0.842313 2.12584,-0.922534 3.20882,-1.403857 0.76209,-0.24066 1.36374,-0.802203 2.08573,-1.163195 0.68187,-0.280771 1.6044,-0.360991 2.28628,-0.08022 0.44121,0.200551 0.92253,0.401102 1.32363,0.721983 l 3.24893,2.727493 c 0.0401,0.120331 0.16044,0.200551 0.24066,0.24066 0.92254,1.123086 1.88518,2.206059 2.64727,3.449476 0.24066,0.441214 0.36099,0.88242197 0.48132,1.36374597 0.16045,1.84506903 0.64177,3.44947403 1.24342,5.05388103 0.16044,0.240662 0.48132,0.441214 0.64176,0.681874 0.52144,0.721985 0.84232,1.64452 1.68464,2.125839 l 0.48132,0.240662 c 0.0401,0.04011 0.0401,0.120333 0,0.160444 l -0.0802,0.08022 c -1.00275,0.160441 -1.76484,-0.441211 -2.28628,-1.163195 -0.32088,-0.641762 -0.76209,-1.323636 -1.48407,-1.604409 -0.0401,0 -0.0802,0.04011 -0.0802,0.04011 0.0802,0.240662 0.32088,0.401099 0.40111,0.601653 0.28077,0.441212 0.52143,0.922533 0.64176,1.403858 0.16044,0.52143 0.72198,0.882422 1.1632,1.163193 l 0.64176,0.320881 c 0.0802,0.04011 0.12033,0.160441 0.0401,0.240662 l -0.0802,0.04011 c -1.08298,0.04012 -2.04563,-0.320881 -2.80773,-1.123081 -0.16043,-0.200555 -0.40109,-0.360993 -0.68186,-0.360993 -0.48132,0.441211 -0.96265,0.842311 -1.60441,0.882422 -0.68187,-0.12033 -1.40386,-0.12033 -2.00551,0.120333 -0.56154,0.200548 -1.12308,0.44121 -1.72473,0.44121 -0.28078,0 -0.60166,-0.120329 -0.72199,-0.401102 0,-0.36099 -0.24066,-0.762095 -0.0401,-1.123084 l 0.40111,-0.601655 c 0,-0.08022 -0.0401,-0.160437 -0.12033,-0.160437 -0.16044,-0.04011 -0.44122,0.240662 -0.52144,-0.04011 0.0401,-0.601651 0.64177,-1.002757 1.04287,-1.403857 0.0802,-0.481319 0.28077,-0.922533 0.64176,-1.323636 0,-0.0401 -0.0401,-0.12033 -0.12033,-0.12033 -0.52143,0.08022 -1.04286,0.200552 -1.60441,0.200552 -0.44121,0.240659 -1.00275,0.4011 -1.52418,0.240659 -0.12033,-0.08022 -0.0802,-0.200551 -0.0401,-0.28077 0.56154,-0.762096 0.76209,-1.724739 0.60165,-2.647275 -0.0401,-0.04011 -0.0401,-0.120326 -0.12032,-0.120326 -0.0802,0 -0.0802,0.08022 -0.12033,0.120326 -0.12033,0.882425 -0.40111,1.564299 -0.88242,2.326393 -0.361,0.360993 -0.92254,0.360993 -1.40387,0.481323 -0.12033,0.04011 -0.24066,0.16044 -0.24066,0.28077 0,0.320882 0.20055,0.521432 0.32088,0.802203 l 1.04287,1.925291 c 0.0401,0.521432 -0.20055,1.042865 -0.32088,1.524186 0.0401,0.08022 0.12033,0.04011 0.20055,0 0.36099,-0.320884 0.60165,-0.762091 0.76209,-1.243416 0.0401,-0.200551 -0.0401,-0.441211 -0.12033,-0.601652 l -1.08298,-2.165949 c 0.0802,-0.12033 0.24067,-0.12033 0.361,-0.160442 0.24066,0 0.48133,0.120331 0.72198,0.20055 0.24066,0.641762 0.52144,1.323638 0.96265,1.885179 0.0802,0.360995 0.20054,0.842314 -0.0401,1.123084 -0.24066,0.481325 -0.48133,0.882425 -0.80221,1.323636 -0.28077,0.280773 -0.68187,0.240662 -1.08298,0.280773 h -0.12032 c -0.96265,0.521434 -1.9654,0.8423142 -3.00827,1.1631962 -0.44121,0.200551 -0.96264,0.04011 -1.32364,-0.240663 -0.36098,-0.28077 -0.52143,-0.6818732 -0.76209,-1.0428622 -0.28077,-0.360993 -0.72198,-0.04011 -1.04286,-0.240663 -0.28078,-0.441211 -0.56155,-0.882425 -0.80221,-1.363743 0,-0.120333 0,-0.240663 0.12033,-0.320882 0.361,-0.120332 0.7621,-0.120332 1.1632,-0.160443 0.36099,-0.04011 0.7621,0.04011 1.00276,0.28077 0.48131,0.561544 0.68187,1.323636 1.40385,1.684631 0.56154,0.04011 1.04287,-0.120333 1.52419,-0.360995 0.28077,-0.160437 0.60164,-0.4011 0.60164,-0.762092 -0.0401,-0.721984 -0.52142,-1.283526 -1.12308,-1.684629 -0.60165,-0.32088 -1.24342,-0.762092 -1.68463,-1.323636 -0.24066,-0.32088 -0.28077,-0.681873 -0.4011,-1.002754 -0.0401,-0.08022 -0.20054,-0.08022 -0.24065,-0.0401 -0.24067,0.200548 -0.0401,0.56154 -0.0401,0.8022 0.0401,0.160444 0.12033,0.360992 0.0401,0.481324 -0.361,0.280771 -0.84232,0.12033 -1.28353,0.160438 -0.88242,-0.04011 -1.72475,-0.4011 -2.64728,-0.320881 -0.88242,0.04011 -2.08572,0.641763 -2.72749,-0.240656 -0.32088,-0.842318 -0.24065,-1.84507 -0.0802,-2.687386 0,-0.08022 -0.0802,-0.16044 -0.16043,-0.16044 -0.0802,-0.04011 -0.16045,0 -0.20055,0.08022 -0.24067,0.842311 -0.28078,1.764847 -0.48133,2.647272 -0.32088,0.762095 -0.88242,1.564295 -1.64452,1.965398 -0.68187,0.360992 -1.48408,0.481322 -2.32639,0.561541 -1.52418,0.04011 -2.92804,0.320881 -3.89069,1.64452 -0.0802,0.12033 -0.20054,0.240663 -0.16044,0.4011 0.0401,0.04011 0.16044,0.08022 0.20056,0.04011 1.04286,-1.163196 2.36649,-1.644518 3.89069,-1.564299 1.44396,0 2.88792,-0.240659 3.81046,-1.484076 0.24066,-0.28077 0.4011,-0.561544 0.60166,-0.882425 0.16043,0 0.28076,0.200554 0.40109,0.280774 0.0401,0.441213 -0.32088,0.721983 -0.48132,1.082976 -0.20055,0.4011 -0.4011,0.882424 -0.80221,1.123081 -0.48131,0.120333 -0.88242,0.441214 -1.32363,0.681876 -0.44121,0.200549 -1.00275,0.280771 -1.52419,0.160441 -0.64176,-0.120329 -1.52418,-0.280773 -2.16595,0 -0.32087,0.200551 -0.60165,0.561541 -0.92253,0.762092 -0.44121,0.200552 -0.84231,0.5615432 -1.36374,0.5214332 -0.36099,-0.08022 -0.80221,-0.3208812 -1.12309,0 -0.4011,0.360992 -0.48132,1.002754 -1.00276,1.243414 -0.60165,0.320882 -1.24341,0 -1.84506,-0.04011 0.0802,-0.601652 0.16044,-1.163192 0.56154,-1.6044062 0.24066,-0.04011 0.44122,-0.08022 0.64176,-0.24066 0.24066,-0.200551 0.40111,-0.481322 0.56155,-0.762092 0.52143,-0.320881 1.12308,-0.561544 1.44396,-1.123087 0.24067,-0.521433 0.24067,-1.002754 0.64177,-1.484077 l 0.20054,-0.08022 1.08298,-0.08022 c 0.44122,-0.200552 0.84232,-0.401103 1.24342,-0.721984 0.12033,-0.12033 0.16043,-0.320882 0.12033,-0.521431 -0.20056,-0.521432 -0.361,-0.882424 -0.48132,-1.443968 -0.12033,-0.561543 -0.0401,-1.123084 -0.12033,-1.76485 -0.0401,-0.04011 -0.0802,-0.160438 -0.16044,-0.160438 -0.72199,0.160438 -1.40386,0.360993 -2.20607,0.240663 -1.08297,-0.120333 -2.20606,-0.84231703 -2.60716,-1.92529003 -0.36099,-0.92253597 -0.28077,-2.24617197 0.4011,-3.00826197 0.64177,-0.802206 1.44397,-1.403858 2.24618,-2.085731 0.12032,-0.08022 0.12032,-0.240661 0.16043,-0.360992 0,-0.16044 -0.16043,-0.280771 -0.28076,-0.360992 -0.48132,-0.12033 -1.04287,0.04011 -1.52419,-0.16044 -0.84232,-0.280771 -1.48408,-1.082976 -1.60441,-1.9654 -0.0401,-0.401101 0.0401,-0.721983 0.24066,-1.042864 0.64176,0.561543 1.12308,1.042864 1.72474,1.203305 m -2.40661,17.929252 v 0.120329 c -0.20055,0.4813232 -0.32088,1.0428662 -0.48133,1.6044102 -0.36099,-0.04011 -0.68187,-0.160444 -0.96264,-0.280774 -0.0802,-0.08022 0,-0.160438 0,-0.240662 0.36099,-0.320881 0.24067,-0.721982 0.32088,-1.1631952 0.0401,-0.24066 0.28077,-0.441212 0.52144,-0.561541 0.28077,0.04011 0.44121,0.320881 0.60165,0.521433 m 1.76484,-1.684629 c -0.20055,0.401101 -0.48131,0.882425 -0.92253,1.123088 -0.16044,0.0401 -0.36099,0.0401 -0.52143,-0.04012 -0.0802,-0.08022 -0.24066,-0.160438 -0.24066,-0.320882 0.0401,-0.160437 -0.0401,-0.360992 0.12033,-0.44121 0.32088,-0.200553 0.64176,-0.401101 0.96264,-0.681871 0.0802,-0.04011 0.24067,-0.08022 0.28077,0 0.16045,0.120327 0.28078,0.200549 0.32088,0.360989 m 20.09521,-0.16044 c 0.0401,0.16044 0.28077,0.360992 0.12033,0.521433 -0.32088,0.240662 -0.68188,0.401099 -1.12309,0.360991 -0.32088,-0.240662 -0.28077,-0.681873 -0.56154,-1.002754 -0.0802,-0.240663 -0.44121,-0.240663 -0.36099,-0.481325 l 0.12033,-0.08022 c 0.44121,0 0.88242,0 1.32363,-0.08022 0.44121,-0.04011 0.32088,0.481319 0.48133,0.762093"
     copytype="repeated_stretched"
     prop_scale="1"
     scale_y_rel="false"
     spacing="0"
     normal_offset="0"
     tang_offset="0"
     prop_units="false"
     vertical_pattern="false"
     fuse_tolerance="0" /><inkscape:path-effect
     effect="skeletal"
     id="path-effect5187"
     is_visible="true"
     pattern="m -657.25569,-297.46219 v 18.93665 h -11.39872 v 8.45722 h 11.39872 v 18.93666 h 6.61865 v -18.93666 h 8.64086 v 18.93666 h 6.61865 v -18.93666 h 8.64087 v 18.93666 h 6.61865 v -18.93666 h 10.66343 v -8.45722 h -10.66343 v -18.93665 h -6.61865 v 18.93665 h -8.64087 v -18.93665 h -6.61865 v 18.93665 h -8.64086 v -18.93665 z"
     copytype="repeated_stretched"
     prop_scale="0.43"
     scale_y_rel="false"
     spacing="7"
     normal_offset="7"
     tang_offset="7"
     prop_units="false"
     vertical_pattern="false"
     fuse_tolerance="0" /><inkscape:path-effect
     effect="skeletal"
     id="path-effect5106"
     is_visible="true"
     pattern="m -235.63402,79.550993 c 0,21.615697 0,21.615697 0,21.615697"
     copytype="repeated_stretched"
     prop_scale="1.04"
     scale_y_rel="false"
     spacing="1.5"
     normal_offset="0.5"
     tang_offset="0.2"
     prop_units="false"
     vertical_pattern="false"
     fuse_tolerance="0" /><inkscape:path-effect
     effect="skeletal"
     id="path-effect5031"
     is_visible="true"
     pattern="m -219.50966,74.531737 c 0,32.248743 0,32.248743 0,32.248743"
     copytype="repeated_stretched"
     prop_scale="0.45"
     scale_y_rel="false"
     spacing="0"
     normal_offset="2.4"
     tang_offset="0"
     prop_units="false"
     vertical_pattern="false"
     fuse_tolerance="0" /><inkscape:path-effect
     effect="skeletal"
     id="path-effect4927"
     is_visible="true"
     pattern="m -96.287842,111.99751 h 23.368645 v 2.33687 h -23.368645 z"
     copytype="repeated_stretched"
     prop_scale="5.84"
     scale_y_rel="false"
     spacing="0"
     normal_offset="0"
     tang_offset="0"
     prop_units="false"
     vertical_pattern="false"
     fuse_tolerance="0.3" /><inkscape:path-effect
     effect="skeletal"
     id="path-effect4845"
     is_visible="true"
     pattern="M 0,0 H 1"
     copytype="repeated"
     prop_scale="4"
     scale_y_rel="false"
     spacing="4"
     normal_offset="4"
     tang_offset="4"
     prop_units="false"
     vertical_pattern="false"
     fuse_tolerance="4" /><inkscape:path-effect
     effect="skeletal"
     id="path-effect4601"
     is_visible="true"
     pattern="M 0,0 H 1"
     copytype="single_stretched"
     prop_scale="1"
     scale_y_rel="false"
     spacing="0"
     normal_offset="0"
     tang_offset="0"
     prop_units="false"
     vertical_pattern="false"
     fuse_tolerance="0" /><inkscape:path-effect
     effect="skeletal"
     id="path-effect891"
     is_visible="true"
     pattern="#path4792"
     copytype="repeated_stretched"
     prop_scale="1"
     scale_y_rel="false"
     spacing="0"
     normal_offset="0"
     tang_offset="0"
     prop_units="false"
     vertical_pattern="false"
     fuse_tolerance="0" /></defs><sodipodi:namedview
   pagecolor="#ffffff"
   bordercolor="#666666"
   borderopacity="1"
   objecttolerance="10"
   gridtolerance="10"
   guidetolerance="10"
   inkscape:pageopacity="0"
   inkscape:pageshadow="2"
   inkscape:window-width="1366"
   inkscape:window-height="705"
   id="namedview51"
   showgrid="false"
   inkscape:zoom="1.3855758"
   inkscape:cx="140.2456"
   inkscape:cy="141.29922"
   inkscape:window-x="-8"
   inkscape:window-y="-8"
   inkscape:window-maximized="1"
   inkscape:current-layer="Layer_1"
   inkscape:pagecheckerboard="true" />

















































<text
   xml:space="preserve"
   style="font-style:normal;font-variant:normal;font-weight:normal;font-stretch:normal;font-size:78.14974213px;line-height:1.25;font-family:'Digital Dismay';-inkscape-font-specification:'Digital Dismay';letter-spacing:0px;word-spacing:0px;fill:#000000;fill-opacity:1;stroke:none;stroke-width:0.9158172"
   x="99.083054"
   y="190.51616"
   id="text978"><tspan
     sodipodi:role="line"
     id="tspan976"
     x="99.083054"
     y="261.05859"
     style="font-style:normal;font-variant:normal;font-weight:normal;font-stretch:normal;font-family:'Futura SH';-inkscape-font-specification:'Futura SH';stroke-width:0.9158172" /></text>





<g
   id="g869"
   transform="matrix(1.0121513,0,0,1.0121513,-1.4244308,10.481189)"><path
     inkscape:connector-curvature="0"
     id="path5253-6"
     d="M 117.2246,16.101029 A 101.12301,101.12301 0 0 0 16.101929,117.22371 101.12301,101.12301 0 0 0 117.2246,218.34818 101.12301,101.12301 0 0 0 218.34728,117.22371 101.12301,101.12301 0 0 0 117.2246,16.101029 Z m 0,24.07598 c 42.60486,0 77.0467,34.44184 77.0467,77.046701 0,42.60485 -34.44184,77.04849 -77.0467,77.04849 -42.604863,0 -77.046697,-34.64273 -77.046697,-77.04849 0,-42.604861 34.441834,-77.046701 77.046697,-77.046701 z"
     style="opacity:0.98999999;fill:#008000;fill-opacity:1;fill-rule:evenodd;stroke:#ffff00;stroke-width:5.86202145;stroke-linecap:square;stroke-linejoin:round;stroke-miterlimit:4;stroke-dasharray:none;stroke-opacity:1;paint-order:stroke fill markers" /><path
     style="fill:#ffff00;fill-opacity:1;stroke:#020200;stroke-width:1.8316344;stroke-miterlimit:4;stroke-dasharray:none;stroke-opacity:1"
     inkscape:connector-curvature="0"
     id="path16"
     d="m 40.177499,117.2246 c 0,-42.604847 34.442246,-77.047091 77.047111,-77.047091 42.60487,0 77.0471,34.442244 77.0471,77.047091 0,42.60486 -34.44223,77.0471 -77.0471,77.0471 -42.604864,0 -77.04711,-34.64133 -77.04711,-77.0471" /><g
     id="text925"
     style="font-style:normal;font-variant:normal;font-weight:normal;font-stretch:normal;font-size:34.1905098px;line-height:1.25;font-family:'League Spartan';-inkscape-font-specification:'League Spartan';letter-spacing:0px;word-spacing:0px;fill:#ffff00;fill-opacity:1;stroke:none;stroke-width:0.9158172"
     transform="matrix(-0.84153516,-0.47815856,0.47815856,-0.84153516,-88.609428,-14.193305)"
     aria-label="Taurus"><path
       inkscape:connector-curvature="0"
       id="path930"
       style="font-size:24.42179298px;letter-spacing:4.5790863px;fill:#ffff00;fill-opacity:1"
       d="m -253.89786,-97.914155 -4.77699,0.304185 -1.0243,-16.0858 -4.58202,0.29176 1.0243,16.085809 -4.777,0.304185 0.25608,4.021451 14.13601,-0.900139 z" /><path
       inkscape:connector-curvature="0"
       id="path932"
       style="font-size:24.42179298px;letter-spacing:4.5790863px;fill:#ffff00;fill-opacity:1"
       d="m -270.86177,-106.48664 c -0.94656,-3.53886 -4.18732,-5.73096 -7.72618,-4.7844 -1.65147,0.44173 -2.8714,1.55171 -3.50288,2.78239 l -0.0472,0.0126 -0.366,-1.36836 -4.12868,1.10432 3.23723,12.102918 4.17586,-1.116938 -0.30921,-1.156029 c 1.24961,0.702254 2.73952,0.885188 4.36739,0.449772 3.53887,-0.946558 5.24621,-4.487423 4.29965,-8.026293 z m -4.43538,1.18635 c 0.44804,1.67507 -0.48684,3.18914 -2.06753,3.61193 -1.5571,0.41649 -3.12302,-0.42868 -3.57106,-2.10374 -0.44173,-1.65147 0.42238,-3.14662 2.05025,-3.58203 1.69866,-0.45435 3.14662,0.42237 3.58834,2.07384 z" /><path
       inkscape:connector-curvature="0"
       id="path934"
       style="font-size:24.42179298px;letter-spacing:4.5790863px;fill:#ffff00;fill-opacity:1"
       d="m -291.4737,-92.980588 3.82959,-2.004887 -3.25086,-6.209565 c -1.94825,-3.72142 -4.59053,-4.24018 -8.74466,-2.06539 -4.15414,2.17479 -5.23328,4.641809 -3.28503,8.363223 l 3.25086,6.209569 3.8296,-2.004887 -2.7638,-5.279215 c -1.14403,-2.185249 -1.00161,-3.334888 0.59946,-4.17309 1.60108,-0.8382 2.62701,-0.30022 3.77104,1.885026 z" /><path
       inkscape:connector-curvature="0"
       id="path936"
       style="font-size:24.42179298px;letter-spacing:4.5790863px;fill:#ffff00;fill-opacity:1"
       d="m -311.46108,-95.593036 -3.3479,2.7344 4.17112,5.106964 c 0.20083,0.245891 1.36076,2.167958 -0.37939,3.589228 -1.11597,0.911467 -2.17271,0.891659 -2.17271,0.891659 l 0.9176,3.980398 c 0,0 1.36443,-0.105366 2.6128,-1.124972 1.91038,-1.560307 1.59468,-4.108835 1.59468,-4.108835 l 0.0378,-0.0309 1.14319,1.399687 3.3479,-2.7344 z" /><path
       inkscape:connector-curvature="0"
       id="path938"
       style="font-size:24.42179298px;letter-spacing:4.5790863px;fill:#ffff00;fill-opacity:1"
       d="m -316.84641,-73.533119 2.70375,-3.372698 -5.46872,-4.38405 c -3.27742,-2.627375 -5.90589,-2.042668 -8.83878,1.615852 -2.93288,3.65852 -2.93179,6.351237 0.34564,8.978612 l 5.46872,4.38405 2.70375,-3.372698 -4.64936,-3.727206 c -1.92454,-1.542819 -2.25524,-2.653041 -1.12486,-4.063095 1.13039,-1.410055 2.28596,-1.328792 4.21049,0.214027 z" /><path
       inkscape:connector-curvature="0"
       id="path940"
       style="font-size:24.42179298px;letter-spacing:4.5790863px;fill:#ffff00;fill-opacity:1"
       d="m -326.90876,-57.369532 c 1.45318,-2.959409 1.09591,-5.556283 -1.20586,-6.686534 -1.68795,-0.82885 -3.03687,-0.07644 -4.1885,0.77284 -1.28197,0.948521 -1.95054,2.143834 -2.76163,1.745556 -0.74534,-0.365986 -0.48817,-1.055925 -0.21907,-1.603964 0.61357,-1.249528 2.66044,-2.148943 2.66044,-2.148943 l -1.87748,-2.88083 c 0,0 -2.30914,0.879458 -3.64391,3.59773 -1.13025,2.301762 -2.08961,5.585277 1.22054,7.210685 2.30177,1.130251 4.08204,-0.389802 5.27437,-1.654417 0.78053,-0.813848 1.34341,-1.516909 1.9353,-1.226273 0.52611,0.258343 0.50733,0.684437 0.0875,1.539378 -0.58127,1.183763 -1.92862,2.154598 -1.92862,2.154598 l 1.91857,2.520107 c 0,0 1.66265,-1.169701 2.72832,-3.339933 z" /></g><g
     id="text945"
     style="font-style:normal;font-variant:normal;font-weight:normal;font-stretch:normal;font-size:34.1905098px;line-height:1.25;font-family:'League Spartan';-inkscape-font-specification:'League Spartan';letter-spacing:0px;word-spacing:0px;fill:#ffff00;fill-opacity:1;stroke:none;stroke-width:0.9158172"
     transform="matrix(0.97857299,0,0,0.97857299,370.18656,150.10943)"
     aria-label="Artania"><path
       inkscape:connector-curvature="0"
       id="path950"
       style="font-size:24.42179298px;letter-spacing:2.74745178px;fill:#ffff00;fill-opacity:1"
       d="m -313.13265,-120.32813 -3.55497,2.32799 4.23439,21.31074 4.12704,-2.702605 -0.9613,-4.187225 6.41529,-4.20108 3.45386,2.55496 4.12703,-2.70261 z m 6.74531,10.033 -3.80014,2.48854 -1.33138,-6.1343 0.0409,-0.0268 z" /><path
       inkscape:connector-curvature="0"
       id="path952"
       style="font-size:24.42179298px;letter-spacing:2.74745178px;fill:#ffff00;fill-opacity:1"
       d="m -291.86474,-109.04397 4.03044,-1.56235 -2.38324,-6.14813 c -0.11475,-0.29602 -0.62196,-2.48292 1.47295,-3.29498 1.34348,-0.52078 2.34207,-0.17449 2.34207,-0.17449 l 0.36102,-4.06881 c 0,0 -1.32991,-0.32263 -2.83279,0.25994 -2.29986,0.89151 -2.78944,3.41241 -2.78944,3.41241 l -0.0455,0.0177 -0.65318,-1.68504 -4.03044,1.56234 z" /><path
       inkscape:connector-curvature="0"
       id="path954"
       style="font-size:24.42179298px;letter-spacing:2.74745178px;fill:#ffff00;fill-opacity:1"
       d="m -279.66063,-126.31902 -1.76783,0.3752 0.68449,3.2251 1.76783,-0.3752 0.99886,4.70626 c 0.4614,2.17396 1.80603,4.50999 5.17447,3.79507 1.74394,-0.37013 2.9434,-1.42361 2.9434,-1.42361 l -1.7762,-3.19313 c 0,0 -0.42055,0.48871 -0.97002,0.60533 -0.66891,0.14197 -1.0722,-0.34665 -1.31558,-1.49335 l -0.82646,-3.89402 2.58009,-0.54759 -0.6845,-3.22511 -2.58008,0.5476 -0.96843,-4.56293 -4.22847,0.89745 z" /><path
       inkscape:connector-curvature="0"
       id="path956"
       style="font-size:24.42179298px;letter-spacing:2.74745178px;fill:#ffff00;fill-opacity:1"
       d="m -266.64341,-122.52258 c 0.059,3.66279 2.67055,6.57614 6.33335,6.51714 1.7093,-0.0275 3.16223,-0.80811 4.07361,-1.84864 l 0.0488,-7.9e-4 0.0228,1.41628 4.27326,-0.0688 -0.20178,-12.52676 -4.3221,0.0696 0.0193,1.19651 c -1.04171,-0.98464 -2.44262,-1.52385 -4.12751,-1.49671 -3.66279,0.059 -6.17876,3.07937 -6.11976,6.74217 z m 4.5907,-0.0739 c -0.0279,-1.73372 1.2466,-2.9755 2.88264,-3.00186 1.61163,-0.026 2.92549,1.17413 2.95342,2.90785 0.0275,1.7093 -1.17373,2.9499 -2.85862,2.97704 -1.75814,0.0283 -2.9499,-1.17373 -2.97744,-2.88303 z" /><path
       inkscape:connector-curvature="0"
       id="path958"
       style="font-size:24.42179298px;letter-spacing:2.74745178px;fill:#ffff00;fill-opacity:1"
       d="m -246.17958,-115.89837 4.21286,0.96808 1.58612,-6.90243 c 0.27894,-1.21387 1.78461,-2.09574 3.04609,-1.80586 1.35669,0.31176 1.92174,1.66946 1.6428,2.88333 l -1.58612,6.90243 4.21286,0.96808 1.84865,-8.0449 c 0.78212,-3.40361 -2.07881,-5.23877 -4.31615,-5.75289 -1.33288,-0.30628 -2.70537,0.10502 -3.8762,0.8383 l -0.0476,-0.0109 0.29535,-1.28528 -4.21286,-0.96808 z" /><path
       inkscape:connector-curvature="0"
       id="path960"
       style="font-size:24.42179298px;letter-spacing:2.74745178px;fill:#ffff00;fill-opacity:1"
       d="m -217.80866,-128.39662 c -1.29522,-0.57339 -2.80944,0.0115 -3.38283,1.30677 -0.57338,1.29522 0.0115,2.80944 1.30677,3.38282 1.29523,0.57339 2.80944,-0.0115 3.38283,-1.30677 0.57339,-1.29522 -0.0115,-2.80943 -1.30677,-3.38282 z m -5.16601,6.17943 3.95266,1.74982 -5.07151,11.45601 -3.95266,-1.74982 z" /><path
       inkscape:connector-curvature="0"
       id="path962"
       style="font-size:24.42179298px;letter-spacing:2.74745178px;fill:#ffff00;fill-opacity:1"
       d="m -215.89521,-112.16806 c -2.12098,2.9868 -1.74114,6.88084 1.24566,9.00182 1.39384,0.98979 3.02689,1.22091 4.37742,0.92192 l 0.0398,0.0283 -0.82011,1.1549 3.4846,2.474476 7.25375,-10.214856 -3.52442,-2.50276 -0.69286,0.97569 c -0.25657,-1.41027 -1.06633,-2.67422 -2.44026,-3.64987 -2.9868,-2.12098 -6.80263,-1.1764 -8.92361,1.8104 z m 3.74346,2.65829 c 1.00393,-1.41375 2.76626,-1.65993 4.10036,-0.71256 1.3142,0.93323 1.66254,2.67824 0.65861,4.09199 -0.98979,1.39385 -2.69239,1.68245 -4.06632,0.7068 -1.43366,-1.01807 -1.68244,-2.69238 -0.69265,-4.08623 z" /></g><path
     inkscape:connector-curvature="0"
     id="path2059-1"
     d="m 55.541993,139.63841 c -0.40348,0.28091 -0.44954,0.54277 -0.0902,0.84833 0.88592,0.66718 3.27316,1.19031 5.9431,1.27655 1.54972,0.0804 3.12047,-0.13229 4.62214,-0.1142 0.40543,0.0435 0.95381,0.11186 1.0499,0.23659 -0.0471,0.0998 0.0491,0.22451 -0.26027,0.30574 -1.97427,0.65589 -3.99668,1.2495 -5.42235,1.97379 -1.56882,0.6994 -1.01414,1.74095 0.6106,2.40158 1.83994,0.77909 5.60808,1.16443 8.89675,1.0882 2.45474,-0.0322 4.36011,-0.295 6.40839,-0.53292 0.23827,-0.0126 0.42935,0.0747 0.57251,0.0996 0.62263,0.48636 0.72069,0.93564 1.41442,1.35336 0.69373,0.41771 1.38759,0.67289 2.29556,1.04684 0.23924,0.14963 0.23867,0.31228 -0.0464,0.42468 -0.99915,0.31236 -2.06964,0.53099 -3.25999,0.75609 l -3.16784,0.23209 -0.54913,0.0939 c -0.90307,0.43709 -0.61422,0.81145 -1.01672,1.25457 -0.61673,0.48688 -2.2588,0.76807 -3.61533,1.09929 -0.30837,0.24344 -0.61812,0.48682 -1.21279,0.68046 -0.49959,0.15618 -1.0705,0.21917 -1.76128,0.28808 -0.92707,0.40591 -0.82886,0.85477 -0.70678,1.33511 1.81102,-0.0632 3.90975,0.0857 5.50456,-0.25811 1.40458,-0.26885 1.25799,-0.78012 2.23311,-1.12366 0.76089,-0.29978 2.21637,-0.18189 3.33663,-0.17612 1.57274,-0.0506 2.54671,-0.39439 3.73706,-0.61948 0.83296,-0.20623 1.45017,-0.53074 2.28312,-0.73697 1.73796,-0.3189 4.4552,-0.33251 6.433386,-0.33957 1.620785,0.0118 3.241268,-0.13861 4.431618,-0.3637 1.166327,-0.25627 2.164687,-0.56847 3.522214,-0.73747 1.04718,-0.24999 1.35551,-0.65593 1.71094,-0.99922 0.26033,-0.30581 1.164179,-0.58049 0.780789,-0.91722 -0.405429,-0.0435 -0.882659,-0.18052 -1.359179,-0.15537 -0.40349,0.2809 -0.71158,0.52418 -1.25821,0.7802 -1.995337,1.11133 -6.140636,1.52503 -10.429408,1.7514 -4.57511,0.17659 -8.21914,0.75808 -10.61992,1.82591 -0.0951,0.0375 -0.4764,0.0251 -0.61955,2.6e-4 -0.21522,-0.11845 0.0701,-0.23079 0.23624,-0.33692 2.06643,-1.18 6.06885,-1.61812 10.57189,-1.88826 2.453742,-0.19443 4.764182,-0.41408 6.573239,-0.80164 2.023292,-0.43131 3.211522,-1.14272 3.708129,-1.78552 0.0672,-0.7175 -0.366857,-1.4414 -0.15655,-2.13399 0.0711,-0.0687 0.28522,-0.1124 0.5475,-0.0938 0.23826,-0.0126 0.52479,0.0376 0.57283,0.1 0.028,0.68001 0.39019,1.47216 1.84773,2.07672 2.434639,0.58543 5.648079,-0.071 8.244999,-0.24053 2.69201,-0.207 5.40986,-0.0584 8.05481,-0.1656 1.28645,-0.10036 2.81294,-0.0511 3.71698,-0.32597 0.16619,-0.10614 -0.1921,-0.24939 -0.40733,-0.36784 -0.14414,-0.1871 -0.95626,-0.43661 -0.36157,-0.63026 0.0951,-0.0375 0.57148,-0.0626 0.73866,-0.007 0.54957,0.23062 0.88486,0.50526 1.79184,0.71699 1.64679,0.36741 3.81752,0.60957 5.7967,0.76472 2.02722,0.21751 3.79254,0.57881 4.34406,1.13383 0.21621,0.28066 -0.59242,0.51792 -1.33026,0.68667 -1.28545,0.26257 -2.61964,0.46273 -4.31152,0.51958 -2.3606,-0.16747 -3.41158,-0.72828 -5.17749,-1.0894 -0.85895,-0.14937 -2.09924,-0.14876 -3.14742,-0.061 -1.16732,0.0941 -2.35789,0.15688 -3.35803,0.30703 -0.30935,0.0812 -0.23724,0.17472 -0.16517,0.26828 1.00307,0.33647 2.10055,0.63527 3.19874,0.93428 1.07318,0.10561 2.19076,-0.21303 3.24088,0.0236 0.931,0.24293 1.6491,0.5298 2.88946,0.6915 1.24036,0.16169 2.88427,0.20469 4.07462,-0.0204 2.90526,-0.41297 5.6909,-0.81986 8.23778,-1.37617 l 0.35895,-0.019 c 1.16731,-0.0941 2.382,-0.12568 3.04776,-0.38799 0.68883,-0.39333 1.16303,-0.74263 1.58954,-1.15458 0.54665,-0.25601 -0.0992,-0.61159 -0.55372,-0.87967 -1.64678,-0.3674 -2.88824,-0.85323 -3.9874,-1.31444 -0.76284,-0.0246 -1.54953,-0.0809 -2.26432,-0.0431 -0.33339,0.05 -0.811,0.0757 -0.9772,0.1818 l 4.51446,1.51374 c 0.33435,0.11216 0.71694,0.28701 0.71793,0.44922 -0.18825,0.39936 -0.63848,0.77988 -1.51848,1.08594 -0.21425,0.0438 -0.42835,0.0875 -0.59554,0.0314 0.0691,-0.39307 0.47161,-0.83592 0.0402,-1.23503 l -4.25158,-1.33338 c -0.52555,-0.19943 -1.24135,-0.32421 -1.43354,-0.57368 -0.0721,-0.0935 0.21315,-0.20591 0.54651,-0.25596 1.35755,-0.16901 3.02616,-0.257 3.88214,-0.59426 0.97316,-0.66795 1.3981,-1.24209 1.22699,-1.94701 0.0951,-0.0375 0.047,-0.0998 0.28527,-0.11239 0.23827,-0.0126 0.28623,0.0498 0.42938,0.0747 1.02906,0.69208 1.01033,1.47189 -0.20111,2.15242 -0.0711,0.0687 -0.1182,0.16846 0.28724,0.21196 1.64483,0.043 3.21727,-0.16978 4.38358,-0.42605 1.66787,-0.088 3.14349,-0.26325 4.64418,-0.40736 0.23827,-0.0126 0.40536,0.0435 0.42938,0.0747 -0.83197,0.36844 -1.1628,0.74307 -1.1128,1.12986 -0.9511,0.37471 -2.49736,0.78061 -2.25614,1.25466 0.40643,0.20572 1.07184,-0.0566 1.5724,-0.0505 0.23827,-0.0126 0.40535,0.0435 0.4534,0.10585 l -0.83048,0.53095 c -0.37945,0.3121 0.57539,0.58602 0.7916,0.86667 0.52557,0.19943 1.55017,0.24263 2.3841,0.19861 1.787,-0.0943 3.31129,-0.36941 4.85903,-0.61337 1.64285,-0.28143 3.7876,-0.39461 5.88491,-0.40796 1.88211,-0.1318 3.07056,-0.51889 4.23588,-0.93737 0.83396,-0.044 1.64431,0.0429 2.24097,0.17371 2.74401,0.50421 5.82068,0.63368 9.01323,0.43271 l 0.2142,-0.0437 c 0.19021,-0.0749 -9.3e-4,-0.16216 -0.26321,-0.18078 l -2.09949,-0.14873 c -1.47859,-0.14912 -3.36177,-0.34158 -4.15061,-0.72182 -0.64566,-0.35535 -1.64847,-0.69204 -2.74666,-0.99104 -0.3584,-0.14335 -1.17056,-0.23018 -1.55296,-0.4047 0,0 0.0967,-0.0376 0.21582,-0.0438 2.31257,0.1051 4.03024,0.56584 5.36767,1.01447 1.98114,0.47957 4.60535,0.82807 7.48756,0.54613 l 0.19018,-0.0749 c 0.0951,-0.0375 0.0471,-0.0998 -0.0961,-0.12471 l -1.5734,-0.11162 c -2.79005,-0.24215 -4.29626,-0.90912 -6.27737,-1.38868 -0.6207,-0.16195 -1.69334,-0.26747 -2.31402,-0.42942 -2.74792,-1.15304 -5.13926,-2.32488 -6.72085,-3.7342 -0.64568,-0.35534 -1.26718,-0.67971 -2.24622,-0.98501 -3.00824,-0.84722 -6.51581,-1.53811 -9.92853,-2.26664 -0.26229,-0.0186 -0.66788,-0.0625 -0.85907,-0.14977 l -11.28283,-1.61117 c -1.38349,-0.18659 -2.93388,-0.26688 -4.36446,-0.35364 -2.19344,-0.11138 -4.88557,0.0956 -6.74268,0.4208 -1.92818,0.39384 -3.37894,0.92499 -5.49834,1.23157 -2.92831,0.54398 -6.45396,0.79473 -8.68954,1.59423 -1.37958,0.46225 -2.25791,1.09299 -4.71262,1.12521 -2.64495,0.10715 -4.83399,0.48216 -6.522929,1.02564 -1.45067,0.5309 -2.853797,1.12395 -5.021241,1.36816 -1.976234,0.33148 -4.430843,0.36406 -6.431097,0.66435 -3.04844,0.38807 -5.1408,1.21213 -7.59162,1.89318 -2.52285,0.5875 -4.78452,1.1939 -8.38253,1.35136 -2.28756,0.0883 -4.86238,-0.19788 -6.03361,-0.75265 -1.12418,-0.65461 -0.93837,-1.37839 0.75055,-1.92186 1.52079,-0.76177 4.56828,-1.31209 5.65958,-2.14854 0.66478,-0.42452 0.0415,-1.07279 -1.43811,-1.38411 -2.60085,-0.47931 -5.69833,-0.31608 -8.70167,-0.35227 -1.88307,-0.0304 -3.60131,-0.32892 -5.84375,-0.66489 z m 71.369427,9.60284 c -1.26241,0.13154 -2.57169,0.20108 -3.88216,0.27025 l -0.30928,0.0812 c -0.0941,0.19968 0.97776,0.14302 1.36017,0.31755 1.02611,0.20546 1.17073,0.55461 2.26793,0.69141 1.3345,-0.038 2.31154,-0.2193 3.12047,-0.45671 0.38044,-0.14989 -0.45433,-0.268 -0.66956,-0.38644 -0.64469,-0.19315 -0.60112,-0.61762 -1.88757,-0.51727 z m -59.271487,3.54678 c -0.16082,0.0125 -0.32764,0.0375 -0.43476,0.0594 -0.78491,0.26859 -1.61732,0.47466 -2.45027,0.68089 -0.42849,0.0875 -0.0701,0.23079 -0.0931,0.36181 0.0961,0.12474 0.62046,0.16191 0.90678,0.2117 0.52458,0.0372 1.11989,0.006 1.57241,-0.0506 1.16632,-0.25628 1.71315,-0.67437 2.06858,-1.01765 -0.21521,-0.11845 -0.62204,-0.16182 -1.17064,-0.23021 -0.0836,-0.0281 -0.23818,-0.0279 -0.39898,-0.0154 z m -4.76279,1.52075 c -0.64273,0.13128 -1.23846,0.32533 -1.21344,0.51872 0.026,0.3556 0.62367,0.64837 -0.25634,0.95443 0.0481,0.0624 -0.14219,0.13728 0.14411,0.18707 0.90601,0.0495 1.9321,0.0927 3.02832,0.0673 0.14021,-0.46173 0.16118,-0.91688 0.46857,-1.32253 l -0.0721,-0.0935 c -0.59665,-0.13076 -1.2412,-0.32426 -2.09916,-0.31142 z"
     style="clip-rule:evenodd;fill:#000000;fill-opacity:0.99215686;fill-rule:evenodd;stroke:#020200;stroke-width:1.8316344;stroke-miterlimit:4;stroke-dasharray:none;stroke-opacity:1" /><g
     id="g846"><path
       style="clip-rule:evenodd;fill:#ffff00;fill-opacity:0.99215686;fill-rule:evenodd;stroke:#020200;stroke-width:5.9653554;stroke-miterlimit:4;stroke-dasharray:none;stroke-opacity:1"
       d="m 54.350835,89.672292 c -0.403476,1.073193 -0.449534,2.073573 -0.09018,3.240888 0.885924,2.548858 3.273158,4.547373 5.943103,4.87682 1.549717,0.307375 3.120464,-0.505372 4.622136,-0.436254 0.405434,0.1662 0.953808,0.427312 1.0499,0.903837 -0.04706,0.381428 0.04909,0.857694 -0.260265,1.168032 -1.974269,2.505725 -3.996679,4.773475 -5.422355,7.540505 -1.568819,2.67192 -1.014134,6.65097 0.610603,9.17481 1.839944,2.97637 5.608083,4.44849 8.896747,4.15727 2.454741,-0.12307 4.360108,-1.127 6.408393,-2.03594 0.238267,-0.0481 0.429353,0.28524 0.572505,0.38035 0.622637,1.85808 0.720696,3.57447 1.414427,5.17027 0.693731,1.5958 1.387592,2.57067 2.295557,3.99929 0.239244,0.57164 0.238667,1.19299 -0.04639,1.62241 -0.99915,1.1933 -2.069638,2.02855 -3.259986,2.88848 l -3.167847,0.88669 -0.549124,0.35863 c -0.90307,1.66982 -0.614221,3.09999 -1.016719,4.79287 -0.616737,1.86005 -2.258808,2.93426 -3.615338,4.19962 -0.308362,0.93003 -0.618112,1.85981 -1.21279,2.59961 -0.499581,0.59664 -1.070492,0.8373 -1.761273,1.10055 -0.927072,1.5507 -0.828861,3.26549 -0.706784,5.10052 1.811022,-0.24122 3.909754,0.32739 5.504557,-0.98603 1.404588,-1.02709 1.257997,-2.98034 2.233118,-4.29276 0.760882,-1.14525 2.21637,-0.69489 3.336625,-0.67283 1.572744,-0.19318 2.546713,-1.50669 3.737061,-2.36662 0.832956,-0.78784 1.450175,-2.02759 2.283118,-2.81544 1.737958,-1.2183 4.4552,-1.27032 6.433388,-1.29729 1.620785,0.0451 3.241268,-0.52952 4.431618,-1.38944 1.166327,-0.97904 2.164692,-2.17172 3.522217,-2.81739 1.047182,-0.95502 1.355507,-2.50586 1.71094,-3.81731 0.260326,-1.16829 1.164182,-2.21767 0.780793,-3.50409 -0.405432,-0.16619 -0.882662,-0.68966 -1.359187,-0.59357 -0.403483,1.07315 -0.711574,2.00255 -1.258207,2.98061 -1.995343,4.24565 -6.140638,5.8261 -10.429412,6.69093 -4.575105,0.67461 -8.219137,2.89611 -10.619916,6.97555 -0.09511,0.14317 -0.476398,0.0961 -0.619555,9.8e-4 -0.21522,-0.4525 0.07005,-0.88168 0.236246,-1.28714 2.066432,-4.50796 6.068848,-6.18174 10.571883,-7.21376 2.453746,-0.74275 4.764186,-1.58189 6.573243,-3.06249 2.023294,-1.64777 3.21152,-4.36557 3.708129,-6.82129 0.06716,-2.74105 -0.366859,-5.5066 -0.15655,-8.15252 0.07109,-0.26229 0.28522,-0.42938 0.547501,-0.3583 0.238267,-0.0481 0.524788,0.14372 0.572834,0.38199 0.02796,2.59788 0.390189,5.62413 1.847727,7.93375 2.434644,2.23653 5.648084,-0.27126 8.245004,-0.91891 2.69201,-0.7908 5.40986,-0.22327 8.05482,-0.63264 1.28644,-0.3834 2.81293,-0.19521 3.71697,-1.24533 0.16619,-0.40546 -0.1921,-0.95274 -0.40733,-1.40526 -0.14413,-0.71479 -0.95626,-1.66799 -0.36157,-2.40779 0.0951,-0.14315 0.57149,-0.23924 0.73866,-0.025 0.54957,0.88101 0.88486,1.93022 1.79184,2.73913 1.64679,1.40362 3.81752,2.32875 5.7967,2.92145 2.02722,0.83097 3.79254,2.21125 4.34406,4.33161 0.21621,1.07219 -0.59242,1.9786 -1.33026,2.6233 -1.28545,1.00308 -2.61964,1.76776 -4.31152,1.98496 -2.3606,-0.63979 -3.41158,-2.78227 -5.17749,-4.16185 -0.85895,-0.57065 -2.09924,-0.56833 -3.14742,-0.23298 -1.16732,0.35937 -2.35789,0.59934 -3.35803,1.17295 -0.30935,0.31033 -0.23724,0.66748 -0.16517,1.02491 1.00307,1.28543 2.10055,2.42695 3.19874,3.56926 1.07318,0.40348 2.19076,-0.81386 3.24088,0.0902 0.93101,0.92805 1.6491,2.02402 2.88946,2.64174 1.24036,0.61771 2.88427,0.78198 4.07462,-0.0779 2.90526,-1.57767 5.6909,-3.13211 8.23779,-5.25739 l 0.35896,-0.0724 c 1.1673,-0.35937 2.38199,-0.48013 3.04775,-1.48223 0.68883,-1.50265 1.16303,-2.83712 1.58954,-4.41087 0.54665,-0.97807 -0.0992,-2.33648 -0.55372,-3.36064 -1.64677,-1.40359 -2.88824,-3.25959 -3.9874,-5.02158 -0.76284,-0.0941 -1.54954,-0.30898 -2.26433,-0.16484 -0.33338,0.1912 -0.811,0.2891 -0.9772,0.69454 l 4.51447,5.78295 c 0.33435,0.42849 0.71695,1.0965 0.71793,1.71619 -0.18825,1.52568 -0.63848,2.97936 -1.51848,4.14863 -0.21424,0.16718 -0.42835,0.33434 -0.59554,0.12009 0.0691,-1.50165 0.47161,-3.19348 0.0402,-4.7182 l -4.2516,-5.09395 c -0.52555,-0.76188 -1.24135,-1.23857 -1.43354,-2.19163 -0.0721,-0.3574 0.21315,-0.78665 0.54652,-0.97785 1.35754,-0.64567 3.02615,-0.98183 3.88215,-2.27024 0.97315,-2.55181 1.3981,-4.74521 1.22698,-7.4382 0.0951,-0.14316 0.047,-0.38132 0.28527,-0.42937 0.23827,-0.0481 0.28624,0.19015 0.42938,0.28526 1.02907,2.64397 1.01033,5.62308 -0.2011,8.22294 -0.0711,0.26229 -0.11821,0.64354 0.28723,0.80973 1.64484,0.16423 3.21727,-0.6486 4.38358,-1.62765 1.66787,-0.33632 3.14349,-1.00567 4.64418,-1.55624 0.23827,-0.0481 0.40536,0.16614 0.42938,0.28526 -0.83197,1.40755 -1.1628,2.83879 -1.11279,4.31643 -0.95111,1.43153 -2.49737,2.98219 -2.25615,4.79321 0.40643,0.7859 1.07184,-0.21618 1.5724,-0.19312 0.23827,-0.048 0.40535,0.16611 0.4534,0.40437 l -0.83048,2.0284 c -0.37945,1.19232 0.5754,2.23879 0.7916,3.31098 0.52557,0.76186 1.55017,0.9269 2.3841,0.75874 1.787,-0.36035 3.31129,-1.41128 4.85903,-2.34327 1.64285,-1.07515 3.7876,-1.50754 5.88491,-1.55854 1.88212,-0.5035 3.07056,-1.98232 4.23589,-3.58106 0.83395,-0.16816 1.64431,0.16408 2.24097,0.66365 2.744,1.92622 5.82068,2.42086 9.01323,1.65309 l 0.21419,-0.16715 c 0.19021,-0.28631 -9.3e-4,-0.61952 -0.26321,-0.69062 l -2.09948,-0.56823 c -1.4786,-0.56967 -3.36178,-1.30494 -4.15061,-2.75758 -0.64567,-1.35754 -1.64847,-2.64379 -2.74667,-3.78608 -0.35839,-0.54764 -1.17055,-0.87935 -1.55296,-1.5461 0,0 0.0967,-0.14344 0.21582,-0.16746 2.31258,0.40151 4.03024,2.16167 5.36768,3.8756 1.98114,1.8321 4.60534,3.16349 7.48755,2.08638 l 0.19018,-0.28625 c 0.0951,-0.14315 0.0471,-0.3813 -0.0961,-0.47642 l -1.57339,-0.42643 c -2.79006,-0.9251 -4.29626,-3.47313 -6.27738,-5.30521 -0.6207,-0.6187 -1.69334,-1.02182 -2.31401,-1.64053 -2.74793,-4.40497 -5.13927,-8.88179 -6.72085,-14.265821 -0.64569,-1.357514 -1.26718,-2.59671 -2.24622,-3.763049 -3.00825,-3.23668 -6.51582,-5.876103 -9.92854,-8.659301 -0.26229,-0.07108 -0.66788,-0.238779 -0.85907,-0.572164 l -11.28282,-6.155121 c -1.3835,-0.712821 -2.93389,-1.019586 -4.36448,-1.351004 -2.19343,-0.425526 -4.88556,0.36523 -6.74267,1.607566 -1.92818,1.504613 -3.37894,3.533751 -5.49834,4.704984 -2.92831,2.078208 -6.45396,3.036152 -8.68954,6.090476 -1.37958,1.765936 -2.25791,4.175584 -4.71262,4.298656 -2.64495,0.40936 -4.833999,1.842034 -6.522933,3.918288 -1.450674,2.028218 -2.853807,4.29385 -5.021248,5.22682 -1.976234,1.26635 -4.430843,1.39082 -6.431101,2.53803 -3.048432,1.48256 -5.140795,4.63073 -7.591611,7.23254 -2.522859,2.24444 -4.784524,4.56108 -8.382538,5.16264 -2.287558,0.3373 -4.862379,-0.75598 -6.03361,-2.87537 -1.124177,-2.50083 -0.938368,-5.2659 0.750558,-7.34214 1.520782,-2.91019 4.568275,-5.01257 5.65958,-8.208095 0.664772,-1.621786 0.04149,-4.098399 -1.438116,-5.287752 -2.600846,-1.831115 -5.698333,-1.207514 -8.70167,-1.34576 -1.88307,-0.116172 -3.601305,-1.256609 -5.84375,-2.540111 z m 71.369435,36.685938 c -1.26241,0.50252 -2.57169,0.76817 -3.88216,1.03243 l -0.30929,0.31026 c -0.0941,0.76284 0.97777,0.54636 1.36018,1.21312 1.02611,0.78492 1.17073,2.1188 2.26793,2.64142 1.3345,-0.14513 2.31154,-0.83779 3.12047,-1.74479 0.38044,-0.57262 -0.45433,-1.02383 -0.66956,-1.47633 -0.64469,-0.73786 -0.60112,-2.3595 -1.88757,-1.97611 z m -59.271495,13.54983 c -0.160818,0.0479 -0.327637,0.14334 -0.434759,0.22691 -0.78491,1.0261 -1.617323,1.81338 -2.450266,2.60124 -0.428489,0.33435 -0.07008,0.88167 -0.09312,1.38222 0.09609,0.47655 0.620459,0.61854 0.90678,0.80875 0.52458,0.14217 1.11989,0.0221 1.572404,-0.19312 1.166326,-0.97906 1.713157,-2.57629 2.068581,-3.88773 -0.215211,-0.45251 -0.622042,-0.6182 -1.170642,-0.87949 -0.08359,-0.10713 -0.238176,-0.10671 -0.39898,-0.0588 z m -4.762784,5.80975 c -0.642734,0.50153 -1.23846,1.24286 -1.213441,1.98168 0.02599,1.35851 0.62367,2.47696 -0.256342,3.64624 0.04805,0.23827 -0.142187,0.52442 0.144107,0.71464 0.906008,0.18923 1.932105,0.35406 3.028325,0.25699 0.140202,-1.76396 0.161176,-3.50278 0.468563,-5.05249 l -0.07205,-0.35732 c -0.596643,-0.49958 -1.241195,-1.23878 -2.099158,-1.18974 z"
       id="path2059"
       inkscape:connector-curvature="0" /><path
       d="m 133.06414,90.096861 c 1.07513,1.642853 1.5556,4.025507 1.46344,6.027727 -0.0951,0.143172 -0.21424,0.167194 -0.3574,0.07207 -0.69373,-1.59578 -1.38744,-3.191574 -2.31943,-4.73933 -0.54959,-0.880989 -1.90909,-1.474687 -1.64876,-2.642978 0.19022,-0.286304 0.66675,-0.382397 1.04818,-0.335339 0.71578,0.475548 1.19328,0.999145 1.81397,1.617851 m 22.42451,12.834918 c 1.62278,1.28447 2.91215,2.76016 2.84402,4.8815 -0.16621,0.40545 0.0971,1.09622 -0.47457,1.33546 -0.21425,0.16718 -0.50056,-0.023 -0.54861,-0.2613 -0.33533,-1.04816 -0.57557,-2.23951 -1.3394,-2.95332 -0.85892,-0.57065 -1.98114,-1.83208 -3.17246,-1.59185 -0.78589,0.40642 -1.18938,1.47961 -1.54579,2.17136 0.024,0.11914 -0.0951,0.14317 -0.23827,0.048 -0.71677,-1.09523 0.0441,-2.24048 0.20934,-3.26562 0.57065,-0.85895 0.0431,-2.86017 1.71196,-2.57682 1.21635,0.4986 1.69484,1.64187 2.55378,2.21254 m 0.35696,14.68131 c 0.26328,0.69077 0.47949,1.76298 -0.13923,2.38365 -0.66675,0.3824 -1.59579,0.69372 -2.45375,0.74275 -0.26229,-0.0711 -0.52458,-0.14218 -0.45349,-0.40447 0.14119,-1.14427 0.97316,-2.55181 2.11644,-3.03029 0.23827,-0.048 0.7148,-0.14414 0.93003,0.30836 M 60.110071,91.666421 c 3.003337,0.138246 6.100783,-0.486353 8.70162,1.344764 1.479613,1.189362 2.103226,3.667123 1.438445,5.28891 -1.091305,3.195525 -4.138751,5.297765 -5.659532,8.207945 -1.688936,2.07625 -1.875228,4.84132 -0.751053,7.34214 1.17124,2.11939 3.747063,3.21166 6.034621,2.87436 3.598005,-0.60155 5.858589,-2.91705 8.38146,-5.16149 2.450806,-2.6018 4.543209,-5.75124 7.591641,-7.2338 2.000258,-1.1472 4.45497,-1.27028 6.431206,-2.53661 2.167439,-0.93299 3.570063,-3.199445 5.020737,-5.227664 1.688934,-2.076253 3.879424,-3.509787 6.524364,-3.919157 2.45472,-0.123065 3.33278,-2.531708 4.71236,-4.297624 2.23558,-3.054335 5.76152,-4.013294 8.68983,-6.091513 2.1194,-1.171234 3.57006,-3.19945 5.49824,-4.704063 1.85712,-1.242327 4.54912,-2.033124 6.74256,-1.607589 1.43057,0.33141 2.98029,0.638804 4.36379,1.351635 l 11.28334,6.155167 c 0.1912,0.333383 0.59665,0.499581 0.85894,0.570664 3.41271,2.783198 6.92053,5.423227 9.92878,8.659907 0.97904,1.166339 1.6007,2.404733 2.24637,3.762249 1.5816,5.384038 3.97211,9.861068 6.72004,14.266038 0.62067,0.61871 1.69385,1.02219 2.31453,1.6409 1.98114,1.83208 3.48674,4.37996 6.2768,5.30506 l 1.57373,0.42654 c 0.14316,0.0951 0.1912,0.33337 0.0961,0.47653 l -0.19022,0.28632 c -2.88222,1.0771 -5.5061,-0.25345 -7.48725,-2.08555 -1.33744,-1.71393 -3.05628,-3.47495 -5.36884,-3.87646 -0.11914,0.024 -0.21425,0.16718 -0.21425,0.16718 0.38241,0.66675 1.19328,0.99912 1.55168,1.54676 1.09819,1.1423 2.10126,2.42775 2.74693,3.78529 0.78884,1.45264 2.67292,2.18851 4.15152,2.75818 l 2.09834,0.56869 c 0.26228,0.0711 0.45347,0.40447 0.26327,0.69079 l -0.21427,0.16717 c -3.19255,0.76776 -6.26795,0.27211 -9.01194,-1.6541 -0.59665,-0.49958 -1.40753,-0.83197 -2.24149,-0.66381 -1.16532,1.59874 -2.35469,3.07835 -4.2368,3.58185 -2.09731,0.051 -4.24173,0.48341 -5.88458,1.55856 -1.54774,0.93199 -3.07146,1.98312 -4.85846,2.34347 -0.83393,0.16816 -1.85907,0.003 -2.38463,-0.75893 -0.2162,-1.07219 -1.17124,-2.1194 -0.79178,-3.31171 l 0.83099,-2.02723 c -0.0481,-0.23826 -0.21523,-0.4525 -0.45349,-0.40446 -0.50056,-0.023 -1.16634,0.97907 -1.57277,0.19317 -0.24121,-1.81102 1.30556,-3.36271 2.25666,-4.79424 -0.05,-1.47765 0.28141,-2.90823 1.11337,-4.31578 -0.024,-0.11913 -0.19119,-0.33337 -0.42946,-0.28532 -1.5007,0.55057 -2.97735,1.22027 -4.64522,1.5566 -1.16631,0.97904 -2.73808,1.7919 -4.38291,1.62767 -0.40544,-0.16619 -0.35838,-0.54762 -0.2873,-0.80991 1.21144,-2.59986 1.23055,-5.57916 0.20147,-8.22313 -0.14314,-0.0951 -0.19119,-0.33337 -0.42946,-0.28533 -0.23827,0.0481 -0.19023,0.28632 -0.28532,0.42947 0.1711,2.693 -0.25445,4.88642 -1.22759,7.43823 -0.856,1.28841 -2.52386,1.62473 -3.8814,2.27041 -0.33337,0.1912 -0.61869,0.62066 -0.54662,0.97806 0.19219,0.95306 0.90795,1.42861 1.43351,2.19048 l 4.25058,5.09379 c 0.43143,1.5247 0.0289,3.21758 -0.0402,4.71923 0.16719,0.21424 0.38143,0.0471 0.59567,-0.12012 0.88001,-1.16927 1.33056,-2.62387 1.5188,-4.14956 -9.7e-4,-0.61968 -0.38338,-1.28643 -0.71773,-1.71492 l -4.51385,-5.78456 c 0.1662,-0.40544 0.64273,-0.50153 0.97611,-0.69274 0.71479,-0.14414 1.50168,0.0691 2.26451,0.16324 1.09917,1.762 2.3415,3.6191 3.98828,5.0227 0.45448,1.02416 1.10016,2.38168 0.55351,3.35975 -0.42652,1.57375 -0.90107,2.9092 -1.5899,4.41186 -0.66575,1.00208 -1.88112,1.12317 -3.04843,1.48255 l -0.3574,0.0721 c -2.54688,2.12528 -5.33303,3.67892 -8.2383,5.25659 -1.19035,0.85992 -2.83517,0.69568 -4.07554,0.078 -1.24035,-0.61772 -1.95711,-1.71296 -2.88812,-2.64101 -1.05013,-0.90404 -2.16841,0.31329 -3.24159,-0.0902 -1.09819,-1.14231 -2.19639,-2.28462 -3.19945,-3.57006 -0.0721,-0.35742 -0.14414,-0.7148 0.16522,-1.02514 1.00013,-0.57361 2.19144,-0.81384 3.35875,-1.17321 1.04818,-0.33534 2.28755,-0.3373 3.1465,0.23335 1.76591,1.37959 2.81802,3.523 5.17862,4.16279 1.69189,-0.2172 3.0254,-0.982 4.31085,-1.98509 0.73784,-0.64468 1.54675,-1.55167 1.33054,-2.62387 -0.55153,-2.12036 -2.31746,-3.49996 -4.34468,-4.33095 -1.97918,-0.5927 -4.14957,-1.51879 -5.79636,-2.92241 -0.90698,-0.80891 -1.24232,-1.85709 -1.79191,-2.73809 -0.16716,-0.21424 -0.6437,-0.11815 -0.7388,0.025 -0.59469,0.73981 0.21719,1.6919 0.36133,2.40668 0.21522,0.45252 0.57361,1.00014 0.40741,1.40559 -0.90404,1.05013 -2.42973,0.86188 -3.71618,1.24527 -2.64495,0.40938 -5.36295,-0.15834 -8.05496,0.63246 -2.59691,0.64764 -5.81056,3.15531 -8.24519,0.91878 -1.457538,-2.30962 -1.819857,-5.33598 -1.847817,-7.93387 -0.04805,-0.23827 -0.334351,-0.42849 -0.572618,-0.38044 -0.262281,-0.0711 -0.476525,0.0961 -0.547617,0.35838 -0.210309,2.64592 0.223085,5.41001 0.155923,8.15106 -0.496619,2.45572 -1.684011,5.17469 -3.707304,6.82246 -1.809058,1.48059 -4.119653,2.31845 -6.573398,3.06121 -4.503026,1.03201 -8.504521,2.70673 -10.570944,7.21469 -0.166196,0.40545 -0.451524,0.83492 -0.236303,1.28742 0.143158,0.0951 0.52458,0.14218 0.619693,-0.001 2.400778,-4.07944 6.043895,-6.3018 10.619,-6.97642 4.288774,-0.86483 8.433426,-2.44446 10.428769,-6.69011 0.546633,-0.97806 0.855,-1.90811 1.258483,-2.98127 0.476526,-0.0961 0.954048,0.42751 1.359489,0.5937 0.383382,1.28643 -0.520643,2.33658 -0.780971,3.50486 -0.355431,1.31145 -0.662825,2.86117 -1.710016,3.81619 -1.357514,0.64568 -2.356655,1.83898 -3.522983,2.81803 -1.19035,0.85991 -2.810172,1.43452 -4.430966,1.38941 -1.978188,0.027 -4.695212,0.0789 -6.433178,1.29725 -0.832943,0.78785 -1.450667,2.02821 -2.283623,2.81605 -1.190348,0.85992 -2.165457,2.17235 -3.738212,2.36552 -1.120246,-0.0221 -2.574849,-0.4726 -3.335732,0.67265 -0.97512,1.31242 -0.829016,3.2666 -2.233612,4.29369 -1.594794,1.31342 -3.69311,0.74471 -5.504132,0.98593 -0.122079,-1.83503 -0.220135,-3.55094 0.706937,-5.10164 0.690781,-0.26326 1.262419,-0.50252 1.761982,-1.09916 0.594686,-0.7398 0.903059,-1.66983 1.211422,-2.59985 1.356548,-1.26536 2.999409,-2.34051 3.616143,-4.20056 0.4025,-1.69287 0.114225,-3.12246 1.017284,-4.79229 l 0.547617,-0.35838 3.168538,-0.88689 c 1.19035,-0.85992 2.261562,-1.69581 3.260712,-2.88911 0.285325,-0.42948 0.284339,-1.04916 0.0451,-1.62079 -0.907965,-1.42862 -1.600708,-2.40473 -2.29443,-4.00053 -0.69373,-1.5958 -0.791785,-3.3117 -1.414422,-5.16978 -0.143152,-0.0951 -0.33436,-0.42849 -0.572628,-0.38044 -2.048303,0.90895 -3.953434,1.91301 -6.408166,2.03608 -3.288664,0.29122 -7.056813,-1.18053 -8.896756,-4.15689 -1.624728,-2.52384 -2.179223,-6.50328 -0.610413,-9.17519 1.425674,-2.76704 3.447981,-5.0345 5.422251,-7.540219 0.309359,-0.310338 0.213266,-0.786872 0.260325,-1.1683 -0.09609,-0.476516 -0.644695,-0.737829 -1.050138,-0.904027 -1.501663,-0.06912 -3.073431,0.743739 -4.62315,0.436354 -2.669944,-0.329447 -5.056536,-2.32774 -5.942451,-4.8766 -0.359362,-1.167313 -0.313279,-2.16842 0.0902,-3.241604 2.242443,1.283493 3.960325,2.424818 5.843407,2.540997 m 3.590357,54.693839 0.07207,0.3574 c -0.307386,1.54971 -0.328457,3.28965 -0.468668,5.0536 -1.09622,0.0971 -2.121352,-0.0682 -3.027361,-0.25738 -0.286303,-0.19021 -0.09609,-0.47652 -0.144137,-0.71479 0.880011,-1.16928 0.282385,-2.28854 0.256397,-3.64705 -0.02501,-0.73882 0.569678,-1.47862 1.212411,-1.98015 0.857955,-0.049 1.502647,0.68879 2.09929,1.18837 m 4.23288,-6.0606 c -0.355433,1.31144 -0.901075,2.90921 -2.067401,3.88826 -0.452512,0.21523 -1.048176,0.33534 -1.572757,0.19317 -0.286311,-0.19021 -0.810892,-0.33239 -0.906987,-0.80893 0.02305,-0.50055 -0.335337,-1.04818 0.09315,-1.38253 0.832943,-0.78786 1.665896,-1.57571 2.450796,-2.60181 0.214234,-0.16718 0.666743,-0.38242 0.833922,-0.16816 0.548601,0.26129 0.954055,0.4275 1.169275,0.88 m 59.589538,-12.51211 c 0.21523,0.4525 1.05015,0.90404 0.6697,1.47666 -0.80893,0.90698 -1.78503,1.59972 -3.11952,1.74484 -1.09721,-0.52261 -1.24232,-1.85709 -2.26844,-2.642 -0.38241,-0.66676 -1.4546,-0.45055 -1.36047,-1.21339 l 0.30935,-0.31033 c 1.31046,-0.26426 2.62093,-0.52851 3.88334,-1.03103 1.28645,-0.38339 1.24135,1.23739 1.88604,1.97525"
       id="path22"
       inkscape:connector-curvature="0"
       style="clip-rule:evenodd;fill:#008000;fill-opacity:0.99215686;fill-rule:evenodd;stroke:none;stroke-width:0.9305954;stroke-miterlimit:4;stroke-dasharray:none;stroke-opacity:1" /></g></g></svg>