<?xml version="1.0" encoding="UTF-8" standalone="no"?>
<!-- Created with Inkscape (http://www.inkscape.org/) -->

<svg
   xmlns:dc="http://purl.org/dc/elements/1.1/"
   xmlns:cc="http://creativecommons.org/ns#"
   xmlns:rdf="http://www.w3.org/1999/02/22-rdf-syntax-ns#"
   xmlns:svg="http://www.w3.org/2000/svg"
   xmlns="http://www.w3.org/2000/svg"
   xmlns:sodipodi="http://sodipodi.sourceforge.net/DTD/sodipodi-0.dtd"
   xmlns:inkscape="http://www.inkscape.org/namespaces/inkscape"
   version="1.1"
   id="svg2"
   width="256"
   height="256"
   viewBox="0 0 256 256"
   sodipodi:docname="monarchs.svg"
   inkscape:version="0.92.4 (5da689c313, 2019-01-14)">
  <metadata
     id="metadata8">
    <rdf:RDF>
      <cc:Work
         rdf:about="">
        <dc:format>image/svg+xml</dc:format>
        <dc:type
           rdf:resource="http://purl.org/dc/dcmitype/StillImage" />
        <dc:title />
      </cc:Work>
    </rdf:RDF>
  </metadata>
  <defs
     id="defs6">
    <inkscape:perspective
       id="perspective3563"
       inkscape:persp3d-origin="237.67551 : 158.45034 : 1"
       inkscape:vp_z="475.35101 : 237.67551 : 1"
       inkscape:vp_y="0 : 1000 : 0"
       inkscape:vp_x="0 : 237.67551 : 1"
       sodipodi:type="inkscape:persp3d" />
  </defs>
  <sodipodi:namedview
     pagecolor="#ffffff"
     bordercolor="#666666"
     borderopacity="1"
     objecttolerance="10"
     gridtolerance="10"
     guidetolerance="10"
     inkscape:pageopacity="0"
     inkscape:pageshadow="2"
     inkscape:window-width="1366"
     inkscape:window-height="705"
     id="namedview4"
     showgrid="false"
     inkscape:zoom="1.1751916"
     inkscape:cx="224.93495"
     inkscape:cy="108.80732"
     inkscape:window-x="-8"
     inkscape:window-y="-8"
     inkscape:window-maximized="1"
     inkscape:current-layer="svg2"
     inkscape:pagecheckerboard="true" />
  <g
     id="g1379"
     transform="matrix(1.002498,0,0,1.002498,-0.319743,19.332429)">
    <path
       style="fill:#000000"
       id="path3381"
       d="m 232.73836,131.33926 c 0,57.84956 -46.89519,104.73858 -104.73858,104.73858 -57.846472,0 -104.738142,-46.88902 -104.738142,-104.73858 0,-57.84383 46.89167,-104.73814 104.738142,-104.73814 57.84339,0 104.73858,46.89431 104.73858,104.73814"
       inkscape:connector-curvature="0" />
    <path
       style="fill:#ff0000"
       id="path3383"
       d="m 229.2451,131.33926 c 0,55.91719 -45.32681,101.24444 -101.24444,101.24444 -55.918072,0 -101.245762,-45.32681 -101.245762,-101.24444 0,-55.91807 45.32769,-101.24576 101.245762,-101.24576 55.91674,0 101.24444,45.32769 101.24444,101.24576"
       inkscape:connector-curvature="0" />
    <path
       style="fill:#000000"
       id="path3385"
       d="m 200.15199,131.33926 c 0,39.84786 -32.30302,72.14559 -72.15044,72.14559 -39.849637,0 -72.153537,-32.29773 -72.153537,-72.14559 0,-39.85139 32.3039,-72.15353 72.153537,-72.15353 39.8483,-4.4e-4 72.15044,32.30214 72.15044,72.15353"
       inkscape:connector-curvature="0" />
    <path
       style="fill:#ffff00"
       id="path3387"
       d="m 197.96732,131.33926 c 0,38.64217 -31.33044,69.96688 -69.96732,69.96688 -38.642172,0 -69.967322,-31.32515 -69.967322,-69.96688 0,-38.64173 31.32515,-69.96776 69.967322,-69.96776 38.63776,0 69.96732,31.32559 69.96732,69.96776"
       inkscape:connector-curvature="0" />
    <g
       style="fill:#ff0000"
       transform="matrix(1.3056469,0,0,1.3056469,238.64412,23.678405)"
       id="g827">
      <path
         style="fill:#ff0000;stroke:#000000;stroke-width:5;stroke-miterlimit:4;stroke-dasharray:none;stroke-opacity:1"
         d="m -114.74385,109.04774 c -0.24947,-0.46615 -0.45359,-1.06582 -0.45359,-1.3326 0,-0.26678 -0.7887,-2.09415 -1.75267,-4.06081 -0.96398,-1.96666 -1.75268,-3.63452 -1.75268,-3.706346 0,-0.0718 0.88139,-0.1306 1.95864,-0.1306 1.66185,0 2.1038,-0.19633 2.91654,-1.29562 l 0.95789,-1.29562 1.16326,0.82832 c 0.63979,0.45557 1.68299,0.95876 2.31822,1.11819 1.36912,0.34363 3.96011,-0.42591 4.78136,-1.42008 0.51653,-0.6253 0.44339,-0.67899 -0.64364,-0.47242 -0.80272,0.15254 -1.55654,-0.0343 -2.18202,-0.54076 -0.81129,-0.65695 -0.88958,-0.96272 -0.51836,-2.02464 0.34041,-0.97381 0.74932,-1.28112 1.84637,-1.38761 l 1.40912,-0.13678 -0.92282,-1.24817 c -0.50754,-0.68649 -1.737,-1.55912 -2.73213,-1.93916 l -1.80932,-0.69098 -0.0217,-4.93477 c -0.0119,-2.71413 -0.17992,-6.51219 -0.37331,-8.44013 -0.26877,-2.679315 -0.18607,-4.208734 0.35091,-6.490188 0.38639,-1.641657 0.70253,-3.09877 0.70253,-3.238028 0,-0.139258 -1.08092,-0.141636 -2.40204,-0.0053 -4.39724,0.453836 -7.24908,2.876308 -8.82258,7.49429 -1.36842,4.016076 0.16987,9.777446 3.49961,13.107186 1.80083,1.80083 1.98155,2.95643 0.7143,4.56747 -1.05262,1.33819 -1.11924,2.2447 -0.19114,2.60085 0.41801,0.16041 0.94028,-0.10125 1.33935,-0.67101 1.42626,-2.03626 4.16788,-0.10532 3.25597,2.29319 -0.48679,1.28035 -0.94026,1.40975 -2.19477,0.6263 -0.69533,-0.43424 -1.00307,-0.38601 -1.72907,0.27102 -1.46113,1.3223 -2.82798,0.60335 -4.92931,-2.59277 -1.0292,-1.5654 -2.04071,-2.84619 -2.2478,-2.84619 -0.2071,0 -0.6723,0.29577 -1.03379,0.65726 -0.91178,0.91177 -2.2287,0.82131 -2.77009,-0.19028 -0.7104,-1.32739 -0.53476,-2.8867 0.42275,-3.75325 1.35371,-1.22509 1.08966,-1.85918 -0.75069,-1.80265 -1.36186,0.0418 -1.72215,-0.14503 -2.21073,-1.14661 -0.65686,-1.34652 -0.22595,-2.5925 1.33319,-3.85501 0.85272,-0.6905 0.83669,-0.7271 -0.72159,-1.6465 -1.18294,-0.69796 -1.5937,-1.23388 -1.5937,-2.07932 0,-1.49175 0.74018,-2.83407 1.56276,-2.83407 0.99843,0 1.22685,-1.156174 0.44808,-2.268019 -0.82235,-1.174071 -0.91528,-3.472133 -0.17053,-4.216886 0.28919,-0.289192 1.09209,-0.525803 1.78421,-0.525803 h 1.2584 l -0.30151,-2.413245 c -0.20865,-1.669962 -0.13436,-2.614659 0.2412,-3.067185 0.61454,-0.740467 2.43572,-0.878572 2.84535,-0.215771 0.14895,0.240993 0.58073,0.438169 0.95954,0.438169 0.54498,0 0.63574,-0.326489 0.43486,-1.564382 -0.61879,-3.813138 2.23875,-5.521333 3.89109,-2.326044 0.86481,1.672357 1.50614,1.597973 1.50614,-0.174687 0,-1.557401 1.03245,-3.383765 1.91286,-3.383765 1.44251,0 2.17871,1.223562 2.43864,4.053066 0.0166,0.180745 0.42455,0.328627 0.90653,0.328627 0.6816,0 0.87634,-0.292113 0.87634,-1.314508 0,-1.269317 1.28419,-3.067185 2.19085,-3.067185 0.24099,0 0.85424,0.416079 1.36279,0.92462 0.7437,0.743706 0.87212,1.252934 0.6563,2.60257 -0.14757,0.922872 -0.0851,1.791213 0.13894,1.929646 0.22399,0.138434 1.45677,-0.173735 2.73951,-0.693708 1.75297,-0.710587 3.583818,-0.996894 7.371198,-1.152703 2.771416,-0.114015 5.285406,-0.405617 5.586656,-0.648006 0.30124,-0.242388 0.54771,-1.027586 0.54771,-1.744885 0,-1.648146 1.04955,-3.883045 2.43461,-5.184249 0.70542,-0.662703 1.07074,-1.487091 1.07074,-2.416238 0,-1.445006 -0.57652,-1.942262 -2.25188,-1.942262 -0.74748,0 -0.84729,-0.25428 -0.73096,-1.862219 0.127,-1.755205 0.21802,-1.870218 1.58392,-2.001398 0.79704,-0.07655 1.55755,-0.421606 1.69001,-0.766796 0.31287,-0.815314 2.61031,-0.815314 2.92318,0 0.13246,0.34519 0.89296,0.690249 1.69001,0.766796 1.3659,0.13118 1.45692,0.246193 1.58391,2.001398 0.11634,1.607939 0.0165,1.862219 -0.73096,1.862219 -1.75317,0 -2.25187,0.483691 -2.25187,2.184074 0,0.964948 0.28539,1.889004 0.68614,2.221596 1.04954,0.871043 1.86329,2.696575 2.09289,4.695134 0.11416,0.993699 0.31823,1.985783 0.45349,2.204632 0.13525,0.218848 2.27303,0.503614 4.75061,0.632813 3.03254,0.158139 5.36386,0.546909 7.13371,1.189617 4.08686,1.48412 4.3445,1.438812 4.60077,-0.809088 0.27972,-2.453534 1.51025,-3.45736 2.97797,-2.429329 0.62341,0.436655 0.96556,1.133299 0.96556,1.965967 0,0.997548 0.19849,1.289661 0.87634,1.289661 0.67684,0 0.87633,-0.292113 0.87633,-1.283209 0,-2.142596 2.09883,-3.453403 3.41772,-2.134511 0.2892,0.289192 0.52581,1.373661 0.52581,2.409931 0,2.247117 0.75372,2.479084 1.84184,0.56685 1.56207,-2.74515 4.62492,-0.767141 3.51061,2.26717 -0.61918,1.686021 0.1387,2.287963 1.71116,1.359087 1.15312,-0.681164 1.2793,-0.676113 2.12018,0.08488 1.01019,0.914207 1.17131,2.866933 0.34639,4.197995 -0.44723,0.721633 -0.43442,0.954258 0.0698,1.268023 0.33963,0.211343 0.86662,0.28867 1.17108,0.171837 0.30447,-0.116833 0.98371,0.217713 1.50943,0.743436 1.09414,1.094134 0.94974,3.065389 -0.32795,4.477223 -0.70747,0.781744 -0.67498,0.876021 0.66246,1.922734 2.10838,1.65005 1.79505,4.56819 -0.5538,5.15771 -1.38733,0.3482 -1.38946,0.71934 -0.0116,2.01382 2.16315,2.03217 0.82161,5.2143 -1.94233,4.60724 -1.54879,-0.34017 -1.72969,0.16587 -0.4676,1.30804 0.9813,0.88806 1.18377,3.24175 0.35054,4.07498 -0.72846,0.72846 -2.32432,0.65805 -2.97955,-0.13145 -0.79643,-0.95964 -1.2091,-0.81758 -1.9853,0.68343 -1.08867,2.10527 -3.72424,4.79368 -4.69946,4.79368 -0.48762,0 -1.12111,-0.32073 -1.40775,-0.71273 -0.4389,-0.60024 -0.6831,-0.62606 -1.54721,-0.16361 -0.87932,0.4706 -1.10963,0.43483 -1.6105,-0.25016 -0.90424,-1.23662 0.11107,-3.69336 1.52637,-3.69336 0.3767,0 1.13611,0.42389 1.68759,0.94198 0.91585,0.8604 1.02776,0.87662 1.29222,0.18745 0.17577,-0.45802 -0.078,-1.25167 -0.64581,-2.01965 -1.37253,-1.85644 -1.17488,-2.72859 1.24505,-5.49398 4.16935,-4.76455 4.98554,-9.85613 2.35518,-14.692185 -1.6821,-3.092619 -3.78587,-4.707673 -6.75887,-5.188749 -1.30762,-0.211592 -2.5458,-0.224213 -2.7515,-0.02805 -0.206,0.19646 -0.1568,1.36942 0.10954,2.611343 0.6654,3.102647 0.6041,6.116861 -0.21873,10.755841 -0.426,2.40169 -0.60368,5.00928 -0.45445,6.6694 l 0.24505,2.72586 -1.9541,0.86439 c -1.07475,0.47541 -1.95409,1.10642 -1.95409,1.40224 0,0.29582 -0.34505,0.92939 -0.76679,1.40793 -0.73915,0.83871 -0.73227,0.86146 0.19074,0.63065 1.17492,-0.2938 2.7669,0.74846 2.7669,1.81148 0,1.25574 -1.54675,2.38059 -2.83045,2.05841 -1.4538,-0.36489 -1.42318,0.30968 0.0581,1.28027 1.52367,0.998346 4.05098,0.977456 5.78665,-0.0478 l 1.38007,-0.81522 1.15297,1.24342 c 1.01279,1.092256 1.38577,1.217186 3.06776,1.027606 1.05313,-0.11871 1.99212,-0.0907 2.08663,0.0622 0.15537,0.25139 -2.9826,7.3862 -3.82984,8.70788 -0.40464,0.63125 -4.68106,0.7635 -4.68106,0.14477 0,-0.22163 0.98588,-0.73042 2.19084,-1.13064 1.20497,-0.40023 2.19085,-0.88929 2.19085,-1.08682 0,-0.19752 -1.72228,-1.08009 -3.82729,-1.96126 l -3.82728,-1.60213 -4.13781,1.02566 c -2.2758,0.56412 -4.20577,1.22954 -4.28884,1.47873 -0.0831,0.24919 0.84562,0.91987 2.06374,1.4904 4.382,2.05242 4.01601,2.18901 -5.86557,2.18901 -4.96987,0 -9.03612,-0.16782 -9.03612,-0.37293 0,-0.20511 1.42952,-1.01767 3.17672,-1.80569 l 3.17673,-1.43276 -2.62901,-1.23989 c -4.10883,-1.93778 -5.08799,-2.00543 -9.20853,-0.63622 l -3.62113,1.20326 -1.385286,-1.02419 c -1.28963,-0.95347 -1.46694,-0.97852 -2.56765,-0.36272 -1.54302,0.86327 -1.74675,2.31239 -0.45252,3.2189 1.33912,0.93797 2.08712,0.88159 3.289436,-0.24793 l 1.00855,-0.94748 2.9597,1.37513 c 1.62784,0.75633 3.02701,1.57705 3.10927,1.82383 0.0989,0.29668 -2.98014,0.44869 -9.088506,0.44869 -6.199058,0 -9.238068,-0.15237 -9.238068,-0.46317 0,-0.25475 1.37512,-1.07055 3.05583,-1.8129 1.6807,-0.74235 2.957238,-1.50924 2.836748,-1.70419 -0.12049,-0.19496 -1.872508,-0.89294 -3.893378,-1.55106 l -3.67431,-1.19659 -3.76323,1.45488 c -3.59752,1.39084 -4.41494,2.00694 -3.2155,2.42362 3.72992,1.29577 5.58666,2.10762 5.58666,2.44272 0,0.22368 -1.3733,0.40669 -3.05177,0.40669 -2.56875,0 -3.12356,-0.13415 -3.50536,-0.84753 z m 41.685704,-1.19214 c 0.99428,-0.89982 1.01865,-1.81376 0.0761,-2.85523 -0.98403,-1.08734 -1.99614,-1.00688 -3.17952,0.25278 -0.80127,0.85291 -0.90043,1.22193 -0.51957,1.93358 0.80208,1.49871 2.3834,1.79065 3.62296,0.66887 z m 4.85436,-9.419986 c 1.16175,-0.60867 0.91762,-1.29659 -0.40964,-1.15429 -0.89547,0.096 -1.34022,-0.16075 -1.86222,-1.07506 -0.81018,-1.41908 -0.28518,-2.65824 1.22119,-2.88236 0.51762,-0.077 0.94103,-0.27418 0.94091,-0.43816 -1.2e-4,-0.16399 -0.986,-1.1471 -2.19084,-2.18469 -1.20485,-1.03759 -2.19064,-2.115 -2.19064,-2.39424 0,-0.27924 0.77448,-1.99635 1.72107,-3.81581 3.9215,-7.53763 5.05174,-14.053974 2.97337,-17.142897 -1.96734,-2.923901 -10.24948,-6.040468 -10.98168,-4.132397 -1.22947,3.203929 -1.11829,16.781294 0.17592,21.484834 0.84488,3.07054 0.76734,3.3492 -1.2696,4.56235 -1.66558,0.99196 -3.07167,2.63862 -3.11961,3.65332 -0.009,0.18075 0.55491,0.32863 1.2521,0.32863 0.75171,0 1.37588,0.28209 1.53359,0.69309 0.79936,2.08309 -0.37258,3.84694 -2.2852,3.43937 l -1.17327,-0.25001 1.03442,0.90687 c 1.33217,1.16791 3.23019,1.15188 5.36021,-0.0452 1.61106,-0.90546 1.73515,-0.91496 2.53205,-0.19378 1.64957,1.49284 4.57943,1.77135 6.73787,0.64048 z m -26.992886,-0.67226 c 1.272126,-0.83354 1.297846,-1.56454 0.11148,-3.16919 -0.75297,-1.01844 -0.82968,-1.41276 -0.42275,-2.1731 0.30213,-0.56455 0.925,-0.9289 1.587966,-0.9289 1.52953,0 2.1816,1.77781 1.28677,3.50822 -0.86094,1.66489 -0.89992,1.55232 0.97953,2.82944 1.92241,1.30631 3.02783,1.39213 4.51111,0.35022 l 1.08338,-0.76099 -1.26222,-0.22489 c -2.71668,-0.48402 -2.96719,-3.94932 -0.28549,-3.94932 0.73074,0 1.32863,-0.10838 1.32863,-0.24085 0,-0.99739 -1.61746,-2.92061 -3.27152,-3.88995 -1.09258,-0.6403 -1.98651,-1.40917 -1.98651,-1.7086 0,-0.29944 0.41487,-1.72065 0.92194,-3.15826 0.50707,-1.43761 1.23293,-5.07853 1.61303,-8.09095 0.61063,-4.839497 0.61807,-5.936196 0.0639,-9.420636 l -0.62714,-3.943523 -2.68735,0.07248 c -3.380956,0.09119 -7.134526,1.773036 -8.784244,3.935931 -2.38672,3.129155 -1.61411,8.925798 2.289458,17.176938 l 1.93814,4.09674 -1.41695,1.2257 c -0.77932,0.67413 -2.008478,1.73271 -2.731448,2.3524 l -1.31451,1.12672 1.43344,0.0139 c 1.075858,0.0104 1.551648,0.27328 1.907298,1.05384 0.69818,1.53234 -0.16253,2.90353 -1.822558,2.90353 -1.71398,0 -1.65269,0.76131 0.12495,1.55228 1.609368,0.7161 3.856298,0.49308 5.431638,-0.53913 z m 30.855676,-8.03928 c 0.57224,-0.30626 0.84753,-0.91824 0.84753,-1.88413 0,-2.34653 -1.53956,-3.20738 -3.14223,-1.75698 -0.98081,0.88762 -1.01715,1.83886 -0.1192,3.12086 0.76279,1.08903 1.18221,1.17942 2.4139,0.52025 z m -38.916394,-1.35729 c 0.6921,-0.92699 0.73827,-1.27783 0.29593,-2.24866 -0.89899,-1.97308 -2.75288,-1.99605 -3.49531,-0.0433 -0.65031,1.71046 0.54898,3.83805 1.96782,3.491 0.22633,-0.0554 0.78053,-0.59492 1.23156,-1.19902 z m 19.637804,-1.31174 c 0.35455,-0.66248 0.36624,-1.22238 0.0405,-1.93735 -0.32482,-0.7129 -0.31263,-1.39117 0.0419,-2.33038 0.39106,-1.03603 0.3712,-1.56555 -0.0911,-2.4294 -0.40346,-0.75387 -0.45197,-1.28327 -0.15279,-1.66727 0.56304,-0.72265 0.60722,-6.533264 0.0549,-7.215402 -0.27828,-0.343654 -0.17136,-0.897509 0.31719,-1.643135 0.68403,-1.043965 0.68541,-1.203423 0.0192,-2.22017 -0.66006,-1.007373 -0.66119,-1.181749 -0.0141,-2.169393 0.9348,-1.426661 0.47031,-2.869554 -0.92374,-2.869554 -1.36827,0 -1.97206,1.918985 -0.93126,2.959784 0.63424,0.634245 0.63215,0.800771 -0.0241,1.911606 -0.59522,1.007637 -0.62735,1.417564 -0.18684,2.384374 0.40351,0.885608 0.4096,1.314974 0.0252,1.778122 -0.31485,0.379376 -0.39987,1.278952 -0.2245,2.375619 0.15523,0.970769 0.0926,2.119299 -0.13909,2.552279 -0.29109,0.54392 -0.22957,1.15685 0.19905,1.98301 0.49115,0.9467 0.51096,1.37094 0.0951,2.0368 -0.395,0.6325 -0.40396,1.16236 -0.0361,2.13683 0.39076,1.03524 0.3562,1.48554 -0.1719,2.23952 -0.51608,0.73679 -0.55551,1.17529 -0.17984,1.9998 0.59477,1.30537 1.62034,1.36123 2.28231,0.12431 z m 21.18995,-4.00878 c 0.33517,-0.95306 0.26608,-1.3662 -0.32779,-1.96008 -1.44785,-1.44785 -3.34801,1.17468 -2.01493,2.78093 0.78439,0.94514 1.85338,0.57058 2.34272,-0.82085 z m -42.236014,-0.34687 c 0.37706,-0.70454 0.32958,-1.1425 -0.21377,-1.97176 -0.38417,-0.58632 -0.88658,-1.06604 -1.11646,-1.06604 -0.22988,0 -0.73229,0.47972 -1.11647,1.06604 -0.84304,1.28665 -0.22579,2.87748 1.11647,2.87748 0.46503,0 1.06363,-0.40757 1.33023,-0.90572 z m 42.561734,-3.3248 c 0.93919,-0.84996 1.02326,-1.87097 0.24202,-2.93937 -1.23946,-1.695072 -3.13592,0.79602 -2.09158,2.74739 0.59225,1.10663 0.81351,1.1296 1.84956,0.19198 z m -43.583454,-1.13705 c 0.98733,-2.16708 -1.37806,-4.176481 -2.48394,-2.11011 -0.61624,1.15145 -0.57246,1.60001 0.23497,2.40744 0.95979,0.95979 1.72213,0.85901 2.24897,-0.29733 z m 44.575414,-3.802583 c 0.81666,-0.902396 0.65317,-2.216441 -0.38272,-3.076156 -0.40067,-0.332525 -0.52063,-1.059031 -0.36565,-2.214496 0.20602,-1.535975 0.10774,-1.775621 -0.92033,-2.244039 -0.73873,-0.336589 -1.15098,-0.872363 -1.15098,-1.495861 0,-1.18046 -0.99004,-2.081824 -2.06025,-1.87572 -1.2425,0.239282 -1.08819,3.075145 0.19803,3.639438 0.54223,0.237892 0.98588,0.736253 0.98588,1.10747 0,0.371218 0.31445,1.123882 0.69878,1.672587 0.44431,0.634346 0.59659,1.404778 0.41818,2.115655 -0.17564,0.699804 -0.0235,1.510409 0.40674,2.167034 0.83189,1.269621 1.17855,1.302191 2.17232,0.204088 z m -45.158914,-0.960897 c 0.4792,-0.684149 0.54044,-1.220427 0.232,-2.031687 -0.34216,-0.899923 -0.25604,-1.216371 0.46922,-1.724366 0.48855,-0.342195 0.88828,-1.057177 0.88828,-1.588848 0,-0.566569 0.39322,-1.1457 0.95004,-1.399205 2.2056,-1.004154 2.11899,-3.499714 -0.12146,-3.499714 -0.79191,0 -1.14494,0.329611 -1.44613,1.350218 -0.21916,0.74262 -0.81069,1.531325 -1.31451,1.752677 -0.68802,0.302278 -0.91604,0.799846 -0.91604,1.99888 0,0.905236 -0.332,1.963576 -0.7668,2.444433 -0.88156,0.974931 -0.95069,1.588432 -0.31321,2.779576 0.59338,1.108732 1.52755,1.075992 2.33861,-0.08196 z m 39.005974,-9.510526 c 0.12309,-0.199171 0.11173,-0.790699 -0.0252,-1.314508 -0.28707,-1.097751 -1.79446,-1.297835 -2.18138,-0.289545 -0.46354,1.207959 1.5478,2.670053 2.20663,1.604053 z m -32.677056,-1.503837 c 0.11217,-0.971835 -0.0369,-1.201219 -0.780548,-1.201219 -1.01956,0 -1.56566,0.94434 -1.15898,2.004146 0.4249,1.107252 1.784,0.544611 1.939528,-0.802927 z m 29.433146,-0.538385 c 0.71732,-0.86432 0.24894,-1.977342 -0.8321,-1.977342 -1.08457,0 -1.49131,0.630156 -1.13379,1.756598 0.32771,1.032531 1.20995,1.131595 1.96589,0.220744 z m -26.285526,-0.443749 c 0.43519,-0.524365 0.43519,-0.790144 0,-1.314508 -1.09496,-1.319356 -2.65573,-0.309888 -2.03239,1.314508 0.13872,0.361489 0.53002,0.657254 0.86957,0.657254 0.33954,0 0.86281,-0.295765 1.16282,-0.657254 z m 2.46293,-1.772573 c -0.23044,-0.600512 -0.40352,-0.635574 -0.93992,-0.190402 -0.5103,0.423509 -0.54272,0.683923 -0.14484,1.163342 0.65511,0.789361 1.477846,0.05143 1.08476,-0.97294 z m 2.795106,0.896234 c 0,-0.36149 -0.29577,-0.657254 -0.65726,-0.657254 -0.68423,0 -0.86931,0.518223 -0.36514,1.022395 0.50417,0.504172 1.0224,0.319093 1.0224,-0.365141 z m 14.89775,0 c 0,-0.36149 -0.18554,-0.657254 -0.41231,-0.657254 -0.55252,0 -0.94824,0.684241 -0.59817,1.034308 0.49346,0.493459 1.01048,0.300535 1.01048,-0.377054 z m 3.06719,0.02586 c 0,-0.347267 -0.21436,-0.763874 -0.47635,-0.925794 -0.61871,-0.38238 -1.46322,0.462136 -1.08084,1.08084 0.4295,0.694945 1.55719,0.582663 1.55719,-0.155046 z"
         id="path4573-6"
         inkscape:connector-curvature="0" />
      <path
         style="fill:#ff0000;stroke-width:0.43816927"
         d="m -114.74388,109.04796 c -0.24947,-0.46614 -0.45359,-1.06581 -0.45359,-1.33259 0,-0.26679 -0.7887,-2.09415 -1.75267,-4.06081 -0.96398,-1.96666 -1.75268,-3.63453 -1.75268,-3.706355 0,-0.07183 0.88139,-0.130605 1.95864,-0.130605 1.66185,0 2.1038,-0.196331 2.91654,-1.295614 l 0.95789,-1.295618 1.16327,0.828315 c 0.63979,0.455569 1.68299,0.958758 2.31822,1.11819 1.36912,0.343626 3.96011,-0.425905 4.78136,-1.42008 0.51653,-0.625298 0.44339,-0.678987 -0.64364,-0.472421 -0.80272,0.15254 -1.55654,-0.03426 -2.18202,-0.540758 -0.81129,-0.656947 -0.88958,-0.962719 -0.51836,-2.02464 0.34041,-0.973814 0.74932,-1.281119 1.84637,-1.387607 l 1.40912,-0.136784 -0.92282,-1.248169 c -0.50754,-0.686493 -1.737,-1.559116 -2.73213,-1.939157 l -1.80932,-0.690985 -0.0217,-4.934772 c -0.0119,-2.714125 -0.17992,-6.512182 -0.37331,-8.440127 -0.26877,-2.679314 -0.18607,-4.208733 0.35091,-6.490187 0.38639,-1.641657 0.70253,-3.09877 0.70253,-3.238028 0,-0.139258 -1.08092,-0.141636 -2.40204,-0.0053 -4.39725,0.453836 -7.24909,2.876308 -8.82259,7.49429 -1.36842,4.016071 0.16987,9.777443 3.49961,13.107188 1.80083,1.800823 1.98155,2.956425 0.7143,4.567468 -1.05262,1.338186 -1.11924,2.244702 -0.19114,2.600846 0.41801,0.160409 0.94028,-0.101248 1.33935,-0.671004 1.42626,-2.03626 4.16789,-0.105327 3.25598,2.293185 -0.48679,1.280357 -0.94027,1.409757 -2.19478,0.626306 -0.69533,-0.434243 -1.00307,-0.386009 -1.72907,0.271017 -1.46113,1.322303 -2.82798,0.60335 -4.92931,-2.592766 -1.0292,-1.565404 -2.04071,-2.84619 -2.2478,-2.84619 -0.2071,0 -0.6723,0.295764 -1.03379,0.657254 -0.91178,0.911773 -2.2287,0.821313 -2.77009,-0.19028 -0.7104,-1.32739 -0.53476,-2.886703 0.42275,-3.753244 1.35371,-1.22509 1.08966,-1.859187 -0.75069,-1.802654 -1.36186,0.04184 -1.72215,-0.145034 -2.21073,-1.146615 -0.65686,-1.346512 -0.22595,-2.592499 1.33319,-3.855009 0.85272,-0.690498 0.83669,-0.727098 -0.72159,-1.646501 -1.18294,-0.697954 -1.5937,-1.233873 -1.5937,-2.079313 0,-1.491756 0.74018,-2.834072 1.56276,-2.834072 0.99843,0 1.22685,-1.156174 0.44808,-2.268019 -0.82235,-1.174071 -0.91528,-3.472133 -0.17053,-4.216886 0.28919,-0.289192 1.09209,-0.525803 1.78421,-0.525803 h 1.2584 l -0.30151,-2.413245 c -0.20865,-1.669962 -0.13436,-2.614659 0.2412,-3.067185 0.61454,-0.740467 2.43572,-0.878572 2.84535,-0.215771 0.14895,0.240993 0.58073,0.438169 0.95954,0.438169 0.54498,0 0.63574,-0.326489 0.43486,-1.564382 -0.61879,-3.813138 2.23875,-5.521333 3.89109,-2.326044 0.86481,1.672357 1.50614,1.597973 1.50614,-0.174687 0,-1.557401 1.03245,-3.383765 1.91286,-3.383765 1.44252,0 2.17872,1.223562 2.43865,4.053066 0.0166,0.180745 0.42455,0.328627 0.90653,0.328627 0.6816,0 0.87634,-0.292113 0.87634,-1.314508 0,-1.269317 1.28419,-3.067185 2.19085,-3.067185 0.24099,0 0.85424,0.416079 1.36279,0.92462 0.7437,0.743706 0.87212,1.252934 0.6563,2.60257 -0.14757,0.922872 -0.0851,1.791213 0.13894,1.929646 0.22399,0.138434 1.45677,-0.173735 2.73951,-0.693708 1.75297,-0.710587 3.58382,-0.996894 7.3712,-1.152703 2.771416,-0.114015 5.285406,-0.405617 5.586656,-0.648006 0.30124,-0.242388 0.54771,-1.027586 0.54771,-1.744885 0,-1.648146 1.04955,-3.883045 2.43461,-5.184249 0.70542,-0.662703 1.07074,-1.487092 1.07074,-2.416239 0,-1.445006 -0.57652,-1.942262 -2.25188,-1.942262 -0.74748,0 -0.84729,-0.25428 -0.73096,-1.862219 0.127,-1.755205 0.21802,-1.870218 1.58392,-2.001398 0.79704,-0.07655 1.55755,-0.421606 1.69001,-0.766796 0.31287,-0.815314 2.61031,-0.815314 2.92318,0 0.13246,0.34519 0.89296,0.690249 1.69001,0.766796 1.3659,0.13118 1.45692,0.246193 1.58391,2.001398 0.11634,1.607939 0.0165,1.862219 -0.73096,1.862219 -1.75317,0 -2.25187,0.483691 -2.25187,2.184074 0,0.964948 0.28539,1.889005 0.68614,2.221597 1.04954,0.871043 1.86329,2.696575 2.09289,4.695134 0.11416,0.993699 0.31823,1.985783 0.45349,2.204632 0.13525,0.218848 2.27303,0.503614 4.75061,0.632813 3.03254,0.158139 5.36386,0.546909 7.13371,1.189617 4.08686,1.48412 4.3445,1.438812 4.60077,-0.809088 0.27972,-2.453534 1.51025,-3.45736 2.97797,-2.429329 0.62341,0.436655 0.96556,1.133299 0.96556,1.965967 0,0.997548 0.19849,1.289661 0.87634,1.289661 0.67684,0 0.87633,-0.292113 0.87633,-1.283209 0,-2.142596 2.09883,-3.453403 3.41772,-2.134511 0.2892,0.289192 0.52581,1.373661 0.52581,2.409931 0,2.247117 0.75372,2.479084 1.84184,0.56685 1.56207,-2.74515 4.62492,-0.767141 3.51061,2.26717 -0.61918,1.686021 0.1387,2.287963 1.71116,1.359087 1.15312,-0.681164 1.2793,-0.676113 2.12018,0.08488 1.01019,0.914207 1.17131,2.866933 0.34639,4.197995 -0.44723,0.721633 -0.43442,0.954258 0.0698,1.268023 0.33963,0.211343 0.86662,0.28867 1.17108,0.171837 0.30447,-0.116833 0.98371,0.217713 1.50943,0.743436 1.09414,1.094134 0.94974,3.065389 -0.32795,4.477223 -0.70747,0.781744 -0.67498,0.876021 0.66246,1.922729 2.10838,1.650053 1.79505,4.568194 -0.5538,5.157715 -1.38733,0.3482 -1.38946,0.719343 -0.0116,2.013818 2.16315,2.032167 0.82161,5.214306 -1.94233,4.60724 -1.54879,-0.340168 -1.72969,0.165869 -0.4676,1.308045 0.9813,0.888059 1.18377,3.241747 0.35054,4.074974 -0.72846,0.728461 -2.32432,0.658056 -2.97955,-0.131451 -0.79643,-0.959634 -1.2091,-0.817575 -1.9853,0.683431 -1.08867,2.105276 -3.72424,4.793685 -4.69946,4.793685 -0.48762,0 -1.12111,-0.320731 -1.40775,-0.71273 -0.4389,-0.600239 -0.6831,-0.626061 -1.54721,-0.163608 -0.87932,0.470598 -1.10963,0.434822 -1.6105,-0.250164 -0.90424,-1.236619 0.11107,-3.69336 1.52637,-3.69336 0.3767,0 1.13611,0.42389 1.68759,0.941977 0.91585,0.860398 1.02776,0.876627 1.29222,0.187453 0.17577,-0.458023 -0.078,-1.251666 -0.64581,-2.019654 -1.37253,-1.85644 -1.17488,-2.728589 1.24505,-5.493981 4.16935,-4.764548 4.98554,-9.856128 2.35518,-14.69218 -1.6821,-3.092619 -3.78587,-4.707673 -6.75887,-5.188749 -1.30762,-0.211592 -2.5458,-0.224213 -2.7515,-0.02805 -0.206,0.19646 -0.1568,1.36942 0.10954,2.611343 0.6654,3.102647 0.6041,6.116856 -0.21873,10.75584 -0.426,2.401694 -0.60368,5.009278 -0.45445,6.669397 l 0.24505,2.725868 -1.9541,0.864386 c -1.07475,0.475413 -1.95409,1.106421 -1.95409,1.402238 0,0.295817 -0.34505,0.929387 -0.76679,1.407934 -0.73915,0.838709 -0.73227,0.861454 0.19074,0.630648 1.17492,-0.293801 2.7669,0.748459 2.7669,1.811475 0,1.255745 -1.54675,2.380596 -2.83045,2.05841 -1.4538,-0.364881 -1.42318,0.309689 0.0581,1.280278 1.52367,0.998343 4.05098,0.977463 5.78665,-0.04783 l 1.38007,-0.815227 1.15297,1.243428 c 1.01279,1.092252 1.38577,1.217192 3.06776,1.027602 1.05313,-0.1187 1.99212,-0.0907 2.08663,0.0622 0.15537,0.2514 -2.9826,7.3862 -3.82984,8.70789 -0.40464,0.63125 -4.68106,0.76349 -4.68106,0.14476 0,-0.22163 0.98588,-0.73042 2.19084,-1.13064 1.20497,-0.40022 2.19085,-0.88929 2.19085,-1.08681 0,-0.19752 -1.72228,-1.08009 -3.82729,-1.96127 l -3.82728,-1.60213 -4.13781,1.02566 c -2.2758,0.56412 -4.20577,1.22954 -4.28884,1.47874 -0.0831,0.24918 0.84562,0.91987 2.06374,1.4904 4.382,2.05242 4.01601,2.189 -5.86557,2.189 -4.96987,0 -9.03612,-0.16782 -9.03612,-0.37293 0,-0.2051 1.42952,-1.01767 3.17672,-1.80568 l 3.17673,-1.43276 -2.62901,-1.23989 c -4.10883,-1.93778 -5.08799,-2.00544 -9.20853,-0.63623 l -3.62113,1.20326 -1.385286,-1.02419 c -1.28963,-0.95347 -1.46694,-0.97851 -2.56765,-0.36271 -1.54302,0.86326 -1.74675,2.31239 -0.45252,3.21889 1.33912,0.93797 2.08712,0.88159 3.289436,-0.24792 l 1.00855,-0.94749 2.9597,1.37514 c 1.62784,0.75632 3.02701,1.57705 3.10927,1.82382 0.0989,0.29668 -2.98014,0.44869 -9.088506,0.44869 -6.19906,0 -9.23807,-0.15237 -9.23807,-0.46317 0,-0.25474 1.37512,-1.07055 3.05583,-1.8129 1.6807,-0.74235 2.95724,-1.50924 2.83675,-1.70419 -0.12049,-0.19496 -1.87251,-0.89293 -3.89338,-1.55105 l -3.67431,-1.1966 -3.76323,1.45489 c -3.59753,1.39083 -4.41495,2.00694 -3.21551,2.42362 3.72993,1.29576 5.58667,2.10761 5.58667,2.44272 0,0.22367 -1.3733,0.40668 -3.05177,0.40668 -2.56876,0 -3.12357,-0.13414 -3.50537,-0.84753 z m 41.685716,-1.19214 c 0.99428,-0.89982 1.01865,-1.81375 0.0761,-2.85523 -0.98403,-1.08734 -1.99614,-1.00687 -3.17952,0.25279 -0.80127,0.8529 -0.90043,1.22193 -0.51957,1.93357 0.80208,1.49871 2.3834,1.79065 3.62296,0.66887 z m 4.85436,-9.419987 c 1.16175,-0.60867 0.91762,-1.296587 -0.40964,-1.154291 -0.89547,0.096 -1.34022,-0.160747 -1.86222,-1.075057 -0.81018,-1.419081 -0.28518,-2.658246 1.22119,-2.882357 0.51762,-0.07701 0.94103,-0.274184 0.94091,-0.438169 -1.2e-4,-0.163985 -0.986,-1.147092 -2.19084,-2.184681 -1.20485,-1.037594 -2.19064,-2.115 -2.19064,-2.39424 0,-0.279241 0.77448,-1.996357 1.72107,-3.815811 3.9215,-7.53763 5.05174,-14.053977 2.97337,-17.1429 -1.96734,-2.923901 -10.24948,-6.040468 -10.98168,-4.132397 -1.22947,3.203929 -1.11829,16.781297 0.17592,21.48483 0.84488,3.070546 0.76734,3.349204 -1.2696,4.56235 -1.66558,0.991962 -3.07167,2.63862 -3.11961,3.653324 -0.009,0.180745 0.55491,0.328627 1.2521,0.328627 0.75171,0 1.37588,0.282089 1.53359,0.693092 0.79936,2.083087 -0.37258,3.846937 -2.2852,3.439374 l -1.17327,-0.250015 1.03442,0.906875 c 1.33217,1.167909 3.23019,1.151881 5.36021,-0.04525 1.61106,-0.905468 1.73515,-0.914963 2.53205,-0.193785 1.64957,1.492843 4.57943,1.771348 6.73787,0.640485 z M -95.19669,97.763572 c 1.272126,-0.833534 1.297846,-1.56454 0.11148,-3.169191 -0.75297,-1.018441 -0.82968,-1.412754 -0.42275,-2.1731 0.30213,-0.564551 0.925,-0.928897 1.587966,-0.928897 1.52953,0 2.1816,1.77781 1.28677,3.50822 -0.86094,1.664885 -0.89992,1.552319 0.97953,2.829438 1.92241,1.30631 3.02783,1.39213 4.51111,0.350225 l 1.08338,-0.760995 -1.26222,-0.224886 c -2.71668,-0.484024 -2.96719,-3.949325 -0.28549,-3.949325 0.73074,0 1.32863,-0.108381 1.32863,-0.240844 0,-0.997396 -1.61746,-2.920609 -3.27152,-3.889958 -1.09258,-0.640292 -1.98651,-1.409161 -1.98651,-1.708597 0,-0.299436 0.41487,-1.720651 0.92194,-3.158258 0.50707,-1.437608 1.23293,-5.078533 1.61303,-8.090946 0.61063,-4.839501 0.61807,-5.9362 0.0639,-9.42064 l -0.62714,-3.943523 -2.68735,0.07248 c -3.380956,0.09119 -7.134526,1.773036 -8.784246,3.935931 -2.38672,3.129155 -1.61411,8.925795 2.28946,17.176935 l 1.93814,4.096743 -1.41695,1.225695 c -0.77932,0.674132 -2.00848,1.732714 -2.73145,2.352408 l -1.31451,1.126713 1.43344,0.01385 c 1.07586,0.01038 1.55165,0.273282 1.9073,1.053846 0.69818,1.532339 -0.16253,2.903524 -1.82256,2.903524 -1.71398,0 -1.65269,0.76131 0.12495,1.552285 1.60937,0.716095 3.8563,0.493076 5.43164,-0.539128 z m 30.855676,-8.03928 c 0.57224,-0.306259 0.84753,-0.918241 0.84753,-1.884128 0,-2.346528 -1.53956,-3.207377 -3.14223,-1.756984 -0.98081,0.887625 -1.01715,1.83886 -0.1192,3.12086 0.76279,1.089031 1.18221,1.179425 2.4139,0.520252 z m -38.916396,-1.357287 c 0.6921,-0.926995 0.73827,-1.277833 0.29593,-2.248658 -0.89899,-1.973081 -2.75288,-1.996058 -3.49531,-0.04333 -0.65031,1.710455 0.54898,3.838047 1.96782,3.491 0.22633,-0.05536 0.78053,-0.59492 1.23156,-1.19902 z m 19.637806,-1.311738 c 0.35455,-0.662486 0.36624,-1.222383 0.0405,-1.937352 -0.32482,-0.712906 -0.31263,-1.39117 0.0419,-2.330378 0.39106,-1.036038 0.3712,-1.565552 -0.0911,-2.429403 -0.40346,-0.753871 -0.45197,-1.283274 -0.15279,-1.667266 0.56304,-0.722658 0.60722,-6.533268 0.0549,-7.215406 -0.27828,-0.343654 -0.17136,-0.897509 0.31719,-1.643135 0.68403,-1.043965 0.68541,-1.203423 0.0192,-2.22017 -0.66006,-1.007373 -0.66119,-1.181749 -0.0141,-2.169393 0.9348,-1.426661 0.47031,-2.869554 -0.92374,-2.869554 -1.36827,0 -1.97206,1.918985 -0.93126,2.959784 0.63424,0.634245 0.63215,0.800771 -0.0241,1.911606 -0.59522,1.007637 -0.62735,1.417564 -0.18684,2.384374 0.40351,0.885608 0.4096,1.314974 0.0252,1.778122 -0.31485,0.379376 -0.39987,1.278952 -0.2245,2.375619 0.15523,0.970768 0.0926,2.119295 -0.13909,2.552283 -0.29109,0.543917 -0.22957,1.15685 0.19905,1.983007 0.49115,0.946696 0.51096,1.370938 0.0951,2.036801 -0.395,0.632498 -0.40396,1.162354 -0.0361,2.136829 0.39076,1.035237 0.3562,1.485543 -0.1719,2.239514 -0.51608,0.736795 -0.55551,1.175293 -0.17984,1.999805 0.59477,1.305367 1.62034,1.361225 2.28231,0.124313 z m 21.18995,-4.008785 c 0.33517,-0.953057 0.26608,-1.366203 -0.32779,-1.96008 -1.44785,-1.447844 -3.34801,1.174679 -2.01493,2.780929 0.78439,0.94514 1.85338,0.570584 2.34272,-0.820849 z m -42.236016,-0.346868 c 0.37706,-0.704545 0.32958,-1.142504 -0.21377,-1.971761 -0.38417,-0.586323 -0.88658,-1.066041 -1.11646,-1.066041 -0.22988,0 -0.73229,0.479718 -1.11647,1.066041 -0.84304,1.286649 -0.22579,2.877484 1.11647,2.877484 0.46503,0 1.06363,-0.407577 1.33023,-0.905723 z m 42.561736,-3.324799 c 0.93919,-0.849959 1.02326,-1.870967 0.24202,-2.939373 -1.23946,-1.69507 -3.13592,0.796017 -2.09158,2.747389 0.59225,1.106633 0.81351,1.129598 1.84956,0.191984 z m -43.583456,-1.137053 c 0.98733,-2.167078 -1.37806,-4.176479 -2.48394,-2.11011 -0.61624,1.151456 -0.57246,1.600011 0.23497,2.407439 0.95979,0.959796 1.72213,0.859013 2.24897,-0.297329 z m 44.575416,-3.802581 c 0.81666,-0.902396 0.65317,-2.216441 -0.38272,-3.076156 -0.40067,-0.332525 -0.52063,-1.059031 -0.36565,-2.214496 0.20602,-1.535975 0.10774,-1.775621 -0.92033,-2.244039 -0.73873,-0.336589 -1.15098,-0.872363 -1.15098,-1.495861 0,-1.18046 -0.99004,-2.081824 -2.06025,-1.87572 -1.2425,0.239282 -1.08819,3.075145 0.19803,3.639438 0.54223,0.237892 0.98588,0.736253 0.98588,1.10747 0,0.371218 0.31445,1.123882 0.69878,1.672587 0.44431,0.634346 0.59659,1.404778 0.41818,2.115655 -0.17564,0.699804 -0.0235,1.510409 0.40674,2.167034 0.83189,1.269624 1.17855,1.302192 2.17232,0.204088 z m -45.158916,-0.960897 c 0.4792,-0.684149 0.54044,-1.220427 0.232,-2.031687 -0.34216,-0.899923 -0.25604,-1.216371 0.46922,-1.724366 0.48855,-0.342195 0.88828,-1.057177 0.88828,-1.588848 0,-0.566569 0.39322,-1.1457 0.95004,-1.399205 2.2056,-1.004154 2.11899,-3.499714 -0.12146,-3.499714 -0.79191,0 -1.14494,0.329611 -1.44613,1.350218 -0.21916,0.74262 -0.81069,1.531325 -1.31451,1.752677 -0.68802,0.302278 -0.91604,0.799846 -0.91604,1.99888 0,0.905236 -0.332,1.963576 -0.7668,2.444433 -0.88156,0.974931 -0.95069,1.588432 -0.31321,2.779576 0.59338,1.108732 1.52755,1.075992 2.33861,-0.08196 z m 39.005976,-9.510526 c 0.12309,-0.199171 0.11173,-0.790699 -0.0252,-1.314508 -0.28707,-1.097751 -1.79446,-1.297835 -2.18138,-0.289545 -0.46354,1.207959 1.5478,2.670053 2.20663,1.604053 z M -99.94197,62.459921 c 0.11217,-0.971835 -0.0369,-1.201219 -0.78055,-1.201219 -1.01956,0 -1.56566,0.94434 -1.15898,2.004146 0.4249,1.107252 1.784,0.544611 1.93953,-0.802927 z m 29.433146,-0.538385 c 0.71732,-0.86432 0.24894,-1.977342 -0.8321,-1.977342 -1.08457,0 -1.49131,0.630156 -1.13379,1.756598 0.32771,1.032531 1.20995,1.131595 1.96589,0.220744 z M -96.79435,61.477787 c 0.43519,-0.524365 0.43519,-0.790144 0,-1.314508 -1.09496,-1.319356 -2.65573,-0.309888 -2.03239,1.314508 0.13872,0.361489 0.53002,0.657254 0.86957,0.657254 0.33954,0 0.86281,-0.295765 1.16282,-0.657254 z m 2.46293,-1.772573 c -0.23044,-0.600512 -0.40352,-0.635574 -0.93992,-0.190402 -0.5103,0.423509 -0.54272,0.683923 -0.14484,1.163342 0.65511,0.789361 1.477846,0.05143 1.08476,-0.97294 z m 2.795106,0.896234 c 0,-0.36149 -0.29577,-0.657254 -0.65726,-0.657254 -0.68423,0 -0.86931,0.518223 -0.36514,1.022395 0.50417,0.504172 1.0224,0.319093 1.0224,-0.365141 z m 14.89775,0 c 0,-0.36149 -0.18554,-0.657254 -0.41231,-0.657254 -0.55252,0 -0.94824,0.684241 -0.59817,1.034308 0.49346,0.493459 1.01048,0.300535 1.01048,-0.377054 z m 3.06719,0.02586 c 0,-0.347267 -0.21436,-0.763874 -0.47635,-0.925794 -0.61871,-0.38238 -1.46322,0.462136 -1.08084,1.08084 0.4295,0.694945 1.55719,0.582663 1.55719,-0.155046 z"
         id="path4573"
         inkscape:connector-curvature="0" />
    </g>
    <g
       id="text1224"
       style="font-style:normal;font-variant:normal;font-weight:normal;font-stretch:normal;font-size:37.33333206px;line-height:1.25;font-family:'League Spartan';-inkscape-font-specification:'League Spartan';letter-spacing:0px;word-spacing:0px;fill:#ffff00;fill-opacity:1;stroke:#000000;stroke-width:1.5;stroke-miterlimit:4;stroke-dasharray:none;stroke-opacity:1"
       transform="translate(-230.58638,51.144066)"
       aria-label="MONARCHS FOOTBALL">
      <path
         inkscape:connector-curvature="0"
         id="path1262"
         style="font-size:21.33333397px"
         d="m 281.99016,70.881016 0.20867,-4.005235 -17.6583,0.66084 -0.22199,4.260889 9.9378,4.427037 -10.34403,3.370388 -0.22199,4.260888 17.49403,2.492217 0.20867,-4.005235 -10.37458,-1.373626 0.006,-0.106523 10.49892,-3.063246 0.12431,-2.386097 -10.12377,-4.137655 0.006,-0.106522 z" />
      <path
         inkscape:connector-curvature="0"
         id="path1264"
         style="font-size:21.33333397px"
         d="m 274.06421,63.346711 c 4.90356,1.54545 9.81137,-0.75502 11.37606,-5.719619 1.5198,-4.822173 -1.14358,-9.643055 -6.04714,-11.188505 -4.90356,-1.54545 -9.88081,1.046287 -11.3493,5.705686 -1.45568,4.618705 1.11682,9.656989 6.02038,11.202438 z m 1.30177,-4.130384 c -2.50265,-0.788756 -4.56923,-2.96109 -3.6394,-5.911364 0.93625,-2.970621 3.86213,-3.524748 6.36478,-2.735992 2.50264,0.788757 4.60771,2.83901 3.64581,5.891018 -0.98755,3.133395 -3.86854,3.545095 -6.37119,2.756338 z" />
      <path
         inkscape:connector-curvature="0"
         id="path1266"
         style="font-size:21.33333397px"
         d="m 281.40677,38.408394 0.022,-0.03656 12.96658,-0.367587 2.0669,-3.437061 -15.08285,-9.07015 -2.0669,3.437062 9.36051,5.62899 -0.022,0.03656 -12.96658,0.367587 -2.06689,3.437062 15.08285,9.070149 2.06689,-3.437062 z" />
      <path
         inkscape:connector-curvature="0"
         id="path1268"
         style="font-size:21.33333397px"
         d="m 291.54907,13.893934 -2.56532,2.682919 7.81123,17.297729 2.97814,-3.114653 -1.64481,-3.373199 4.62938,-4.841589 3.44348,1.492072 2.97814,-3.114653 z m 7.7209,7.205392 -2.74224,2.867948 -2.3442,-4.956934 0.0295,-0.03084 z" />
      <path
         inkscape:connector-curvature="0"
         id="path1270"
         style="font-size:21.33333397px"
         d="m 299.95001,6.1419383 9.94972,14.5176817 3.30828,-2.26733 -3.93165,-5.736684 8.36614,2.697496 4.20573,-2.882404 -9.11016,-2.5755254 c 1.39139,-1.7811971 1.587,-4.061862 0.0915,-6.2439136 -1.95376,-2.85074474 -4.99604,-2.91232049 -7.68841,-1.0670996 z m 7.72233,4.1732407 -2.60501,-3.8009925 0.38713,-0.2653259 c 1.2494,-0.856279 2.80547,-1.7934157 4.04767,0.019095 1.24221,1.8125106 -0.19325,2.9256192 -1.44265,3.7818984 z" />
      <path
         inkscape:connector-curvature="0"
         id="path1272"
         style="font-size:21.33333397px"
         d="m 329.90478,5.2193911 c -3.7194,1.5566128 -6.43995,-0.3574757 -7.35415,-2.5418888 -0.90597,-2.16473368 -0.35973,-5.446006 3.35967,-7.0026188 1.88922,-0.7906605 3.6081,-0.3305904 3.6081,-0.3305904 l 0.25659,-3.8075873 c 0,0 -2.43645,-0.7379178 -5.95906,0.7363346 -4.60498,1.9272349 -7.21537,7.45995714 -5.26343,12.1239743 1.94371,4.6443377 7.71995,6.6209093 12.30525,4.7019102 3.52261,-1.4742524 4.70718,-3.7276029 4.70718,-3.7276029 l -2.89212,-2.4898198 c 0,0 -0.8788,1.5472284 -2.76803,2.3378889 z" />
      <path
         inkscape:connector-curvature="0"
         id="path1274"
         style="font-size:21.33333397px"
         d="m 340.25429,-1.4623675 5.57406,-1.0638136 1.32377,6.9361422 3.93956,-0.7518682 -3.29942,-17.2879679 -3.93956,0.751868 1.31577,6.8942323 -5.57406,1.0638136 -1.31577,-6.8942319 -3.93956,0.751868 3.29942,17.287968 3.93956,-0.7518683 z" />
      <path
         inkscape:connector-curvature="0"
         id="path1276"
         style="font-size:21.33333397px"
         d="m 359.84508,-14.31318 c -2.8373,-0.01449 -5.74927,2.061337 -5.76605,5.3466275 -0.009,1.8346428 1.21957,3.4836061 3.3262,4.5397099 2.0853,1.0559948 3.95967,1.6415732 3.95313,2.9215565 -0.008,1.64264535 -1.6728,1.71948103 -2.54745,1.7150149 -1.96264,-0.0100216 -4.29915,-2.0059781 -4.29915,-2.0059781 l -2.02252,3.3603835 c 0,0 2.4841,2.3380479 6.60138,2.3590713 3.43462,0.017538 6.64209,-1.4381036 6.66355,-5.6407156 0.0118,-2.30397 -2.13438,-3.9789503 -4.09277,-4.820961 -2.00095,-0.8635617 -3.66133,-1.5760491 -3.65632,-2.5573697 0.005,-0.9599872 0.73338,-1.5749422 2.0987,-1.5679712 1.81331,0.0093 3.55641,1.2341757 3.55641,1.2341757 l 1.63765,-3.1916797 c 0,0 -2.25281,-1.675525 -5.45276,-1.691864 z" />
      <path
         inkscape:connector-curvature="0"
         id="path1278"
         style="font-size:21.33333397px"
         d="m 387.636,-9.646605 -9.85244,-2.545678 -4.4029,17.0403772 3.88314,1.0033281 1.7665,-6.83680598 5.51488,1.42493945 0.88058,-3.40807547 -5.51488,-1.4249395 0.87524,-3.3874205 5.9693,1.5423502 z" />
      <path
         inkscape:connector-curvature="0"
         id="path1280"
         style="font-size:21.33333397px"
         d="m 388.30298,-0.44550861 c -2.25207,4.62184881 -0.70095,9.81538381 3.97843,12.09548861 4.54514,2.214693 9.70625,0.2918 11.95832,-4.3300486 2.25207,-4.6218488 0.42311,-9.9270317 -3.9686,-12.0669664 -4.35336,-2.1212454 -9.71608,-0.3203224 -11.96815,4.30152639 z m 3.89309,1.89697271 c 1.1494,-2.35886887 3.60289,-4.0822986 6.38367,-2.7273181 2.79996,1.3643252 2.91629,4.3399438 1.7669,6.6988127 -1.1494,2.3588689 -3.48782,4.1383668 -6.36449,2.7366628 -2.95338,-1.4390828 -2.93547,-4.3492885 -1.78608,-6.7081574 z" />
      <path
         inkscape:connector-curvature="0"
         id="path1282"
         style="font-size:21.33333397px"
         d="m 406.86303,9.0610294 c -3.27659,3.9619776 -2.99138,9.3746886 1.01992,12.6920666 3.89622,3.222206 9.36491,2.568029 12.6415,-1.393949 3.27659,-3.961978 2.74762,-9.54859 -1.01708,-12.6620305 -3.73182,-3.0862487 -9.36775,-2.5980648 -12.64434,1.3639129 z m 3.33726,2.7599496 c 1.67229,-2.0220885 4.46248,-3.1196616 6.84624,-1.148269 2.4002,1.984988 1.81294,4.9044 0.14065,6.926488 -1.67228,2.022088 -4.36383,3.201236 -6.82979,1.161865 -2.53172,-2.093755 -1.82938,-4.917996 -0.1571,-6.940084 z" />
      <path
         inkscape:connector-curvature="0"
         id="path1284"
         style="font-size:21.33333397px"
         d="m 425.66573,18.521602 2.63348,3.247821 -10.93654,8.867834 2.52599,3.115257 10.93654,-8.867834 2.63348,3.247821 2.73413,-2.216959 -7.79294,-9.610899 z" />
      <path
         inkscape:connector-curvature="0"
         id="path1286"
         style="font-size:21.33333397px"
         d="m 438.67528,29.665564 -15.36706,8.579836 3.25514,5.830168 c 1.77837,3.185172 4.55886,4.051637 7.0921,2.637264 2.47735,-1.383173 2.77989,-3.335714 2.04399,-5.441464 1.39855,0.929479 2.95248,0.868174 4.36811,0.07779 2.9244,-1.632769 2.74684,-4.270153 1.27007,-6.915149 z m -4.06127,6.860962 3.31556,-1.851165 0.15599,0.279401 c 0.85279,1.527392 0.83431,2.588337 -0.26467,3.201925 -1.28524,0.717587 -2.2085,0.158005 -3.05089,-1.35076 z m -6.64975,3.712729 3.63222,-2.027961 0.61358,1.098977 c 0.92559,1.65778 0.93225,2.851284 -0.48338,3.641669 -1.21074,0.675987 -2.22325,0.04407 -3.14883,-1.613707 z" />
      <path
         inkscape:connector-curvature="0"
         id="path1288"
         style="font-size:21.33333397px"
         d="m 449.43969,53.518179 -1.13279,-3.534931 -18.92837,-1.394148 1.31508,4.103771 3.74922,0.165061 2.04422,6.379128 -2.95496,2.313453 1.31508,4.103771 z m -10.01721,3.344481 -1.21091,-3.778719 5.47472,0.306577 0.013,0.04063 z" />
      <path
         inkscape:connector-curvature="0"
         id="path1290"
         style="font-size:21.33333397px"
         d="m 452.56974,68.23358 -0.49547,-3.979943 -17.46518,2.174303 1.24396,9.992199 3.49304,-0.434861 -0.74849,-6.012255 z" />
      <path
         inkscape:connector-curvature="0"
         id="path1292"
         style="font-size:21.33333397px"
         d="m 453.37179,82.958352 0.12271,-4.008789 -17.59177,-0.538464 -0.30806,10.06462 3.51835,0.107693 0.18536,-6.055831 z" />
    </g>
    <g
       id="text1297"
       style="font-style:normal;font-variant:normal;font-weight:normal;font-stretch:normal;font-size:37.33333206px;line-height:1.25;font-family:'League Spartan';-inkscape-font-specification:'League Spartan';letter-spacing:0px;word-spacing:0px;fill:#ffff00;fill-opacity:1;stroke:#000000;stroke-width:1.5;stroke-miterlimit:4;stroke-dasharray:none;stroke-opacity:1"
       transform="translate(-213.70344,54.033742)"
       aria-label="CLUB OF LANZ">
      <path
         inkscape:connector-curvature="0"
         id="path1323"
         style="font-size:21.33333397px;fill:#ffff00;stroke:#000000;stroke-width:1.5;stroke-miterlimit:4;stroke-dasharray:none;stroke-opacity:1"
         d="m 277.52955,140.38133 c -2.73155,-2.96575 -1.85979,-6.17592 -0.118,-7.78016 1.7261,-1.58978 4.99699,-2.19511 7.72853,0.77065 1.38745,1.50641 1.54104,3.27915 1.54104,3.27915 l 3.6669,-1.05707 c 0,0 -0.13706,-2.54204 -2.72408,-5.35088 -3.38191,-3.67188 -9.47314,-4.23934 -13.19211,-0.81407 -3.70327,3.41081 -3.59185,9.51486 -0.2244,13.17105 2.58702,2.80884 5.10924,3.15409 5.10924,3.15409 l 1.35448,-3.56777 c 0,0 -1.75415,-0.29857 -3.1416,-1.80499 z" />
      <path
         inkscape:connector-curvature="0"
         id="path1325"
         style="font-size:21.33333397px;fill:#ffff00;stroke:#000000;stroke-width:1.5;stroke-miterlimit:4;stroke-dasharray:none;stroke-opacity:1"
         d="m 293.82404,136.35912 -3.12379,-2.51543 -11.03847,13.7081 7.8427,6.31535 2.20769,-2.74162 -4.71891,-3.79992 z" />
      <path
         inkscape:connector-curvature="0"
         id="path1327"
         style="font-size:21.33333397px;fill:#ffff00;stroke:#000000;stroke-width:1.5;stroke-miterlimit:4;stroke-dasharray:none;stroke-opacity:1"
         d="m 309.65199,146.72166 -3.46139,-2.02588 -5.14013,8.78238 c -1.48708,2.54081 -2.69141,2.82469 -4.38528,1.8333 -1.69388,-0.99138 -2.03613,-2.18044 -0.54905,-4.72125 l 5.14012,-8.78238 -3.46139,-2.02587 -5.7328,9.79501 c -2.1983,3.75599 -1.25688,6.87771 2.60957,9.14066 3.86645,2.26294 7.04926,1.55503 9.24755,-2.20095 z" />
      <path
         inkscape:connector-curvature="0"
         id="path1329"
         style="font-size:21.33333397px;fill:#ffff00;stroke:#000000;stroke-width:1.5;stroke-miterlimit:4;stroke-dasharray:none;stroke-opacity:1"
         d="m 309.30346,146.45905 -6.3668,16.40804 6.22511,2.41553 c 3.40094,1.31966 6.09534,0.21415 7.14489,-2.49069 1.02641,-2.64517 0.0144,-4.34219 -1.89518,-5.49506 1.67003,-0.17578 2.82797,-1.21386 3.41449,-2.72539 1.21162,-3.1225 -0.60688,-5.04094 -3.43105,-6.1368 z m 1.24634,7.87485 1.37369,-3.54016 0.29833,0.11576 c 1.63086,0.63282 2.29313,1.46188 1.83781,2.63531 -0.5325,1.37231 -1.60053,1.52996 -3.2115,0.90485 z m -2.75508,7.10021 1.50488,-3.87826 1.17342,0.45532 c 1.77008,0.68684 2.53625,1.60198 1.94973,3.11351 -0.50162,1.29276 -1.68453,1.4516 -3.45461,0.76475 z" />
      <path
         inkscape:connector-curvature="0"
         id="path1331"
         style="font-size:21.33333397px;fill:#ffff00;stroke:#000000;stroke-width:1.5;stroke-miterlimit:4;stroke-dasharray:none;stroke-opacity:1"
         d="m 322.31011,160.60718 c -0.69539,5.09409 2.40064,9.54306 7.55815,10.24711 5.00953,0.68385 9.31155,-2.75521 10.00694,-7.8493 0.6954,-5.09409 -2.69945,-9.56232 -7.53989,-10.22309 -4.79817,-0.65499 -9.32981,2.7312 -10.0252,7.82528 z m 4.29087,0.58575 c 0.35491,-2.59989 2.14716,-5.00356 5.21207,-4.58518 3.08604,0.42128 4.12619,3.21161 3.77128,5.81149 -0.35491,2.59989 -2.02033,5.02088 -5.19092,4.58807 -3.25515,-0.44436 -4.14734,-3.21449 -3.79243,-5.81438 z" />
      <path
         inkscape:connector-curvature="0"
         id="path1333"
         style="font-size:21.33333397px;fill:#ffff00;stroke:#000000;stroke-width:1.5;stroke-miterlimit:4;stroke-dasharray:none;stroke-opacity:1"
         d="m 350.21109,153.64431 -10.17256,0.26472 0.45786,17.59405 4.00931,-0.10434 -0.1837,-7.05894 5.69408,-0.14818 -0.0916,-3.51881 -5.69407,0.14818 -0.091,-3.49748 6.16325,-0.16039 z" />
      <path
         inkscape:connector-curvature="0"
         id="path1335"
         style="font-size:21.33333397px;fill:#ffff00;stroke:#000000;stroke-width:1.5;stroke-miterlimit:4;stroke-dasharray:none;stroke-opacity:1"
         d="m 358.49769,152.20273 -3.91679,0.86267 3.78569,17.18804 9.83364,-2.16587 -0.75714,-3.43761 -5.91685,1.30319 z" />
      <path
         inkscape:connector-curvature="0"
         id="path1337"
         style="font-size:21.33333397px;fill:#ffff00;stroke:#000000;stroke-width:1.5;stroke-miterlimit:4;stroke-dasharray:none;stroke-opacity:1"
         d="m 372.41467,147.91098 -3.45903,1.34687 -0.23382,18.97821 4.01565,-1.56362 -0.0646,-3.75229 6.24215,-2.43056 2.48986,2.80793 4.01565,-1.56361 z m 3.9509,9.79389 -3.69758,1.43977 -0.0288,-5.48322 0.0398,-0.0155 z" />
      <path
         inkscape:connector-curvature="0"
         id="path1339"
         style="font-size:21.33333397px;fill:#ffff00;stroke:#000000;stroke-width:1.5;stroke-miterlimit:4;stroke-dasharray:none;stroke-opacity:1"
         d="m 383.67012,149.89578 0.0363,-0.0224 11.69223,5.61775 3.41259,-2.10705 -9.24635,-14.97548 -3.41259,2.10705 5.73834,9.29388 -0.0363,0.0224 -11.69223,-5.61775 -3.4126,2.10705 9.24635,14.97548 3.4126,-2.10705 z" />
      <path
         inkscape:connector-curvature="0"
         id="path1341"
         style="font-size:21.33333397px;fill:#ffff00;stroke:#000000;stroke-width:1.5;stroke-miterlimit:4;stroke-dasharray:none;stroke-opacity:1"
         d="m 400.11833,128.80966 -10.78519,9.66977 2.34979,2.62085 5.55938,-4.98442 2.91854,16.29381 11.2776,-10.11125 -2.3498,-2.62085 -6.06766,5.44014 z" />
    </g>
  </g>
</svg>
