<?xml version="1.0" encoding="UTF-8" standalone="no"?>
<!-- Created with Inkscape (http://www.inkscape.org/) -->

<svg
   xmlns:dc="http://purl.org/dc/elements/1.1/"
   xmlns:cc="http://creativecommons.org/ns#"
   xmlns:rdf="http://www.w3.org/1999/02/22-rdf-syntax-ns#"
   xmlns:svg="http://www.w3.org/2000/svg"
   xmlns="http://www.w3.org/2000/svg"
   xmlns:sodipodi="http://sodipodi.sourceforge.net/DTD/sodipodi-0.dtd"
   xmlns:inkscape="http://www.inkscape.org/namespaces/inkscape"
   version="1.1"
   id="svg2"
   width="256"
   height="256"
   viewBox="0 0 256 256"
   sodipodi:docname="norpago.svg"
   inkscape:version="0.92.4 (5da689c313, 2019-01-14)">
  <metadata
     id="metadata8">
    <rdf:RDF>
      <cc:Work
         rdf:about="">
        <dc:format>image/svg+xml</dc:format>
        <dc:type
           rdf:resource="http://purl.org/dc/dcmitype/StillImage" />
        <dc:title></dc:title>
      </cc:Work>
    </rdf:RDF>
  </metadata>
  <defs
     id="defs6">
    <inkscape:path-effect
       effect="skeletal"
       id="path-effect1260"
       is_visible="true"
       pattern="m -141.01695,-6.5084743 h 25.44975 v 15.728811 2.1e-6 h -25.44975 z"
       copytype="repeated_stretched"
       prop_scale="1"
       scale_y_rel="false"
       spacing="0"
       normal_offset="0"
       tang_offset="0"
       prop_units="false"
       vertical_pattern="false"
       fuse_tolerance="0" />
    <inkscape:path-effect
       effect="skeletal"
       id="path-effect1215"
       is_visible="true"
       pattern="m -141.01695,-6.5084743 h 25.44975 v 15.728811 2.1e-6 h -25.44975 z"
       copytype="repeated_stretched"
       prop_scale="1"
       scale_y_rel="false"
       spacing="0"
       normal_offset="0"
       tang_offset="0"
       prop_units="false"
       vertical_pattern="false"
       fuse_tolerance="0" />
    <inkscape:path-effect
       effect="skeletal"
       id="path-effect1153"
       is_visible="true"
       pattern="M 0,0 H 1"
       copytype="single_stretched"
       prop_scale="1"
       scale_y_rel="false"
       spacing="0"
       normal_offset="0"
       tang_offset="0"
       prop_units="false"
       vertical_pattern="false"
       fuse_tolerance="0" />
    <inkscape:path-effect
       effect="skeletal"
       id="path-effect1133"
       is_visible="true"
       pattern="m -141.01695,-6.5084743 h 25.44975 v 15.728811 2.1e-6 h -25.44975 z"
       copytype="repeated"
       prop_scale="1"
       scale_y_rel="false"
       spacing="0"
       normal_offset="0"
       tang_offset="0"
       prop_units="false"
       vertical_pattern="false"
       fuse_tolerance="0" />
    <inkscape:path-effect
       effect="skeletal"
       id="path-effect1054"
       is_visible="true"
       pattern="m -49.355925,118.77967 h 25.44975 v 15.72881 0 h -25.44975 z"
       copytype="repeated_stretched"
       prop_scale="1"
       scale_y_rel="true"
       spacing="1.1"
       normal_offset="0.8"
       tang_offset="0.6"
       prop_units="true"
       vertical_pattern="true"
       fuse_tolerance="0.6" />
    <inkscape:path-effect
       effect="skeletal"
       id="path-effect1007"
       is_visible="true"
       pattern="m -141.01695,-6.5084743 h 25.44975 v 15.728811 2.1e-6 h -25.44975 z"
       copytype="repeated_stretched"
       prop_scale="1"
       scale_y_rel="false"
       spacing="0"
       normal_offset="0"
       tang_offset="0"
       prop_units="false"
       vertical_pattern="false"
       fuse_tolerance="0" />
    <inkscape:path-effect
       effect="skeletal"
       id="path-effect927"
       is_visible="true"
       pattern="m -141.01695,-6.5084743 h 25.44975 v 15.728811 2.1e-6 h -25.44975 z"
       copytype="repeated_stretched"
       prop_scale="1"
       scale_y_rel="false"
       spacing="0"
       normal_offset="0"
       tang_offset="0"
       prop_units="false"
       vertical_pattern="false"
       fuse_tolerance="0" />
    <inkscape:path-effect
       effect="skeletal"
       id="path-effect881"
       is_visible="true"
       pattern="M 0,0 H 1"
       copytype="repeated_stretched"
       prop_scale="1.06"
       scale_y_rel="false"
       spacing="0"
       normal_offset="0"
       tang_offset="0"
       prop_units="false"
       vertical_pattern="false"
       fuse_tolerance="0" />
    <path
       style="opacity:1;fill:#ffffff;fill-opacity:1;fill-rule:evenodd;stroke:#781724;stroke-width:3.43967915;stroke-linecap:butt;stroke-linejoin:round;stroke-miterlimit:4;stroke-dasharray:none;stroke-opacity:1;paint-order:stroke fill markers"
       d="m -378.81358,-37.229581 a 42.99599,42.99599 0 0 0 51.91627,31.6545728 42.99599,42.99599 0 0 0 31.65456,-51.9162908 42.99599,42.99599 0 0 0 -51.91627,-31.654548 42.99599,42.99599 0 0 0 -31.65456,51.916266 z"
       id="path1299-3-4-3"
       inkscape:connector-curvature="0" />
  </defs>
  <sodipodi:namedview
     pagecolor="#ffffff"
     bordercolor="#666666"
     borderopacity="1"
     objecttolerance="10"
     gridtolerance="10"
     guidetolerance="10"
     inkscape:pageopacity="0"
     inkscape:pageshadow="2"
     inkscape:window-width="1366"
     inkscape:window-height="705"
     id="namedview4"
     showgrid="false"
     inkscape:pagecheckerboard="true"
     inkscape:zoom="0.921875"
     inkscape:cx="-17.647963"
     inkscape:cy="96.141367"
     inkscape:window-x="-8"
     inkscape:window-y="-8"
     inkscape:window-maximized="1"
     inkscape:current-layer="svg2" />
  <g
     id="g1512"
     transform="matrix(1.7057057,0,0,1.7057057,372.69652,-57.015415)">
    <path
       inkscape:connector-curvature="0"
       id="path1299"
       d="m -83.457642,121.9527 a 60,60 0 0 1 -59.999998,60 60,60 0 0 1 -60,-60 60,60 0 0 1 60,-60 60,60 0 0 1 59.999998,60 z"
       style="opacity:1;fill:#ffffff;fill-opacity:1;fill-rule:evenodd;stroke:#781724;stroke-width:3.11619735;stroke-linecap:butt;stroke-linejoin:round;stroke-miterlimit:4;stroke-dasharray:none;stroke-opacity:1;paint-order:stroke fill markers" />
    <path
       inkscape:connector-curvature="0"
       id="path1282-6"
       d="m -115.3249,136.93644 c -4.85512,9.11573 27.293999,10.53804 21.448772,19.05286 -5.845228,8.51481 -18.726482,-20.97522 -25.488312,-13.16841 -6.76183,7.80682 24.264744,16.34732 16.67134,23.34796 -7.59339,7.00064 -13.58954,-24.61636 -21.91902,-18.50993 -8.32948,6.10644 20.01876,21.33687 11.05795,26.47231 -8.9608,5.13543 -7.77117,-27.02314 -17.25062,-22.92329 -9.47945,4.09985 14.76895,25.2565 4.89007,28.26921 -9.87889,3.01271 -1.56312,-28.07486 -11.71721,-26.18718 -10.15408,1.88769 8.77856,27.90967 -1.52303,28.64859 -10.30158,0.73891 4.72332,-27.71879 -5.59623,-28.13793 -10.31954,-0.41915 2.34798,29.16332 -7.85975,27.59139 -10.20773,-1.57192 10.7729,-25.97278 0.80535,-28.67773 -9.96754,-2.70495 -4.20034,28.95462 -13.80235,25.15067 -9.60202,-3.80395 16.28229,-22.9244 7.16656,-27.77952 -9.11573,-4.85512 -10.53805,27.294 -19.05286,21.44877 -8.51481,-5.84522 20.97522,-18.72648 13.16841,-25.48831 -7.80682,-6.76183 -16.34732,24.26475 -23.34796,16.67135 -7.00065,-7.5934 24.61636,-13.58955 18.50992,-21.91903 -6.10643,-8.32947 -21.33687,20.01876 -26.4723,11.05795 -5.13543,-8.9608 27.02314,-7.77117 22.92329,-17.25062 -4.09985,-9.47945 -25.2565,14.76895 -28.26921,4.89007 -3.01271,-9.87888 28.07486,-1.56312 26.18717,-11.7172 -1.88768,-10.15408 -27.90966,8.77855 -28.64858,-1.52303 -0.73892,-10.30159 27.71879,4.72331 28.13793,-5.59624 0.41914,-10.31954 -29.16333,2.34798 -27.5914,-7.85975 1.57193,-10.20773 25.97279,10.7729 28.67774,0.80536 2.70495,-9.96755 -28.95462,-4.20035 -25.15067,-13.802363 3.80395,-9.602013 22.9244,16.282293 27.77952,7.166563 4.85511,-9.115733 -27.294,-10.538044 -21.44877,-19.052856 5.84522,-8.514812 18.72648,20.975216 25.48831,13.168406 6.76183,-7.806818 -24.26475,-16.347319 -16.67135,-23.347962 7.5934,-7.000642 13.58955,24.616362 21.91903,18.509927 8.32947,-6.106433 -20.01876,-21.336869 -11.05796,-26.472301 8.96081,-5.135431 7.77118,27.023136 17.25063,22.923287 9.47944,-4.099849 -14.76895,-25.256503 -4.89007,-28.269211 9.87888,-3.012708 1.56312,28.074858 11.7172,26.187176 10.15408,-1.887681 -8.77855,-27.909669 1.52303,-28.648584 10.30159,-0.738916 -4.72331,27.718789 5.59624,28.137931 10.31954,0.419143 -2.34798,-29.163328 7.85975,-27.591398 10.20773,1.571929 -10.7729,25.972785 -0.80536,28.677734 9.96755,2.704948 4.20035,-28.954616 13.80236,-25.150665 9.60201,3.803951 -16.28229,22.924397 -7.16656,27.779514 9.11573,4.855118 10.53804,-27.293998 19.05285,-21.448771 8.51482,5.845227 -20.97521,18.726484 -13.1684,25.488314 7.80682,6.761829 16.34732,-24.264746 23.347961,-16.671347 7.000642,7.593399 -24.616361,13.589547 -18.509931,21.919026 6.10644,8.32948 21.336873,-20.01876 26.472304,-11.057954 5.135432,8.960804 -27.023134,7.771173 -22.923284,17.250624 4.09985,9.47945 25.2565,-14.768949 28.269209,-4.89007 3.012708,9.87888 -28.074859,1.56312 -26.187179,11.7172 1.88768,10.15409 27.909671,-8.77855 28.648587,1.52303 0.738916,10.30159 -27.718787,-4.72331 -28.137927,5.59624 -0.41915,10.31954 29.163323,-2.34798 27.591394,7.85975 -1.57193,10.20773 -25.972784,-10.7729 -28.677734,-0.80535 -2.70495,9.96754 28.954616,4.20034 25.150665,13.80235 -3.803952,9.60202 -22.924395,-16.28229 -27.779515,-7.16656 z"
       style="opacity:1;fill:#781724;fill-opacity:1;fill-rule:evenodd;stroke:none;stroke-width:3.19132948;stroke-linecap:butt;stroke-linejoin:round;stroke-miterlimit:4;stroke-dasharray:none;stroke-opacity:1;paint-order:stroke fill markers" />
    <path
       inkscape:connector-curvature="0"
       id="path1299-3"
       d="m -96.776527,121.9527 a 46.681114,46.681114 0 0 1 -46.681113,46.68111 46.681114,46.681114 0 0 1 -46.68112,-46.68111 46.681114,46.681114 0 0 1 46.68112,-46.681114 46.681114,46.681114 0 0 1 46.681113,46.681114 z"
       style="opacity:1;fill:#ffffff;fill-opacity:1;fill-rule:evenodd;stroke:#781724;stroke-width:3.7344892;stroke-linecap:butt;stroke-linejoin:round;stroke-miterlimit:4;stroke-dasharray:none;stroke-opacity:1;paint-order:stroke fill markers" />
    <g
       transform="translate(-23.864407,18.98305)"
       id="g1344">
      <path
         inkscape:connector-curvature="0"
         id="path1340"
         d="m -91.394777,102.96965 a 28.198454,28.198454 0 0 1 -28.198453,28.19845 28.198454,28.198454 0 0 1 -28.19846,-28.19845 28.198454,28.198454 0 0 1 28.19846,-28.198454 28.198454,28.198454 0 0 1 28.198453,28.198454 z"
         style="opacity:1;fill:#ffffff;fill-opacity:1;fill-rule:evenodd;stroke:#781724;stroke-width:4.11809111;stroke-linecap:butt;stroke-linejoin:round;stroke-miterlimit:4;stroke-dasharray:none;stroke-opacity:1;paint-order:stroke fill markers" />
      <path
         inkscape:connector-curvature="0"
         id="path1282"
         d="m -119.32631,103.11182 c -12.54343,23.55093 38.379556,11.39212 15.74116,25.51611 -22.63839,14.12399 10.669681,-26.26857 -15.99774,-25.35603 -26.66742,0.91253 9.32391,38.93373 -14.22703,26.3903 -23.55093,-12.54343 28.08409,-3.89407 13.96011,-26.53247 -14.12399,-22.638394 -29.05565,27.5416 -29.96819,0.87418 -0.91253,-26.667415 17.41441,22.3745 29.95784,-1.17643 12.54343,-23.550927 -38.37955,-11.392124 -15.74115,-25.516113 22.63839,-14.123989 -10.66968,26.268573 15.99774,25.356033 26.667416,-0.91253 -9.32391,-38.933727 14.22702,-26.390297 23.550933,12.543431 -28.08409,3.894071 -13.9601,26.532467 14.12399,22.63839 29.055649,-27.541603 29.968185,-0.87418 0.912536,26.66742 -17.414405,-22.374503 -29.957845,1.17643 z"
         style="opacity:1;fill:#781724;fill-opacity:1;fill-rule:evenodd;stroke:none;stroke-width:1.60481703;stroke-linecap:butt;stroke-linejoin:round;stroke-miterlimit:4;stroke-dasharray:none;stroke-opacity:1;paint-order:stroke fill markers" />
    </g>
    <g
       id="g1481">
      <g
         aria-label="NORPAGO"
         transform="rotate(-145.92469,-56.064986,-2.773425)"
         style="font-style:normal;font-variant:normal;font-weight:normal;font-stretch:normal;font-size:37.33333206px;line-height:1.25;font-family:'League Spartan';-inkscape-font-specification:'League Spartan';letter-spacing:0px;word-spacing:0px;fill:#781724;fill-opacity:1;stroke:none"
         id="text1348">
        <path
           d="m -12.851317,-154.09918 -0.0034,0.0264 -7.330348,3.46344 -0.32089,2.48604 10.9094957,1.40816 0.3208893,-2.48604 -6.770499,-0.87391 0.0034,-0.0265 7.3303483,-3.46344 0.3208894,-2.48604 -10.9094947,-1.40816 -0.32089,2.48604 z"
           style="font-size:13.33333302px"
           id="path1369"
           inkscape:connector-curvature="0" />
        <path
           d="m -15.745455,-144.5728 c -2.900011,-1.384 -6.137976,-0.38817 -7.5392,2.54794 -1.361025,2.85188 -0.133013,6.06768 2.766998,7.45168 2.900012,1.384 6.206341,0.21396 7.521424,-2.54165 1.303598,-2.73155 0.150789,-6.07398 -2.749222,-7.45797 z m -1.165772,2.44274 c 1.480088,0.70636 2.569672,2.23097 1.736977,3.97579 -0.838437,1.75686 -2.697545,1.8447 -4.177634,1.13834 -1.480089,-0.70635 -2.604129,-2.15877 -1.742721,-3.96376 0.884379,-1.85311 2.703289,-1.85672 4.183378,-1.15037 z"
           style="font-size:13.33333302px"
           id="path1371"
           inkscape:connector-curvature="0" />
        <path
           d="m -18.211211,-128.68693 -8.123391,-7.4169 -1.690156,1.85114 3.20997,2.93081 -5.475498,-0.44948 -2.148655,2.35332 5.910882,0.26924 c -0.59292,1.28219 -0.38699,2.69794 0.83398,3.81272 1.595139,1.45641 3.455263,1.0604 4.830762,-0.44612 z m -5.293987,-1.43926 2.126851,1.94188 -0.197784,0.21663 c -0.638303,0.6991 -1.451702,1.49111 -2.465895,0.56512 -1.014194,-0.92599 -0.29926,-1.8079 0.339043,-2.507 z"
           style="font-size:13.33333302px"
           id="path1373"
           inkscape:connector-curvature="0" />
        <path
           d="m -26.899743,-120.07973 -6.098103,-9.15495 -2.086219,1.38963 2.261842,3.39565 -1.253951,0.83526 c -1.786603,1.19005 -2.427123,3.13865 -1.170544,5.02512 1.26397,1.89758 3.220203,1.92423 5.006805,0.73418 z m -4.813734,-2.70513 1.618769,2.43022 -0.588136,0.39176 c -0.821172,0.54698 -1.782746,0.78697 -2.411036,-0.15626 -0.620898,-0.93214 -0.02891,-1.72698 0.792267,-2.27396 z"
           style="font-size:13.33333302px"
           id="path1375"
           inkscape:connector-curvature="0" />
        <path
           d="m -41.460491,-112.59154 2.194793,-0.75185 0.635561,-11.84524 -2.547978,0.87284 -0.05648,2.34485 -3.960718,1.35679 -1.482403,-1.81769 -2.547978,0.87284 z m -2.214574,-6.21788 2.346158,-0.80371 -0.123427,3.42484 -0.02523,0.009 z"
           style="font-size:13.33333302px"
           id="path1377"
           inkscape:connector-curvature="0" />
        <path
           d="m -59.47926,-115.13445 5.077432,-0.1615 -0.06146,-1.93235 -2.532053,0.0805 c -0.04281,-1.34598 1.11867,-2.15665 2.318064,-2.1948 1.545885,-0.0492 2.846906,1.43022 2.906249,3.29594 0.06062,1.90571 -1.143339,3.47811 -2.689224,3.52728 -0.972842,0.0309 -1.824709,-0.32883 -2.497024,-1.33463 l -1.581948,1.85123 c 0.996392,1.12889 2.365267,1.80572 4.297623,1.74426 3.09177,-0.0983 5.276331,-2.71578 5.175872,-5.87418 -0.100035,-3.14508 -2.579783,-5.61416 -5.538286,-5.52006 -2.158909,0.0687 -4.440011,1.32849 -4.951117,4.13282 z"
           style="font-size:13.33333302px"
           id="path1379"
           inkscape:connector-curvature="0" />
        <path
           d="m -61.906651,-116.03394 c 0.899398,-3.0849 -0.604399,-6.12047 -3.727698,-7.03106 -3.033696,-0.88447 -6.010041,0.84492 -6.909439,3.92982 -0.899398,3.08489 0.787337,6.15991 3.71863,7.01453 2.905692,0.84715 6.01911,-0.82839 6.918507,-3.91329 z m -2.598482,-0.75758 c -0.459029,1.57445 -1.788485,2.89512 -3.644544,2.35399 -1.868859,-0.54486 -2.254657,-2.36562 -1.795628,-3.94007 0.459028,-1.57445 1.711682,-2.91752 3.631743,-2.35773 1.971263,0.57472 2.267458,2.36936 1.808429,3.94381 z"
           style="font-size:13.33333302px"
           id="path1381"
           inkscape:connector-curvature="0" />
      </g>
      <g
         aria-label="FOOTBALL"
         transform="rotate(19.126841,-744.12761,608.97438)"
         style="font-style:normal;font-variant:normal;font-weight:normal;font-stretch:normal;font-size:37.33333206px;line-height:1.25;font-family:'League Spartan';-inkscape-font-specification:'League Spartan';letter-spacing:0.95999998px;word-spacing:0px;fill:#781724;fill-opacity:1;stroke:none"
         id="text1386">
        <path
           d="m -366.26165,-33.905188 -2.02915,-6.027616 -10.42512,3.509533 0.79975,2.375665 4.18268,-1.408068 1.13581,3.373949 2.08503,-0.701907 -1.13581,-3.373948 2.07238,-0.697653 1.2294,3.651952 z"
           style="font-size:13.33333302px;letter-spacing:0.95999998px;word-spacing:5.32999992px;fill:#781724;fill-opacity:1"
           id="path1437"
           inkscape:connector-curvature="0" />
        <path
           d="m -371.56164,-31.726513 c -2.70238,1.738575 -3.55844,5.016264 -1.79822,7.752286 1.70972,2.657529 5.09068,3.304461 7.79306,1.565887 2.70238,-1.738575 3.44623,-5.166035 1.79423,-7.733859 -1.63758,-2.545397 -5.08668,-3.322888 -7.78907,-1.584314 z m 1.46445,2.276281 c 1.37922,-0.887322 3.249,-1.012147 4.29503,0.613768 1.05324,1.637128 0.15014,3.264521 -1.22908,4.151844 -1.37923,0.887322 -3.20572,1.079425 -4.28782,-0.602555 -1.11096,-1.726834 -0.15736,-3.275735 1.22187,-4.163057 z"
           style="font-size:13.33333302px;letter-spacing:0.95999998px;word-spacing:5.32999992px;fill:#781724;fill-opacity:1"
           id="path1439"
           inkscape:connector-curvature="0" />
        <path
           d="m -365.54449,-22.389943 c -2.08014,2.449187 -1.94623,5.834177 0.53345,7.940214 2.40853,2.045617 5.83153,1.681581 7.91167,-0.767606 2.08014,-2.449187 1.79532,-5.944852 -0.53191,-7.921419 -2.30692,-1.959304 -5.83307,-1.700376 -7.91321,0.748811 z m 2.06301,1.752154 c 1.06165,-1.25 2.81435,-1.913072 4.28793,-0.661534 1.48374,1.260169 1.09282,3.079835 0.0312,4.329835 -1.06165,1.25 -2.75338,1.96486 -4.27777,0.670165 -1.56504,-1.32922 -1.10298,-3.088466 -0.0413,-4.338466 z"
           style="font-size:13.33333302px;letter-spacing:0.95999998px;word-spacing:5.32999992px;fill:#781724;fill-opacity:1"
           id="path1441"
           inkscape:connector-curvature="0" />
        <path
           d="m -355.32226,-18.213651 2.3547,1.133528 -3.81698,7.9291011 2.25859,1.0872614 3.81699,-7.9291015 2.3547,1.133528 0.95424,-1.982275 -6.96799,-3.354317 z"
           style="font-size:13.33333302px;letter-spacing:0.95999998px;word-spacing:5.32999992px;fill:#781724;fill-opacity:1"
           id="path1443"
           inkscape:connector-curvature="0" />
        <path
           d="m -347.83056,-17.03329 -2.54983,10.7003899 4.05966,0.9673911 c 2.2179,0.5285108 3.79248,-0.3847052 4.21281,-2.1486482 0.41107,-1.7250326 -0.35959,-2.6899538 -1.63988,-3.2417598 1.01918,-0.250577 1.64809,-0.991644 1.88298,-1.977377 0.48524,-2.036317 -0.80361,-3.069895 -2.64537,-3.508775 z m 1.4401,4.770418 0.55014,-2.308691 0.19456,0.04636 c 1.06355,0.253438 1.544,0.710592 1.36165,1.475832 -0.21326,0.894942 -0.86122,1.083205 -1.9118,0.832858 z m -1.10339,4.6303501 0.60269,-2.5291831 0.76524,0.1823517 c 1.15435,0.2750729 1.70644,0.7767121 1.47154,1.762445 -0.20089,0.843061 -0.91988,1.041811 -2.07423,0.7667381 z"
           style="font-size:13.33333302px;letter-spacing:0.95999998px;word-spacing:5.32999992px;fill:#781724;fill-opacity:1"
           id="path1445"
           inkscape:connector-curvature="0" />
        <path
           d="m -335.5275,-15.370107 -2.31984,0.02677 -4.3128,11.0504913 2.69315,-0.031073 0.7879,-2.2092368 4.18639,-0.048301 0.83866,2.1904702 2.69315,-0.031072 z m 0.15614,6.5986374 -2.47984,0.028611 1.18967,-3.2139384 0.0267,-3.08e-4 z"
           style="font-size:13.33333302px;letter-spacing:0.95999998px;word-spacing:5.32999992px;fill:#781724;fill-opacity:1"
           id="path1447"
           inkscape:connector-curvature="0" />
        <path
           d="m -329.80226,-16.187738 -2.43365,0.600616 2.63568,10.6795681 6.11001,-1.507929 -0.52714,-2.1359137 -3.67636,0.9073133 z"
           style="font-size:13.33333302px;letter-spacing:0.95999998px;word-spacing:5.32999992px;fill:#781724;fill-opacity:1"
           id="path1449"
           inkscape:connector-curvature="0" />
        <path
           d="m -323.81792,-18.206624 -2.26962,1.064044 4.66934,9.9597813 5.6982,-2.6714297 -0.93387,-1.9919566 -3.42858,1.607386 z"
           style="font-size:13.33333302px;letter-spacing:0.95999998px;word-spacing:5.32999992px;fill:#781724;fill-opacity:1"
           id="path1451"
           inkscape:connector-curvature="0" />
      </g>
      <g
         aria-label="CLUB"
         transform="rotate(-105.60788,-175.25355,-36.91169)"
         style="font-style:normal;font-variant:normal;font-weight:normal;font-stretch:normal;font-size:37.33333206px;line-height:1.25;font-family:'League Spartan';-inkscape-font-specification:'League Spartan';letter-spacing:0.95999998px;word-spacing:0px;fill:#781724;fill-opacity:1;stroke:none"
         id="text1386-0">
        <path
           d="m -374.66065,-31.68271 c -0.87304,-2.363937 0.39457,-4.01181 1.78291,-4.524548 1.37584,-0.508118 3.41024,-0.07973 4.28328,2.28421 0.44345,1.200731 0.11043,2.261815 0.11043,2.261815 l 2.37076,0.261528 c 0,0 0.52561,-1.501763 -0.30124,-3.740625 -1.0809,-2.926781 -4.46627,-4.704004 -7.43057,-3.609241 -2.9518,1.090144 -4.33972,4.64443 -3.26343,7.558703 0.82684,2.238862 2.20239,3.038498 2.20239,3.038498 l 1.63168,-1.739689 c 0,0 -0.94276,-0.58992 -1.38621,-1.790651 z"
           style="font-size:13.33333302px;letter-spacing:0.95999998px;word-spacing:5.32999992px;fill:#781724;fill-opacity:1"
           id="path1428"
           inkscape:connector-curvature="0" />
        <path
           d="m -364.02666,-30.162098 -1.37679,-2.094719 -9.19225,6.041734 3.45661,5.259081 1.83845,-1.208347 -2.07982,-3.164362 z"
           style="font-size:13.33333302px;letter-spacing:0.95999998px;word-spacing:5.32999992px;fill:#781724;fill-opacity:1"
           id="path1430"
           inkscape:connector-curvature="0" />
        <path
           d="m -356.07626,-21.295802 -1.81118,-1.732909 -4.3968,4.59541 c -1.27203,1.329489 -2.04536,1.327709 -2.93169,0.47969 -0.88632,-0.848019 -0.92225,-1.620518 0.34978,-2.950007 l 4.3968,-4.59541 -1.81119,-1.732908 -4.90376,5.125278 c -1.88039,1.965332 -1.76002,3.999638 0.26312,5.935334 2.02313,1.935696 4.06077,1.966133 5.94116,8.01e-4 z"
           style="font-size:13.33333302px;letter-spacing:0.95999998px;word-spacing:5.32999992px;fill:#781724;fill-opacity:1"
           id="path1432"
           inkscape:connector-curvature="0" />
        <path
           d="m -356.16662,-21.463037 -5.49751,9.527717 3.61476,2.0857218 c 1.97483,1.1394835 3.74454,0.7136022 4.6508,-0.8570278 0.88626,-1.535983 0.42303,-2.680708 -0.64654,-3.574941 1.0483,0.0507 1.86255,-0.480068 2.36898,-1.357773 1.0462,-1.813154 0.10591,-3.171566 -1.53401,-4.117803 z m 0.0188,4.983011 1.18613,-2.055677 0.17323,0.09996 c 0.947,0.546419 1.27701,1.121674 0.88385,1.803051 -0.45979,0.796863 -1.13453,0.792381 -2.06997,0.252626 z m -2.37892,4.122903 1.29941,-2.252005 0.68138,0.393155 c 1.02784,0.593064 1.41381,1.231399 0.90737,2.109104 -0.43314,0.750669 -1.17894,0.735966 -2.20678,0.142902 z"
           style="font-size:13.33333302px;letter-spacing:0.95999998px;word-spacing:5.32999992px;fill:#781724;fill-opacity:1"
           id="path1434"
           inkscape:connector-curvature="0" />
      </g>
    </g>
  </g>
</svg>
