<?xml version="1.0" encoding="UTF-8" standalone="no"?>
<!-- Created with Inkscape (http://www.inkscape.org/) -->

<svg
   xmlns:dc="http://purl.org/dc/elements/1.1/"
   xmlns:cc="http://creativecommons.org/ns#"
   xmlns:rdf="http://www.w3.org/1999/02/22-rdf-syntax-ns#"
   xmlns:svg="http://www.w3.org/2000/svg"
   xmlns="http://www.w3.org/2000/svg"
   xmlns:sodipodi="http://sodipodi.sourceforge.net/DTD/sodipodi-0.dtd"
   xmlns:inkscape="http://www.inkscape.org/namespaces/inkscape"
   width="256"
   height="256"
   viewBox="0 0 67.733333 67.733333"
   version="1.1"
   id="svg8"
   inkscape:version="0.92.4 (5da689c313, 2019-01-14)"
   sodipodi:docname="webbos.svg">
  <defs
     id="defs2" />
  <sodipodi:namedview
     id="base"
     pagecolor="#ffffff"
     bordercolor="#666666"
     borderopacity="1.0"
     inkscape:pageopacity="0.0"
     inkscape:pageshadow="2"
     inkscape:zoom="0.7"
     inkscape:cx="128.05643"
     inkscape:cy="129.73137"
     inkscape:document-units="mm"
     inkscape:current-layer="layer1"
     showgrid="false"
     units="px"
     inkscape:window-width="1366"
     inkscape:window-height="705"
     inkscape:window-x="-8"
     inkscape:window-y="-8"
     inkscape:window-maximized="1" />
  <metadata
     id="metadata5">
    <rdf:RDF>
      <cc:Work
         rdf:about="">
        <dc:format>image/svg+xml</dc:format>
        <dc:type
           rdf:resource="http://purl.org/dc/dcmitype/StillImage" />
        <dc:title></dc:title>
      </cc:Work>
    </rdf:RDF>
  </metadata>
  <g
     inkscape:label="Camada 1"
     inkscape:groupmode="layer"
     id="layer1"
     transform="translate(0,-229.26665)">
    <g
       id="g940"
       transform="translate(52.570605,2.3524754)">
      <g
         transform="matrix(4.8754537,0,0,4.8754537,0.02657804,-1141.4105)"
         id="g868">
        <path
           style="fill:#ffffff;fill-opacity:1;stroke:#162039;stroke-width:0.79374999;stroke-linecap:butt;stroke-linejoin:miter;stroke-miterlimit:4;stroke-dasharray:none;stroke-opacity:1"
           d="m -3.8417997,283.9738 c -1.2051521,-0.0155 -2.3557215,0.29491 -3.4742065,0.79944 l 0.1002522,5.84615 c 0.3123001,1.47881 1.1972914,2.73974 3.3739543,3.50831 2.176663,-0.76857 3.0616543,-2.0295 3.3739542,-3.50831 l 0.1002525,-5.84615 c -1.1184848,-0.50453 -2.269055,-0.81492 -3.4742067,-0.79944 z"
           id="path826-5"
           inkscape:connector-curvature="0" />
        <path
           style="fill:#162039;fill-opacity:1;stroke:#ffffff;stroke-width:0.26458332px;stroke-linecap:butt;stroke-linejoin:miter;stroke-opacity:1"
           d="m -3.8417996,283.9818 c -1.2051521,-0.0155 -2.3557215,0.29491 -3.4742065,0.79944 l 0.1002522,5.84615 c 0.3123001,1.47881 1.1972914,2.73974 3.3739543,3.50831 2.176663,-0.76857 3.06165424,-2.0295 3.37395422,-3.50831 l 0.10025229,-5.84615 C -1.4860778,284.27671 -2.6366479,283.96632 -3.8417996,283.9818 Z"
           id="path826"
           inkscape:connector-curvature="0" />
      </g>
      <g
         id="g921">
        <path
           style="opacity:1;fill:#ffffff;fill-opacity:1;fill-rule:evenodd;stroke:#162039;stroke-width:3.86989141;stroke-linecap:butt;stroke-linejoin:round;stroke-miterlimit:4;stroke-dasharray:none;stroke-opacity:1;paint-order:stroke fill markers"
           d="m -9.1482016,273.41725 c -7.4526604,12.90838 6.111151,-8.1918 -6.7972334,-0.73914 -12.908384,7.45266 12.1468144,6.25614 -2.758504,6.25614 -14.905318,0 10.1498814,1.19652 -2.758503,-6.25614 -12.908384,-7.45266 0.655425,13.64752 -6.797233,0.73914 -7.452658,-12.90839 4.038729,9.38831 4.038729,-5.51701 0,-14.90532 -11.491388,7.39137 -4.038729,-5.51701 7.45266,-12.90838 -6.111151,8.1918 6.797233,0.73914 12.9083844,-7.45266 -12.146814,-6.25615 2.758504,-6.25615 14.9053184,10e-6 -10.149881,-1.19651 2.758503,6.25615 12.9083844,7.45266 -0.655425,-13.64752 6.7972334,-0.73914 7.452658,12.90839 -4.0387294,-9.38831 -4.0387294,5.51701 0,14.90532 11.4913884,-7.39138 4.0387294,5.51701 z"
           id="path870"
           inkscape:connector-curvature="0" />
        <g
           aria-label="5709"
           style="font-style:normal;font-variant:normal;font-weight:normal;font-stretch:normal;font-size:9.8777771px;line-height:1.25;font-family:'League Spartan';-inkscape-font-specification:'League Spartan';letter-spacing:0px;word-spacing:0px;fill:#000000;fill-opacity:1;stroke:none;stroke-width:0.26458332"
           id="text875"
           transform="translate(0.0293815)">
          <path
             d="m -26.358082,285.51715 c 0.174977,0.47414 0.666044,1.01036 1.659466,1.01036 0.999067,0 1.7272,-0.63782 1.7272,-1.52965 0,-1.29257 -0.857955,-1.63124 -1.738489,-1.63689 -0.04516,0 -0.09031,0.006 -0.129822,0.006 l 0.1016,-0.64911 h 1.467556 v -0.93134 h -2.376311 l -0.389467,2.50614 c 0.141111,-0.0621 0.4064,-0.14676 0.795867,-0.14676 0.603955,0 1.207911,0.2032 1.207911,0.81845 0,0.39511 -0.282223,0.67733 -0.666045,0.67733 -0.485422,0 -0.733778,-0.24271 -0.818444,-0.53058 z"
             style="font-size:5.64444447px;fill:#ffffff;stroke-width:0.26458332"
             id="path899"
             inkscape:connector-curvature="0" />
          <path
             d="m -18.819221,281.78617 h -3.572934 v 0.93134 h 2.003778 l -2.144889,3.72533 h 1.253067 l 2.460978,-4.34622 z"
             style="font-size:5.64444447px;fill:#ffffff;stroke-width:0.26458332"
             id="path901"
             inkscape:connector-curvature="0" />
          <path
             d="m -18.80511,284.11733 c 0,1.7272 0.897466,2.41018 1.896533,2.41018 0.999067,0 1.890889,-0.68298 1.890889,-2.41018 0,-1.61431 -0.891822,-2.41582 -1.890889,-2.41582 -0.999067,0 -1.896533,0.80151 -1.896533,2.41582 z m 1.072444,0 c 0,-0.93698 0.310445,-1.48449 0.824089,-1.48449 0.508,0 0.818444,0.54187 0.818444,1.48449 0,1.00471 -0.310444,1.47884 -0.818444,1.47884 -0.513644,0 -0.824089,-0.47413 -0.824089,-1.47884 z"
             style="font-size:5.64444447px;fill:#ffffff;stroke-width:0.26458332"
             id="path903"
             inkscape:connector-curvature="0" />
          <path
             d="m -14.246869,286.44284 h 1.309512 l 1.095022,-1.30387 c 0.485422,-0.6604 0.733778,-1.03857 0.733778,-1.85702 0,-0.89182 -0.8128,-1.58044 -1.857023,-1.58044 -0.841022,0 -1.7272,0.47978 -1.7272,1.58044 0,1.08374 0.846667,1.63125 1.484489,1.63125 0.214489,0 0.333022,-0.0677 0.333022,-0.0677 z m 2.037645,-3.16089 c 0,0.41769 -0.316089,0.72249 -0.705556,0.72249 -0.400755,0 -0.716844,-0.3048 -0.716844,-0.72249 0,-0.4064 0.3048,-0.70555 0.716844,-0.70555 0.412045,0 0.705556,0.29915 0.705556,0.70555 z"
             style="font-size:5.64444447px;fill:#ffffff;stroke-width:0.26458332"
             id="path905"
             inkscape:connector-curvature="0" />
        </g>
        <g
           aria-label="   WEBBOS"
           transform="translate(34.611404,7.2162773)"
           style="font-style:normal;font-variant:normal;font-weight:normal;font-stretch:normal;font-size:6.3650918px;line-height:1.25;font-family:'League Spartan';-inkscape-font-specification:'League Spartan';letter-spacing:0px;word-spacing:0px;fill:#ffff00;fill-opacity:1;stroke:none;stroke-width:0.17049353"
           id="text879">
          <path
             inkscape:connector-curvature="0"
             d="m -62.039798,244.19869 1.132163,-0.31078 0.04644,-4.84168 -1.132163,0.31078 0.07822,3.29147 -0.02722,0.007 -1.662159,-2.85666 -0.772919,0.21217 0.02923,3.30491 -0.02722,0.007 -1.613171,-2.87011 -1.137606,0.31228 2.51181,4.13942 1.137606,-0.31228 0.02669,-2.71738 z"
             style="font-size:5.64444447px;fill:#ffffff"
             id="path886" />
          <path
             inkscape:connector-curvature="0"
             d="m -57.369413,238.61309 -2.637519,0.37595 0.657117,4.61007 2.637519,-0.37595 -0.131424,-0.92202 -1.586981,0.22621 -0.13222,-0.9276 1.519926,-0.21665 -0.131423,-0.92202 -1.519926,0.21665 -0.130627,-0.91642 1.586981,-0.22621 z"
             style="font-size:5.64444447px;fill:#ffffff"
             id="path888" />
          <path
             inkscape:connector-curvature="0"
             d="m -56.313918,238.50523 0.21012,4.65193 1.764912,-0.0797 c 0.964217,-0.0435 1.498507,-0.5988 1.463868,-1.36567 -0.03387,-0.74994 -0.460016,-1.05276 -1.045386,-1.12802 0.38554,-0.22082 0.555062,-0.59574 0.535705,-1.02428 -0.03999,-0.88528 -0.685019,-1.1556 -1.485713,-1.11944 z m 1.14234,1.77342 -0.04534,-1.00369 0.08458,-0.004 c 0.462373,-0.0209 0.711204,0.10913 0.726231,0.44182 0.01757,0.38907 -0.224162,0.54124 -0.680896,0.56187 z m 0.09092,2.01302 -0.04967,-1.09955 0.332683,-0.015 c 0.501844,-0.0227 0.785016,0.1171 0.804373,0.54564 0.01656,0.36652 -0.252864,0.53124 -0.754708,0.55391 z"
             style="font-size:5.64444447px;fill:#ffffff"
             id="path890" />
          <path
             inkscape:connector-curvature="0"
             d="m -52.076893,238.37435 -0.268403,4.64892 1.763774,0.10183 c 0.963596,0.0556 1.552048,-0.44185 1.596294,-1.20822 0.04327,-0.74946 -0.349545,-1.09441 -0.924101,-1.22935 0.406167,-0.18009 0.613271,-0.53563 0.637996,-0.9639 0.05108,-0.8847 -0.562806,-1.2198 -1.362985,-1.266 z m 0.954308,1.88129 0.05791,-1.00304 0.08453,0.005 c 0.462075,0.0267 0.69625,0.18154 0.677055,0.51401 -0.02245,0.38882 -0.278525,0.51538 -0.734964,0.48903 z m -0.116145,2.01171 0.06344,-1.09883 0.332469,0.0192 c 0.50152,0.029 0.768854,0.19704 0.744128,0.62531 -0.02115,0.36628 -0.306048,0.50248 -0.807569,0.47353 z"
             style="font-size:5.64444447px;fill:#ffffff"
             id="path892" />
          <path
             inkscape:connector-curvature="0"
             d="m -48.395744,240.91662 c -0.232607,1.34027 0.54345,2.54625 1.90041,2.78175 1.318031,0.22875 2.488433,-0.63942 2.72104,-1.97969 0.232608,-1.34028 -0.622273,-2.55421 -1.895814,-2.77523 -1.262418,-0.2191 -2.493028,0.63289 -2.725636,1.97317 z m 1.128946,0.19593 c 0.118717,-0.68404 0.615603,-1.30245 1.421993,-1.1625 0.811952,0.14091 1.060282,0.88866 0.941565,1.5727 -0.118717,0.68404 -0.582235,1.30824 -1.416431,1.16346 -0.856442,-0.14864 -1.065843,-0.88962 -0.947127,-1.57366 z"
             style="font-size:5.64444447px;fill:#ffffff"
             id="path894" />
          <path
             inkscape:connector-curvature="0"
             d="m -40.773303,240.078 c -0.721925,-0.20589 -1.611843,0.11552 -1.850244,0.95143 -0.133133,0.46681 0.06249,0.97455 0.524009,1.39378 0.45609,0.41769 0.891957,0.70047 0.799074,1.02615 -0.1192,0.41796 -0.548777,0.31892 -0.771326,0.25545 -0.499376,-0.14242 -0.952488,-0.81751 -0.952488,-0.81751 l -0.754826,0.71211 c 0,0 0.466339,0.77277 1.513945,1.07155 0.873909,0.24924 1.794926,0.10691 2.099893,-0.96241 0.16719,-0.58622 -0.26029,-1.16596 -0.699292,-1.52007 -0.448311,-0.36264 -0.82061,-0.66251 -0.749399,-0.9122 0.06966,-0.24426 0.299108,-0.34904 0.646501,-0.24996 0.461381,0.13158 0.818238,0.56792 0.818238,0.56792 l 0.644737,-0.69655 c 0,0 -0.45462,-0.58748 -1.268822,-0.81969 z"
             style="font-size:5.64444447px;fill:#ffffff"
             id="path896" />
        </g>
      </g>
    </g>
  </g>
</svg>
